<svg width="149" height="48" viewBox="0 0 149 48" fill="none" xmlns="http://www.w3.org/2000/svg">
<g clip-path="url(#clip0_173_352)">
<path d="M14.8276 33.651C10.8598 30.0357 7.37414 25.8991 5.22876 21.7602L5.5125 21.5589C7.90241 24.7603 10.9405 27.9022 14.2209 30.7537C13.8658 28.5496 13.6616 26.3241 13.6096 24.0926C13.5199 21.2865 13.682 18.4781 14.094 15.7004C5.99694 17.587 -0.160062 21.6847 -0.000888959 26.1003C0.578606 31.9209 3.28149 37.3316 7.60034 41.3167C11.9192 45.3018 17.557 47.5872 23.4552 47.7439C19.7274 45.8962 16.4862 40.8838 14.8253 33.651" fill="#00669B"/>
<path d="M33.7478 10.6812C32.5275 6.90589 30.3868 1.04509 25.5239 1.32407C22.811 1.44526 19.9344 6.06439 18.2734 12.5289C20.0574 12.3764 21.8398 12.2956 23.6207 12.2865C33.5056 12.2064 42.9038 13.734 47.2776 17.2669C46.1033 13.1351 43.8289 9.39271 40.693 6.4323C37.5571 3.47189 33.6753 1.40256 29.4548 0.441406C31.4802 2.77155 33.1458 6.58575 34.1123 10.7315L33.7478 10.6812Z" fill="#00669B"/>
<path d="M29.572 47.8237C31.4919 47.3806 33.3541 46.7208 35.1223 45.8571C30.5847 45.1711 24.144 41.7617 18.1484 37.0625C20.1346 44.6086 23.9433 48.9533 29.572 47.8237Z" fill="#00669B"/>
<path d="M21.0276 0C15.9647 0.630796 11.2338 2.83619 7.51463 6.29934C3.79547 9.76248 1.27947 14.3051 0.328125 19.2745C3.97296 15.8216 9.07804 13.894 14.5868 12.9701C15.8418 7.06817 18.2247 2.41018 21.0276 0Z" fill="#00669B"/>
<path d="M41.0404 40.797C45.1741 36.7485 47.6918 31.355 48.1294 25.6111C45.901 27.6988 41.8109 29.4253 37.0703 30.5892C39.6632 34.2479 41.2019 37.8563 41.0404 40.7879" fill="#00669B"/>
<path d="M23.5773 14.6164C21.6129 14.6271 19.6512 14.7615 17.7041 15.0188C17.0801 18.2328 16.8086 21.5043 16.8943 24.7762C16.9589 27.7091 17.2295 30.634 17.7041 33.5296C26.1702 39.9941 35.0839 43.8884 37.2293 41.3593C38.8441 39.4728 37.8383 35.4573 35.2454 30.9182C32.6434 31.4591 30.0022 31.7948 27.3467 31.9221L27.2637 31.602C29.7666 31.2233 32.2429 30.6887 34.6779 30.0013C32.0442 25.8476 28.8251 22.0884 25.1183 18.8376L25.349 18.5952C29.5295 21.6963 33.2404 25.3748 36.3688 29.5188C41.8776 27.7512 46.0092 25.2221 46.0092 22.2014C46.0092 17.7446 37.34 14.6118 23.5658 14.6118" fill="#00669B"/>
<path d="M60.7695 8.87695H72.546V11.6782H64.2414V16.4802H71.2796V19.2883H64.2437V24.8449H72.8482V27.6461H60.7695V8.87695Z" fill="#585E66"/>
<path d="M76.7734 19.4163V8.87695H80.2337V19.6656C80.2337 23.7519 81.8255 25.0942 84.1946 25.0942C86.5637 25.0942 88.2408 23.7519 88.2408 19.6656V8.87695H91.5812V19.4163C91.5812 25.5904 88.7345 27.9914 84.1992 27.9914C79.6639 27.9914 76.7734 25.579 76.7734 19.4163Z" fill="#585E66"/>
<path d="M96.4648 8.87695H99.9367V17.4063H100.031L106.998 8.87695H110.85L104.832 16.1944L111.868 27.6393H108.038L102.749 18.8172L99.9367 22.1809V27.669H96.4648V8.87695Z" fill="#585E66"/>
<path d="M112.574 18.1862C112.574 12.115 116.106 8.53174 121.204 8.53174C126.302 8.53174 129.832 12.131 129.832 18.1862C129.832 24.2413 126.302 27.9915 121.204 27.9915C116.106 27.9915 112.574 24.2596 112.574 18.1862ZM126.265 18.1862C126.265 13.9741 124.279 11.4267 121.204 11.4267C118.129 11.4267 116.129 13.9741 116.129 18.1862C116.129 22.3983 118.115 25.0966 121.204 25.0966C124.293 25.0966 126.272 22.4097 126.272 18.1862H126.265Z" fill="#585E66"/>
<path d="M133.777 8.87695H140.373C144.442 8.87695 147.577 10.249 147.577 14.4451C147.577 18.4788 144.442 20.3104 140.373 20.3104H137.258V27.6461H133.777V8.87695ZM140.006 17.6464C142.686 17.6464 144.147 16.5808 144.147 14.4451C144.147 12.3093 142.686 11.541 140.006 11.541H137.258V17.6464H140.006ZM139.713 19.4209L142.225 17.4361L148.336 27.6461H144.442L139.713 19.4209Z" fill="#585E66"/>
<path d="M60.7695 35.4438H61.7176L62.472 39.2055C62.6104 39.9486 62.7557 40.6918 62.8941 41.4327H62.938C63.0972 40.6918 63.2702 39.9441 63.4432 39.2055L64.442 35.4438H65.2817L66.2806 39.2055C66.4536 39.9372 66.6266 40.6872 66.7997 41.4327H66.8435C66.9842 40.6872 67.1134 39.9418 67.2518 39.2055L67.9992 35.4438H68.8851L67.3948 42.3542H66.2922L65.2033 38.1879C65.0787 37.6482 64.9726 37.1451 64.8573 36.6123H64.8204C64.7073 37.1451 64.5897 37.6482 64.4582 38.1879L63.3924 42.3405H62.3059L60.7695 35.4438Z" fill="#585E66"/>
<path d="M69.6523 39.7886C69.6523 38.1216 70.8219 37.0972 72.0492 37.0972C73.4102 37.0972 74.1784 38.0347 74.1784 39.4982C74.1797 39.663 74.1658 39.8276 74.1369 39.9898H70.5451C70.6097 41.0737 71.2994 41.7757 72.3168 41.7757C72.7902 41.7736 73.2522 41.6311 73.6432 41.3664L73.9662 41.9358C73.4442 42.2789 72.8324 42.4633 72.206 42.4663C70.785 42.4732 69.6523 41.4762 69.6523 39.7886ZM73.3802 39.3701C73.3802 38.3434 72.9004 37.7855 72.0653 37.7855C71.3156 37.7855 70.6466 38.364 70.5359 39.3701H73.3802Z" fill="#585E66"/>
<path d="M77.3047 39.7882C77.3047 38.1281 78.3958 37.0968 79.6115 37.0968C80.2321 37.0968 80.6381 37.3255 81.1064 37.6891L81.0672 36.811V34.8398H81.9715V42.3402H81.224L81.1479 41.7365H81.1179C80.6942 42.1763 80.1159 42.4375 79.5031 42.466C78.1675 42.4728 77.3047 41.4987 77.3047 39.7882ZM81.0672 41.0391V38.3636C80.7176 38.0285 80.2524 37.838 79.7661 37.8308C78.9149 37.8308 78.2367 38.6198 78.2367 39.786C78.2367 41.0139 78.7649 41.7434 79.6992 41.7434C80.1929 41.7434 80.6196 41.5124 81.0672 41.0459V41.0391Z" fill="#585E66"/>
<path d="M83.3828 39.7884C83.3828 38.1214 84.5524 37.0969 85.7796 37.0969C87.1407 37.0969 87.9089 38.0345 87.9089 39.498C87.9107 39.6629 87.896 39.8276 87.865 39.9896H84.2733C84.3378 41.0735 85.0299 41.7755 86.0472 41.7755C86.5206 41.7731 86.9825 41.6306 87.3737 41.3662L87.6966 41.9356C87.1746 42.2787 86.5628 42.4631 85.9365 42.4661C84.5132 42.4729 83.3828 41.4759 83.3828 39.7884ZM87.1107 39.3699C87.1107 38.3432 86.6309 37.7852 85.7958 37.7852C85.0461 37.7852 84.3748 38.3638 84.2663 39.3699H87.1107Z" fill="#585E66"/>
<path d="M89.2188 41.3185V34.8472H90.1207V41.3894C90.1207 41.6547 90.2407 41.7598 90.3722 41.7598C90.439 41.7611 90.5058 41.7534 90.5706 41.737L90.6928 42.4001C90.5258 42.4564 90.3502 42.4834 90.1738 42.4802C89.5048 42.4733 89.2188 42.0594 89.2188 41.3185Z" fill="#585E66"/>
<path d="M91.8516 35.6175C91.8678 35.4647 91.9406 35.3233 92.0558 35.2205C92.171 35.1177 92.3205 35.0608 92.4756 35.0608C92.6306 35.0608 92.7801 35.1177 92.8953 35.2205C93.0106 35.3233 93.0833 35.4647 93.0996 35.6175C93.0833 35.7704 93.0106 35.9118 92.8953 36.0146C92.7801 36.1174 92.6306 36.1743 92.4756 36.1743C92.3205 36.1743 92.171 36.1174 92.0558 36.0146C91.9406 35.9118 91.8678 35.7704 91.8516 35.6175ZM92.0177 37.2297H92.9196V42.3473H92.0177V37.2297Z" fill="#585E66"/>
<path d="M93.9492 37.2295H94.872L95.8801 40.1359C96.0392 40.6367 96.2145 41.1557 96.3737 41.6451H96.4268C96.586 41.1557 96.759 40.6367 96.9181 40.1359L97.9262 37.2295H98.8098L96.9251 42.3471H95.8731L93.9492 37.2295Z" fill="#585E66"/>
<path d="M99.4023 39.7886C99.4023 38.1216 100.572 37.0972 101.799 37.0972C103.16 37.0972 103.926 38.0347 103.926 39.4982C103.927 39.663 103.913 39.8276 103.885 39.9898H100.293C100.357 41.0737 101.049 41.7757 102.064 41.7757C102.539 41.7732 103.001 41.6307 103.393 41.3664L103.716 41.9358C103.193 42.2792 102.581 42.4636 101.954 42.4663C100.533 42.4732 99.4023 41.4762 99.4023 39.7886ZM103.13 39.3701C103.13 38.3434 102.648 37.7855 101.815 37.7855C101.066 37.7855 100.394 38.364 100.286 39.3701H103.13Z" fill="#585E66"/>
<path d="M105.242 37.2298H105.987L106.063 38.1605H106.093C106.465 37.5133 107.016 37.104 107.609 37.104C107.805 37.0946 108 37.1306 108.179 37.2092L108.01 37.9684C107.844 37.9115 107.67 37.8828 107.494 37.8838C107.032 37.8838 106.504 38.1948 106.144 39.0614V42.3474H105.242V37.2298Z" fill="#585E66"/>
</g>
<defs>
<clipPath id="clip0_173_352">
<rect width="149" height="48" fill="white"/>
</clipPath>
</defs>
</svg>
