<svg width="216" height="48" viewBox="0 0 216 48" fill="none" xmlns="http://www.w3.org/2000/svg">
<g clip-path="url(#clip0_173_377)">
<path fill-rule="evenodd" clip-rule="evenodd" d="M65.7305 34.6847V13.5833H71.306L78.409 29.3514L85.3592 13.5833H90.782V34.6847H86.123V22.3948L80.853 34.6847H75.8885L70.5422 22.4721V34.6847H65.7305Z" fill="#141414"/>
<path fill-rule="evenodd" clip-rule="evenodd" d="M109.341 26.4915L105.446 17.5253L101.703 26.4915H109.341ZM98.2665 34.6847H92.8438L102.162 13.5833H108.806L118.201 34.6847H112.854L111.021 30.5108H100.023L98.2665 34.6847Z" fill="#141414"/>
<path fill-rule="evenodd" clip-rule="evenodd" d="M120.418 34.6847V13.5833H140.429V17.7572H125.23V21.9311H138.29V26.105H125.23V30.4335H140.505V34.6847H120.418Z" fill="#141414"/>
<path fill-rule="evenodd" clip-rule="evenodd" d="M149.287 23.2451H159.827V17.7572H149.287V23.2451ZM144.398 34.6847V13.5833H161.201C163.416 13.5833 164.715 14.8973 164.715 17.1388V24.2499C164.715 25.8731 163.263 27.3417 160.514 27.3417C160.361 27.3417 160.208 27.3417 160.056 27.3417L164.944 34.6847H159.521L154.862 27.4963H149.287V34.6847H144.398Z" fill="#141414"/>
<path fill-rule="evenodd" clip-rule="evenodd" d="M173.576 34.6846H171.895C169.757 34.6846 168.688 33.4479 168.688 31.5928V28.8102H173.576V30.4334H183.963V26.1049C183.963 26.1049 173.957 26.1049 172.048 26.1049C170.139 26.1049 168.764 24.7909 168.764 23.0131V16.7522C168.764 14.8199 170.291 13.5059 172.048 13.5059C173.881 13.5059 185.643 13.5059 185.643 13.5059C187.476 13.5059 188.775 14.8972 188.775 16.9068C188.775 18.9165 188.775 19.4576 188.775 19.4576H183.963V17.7571H173.576V21.931H185.414C187.171 21.931 188.775 23.0904 188.775 25.3319V31.3609C188.775 33.4479 187.629 34.6846 185.49 34.6846C183.428 34.6846 173.576 34.6846 173.576 34.6846Z" fill="#141414"/>
<path fill-rule="evenodd" clip-rule="evenodd" d="M193.508 34.6847V13.5833H198.472V22.0084L207.943 13.5833H214.74L203.437 23.3997L215.122 34.6847H208.172L198.472 25.1002V34.6847H193.508Z" fill="#141414"/>
<path d="M5.54383 0H39.8369C42.8156 0 45.2596 2.47343 45.2596 5.48792V42.5121C45.2596 45.5266 42.8156 48 39.8369 48H5.54383C2.56514 48 0.121094 45.5266 0.121094 42.5121V5.48792C0.121094 4.01932 0.65573 2.62802 1.725 1.62319C2.79427 0.618358 4.09267 0 5.54383 0Z" fill="#42B0D5"/>
<path d="M29.9071 22.6473L38.8431 11.4396L25.9355 17.6231L22.7277 3.63281L19.5198 17.6231L6.61221 11.4396L15.5483 22.6473L2.64062 28.9082H16.923L13.7916 42.8985L22.7277 31.6908L31.6637 42.8985L28.4559 28.9082H42.8147L29.9071 22.6473Z" fill="white"/>
</g>
<defs>
<clipPath id="clip0_173_377">
<rect width="215" height="48" fill="white" transform="translate(0.121094)"/>
</clipPath>
</defs>
</svg>
