<svg width="200" height="48" viewBox="0 0 200 48" fill="none" xmlns="http://www.w3.org/2000/svg">
<g clip-path="url(#clip0_173_394)">
<path d="M45.64 1H46.3927C51.1988 1.28325 54.9336 2.98272 57.7419 5.19204C58.1472 5.47529 58.6105 5.75853 58.9 6.21173C55.7153 7.62796 52.5306 9.10084 49.3458 10.5454C48.8537 10.7437 48.2746 11.1119 47.8982 11.1119C47.4929 11.1119 47.0297 10.9703 46.6823 10.9136C43.3238 10.5454 41.2393 11.9899 39.01 12.9813C34.0013 15.2473 28.4715 17.6832 23.4918 19.9775C22.2758 20.544 20.8861 21.1105 19.8728 21.9602C19.3516 22.3851 18.8594 22.8949 18.4252 23.3764C18.1356 23.7447 17.7593 24.7077 17.325 25.0193C17.0355 25.3025 16.3985 25.3875 15.9353 25.5858C12.7506 27.002 9.45006 28.6448 6.43906 29.8911C6.32325 24.2262 8.06037 20.2607 10.5502 17.145C11.1293 16.4369 11.882 15.6438 12.5769 15.0207C15.0667 12.9813 17.8172 11.7633 20.7992 10.3471C24.8525 8.50602 28.6162 6.86319 32.5827 5.05042C36.4333 3.26597 40.2549 1.08497 45.611 1" fill="#12427D"/>
<path d="M70.7998 2.58618C70.8867 6.26838 70.7998 10.0922 70.7998 13.8027C64.054 16.9184 56.9898 20.0908 50.0413 23.2348C48.3042 24.0846 46.2775 25.2175 43.9035 24.3678C42.2243 23.7447 41.0083 22.3851 40.6319 20.7423C40.1687 18.6746 40.9793 16.8901 42.2243 15.7854C43.2665 14.8507 45.2932 14.1709 46.8566 13.4628C53.226 10.5454 59.4796 7.79791 65.878 4.85215C67.5283 4.08739 69.1785 3.2943 70.7998 2.58618Z" fill="#12427D"/>
<path d="M64.7475 18.4197C64.8054 18.4197 64.8054 18.4197 64.8054 18.4763C65.0949 23.9147 63.1551 27.7668 60.8969 30.8542C60.3757 31.534 59.7388 32.0721 59.2176 32.667C56.4383 35.641 52.1244 37.1989 48.0132 39.0117C44.8285 40.4845 41.6438 42.0141 38.3722 43.4586C36.7799 44.1384 35.1875 44.9315 33.4504 45.583C31.7133 46.2628 29.9183 46.9426 27.9495 47.1408C22.275 47.7073 17.5268 46.0079 14.4 43.7419C14.0237 43.4586 13.6762 43.1754 13.3288 42.8921C13.0393 42.6089 12.605 42.4389 12.4023 42.0424C15.4713 40.7111 18.7718 39.2666 22.0144 37.7937C22.4776 37.5954 22.9988 37.2272 23.3751 37.1706C23.7805 37.1139 24.3305 37.3688 24.7648 37.3972C28.0074 37.6804 30.4105 36.0942 32.7266 35.0462C37.5616 32.8936 42.0781 30.7975 46.9131 28.6449C49.8083 27.3419 52.5876 26.0957 53.8615 23.2632C57.4805 21.7053 61.0995 20.0342 64.7185 18.3914" fill="#12427D"/>
<path d="M0.532858 45.6397V34.5364C7.10495 31.3641 14.4877 28.1351 21.3783 24.991C22.71 24.4245 23.6944 23.7164 25.2289 23.5748C26.329 23.5181 27.545 23.858 28.2978 24.2829C29.8322 25.1326 31.0772 27.0587 30.7876 29.3247C30.4402 32.4404 27.8345 33.2901 25.2868 34.4231C17.1802 38.1053 8.43674 42.1557 0.503906 45.6397" fill="#12427D"/>
<path d="M86.519 24.6793C85.7373 30.6841 87.3876 36.8022 92.6858 37.0288C95.581 37.1705 97.2312 35.8109 98.3314 33.9131C100.358 30.3726 100.358 23.0365 98.1288 19.7508C97.1733 18.3346 95.5231 17.0883 92.57 17.3432C88.6036 17.6831 87.0691 21.0254 86.5769 24.7076L86.519 24.6793ZM93.8149 38.7283H92.541C86.0558 38.1618 82.5237 34.7062 81.8867 28.4182V26.5771C82.1183 21.4786 84.7819 17.9381 88.5457 16.4652C90.775 15.6154 93.4675 15.4172 95.8995 15.8987C98.2156 16.3519 99.9527 17.3716 101.458 18.7878C104.411 21.6769 105.164 27.2852 103.572 31.6472C102.124 35.7542 99.0263 38.3034 93.786 38.7283" fill="#12427D"/>
<path d="M119.526 34.4796C121.205 32.7801 122.132 30.2309 122.132 27.0586C122.334 20.6289 118.773 16.6634 111.564 17.7681C111.332 23.7163 111.332 30.4292 111.564 36.349C115.241 36.9155 117.789 36.2924 119.555 34.4796H119.526ZM107.163 15.8987C112.143 16.2669 117.789 15.2189 121.35 17.0317C124.679 18.6745 126.735 22.1867 126.503 27.0586C126.272 31.9871 124.477 35.1594 121.118 36.9722C119.265 37.9919 117.239 38.2468 114.575 38.2468C112.143 38.2468 109.595 37.9069 107.105 38.2468C107.395 31.024 107.482 23.2348 107.105 16.0403C107.105 15.9837 107.105 15.927 107.163 15.927" fill="#12427D"/>
<path d="M142.195 15.8987C142.05 16.5785 141.963 17.5415 142.195 18.2213C139.589 18.0514 136.897 17.9381 134.031 17.9381C133.944 20.3456 134.031 22.9798 134.031 25.4724C136.549 25.614 139.242 25.4724 141.674 25.3308C141.5 26.0106 141.529 26.832 141.674 27.5401C139.242 27.3701 136.636 27.3701 134.002 27.3985C134.002 30.9957 133.857 34.8762 134.175 38.2185C132.786 37.9352 130.991 37.9352 129.543 38.2185C130.035 31.1373 129.948 23.2064 129.543 16.012C129.543 16.012 129.543 15.927 129.543 15.8987C133.683 16.1819 138.084 16.1253 142.195 15.8987Z" fill="#12427D"/>
<path d="M144.048 38.6717H142.658C141.355 38.5584 140.197 38.2751 139.184 37.8219C139.386 37.0288 139.415 36.0658 139.415 34.9895C139.415 34.5646 139.328 34.2247 139.56 34.0831C139.907 33.8848 139.994 34.3097 140.284 34.7345C141.008 35.7259 142.021 36.7739 143.353 37.0005C147.059 37.482 146.827 34.2247 146.827 31.1373C146.827 26.1805 146.914 20.374 146.595 15.927C148.043 16.1536 149.78 16.2102 151.286 15.927C150.938 20.374 150.996 25.7556 150.996 30.5991C150.996 33.0067 150.706 35.2727 149.49 36.5473C148.275 37.9635 146.508 38.4734 143.99 38.7566" fill="#12427D"/>
<path d="M155.658 15.8987C159.653 16.1819 163.851 16.097 167.876 15.8987C167.673 16.5218 167.673 17.5982 167.876 18.1647C165.415 17.9664 162.838 17.8814 160.116 17.9381C160.001 20.374 160.116 23.0365 160.059 25.5291C162.462 25.6424 165.067 25.5291 167.297 25.3308C167.123 26.0389 167.094 26.917 167.297 27.5968C165.067 27.3985 162.548 27.3985 160.059 27.3985V36.1791C162.722 36.2641 165.444 36.0375 168.078 36.0092C167.847 36.5757 167.905 37.652 168.078 38.2185C164.025 37.9352 159.682 37.9919 155.629 38.2185C156.005 30.9957 156.092 23.0931 155.629 15.842" fill="#12427D"/>
<path d="M171.55 15.8987C172.911 16.1819 174.735 16.1819 176.182 15.8987C175.893 22.4133 175.719 29.4095 175.951 36.0658C178.701 36.2074 181.741 36.1508 184.289 35.8392C183.999 36.519 184.115 37.652 184.231 38.2468C180.033 38.0485 175.661 37.9636 171.492 38.2468C171.782 30.9674 171.782 23.0648 171.492 15.8704" fill="#12427D"/>
<path d="M198.709 35.8392V35.9242C198.477 36.4907 198.477 37.6237 198.709 38.1902V38.2468C194.482 38.0485 190.081 37.9636 185.883 38.2468C186.172 30.9957 186.172 23.0365 185.941 15.8704C187.273 16.2386 189.241 16.0403 190.573 15.9553C190.284 22.47 190.11 29.4378 190.341 36.1225C193.237 36.1225 196.132 36.1791 198.737 35.8392" fill="#12427D"/>
<path d="M198.709 35.9243V38.1903C198.477 37.6238 198.477 36.4908 198.709 35.9243Z" fill="#12427D"/>
</g>
<defs>
<clipPath id="clip0_173_394">
<rect width="199" height="48" fill="white" transform="translate(0.121094)"/>
</clipPath>
</defs>
</svg>
