<svg width="394" height="48" viewBox="0 0 394 48" fill="none" xmlns="http://www.w3.org/2000/svg">
<g clip-path="url(#clip0_173_330)">
<path d="M75.2454 11.5732L78.3485 26.2727L79.0088 30.3559L79.6938 26.3469L82.3183 11.5732H87.4764L90.2494 26.2727L90.9674 30.3559L91.669 26.4212L94.7721 11.5732H99.7487L93.204 37.2436H88.5163L85.6938 22.2225L84.885 17.2649L84.0596 22.2225L81.2289 37.2436H76.6979L70.0625 11.5732H75.2454Z" fill="#003D7C"/>
<path d="M105.542 11.5483H111.071L119.324 37.2022H114.026L112.491 31.923H103.908L102.34 37.2352H97.2227L105.542 11.5483ZM105.253 27.4934H111.195L108.265 17.405L105.253 27.4934Z" fill="#D2091E"/>
<path d="M122.293 11.5732H127.377L136.653 29.4155V11.5732H141.168V37.2436H136.315L126.807 19.0302V37.2436H122.293V11.5732Z" fill="#003D7C"/>
<path d="M160.141 37.2354V11.5732H165.002V21.3729H174.03V11.5732H178.9V37.2354H174.03V25.8025H165.002V37.2354H160.141Z" fill="#003D7C"/>
<path d="M188.897 11.5483H194.418L202.672 37.2022H197.381L195.854 31.923H187.263L185.695 37.2352H180.578L188.897 11.5483ZM188.584 27.4934H194.551L191.604 17.405L188.584 27.4934Z" fill="#D2091E"/>
<path d="M227.777 11.5732H232.622V32.6408H244.234V37.2436H227.777V11.5732Z" fill="#003D7C"/>
<path d="M251.338 11.5815H246.477V37.2437H251.338V11.5815Z" fill="#003D7C"/>
<path d="M209.099 11.5813H204.246V37.2434H209.099V11.5813Z" fill="#003D7C"/>
<path d="M254.523 11.5732H259.607L268.884 29.4155V11.5732H273.406V37.2436H268.545L259.038 19.0302V37.2436H254.523V11.5732Z" fill="#003D7C"/>
<path d="M293.585 16.1347H281.544V21.5706H292.562V26.0168H281.544V32.6406H294.163V37.2434H276.766V11.5813H293.585V16.1347Z" fill="#003D7C"/>
<path d="M301.276 29.2999C301.351 30.2282 301.654 31.1235 302.159 31.9065C302.984 32.9541 304.354 33.482 306.285 33.482C307.257 33.5156 308.226 33.3759 309.149 33.0696C309.777 32.8771 310.322 32.48 310.697 31.9418C311.073 31.4036 311.257 30.7552 311.221 30.1C311.234 29.7126 311.145 29.3285 310.964 28.9856C310.784 28.6427 310.516 28.353 310.189 28.145C309.179 27.5711 308.084 27.1618 306.945 26.9325L304.47 26.3303C302.659 25.9964 300.926 25.3278 299.361 24.3588C297.768 23.171 296.976 21.3233 296.976 18.7909C296.94 17.721 297.127 16.6554 297.525 15.6615C297.923 14.6676 298.523 13.767 299.287 13.0167C300.822 11.4824 303.075 10.7235 306.054 10.7235C308.366 10.6636 310.624 11.4266 312.425 12.8764C313.32 13.6491 314.032 14.611 314.508 15.6925C314.985 16.7739 315.215 17.9478 315.182 19.1291H310.478C310.495 18.4609 310.329 17.8006 309.999 17.2193C309.669 16.638 309.187 16.1575 308.604 15.8295C307.708 15.3681 306.707 15.1464 305.699 15.1861C304.614 15.1266 303.538 15.4156 302.629 16.011C302.261 16.2725 301.964 16.6211 301.764 17.0256C301.563 17.4301 301.467 17.8779 301.482 18.3289C301.459 18.7428 301.553 19.1549 301.752 19.518C301.952 19.8812 302.25 20.1809 302.613 20.3829C303.597 20.8771 304.644 21.2378 305.724 21.4552L309.801 22.5276C311.275 22.8304 312.661 23.4652 313.853 24.3836C314.574 25.0579 315.134 25.8852 315.493 26.8046C315.851 27.7239 315.999 28.7119 315.925 29.6958C315.956 30.7899 315.751 31.8778 315.324 32.8856C314.896 33.8933 314.257 34.7973 313.449 35.536C311.798 37.1033 309.471 37.8704 306.467 37.8704C303.463 37.8704 300.97 37.1115 299.212 35.5855C298.332 34.8005 297.637 33.8288 297.18 32.7413C296.724 31.6538 296.515 30.478 296.571 29.2999H301.276Z" fill="#003D7C"/>
<path d="M333.734 11.5732H338.571V32.6408H350.183V37.2436H333.734V11.5732Z" fill="#003D7C"/>
<path d="M366.672 11.5732V16.1349H359.666V37.2436H354.805V16.1349H347.781V11.5732H366.672Z" fill="#003D7C"/>
<path d="M382.23 12.1174C383.891 12.7413 385.294 13.9029 386.217 15.4169C387.023 16.6749 387.583 18.0745 387.867 19.5413C388.158 20.9418 388.31 22.3675 388.321 23.7978C388.412 26.797 387.769 29.7731 386.448 32.4673C385.755 33.9441 384.643 35.1848 383.251 36.0354C381.858 36.886 380.246 37.3089 378.616 37.2516H368.547V11.5482H378.616C379.839 11.5331 381.057 11.717 382.222 12.0926L382.23 12.1174ZM373.284 16.0026V32.8055H377.799C380.109 32.8055 381.719 31.5544 382.627 29.0523C383.164 27.473 383.421 25.812 383.386 24.1442C383.485 22.0851 383.101 20.0312 382.263 18.1473C381.521 16.7367 380.027 16.0356 377.799 16.0356L373.284 16.0026Z" fill="#003D7C"/>
<path d="M393.999 32.0552H389.18V37.2437H393.999V32.0552Z" fill="#003D7C"/>
<path d="M4.01172 4.23995C4.01172 4.23995 14.4518 0.824925 25.4696 3.844C36.4874 6.86308 45.1696 3.43981 48.182 0.626953C48.182 0.626953 46.977 10.0636 50.6001 13.8251C54.2232 17.5866 53.794 22.2719 53.794 23.699C53.794 25.126 53.6455 30.727 57.6152 33.1274C57.6152 33.1274 45.7721 31.7251 41.563 33.5316C37.354 35.3381 33.7227 36.3444 25.8823 32.7067C21.4586 30.5208 15.8631 31.5271 13.4532 32.1705C13.4532 32.1705 20.6829 20.086 4.01172 4.23995Z" stroke="#003D7C" stroke-width="0.58"/>
<path d="M13.0469 31.5269L20.6809 46.779" stroke="#003D7C" stroke-width="0.58"/>
<path d="M4.07198 4.49L1.93359 5.2251L16.6457 47.9789L18.7841 47.2438L4.07198 4.49Z" fill="#003D7C"/>
<path d="M4.81978 3.23363C4.81978 3.71002 4.67844 4.1757 4.41364 4.57181C4.14883 4.96791 3.77246 5.27663 3.33211 5.45894C2.89176 5.64125 2.40721 5.68895 1.93974 5.59601C1.47227 5.50307 1.04287 5.27366 0.705841 4.93681C0.368812 4.59995 0.139292 4.17077 0.0463064 3.70353C-0.0466796 3.2363 0.00104417 2.752 0.183443 2.31187C0.365841 1.87175 0.674723 1.49557 1.07103 1.2309C1.46733 0.966231 1.93326 0.824965 2.40989 0.824965C2.72666 0.823875 3.04053 0.885433 3.3334 1.00609C3.62627 1.12675 3.89237 1.30413 4.11637 1.52802C4.34036 1.7519 4.51783 2.01786 4.63855 2.31058C4.75928 2.60331 4.82087 2.91701 4.81978 3.23363Z" fill="#003D7C"/>
<path d="M18.0742 9.45312H24.4868L27.9036 14.8726V9.45312H32.7234L35.5376 15.0706L35.9338 9.45312H41.158L41.9585 27.3119H36.3382L33.722 23.9051L33.3258 27.5181H27.7055L18.0742 9.45312Z" fill="#003D7C"/>
</g>
<defs>
<clipPath id="clip0_173_330">
<rect width="394" height="48" fill="white"/>
</clipPath>
</defs>
</svg>
