<svg width="109" height="105" viewBox="0 0 109 105" fill="none" xmlns="http://www.w3.org/2000/svg">
<path d="M48.9498 5.34648C52.048 2.36192 56.9518 2.36192 60.0501 5.34647L103.019 46.7384C106.285 49.885 106.285 55.115 103.019 58.2616L60.0501 99.6535C56.9518 102.638 52.048 102.638 48.9498 99.6535L5.98102 58.2616C2.71455 55.115 2.71454 49.885 5.98101 46.7384L48.9498 5.34648Z" fill="#7A1120"/>
<path d="M53.7578 39.3094C53.7575 39.3097 53.7572 39.3099 53.7568 39.3103L48.3052 44.8213C47.8968 45.2341 47.8983 45.9019 48.3088 46.3128C48.7192 46.7237 49.383 46.7222 49.7914 46.3093L53.4516 42.6093V64.9453C53.4516 65.5278 53.9209 66 54.4999 66C55.079 66 55.5483 65.5278 55.5483 64.9453V42.6093L59.2085 46.3093C59.6169 46.7221 60.2807 46.7237 60.6911 46.3128C61.1016 45.9018 61.103 45.234 60.6947 44.8212L55.243 39.3102C55.2427 39.3099 55.2424 39.3097 55.242 39.3093C54.8322 38.8962 54.1663 38.8976 53.7578 39.3094Z" fill="white"/>
</svg>
