<svg xmlns="http://www.w3.org/2000/svg" viewBox="0 0 283.45 239.59"><defs><style>.cls-1{fill:#fff;}</style></defs><g id="Слой_2" data-name="Слой 2"><g id="Icons"><path class="cls-1" d="M146,219.85c-1.23,0-2.47,0-3.7,0-3.26,0-6.51-.28-9.61-.42.14-2.34.43-4.43.37-6.51a15.8,15.8,0,0,0-7.18-13.29,83.07,83.07,0,0,0-9.84-5.51c-4.38-2.12-8.9-4-13.37-5.91,3.12,2.75,4.12,6.29,4.25,10.28.08,2.49.26,5.1,2,7.08a63.77,63.77,0,0,0,7,7.07,82.86,82.86,0,0,0,7.82,5.2c-4.84-.25-21.92-5.13-26.1-7.51a4.1,4.1,0,0,0,.31-.46c3.62-6.71,3.77-14.26-1.65-20.52-4.83-5.57-10.87-9.74-16.82-14.11,2.3,3.57,1.66,7.28,1,11.1a11.69,11.69,0,0,0,.21,6,46.62,46.62,0,0,0,4.88,8.67,81.43,81.43,0,0,0,5.54,6.57,133.79,133.79,0,0,1-20-11.78c1.29-2.11,2.61-3.89,3.55-5.86,2.34-4.92,2.34-9.94-.54-14.61-2.38-3.86-5.12-7.51-7.81-11.17-1.19-1.62-2.65-3.05-4.21-4.8.18,1.62.6,2.88.38,4a36.31,36.31,0,0,1-1.84,6.27c-.95,2.43-1.61,4.89-.85,7.43.88,2.95,1.92,5.87,3.06,8.73.75,1.87,1.82,3.61,2.75,5.41a100.53,100.53,0,0,1-16.91-15.74l1.7-1.42a17.36,17.36,0,0,0,6.09-9.77,16.07,16.07,0,0,0-.52-7.67c-1.51-5.47-4.23-10.38-7.14-15.54a6.15,6.15,0,0,0-.69,1.5,11.47,11.47,0,0,1-2.39,5.71c-1.63,2.21-3.13,4.47-3.13,7.41a37.76,37.76,0,0,0,1.59,11.71c.37,1.17.57,2.41.84,3.61a1.37,1.37,0,0,1-.39-.32c-2.47-3.4-5-6.74-7.35-10.23-1.71-2.54-3.14-5.27-4.74-8,.67-.33,1.15-.55,1.61-.81,6.65-3.77,9.8-8.84,8.81-16.36-.49-3.72-1.54-7.37-2.38-11-.36-1.54-.87-3-1.31-4.58l-.36-.09c.05,3.94-2.68,6.13-5,8.66a10.55,10.55,0,0,0-2.73,4.58,78.61,78.61,0,0,0-1,10.31,32.29,32.29,0,0,0,.24,4.15l.48.12c3.54-3.57,4.76-8.41,6.71-12.86a43.93,43.93,0,0,1-5.34,17.07c-3-4.34-9.09-19.13-9.51-23.05,1-.33,1.95-.6,2.89-1,5.06-2.15,8.65-5.59,9.27-11.31a83.51,83.51,0,0,0,.37-9.36c0-2.57-.35-5.13-.54-7.7-.89,3.19-3.22,5-5.76,6.67a11.81,11.81,0,0,0-4.69,6A42,42,0,0,0,21.66,124c4.24-2.91,6.23-7.22,9-11.37-1.05,4.64-5.76,13.17-8.37,15.22A119.19,119.19,0,0,1,17.72,104c.67-.12,1.1-.21,1.54-.28s.78,0,1.17-.13c5.07-1.06,8.91-3.68,10.82-8.68,2-5.3,2.33-10.92,3-16.53A11.43,11.43,0,0,1,27.9,84a9.72,9.72,0,0,0-5.23,4.7c-1.38,2.79-2.65,5.64-3.94,8.48-.3.67-.5,1.39-.75,2.08,4.31-1.78,6.93-5.29,9.92-8.38a39.63,39.63,0,0,1-10.28,12.6,121.09,121.09,0,0,1,.53-23.89l1,.1c5.28.32,9.67-1.34,12.61-5.93s4.4-10,6-15.22a10.69,10.69,0,0,1-6.35,4,10.78,10.78,0,0,0-5.71,3.61,45.67,45.67,0,0,0-6.31,9.34c4-1,6.73-3.64,9.8-5.7a35.18,35.18,0,0,1-10.26,9c-.23.13-.68-.11-1.08-.19-.19,1.19-.38,2.37-.6,3.77-4.24-3.31-6.5-7.6-7.83-12.94C14.42,77.38,15,78,17.3,78.67c-.47-2.21-.89-4.36-1.38-6.49a31,31,0,0,0-1.24-4.68,12.77,12.77,0,0,0-2.43-4.27c-2.2-2.18-3.81-4.51-3.82-7.75a44.29,44.29,0,0,0-3,15.8c0,7,3.46,11,10.15,11.59.52,0,1,0,1.25.07,0,8,0,16-.07,23.81-3.57-1.19-9.38-7.41-10.9-12,3.09,3.4,5.66,7.19,10.26,8.4-1.7-3.86-3.39-7.61-5-11.38a8.79,8.79,0,0,0-3.75-4.19c-.25-.15-.46-.37-.72-.51a9.42,9.42,0,0,1-4.9-6.72A45,45,0,0,0,1.06,86c-.23,5.73.09,11.39,2.81,16.6a9.19,9.19,0,0,0,6.72,5,51.13,51.13,0,0,0,6.28.43l4.94,24A26.93,26.93,0,0,1,7.86,121.65c3.87,2.9,7.54,6.15,12.8,6.47-2.55-3.7-5.26-7.21-7.94-10.75a10.61,10.61,0,0,0-5.05-3.87c-3.53-1.2-6.46-3-7.67-6.91a58.23,58.23,0,0,0,.7,7.3c.89,5.51,2.36,10.84,5.88,15.34a11.64,11.64,0,0,0,11.67,4.53c1.38-.22,2.74-.61,3.89-.88l8.36,19a3.12,3.12,0,0,1-1.44-.78c-2.58-2.31-5.18-4.62-7.74-7s-5.58-4.43-9.3-4.89a12.79,12.79,0,0,1-2.28-.53,11.86,11.86,0,0,1-6.13-5.1c2.05,8.32,3.89,12.57,8.76,19.33a15.33,15.33,0,0,0,7.05,5.8,14.61,14.61,0,0,0,12.35-1c.45-.24.95-.42,1.21-.54l12.78,18.33c-3-1.74-6-3.44-9-5.25-4.31-2.62-8.73-4.72-14-4.39a9.67,9.67,0,0,1-6.7-2.19c-.77-.61-1.53-1.24-2.3-1.86l-.36.27c2.3,3.57,4.46,7.24,7,10.67A34.51,34.51,0,0,0,31.41,183c5.16,2.85,10.3,2.61,15.3-.42,1.19-.72,2.28-1.61,3.17-2.25l17.47,15.88c-4.69-1.47-9.53-3-14.39-4.5a17.75,17.75,0,0,0-9.37-.76c-3.06.68-6.21,1.14-9.25-.19-1.28-.56-2.51-1.27-3.76-1.91l-.26.25c2.76,2.85,5.43,5.81,8.32,8.53A47.53,47.53,0,0,0,50.83,206c5.15,2.44,10.33,3.08,15.68.48a20.2,20.2,0,0,0,6.73-5.9l20.53,11.38c-.4,0-.93,0-1.45-.05-4.24-.42-8.47-.87-12.71-1.29-4.67-.47-9.27-.48-13.64,1.72a15.88,15.88,0,0,1-4.24,1.12c-3.1.59-6-.39-8.87-1.4a127.93,127.93,0,0,0,10.6,7.24c6.2,3.67,12.81,6.32,20.08,7a16.72,16.72,0,0,0,10-2.1,18.53,18.53,0,0,0,8-9.38,147.72,147.72,0,0,0,27.16,7.12,3.64,3.64,0,0,1-1.14.35c-5.22.77-10.43,1.64-15.67,2.28a27.08,27.08,0,0,0-13.49,5.27,15.48,15.48,0,0,1-6.16,2.46,37.69,37.69,0,0,1-6.54.19,6.48,6.48,0,0,0,.69.39,75,75,0,0,0,24.13,6.5c5,.43,10,.52,14.81-1.14,5.57-1.91,9.71-5.39,11.59-11.16.45-1.38.75-2.8,1-3.81,2.71-.06,5.4-.09,8.09-.12Zm-131-71.8c3,1.27,6.16,2.75,9.41,3.88a15.36,15.36,0,0,0,5.16.61,1.66,1.66,0,0,1,1.87,1.11c.32.75.72,1.47,1.21,2.47A30.51,30.51,0,0,1,15.06,148.05Zm30,23.08a26.48,26.48,0,0,0,2.53-4.9c.82-2.83,1.21-5.79,1.77-8.7a8.51,8.51,0,0,1,.48-1.76A49.22,49.22,0,0,1,48,174.89Zm-16.52,3.12c3.1.75,6,1.55,9,2.17a15.25,15.25,0,0,0,9-.47l3,3.38A34.07,34.07,0,0,1,28.51,174.25Zm37.71,18c2-5.88,1.25-11.82.8-17.75a52.06,52.06,0,0,1,3,20.54ZM50.44,198.9c.36,0,.73,0,1.1,0,4.67.38,9.34.65,13.94-.64.19-.06.38-.11.56-.18.92-.38,2-1.26,2.74-1,1.27.43,2.31,1.54,3.75,2.58A34.85,34.85,0,0,1,50.44,198.9Zm42,9.28a1.22,1.22,0,0,1-.54-1c.46-4.35-.82-8.42-2-12.5-.42-1.43-.9-2.85-1.23-4.32,3.91,5.92,6.27,12.47,8,19.69C95,209.35,93.66,208.82,92.4,208.18Zm7.51,6.36a38.4,38.4,0,0,1-23.52,3.89c2.33-.33,4.67-.56,7-1,4.15-.78,8.25-1.77,11.59-4.64a1.28,1.28,0,0,1,1-.22c1.36.35,2.71.79,4.06,1.2Zm25.84,3.81c-.23,0-.52-.44-.57-.72-.82-4.46-3.31-8.11-5.71-11.81-1-1.59-2.15-3.13-3.14-4.76A70.42,70.42,0,0,1,131,219.18C129,218.87,127.36,218.65,125.75,218.35Zm-13.5,14.85c2.57-1.14,5.52-2.42,8.47-3.74,3.68-1.66,7.12-3.66,9.51-7.08a.93.93,0,0,1,.72-.32c1.65.16,3.28.38,5,.58C132.19,227.45,120.35,232.61,112.25,233.2Z"/><path class="cls-1" d="M54.46,0C53.84,13.43,47,23.79,35.73,31.61l8.42-13.82-.27-.2c-3.29,4.46-6.58,8.92-10.05,13.64.23-1,.37-1.79.6-2.56s.54-1.67.86-2.49a50.15,50.15,0,0,1,7.29-13.49c2.41-3,5.3-5.59,8-8.39C52,2.78,53.36,1.21,54.46,0Z"/><path class="cls-1" d="M21.76,61.68a6.63,6.63,0,0,1-1.09,0c-4.26-.49-8.64-3.39-8.17-9.9A37,37,0,0,1,18,35.57c-.84,3.18.65,5.58,2.45,7.89a3.53,3.53,0,0,1,.81,1.7c.36,4.17.63,8.35.93,12.62-2.1-.48-3.14-2.31-5.51-9.16-.77,3.75,2.94,12.73,5,12.65Z"/><path class="cls-1" d="M34.84,50.55c-3.24,2-6.37,4.13-10.17,4.82l-.36-.44c2.27-2.39,4.53-4.77,6.81-7.15,1.84-1.92,4.16-2.7,6.73-3.26,2-.43,3.88-1.62,5.72-2.43-2.61,5-4.79,10.55-9.32,14.57a11.61,11.61,0,0,1-9.88,2.64l-2.24-.37A38,38,0,0,0,34.84,50.55Z"/><path class="cls-1" d="M26.15,31.16c-.88,2.78-.43,5.31,2.06,12.25-5.24-1-7.62-5-6.2-10.53,1.29-5,3.91-9.36,6.85-13.54,0-.06.17-.05.42-.11-1.13,2.67-.16,5,.92,7.32a6.53,6.53,0,0,1,.47,3.13c-.28,3.4-.73,6.78-1.33,10.2C26.66,37.59,26.72,34.33,26.15,31.16Z"/><path class="cls-1" d="M51.28,27.14c-3.19,4.73-6,9.4-10.38,12.77-3.37,2.61-7.14,2.78-11.31.92a33.3,33.3,0,0,0,12.13-6l-9.36,3.43L32,37.71c1-1,1.92-2.07,3-3,1.37-1.18,2.83-2.26,4.29-3.33a9,9,0,0,1,5.57-2C47.19,29.46,49.15,28.53,51.28,27.14Z"/><path class="cls-1" d="M19.89,68.81l-1.28,6.74-.4-.07c.44-2.25.88-4.49,1.33-6.74Z"/><path class="cls-1" d="M137.43,223.09c2.68,0,5.37.06,8.08.12.27,1,.57,2.43,1,3.81,1.88,5.77,6,9.25,11.6,11.16,4.82,1.66,9.81,1.57,14.81,1.14a75,75,0,0,0,24.13-6.5,7.71,7.71,0,0,0,.69-.39,37.69,37.69,0,0,1-6.54-.19,15.43,15.43,0,0,1-6.16-2.46,27.15,27.15,0,0,0-13.5-5.27c-5.23-.64-10.44-1.51-15.66-2.28a3.7,3.7,0,0,1-1.15-.35,147.82,147.82,0,0,0,27.17-7.12,18.56,18.56,0,0,0,7.94,9.38,16.72,16.72,0,0,0,10,2.1c7.27-.64,13.88-3.29,20.09-7A127.77,127.77,0,0,0,230.58,212c-2.91,1-5.76,2-8.86,1.4a15.85,15.85,0,0,1-4.25-1.12c-4.37-2.2-9-2.19-13.64-1.72l-12.7,1.29c-.52.06-1,0-1.46.05l20.53-11.38a20.3,20.3,0,0,0,6.73,5.9c5.36,2.6,10.54,2,15.69-.48a47.53,47.53,0,0,0,12.19-8.32c2.89-2.72,5.55-5.68,8.32-8.53l-.26-.25c-1.26.64-2.48,1.35-3.77,1.91-3,1.33-6.19.87-9.24.19a17.79,17.79,0,0,0-9.38.76c-4.85,1.5-9.7,3-14.38,4.5l17.46-15.88c.89.64,2,1.53,3.17,2.25,5,3,10.14,3.27,15.3.42a34.51,34.51,0,0,0,11.1-10.3c2.5-3.43,4.65-7.1,7-10.67l-.37-.27c-.76.62-1.52,1.25-2.29,1.86a9.71,9.71,0,0,1-6.71,2.19c-5.27-.33-9.69,1.77-14,4.39-3,1.81-6,3.51-9,5.25l12.79-18.33c.26.12.75.3,1.21.54a14.58,14.58,0,0,0,12.34,1,15.41,15.41,0,0,0,7.06-5.8c4.87-6.76,6.7-11,8.75-19.33a11.84,11.84,0,0,1-6.12,5.1,12.79,12.79,0,0,1-2.28.53c-3.72.46-6.62,2.45-9.3,4.89s-5.16,4.64-7.75,7a3.08,3.08,0,0,1-1.43.78l8.35-19c1.16.27,2.51.66,3.9.88a11.65,11.65,0,0,0,11.67-4.53c3.52-4.5,5-9.83,5.88-15.34a60.16,60.16,0,0,0,.7-7.3c-1.22,3.89-4.14,5.71-7.68,6.91a10.7,10.7,0,0,0-5,3.87c-2.68,3.54-5.39,7-7.93,10.75,5.25-.32,8.93-3.57,12.8-6.47a27,27,0,0,1-14,10.27c1.67-8.09,3.32-16.1,4.95-24a51.4,51.4,0,0,0,6.28-.43,9.22,9.22,0,0,0,6.72-5c2.72-5.21,3-10.87,2.8-16.6a41.5,41.5,0,0,0-.67-5.56,9.36,9.36,0,0,1-4.9,6.72c-.25.14-.47.36-.72.51a8.84,8.84,0,0,0-3.75,4.19c-1.6,3.77-3.29,7.52-5,11.38,4.61-1.21,7.18-5,10.26-8.4-1.52,4.54-7.32,10.76-10.9,12,0-7.84-.05-15.76-.07-23.81.21,0,.73,0,1.25-.07,6.7-.56,10.11-4.55,10.15-11.59a44.28,44.28,0,0,0-3-15.8c0,3.24-1.63,5.57-3.83,7.75a12.74,12.74,0,0,0-2.42,4.27,31,31,0,0,0-1.25,4.68c-.48,2.13-.91,4.28-1.38,6.49,2.32-.64,2.88-1.29,7.95-9.24-1.34,5.34-3.6,9.63-7.84,12.94-.22-1.4-.41-2.58-.6-3.77-.39.08-.84.32-1.07.19a35,35,0,0,1-10.26-9c3.07,2.06,5.76,4.72,9.79,5.7a46,46,0,0,0-6.3-9.34,10.81,10.81,0,0,0-5.71-3.61,10.66,10.66,0,0,1-6.35-4c1.55,5.26,3,10.56,6,15.22S259,80,264.32,79.68l1-.1a120.33,120.33,0,0,1,.54,23.89,39.66,39.66,0,0,1-10.29-12.6c3,3.09,5.61,6.6,9.92,8.38-.24-.69-.44-1.41-.75-2.08-1.29-2.84-2.56-5.69-3.94-8.48a9.74,9.74,0,0,0-5.22-4.7,11.48,11.48,0,0,1-6.33-5.6c.64,5.61,1,11.23,3,16.53,1.9,5,5.74,7.62,10.82,8.68.38.08.78.08,1.17.13l1.53.28a117.79,117.79,0,0,1-4.52,23.85c-2.6-2-7.32-10.58-8.37-15.22,2.73,4.15,4.72,8.46,8.95,11.37a42,42,0,0,0-2.6-12.06,11.83,11.83,0,0,0-4.7-6c-2.53-1.64-4.86-3.48-5.75-6.67-.19,2.57-.52,5.13-.54,7.7a79,79,0,0,0,.37,9.36c.62,5.72,4.21,9.16,9.26,11.31.94.4,1.94.67,2.9,1-.43,3.92-6.51,18.71-9.51,23.05a43.78,43.78,0,0,1-5.35-17.07c1.95,4.45,3.18,9.29,6.71,12.86l.48-.12a32.32,32.32,0,0,0,.25-4.15,82.19,82.19,0,0,0-1-10.31,10.74,10.74,0,0,0-2.73-4.58c-2.28-2.53-5-4.72-5-8.66l-.37.09c-.44,1.53-.94,3-1.3,4.58-.85,3.67-1.89,7.32-2.38,11-1,7.52,2.15,12.59,8.8,16.36.46.26.95.48,1.61.81-1.6,2.73-3,5.46-4.73,8-2.34,3.49-4.89,6.83-7.35,10.23a1.71,1.71,0,0,1-.39.32c.27-1.2.46-2.44.84-3.61a37.76,37.76,0,0,0,1.59-11.71c0-2.94-1.51-5.2-3.14-7.41a11.47,11.47,0,0,1-2.39-5.71,6,6,0,0,0-.68-1.5c-2.92,5.16-5.63,10.07-7.14,15.54a15.82,15.82,0,0,0-.52,7.67,17.4,17.4,0,0,0,6.08,9.77l1.71,1.42a100.92,100.92,0,0,1-16.91,15.74c.92-1.8,2-3.54,2.74-5.41,1.15-2.86,2.18-5.78,3.06-8.73.76-2.54.1-5-.84-7.43a36.34,36.34,0,0,1-1.85-6.27c-.21-1.15.2-2.41.38-4-1.55,1.75-3,3.18-4.21,4.8-2.69,3.66-5.43,7.31-7.81,11.17-2.88,4.67-2.88,9.69-.53,14.61.94,2,2.25,3.75,3.54,5.86a133.68,133.68,0,0,1-20,11.78,81.43,81.43,0,0,0,5.54-6.57,46.57,46.57,0,0,0,4.87-8.67,11.58,11.58,0,0,0,.22-6c-.68-3.82-1.31-7.53,1-11.1-6,4.37-12,8.54-16.83,14.11-5.41,6.26-5.27,13.81-1.65,20.52.1.17.22.32.31.46-4.17,2.38-21.26,7.26-26.1,7.51a80.36,80.36,0,0,0,7.82-5.2,64.74,64.74,0,0,0,7-7.07c1.74-2,1.92-4.59,2-7.08.13-4,1.14-7.53,4.25-10.28-4.46,2-9,3.79-13.37,5.91a82.94,82.94,0,0,0-9.83,5.51A15.79,15.79,0,0,0,150.36,213c-.06,2.08.23,4.17.38,6.51-3.1.14-6.36.39-9.61.42-1.24,0-2.47,0-3.7,0Zm113.3-67c.5-1,.89-1.72,1.22-2.47a1.65,1.65,0,0,1,1.86-1.11,15.42,15.42,0,0,0,5.17-.61c3.25-1.13,6.38-2.61,9.41-3.88A30.56,30.56,0,0,1,250.73,156.12Zm-15.27,18.77a48.84,48.84,0,0,1-1.82-19.12,7.9,7.9,0,0,1,.47,1.76c.57,2.91.95,5.87,1.77,8.7a26.53,26.53,0,0,0,2.54,4.9Zm-1.53,4.44,3-3.38a15.25,15.25,0,0,0,9,.47c3-.62,5.92-1.42,9-2.17A34.07,34.07,0,0,1,233.93,179.33Zm-20.46,15.73a52.43,52.43,0,0,1,2.95-20.54c-.44,5.93-1.22,11.87.81,17.75Zm-2.56,4.61c1.45-1,2.49-2.15,3.76-2.58.72-.24,1.81.64,2.74,1,.18.07.37.12.56.18,4.59,1.29,9.26,1,13.94.64.36,0,.73,0,1.1,0A34.88,34.88,0,0,1,210.91,199.67Zm-24,10.4a59.29,59.29,0,0,1,7.94-19.69c-.32,1.47-.81,2.89-1.22,4.32-1.18,4.08-2.46,8.15-2,12.5a1.23,1.23,0,0,1-.55,1C189.79,208.82,188.48,209.35,186.86,210.07Zm-3.45,3.7c1.36-.41,2.7-.85,4.07-1.2a1.3,1.3,0,0,1,1,.22c3.34,2.87,7.43,3.86,11.58,4.64,2.31.44,4.66.67,7,1a38.43,38.43,0,0,1-23.53-3.89Zm-31,5.41a70,70,0,0,1,14.71-18.12c-1,1.63-2.11,3.17-3.14,4.76-2.4,3.7-4.9,7.35-5.71,11.81-.06.28-.34.68-.58.72C156.08,218.65,154.45,218.87,152.41,219.18Zm-4.92,3.46c1.72-.2,3.36-.42,5-.58a.94.94,0,0,1,.73.32c2.38,3.42,5.82,5.42,9.51,7.08,2.94,1.32,5.9,2.6,8.47,3.74C163.1,232.61,151.25,227.45,147.49,222.64Z"/><path class="cls-1" d="M229,0c.62,13.43,7.5,23.79,18.73,31.61l-8.43-13.82.27-.2,10.06,13.64c-.24-1-.38-1.79-.6-2.56s-.55-1.67-.87-2.49a49.84,49.84,0,0,0-7.28-13.49c-2.42-3-5.31-5.59-8-8.39C231.47,2.78,230.09,1.21,229,0Z"/><path class="cls-1" d="M261.69,61.68a6.63,6.63,0,0,0,1.09,0c4.25-.49,8.63-3.39,8.17-9.9a37,37,0,0,0-5.53-16.26c.84,3.18-.64,5.58-2.44,7.89a3.55,3.55,0,0,0-.82,1.7c-.35,4.17-.62,8.35-.93,12.62,2.1-.48,3.15-2.31,5.51-9.16.78,3.75-2.94,12.73-5,12.65Z"/><path class="cls-1" d="M248.6,50.55c3.25,2,6.37,4.13,10.17,4.82l.36-.44c-2.27-2.39-4.53-4.77-6.81-7.15-1.84-1.92-4.15-2.7-6.73-3.26-2-.43-3.87-1.62-5.72-2.43,2.62,5,4.8,10.55,9.33,14.57a11.59,11.59,0,0,0,9.87,2.64l2.25-.37A38,38,0,0,1,248.6,50.55Z"/><path class="cls-1" d="M257.3,31.16c.87,2.78.43,5.31-2.06,12.25,5.24-1,7.62-5,6.19-10.53-1.28-5-3.9-9.36-6.84-13.54,0-.06-.17-.05-.43-.11,1.14,2.67.16,5-.91,7.32a6.42,6.42,0,0,0-.48,3.13c.29,3.4.74,6.78,1.34,10.2C256.78,37.59,256.73,34.33,257.3,31.16Z"/><path class="cls-1" d="M232.17,27.14c3.19,4.73,6,9.4,10.37,12.77,3.38,2.61,7.15,2.78,11.31.92a33.25,33.25,0,0,1-12.12-6l9.35,3.43.33-.57c-1-1-1.93-2.07-3-3-1.37-1.18-2.82-2.26-4.28-3.33a9.05,9.05,0,0,0-5.58-2C236.26,29.46,234.3,28.53,232.17,27.14Z"/><path class="cls-1" d="M263.55,68.81l1.29,6.74.39-.07-1.32-6.74Z"/><path class="cls-1" d="M200.51,79.2l-42.88-2.13L142.36,37,127.08,77.07,84.21,79.2l33.43,26.92-11.22,41.44,35.94-23.48,35.94,23.48-11.23-41.44Zm-24,65.83,0,0L142.36,99.15v23.6h0L108.3,145l34.06-45.85-23.46,6.59v0L87.24,80.21l55.12,18.94-14.51-21h0l14.5-38.07h0V99.15l14.51-21,40.66,2-.06,0L142.36,99.15l23.45,6.59Z"/><path class="cls-1" d="M179.21,148.82l-36.85-24.08L105.5,148.82,117,106.33,82.72,78.71l44-2.18,15.67-41.15L158,76.53l44,2.18L167.7,106.33Zm-1.83-2.52Zm0,0-6.84-25.24Zm-70,0,35-22.88,33.81,22.09-.14-.09-33.12-44.58v22.22ZM97.27,89l21,16.92-.09.35-10.45,38.55,33.21-44.7-22.83,6.42.17-.62Zm44.53,11.83-31.2,42,31.2-20.38Zm2-.71,31.39,42.26-9.8-36.19Zm.45-1,22.05,6.2.17.63.28-.23,31-25-.1,0ZM90.06,81.77l29,23.35,21.43-6ZM87.19,79.6l.23.08,53.52,18.39L126.82,77.64Zm70-.89L143.78,98.07l50.91-17.49ZM142.91,40V97.36l13.68-19.79.65,0-.13-.33ZM128.48,78.08,141.8,97.36V43.1ZM199,79.68l-1.19,1,1.19-1Z"/></g></g></svg>