<svg width="255" height="37" viewBox="0 0 255 37" fill="none" xmlns="http://www.w3.org/2000/svg">
<path d="M36.5914 5.32844L30.6384 35.9172L30.4248 37H24.6427C19.4873 37 16.4111 32.8113 16.4111 27.6538H22.9195C22.9195 27.5826 22.9195 27.5399 22.9195 27.4686L23.6458 23.7073L25.9387 23.1517H16.112C14.9369 23.2011 13.766 22.9802 12.6895 22.506C11.6131 22.0318 10.6597 21.3169 9.90271 20.4162C9.16349 19.5092 8.63239 18.4509 8.34693 17.316C8.06147 16.181 8.02862 14.9973 8.25069 13.8483H25.6112L26.3802 9.90178L28.6304 9.34616H8.00858C6.83088 9.37859 5.66084 9.1472 4.58403 8.66898C3.50723 8.19076 2.5509 7.4778 1.78502 6.5822C1.04882 5.67087 0.520757 4.60949 0.237841 3.47245C-0.0450749 2.33542 -0.075995 1.15025 0.147245 0H32.1623C32.831 0.00199689 33.4909 0.152556 34.0943 0.440834C34.6977 0.729111 35.2296 1.14788 35.6515 1.6669C36.0592 2.17538 36.3539 2.76496 36.516 3.39632C36.678 4.02769 36.7037 4.68635 36.5914 5.32844Z" fill="#7A1120"/>
<path d="M30.6384 35.9172V36.9858H30.4248L30.6384 35.9172Z" fill="#771120"/>
<path d="M230.789 7.90722L226.973 27.6823C226.885 28.0895 226.72 28.4763 226.488 28.8221C226.307 29.1119 226.086 29.3755 225.833 29.6057L225.748 29.6769C225.452 29.8903 225.132 30.0673 224.794 30.2041C224.438 30.3384 224.063 30.4107 223.683 30.4178C223.335 30.4086 222.99 30.351 222.657 30.2468C222.246 30.0777 221.884 29.8083 221.604 29.4632L212.574 17.6523L210.182 30.1329H204.257L208.088 10.4432C208.187 9.85856 208.46 9.31737 208.872 8.89028C209.231 8.47403 209.679 8.14309 210.182 7.92148C210.753 7.70175 211.375 7.64742 211.976 7.76474C212.553 7.90457 213.059 8.24879 213.4 8.73354L222.458 20.4163L224.893 7.90722H230.789Z" fill="white"/>
<path d="M129.033 7.90723L127.908 13.8198H107.486L108.084 10.6854C108.152 10.2721 108.318 9.88115 108.568 9.54565C108.743 9.2345 108.975 8.95901 109.252 8.73355C109.524 8.47924 109.843 8.28082 110.192 8.14945C110.579 8.00073 110.988 7.91881 111.402 7.90723H129.033Z" fill="#7A1120"/>
<path d="M125.886 24.2629L124.704 30.1327H104.367L105.506 24.1489L107.016 16.085H125.843L124.675 21.9833H111.858L111.445 24.1204C111.456 24.1673 111.456 24.216 111.445 24.2629H125.886Z" fill="white"/>
<path d="M69.76 7.92139L69.1903 10.7708L69.0052 11.7396L65.4163 30.0758H59.4918L61.1296 21.5987L55.433 29.05C55.1308 29.4837 54.7176 29.8281 54.2367 30.0473C53.7952 30.2694 53.3067 30.3818 52.8125 30.375C52.3132 30.3671 51.8238 30.2349 51.3884 29.9903C50.9149 29.6938 50.554 29.2474 50.363 28.7223L47.5147 21.2283L45.8626 30.1328H39.9097L43.114 13.5917L43.7407 10.3861L44.2106 7.9356H48.9531L49.4373 9.20363L51.132 13.6772L54.194 21.6984L62.2689 11.184L63.9637 9.01841L64.7754 7.99261L69.76 7.92139Z" fill="white"/>
<path d="M102.43 24.263L101.305 30.1329H83.8734C83.456 30.1372 83.0427 30.0496 82.6629 29.8764C82.3298 29.7163 82.0339 29.4882 81.7942 29.2068C81.5501 28.8978 81.3797 28.5372 81.2957 28.1525C81.246 27.7742 81.246 27.391 81.2957 27.0127L85.0127 7.90723H90.923L87.7756 24.263H102.43Z" fill="white"/>
<path d="M80.3414 7.92139L78.5755 16.8971L75.9835 30.1328H70.0732L70.3438 28.7793L74.4027 7.92139H80.3414Z" fill="white"/>
<path d="M255 7.90723L253.875 13.8198H233.453L234.036 10.6854C234.112 10.2746 234.278 9.88546 234.521 9.54565C234.701 9.23803 234.932 8.96339 235.204 8.73355C235.483 8.47093 235.813 8.26743 236.173 8.13519C236.557 7.99681 236.961 7.91988 237.369 7.90723H255Z" fill="#7A1120"/>
<path d="M251.853 24.2771L250.671 30.1327H236.7H236.215H230.291L231.459 24.0777L231.573 23.4223L231.658 23.0376L231.872 21.8836L232.968 16.085H251.796L250.614 21.9975H237.796L237.383 24.1204C237.379 24.1726 237.379 24.225 237.383 24.2771H251.853Z" fill="white"/>
<path d="M202.748 13.5491C202.755 13.4352 202.755 13.321 202.748 13.2071C202.718 13.1382 202.694 13.0667 202.677 12.9934C202.382 11.9815 201.866 11.0476 201.166 10.2592C200.467 9.47083 199.601 8.84754 198.632 8.43432C197.483 7.93307 196.239 7.68524 194.986 7.7077H190.115C188.792 7.7055 187.478 7.94697 186.242 8.42006C185.048 8.85884 183.936 9.49452 182.952 10.3007C182.106 11.0135 181.371 11.8491 180.773 12.7797V12.8937C180.675 12.998 180.589 13.1126 180.517 13.2356C179.89 14.281 179.438 15.4214 179.178 16.6122C179.172 16.6881 179.172 16.7643 179.178 16.8402L178.409 20.7581C178.153 22.0324 178.153 23.3449 178.409 24.6192C178.647 25.7476 179.133 26.8086 179.833 27.7251C180.566 28.6102 181.498 29.3085 182.553 29.7624C183.711 30.2508 184.957 30.4934 186.213 30.4748H191.127C192.436 30.4779 193.734 30.2413 194.958 29.7767C196.152 29.3383 197.257 28.6866 198.219 27.8533C199.227 27.0228 200.084 26.0252 200.754 24.9041C201.428 23.7607 201.909 22.514 202.178 21.2141L202.89 17.4243C202.95 17.2499 202.984 17.0674 202.99 16.8829C203.117 15.7662 203.035 14.6357 202.748 13.5491ZM196.909 16.6835V16.7832C196.902 16.8495 196.902 16.9163 196.909 16.9826L196.182 20.6869C196.073 21.2595 195.866 21.8089 195.57 22.3111C195.185 23.0114 194.611 23.5896 193.913 23.9799C193.216 24.3703 192.423 24.5572 191.625 24.5194H186.712C186.225 24.5425 185.739 24.4598 185.288 24.2772C184.953 24.1529 184.662 23.9353 184.447 23.6503C184.222 23.3692 184.07 23.0362 184.006 22.6815C183.906 22.1782 183.906 21.6604 184.006 21.1571L184.732 17.3673C184.732 17.2533 184.761 17.1536 184.818 17.0681V16.9114C184.898 16.5111 185.042 16.1262 185.245 15.7716C185.508 15.3237 185.839 14.9198 186.228 14.5749C186.666 14.2608 187.145 14.0068 187.652 13.8198H187.751C188.208 13.6539 188.69 13.5672 189.176 13.5633H194.075C194.524 13.55 194.97 13.6326 195.385 13.8055H195.513H195.613L195.826 13.9052L196.182 14.1759C196.242 14.2259 196.294 14.2834 196.339 14.3469C196.576 14.6567 196.737 15.0179 196.809 15.4012C196.909 15.8208 196.943 16.2535 196.909 16.6835Z" fill="white"/>
<path d="M151.578 21.0858C151.666 21.8583 151.612 22.6403 151.421 23.3938C151.279 24.1418 151.045 24.8692 150.723 25.5594C150.38 26.1795 149.979 26.7662 149.527 27.3118C149.112 27.8097 148.633 28.2505 148.103 28.6226C147.611 28.9604 147.086 29.2468 146.536 29.4774C146.011 29.6923 145.468 29.8592 144.913 29.976C144.444 30.076 143.967 30.1286 143.489 30.1328H128.065L129.204 24.2629H144.129C144.501 24.2718 144.863 24.1508 145.155 23.921C145.428 23.6593 145.603 23.3126 145.653 22.9379C145.68 22.7584 145.68 22.576 145.653 22.3965C145.647 22.3197 145.611 22.2482 145.554 22.1971C145.508 22.128 145.444 22.0736 145.368 22.0404C145.236 22.0217 145.102 22.0217 144.97 22.0404H136.695C135.945 22.037 135.201 21.9169 134.488 21.6842C133.705 21.4057 132.988 20.9692 132.38 20.4019C131.715 19.7792 131.224 18.9934 130.956 18.1224C130.816 17.7044 130.744 17.2667 130.742 16.8259C130.669 16.1491 130.713 15.4649 130.871 14.8028C130.983 14.1486 131.179 13.5117 131.454 12.9079C131.644 12.4465 131.882 12.0069 132.167 11.5971C132.742 10.7907 133.45 10.0874 134.26 9.51705C134.977 8.98184 135.782 8.57677 136.638 8.32029C137.387 8.09214 138.163 7.9722 138.945 7.96411H152.575L151.45 13.8767H138.205C138.032 13.8631 137.858 13.8851 137.694 13.9415C137.53 13.9978 137.379 14.0873 137.251 14.2044C136.954 14.4611 136.757 14.8142 136.695 15.2017C136.599 15.454 136.599 15.733 136.695 15.9853C136.862 16.1122 137.072 16.1684 137.279 16.142H145.611C146.645 16.1341 147.664 16.389 148.573 16.8828C149.06 17.1272 149.511 17.4389 149.911 17.8089C150.326 18.2332 150.681 18.7126 150.965 19.2337C151.268 19.8141 151.475 20.4395 151.578 21.0858Z" fill="white"/>
<path d="M178.238 7.92139L177.042 13.8197H169.095L168.511 16.8971L165.933 30.1328H160.009L163.17 13.8197H155.167L156.349 7.92139H178.238Z" fill="white"/>
<path d="M226.958 27.6823L227.101 26.9414H227.115L230.789 7.92139" fill="white"/>
</svg>
