<svg width="359" height="52" viewBox="0 0 359 52" fill="none" xmlns="http://www.w3.org/2000/svg">
<path d="M51.5149 7.48862L43.1341 50.4782L42.8334 52H34.6931C27.435 52 23.1043 46.1132 23.1043 38.8648H32.2671C32.2671 38.7647 32.2671 38.7047 32.2671 38.6045L33.2896 33.3184L36.5176 32.5375H22.6832C21.0287 32.607 19.3804 32.2965 17.8649 31.6301C16.3494 30.9636 15.0072 29.9588 13.9415 28.6931C12.9008 27.4183 12.153 25.9309 11.7512 24.3359C11.3493 22.7409 11.303 21.0773 11.6157 19.4625H36.0565L37.1392 13.916L40.3071 13.1352H11.2748C9.61681 13.1807 7.96957 12.8555 6.4536 12.1834C4.93762 11.5113 3.59127 10.5093 2.51303 9.25066C1.47657 7.96987 0.733144 6.4782 0.334843 4.8802C-0.0634584 3.28221 -0.106989 1.61657 0.207298 0H45.2794C46.2208 0.00280643 47.1499 0.214404 47.9994 0.61955C48.8489 1.0247 49.5977 1.61324 50.1917 2.34267C50.7657 3.05729 51.1806 3.88588 51.4087 4.77321C51.6369 5.66053 51.6731 6.58623 51.5149 7.48862Z" fill="#7A1120"/>
<path d="M43.1341 50.4782V51.98H42.8334L43.1341 50.4782Z" fill="#771120"/>
<path d="M324.915 11.1128L319.542 38.9049C319.418 39.4771 319.187 40.0207 318.86 40.5067C318.604 40.914 318.294 41.2845 317.938 41.608L317.818 41.7081C317.401 42.008 316.95 42.2567 316.474 42.449C315.974 42.6377 315.445 42.7393 314.91 42.7493C314.42 42.7363 313.934 42.6555 313.467 42.509C312.888 42.2714 312.378 41.8928 311.983 41.4078L299.271 24.8086L295.903 42.3489H287.562L292.956 14.6769C293.095 13.8552 293.479 13.0947 294.058 12.4944C294.564 11.9094 295.195 11.4443 295.903 11.1329C296.708 10.8241 297.583 10.7477 298.429 10.9126C299.241 11.1091 299.953 11.5929 300.434 12.2741L313.186 28.6931L316.615 11.1128H324.915Z" fill="#202F47"/>
<path d="M181.659 11.1128L180.075 19.4224H151.323L152.165 15.0173C152.26 14.4364 152.494 13.887 152.847 13.4154C153.093 12.9781 153.42 12.591 153.809 12.2741C154.193 11.9167 154.642 11.6378 155.133 11.4532C155.677 11.2442 156.254 11.1291 156.837 11.1128H181.659Z" fill="#7A1120"/>
<path d="M177.228 34.0993L175.564 42.3488H146.932L148.536 33.9391L150.662 22.606H177.168L175.523 30.8956H157.479L156.897 33.8991C156.913 33.9649 156.913 34.0335 156.897 34.0993H177.228Z" fill="#202F47"/>
<path d="M98.2111 11.1329L97.4091 15.1375L97.1484 16.4991L92.0959 42.2688H83.7551L86.0609 30.355L78.0409 40.8271C77.6154 41.4366 77.0337 41.9207 76.3567 42.2288C75.7351 42.5409 75.0474 42.6988 74.3517 42.6892C73.6488 42.6782 72.9597 42.4924 72.3467 42.1486C71.6801 41.7319 71.1721 41.1046 70.9031 40.3666L66.8932 29.8344L64.5674 42.3489H56.1865L60.6977 19.102L61.5799 14.5968L62.2416 11.1529H68.9182L69.5999 12.9349L71.9858 19.2222L76.2966 30.4952L87.6648 15.7181L90.0508 12.6746L91.1936 11.233L98.2111 11.1329Z" fill="#202F47"/>
<path d="M144.206 34.0993L142.622 42.3488H118.081C117.493 42.3549 116.911 42.2318 116.376 41.9884C115.907 41.7634 115.491 41.4428 115.153 41.0474C114.81 40.6131 114.57 40.1063 114.452 39.5656C114.382 39.0339 114.382 38.4954 114.452 37.9638L119.685 11.1128H128.005L123.574 34.0993H144.206Z" fill="#202F47"/>
<path d="M113.108 11.1329L110.622 23.7474L106.973 42.3489H98.6522L99.0332 40.4467L104.747 11.1329H113.108Z" fill="#202F47"/>
<path d="M359 11.1128L357.416 19.4224H328.665L329.487 15.0173C329.593 14.4399 329.826 13.893 330.168 13.4154C330.422 12.9831 330.747 12.5971 331.131 12.2741C331.524 11.905 331.988 11.619 332.494 11.4332C333.035 11.2387 333.604 11.1306 334.178 11.1128H359Z" fill="#7A1120"/>
<path d="M354.569 34.1193L352.905 42.3488H333.236H332.554H324.213L325.857 33.839L326.018 32.9179L326.138 32.3773L326.439 30.7554L327.983 22.606H354.489L352.825 30.9156H334.78L334.198 33.8991C334.192 33.9724 334.192 34.046 334.198 34.1193H354.569Z" fill="#202F47"/>
<path d="M285.437 19.042C285.447 18.8819 285.447 18.7215 285.437 18.5614C285.395 18.4645 285.361 18.364 285.337 18.2611C284.921 16.8389 284.195 15.5264 283.211 14.4184C282.226 13.3104 281.007 12.4344 279.643 11.8537C278.025 11.1492 276.274 10.8009 274.51 10.8325H267.653C265.789 10.8294 263.94 11.1688 262.199 11.8336C260.518 12.4503 258.953 13.3437 257.568 14.4767C256.377 15.4784 255.342 16.6528 254.5 17.9608V18.1209C254.362 18.2674 254.241 18.4286 254.139 18.6014C253.257 20.0706 252.621 21.6734 252.254 23.3469C252.247 23.4536 252.247 23.5606 252.254 23.6673L251.172 29.1736C250.812 30.9645 250.812 32.8091 251.172 34.5999C251.507 36.1858 252.192 37.677 253.177 38.965C254.208 40.2089 255.521 41.1903 257.006 41.8283C258.636 42.5147 260.391 42.8556 262.159 42.8294H269.076C270.919 42.8338 272.747 42.5013 274.47 41.8483C276.151 41.2322 277.707 40.3163 279.061 39.1452C280.48 37.978 281.687 36.576 282.63 35.0004C283.579 33.3935 284.257 31.6413 284.635 29.8144L285.638 24.4882C285.722 24.2431 285.77 23.9866 285.778 23.7274C285.957 22.158 285.841 20.5691 285.437 19.042ZM277.217 23.4471V23.5872C277.207 23.6804 277.207 23.7744 277.217 23.8675L276.194 29.0736C276.04 29.8783 275.748 30.6504 275.332 31.3562C274.789 32.3404 273.981 33.153 273 33.7016C272.018 34.2502 270.902 34.5129 269.778 34.4598H262.861C262.176 34.4921 261.492 34.376 260.856 34.1194C260.385 33.9446 259.975 33.6389 259.673 33.2383C259.356 32.8432 259.142 32.3752 259.051 31.8768C258.911 31.1695 258.911 30.4416 259.051 29.7343L260.074 24.4081C260.074 24.248 260.114 24.1078 260.194 23.9877V23.7674C260.308 23.2048 260.511 22.6639 260.796 22.1656C261.166 21.536 261.633 20.9684 262.179 20.4836C262.797 20.0422 263.471 19.6853 264.184 19.4224H264.325C264.967 19.1893 265.646 19.0674 266.329 19.062H273.227C273.859 19.0433 274.488 19.1593 275.071 19.4024H275.252H275.392L275.693 19.5425L276.194 19.923C276.278 19.9932 276.352 20.074 276.415 20.1632C276.748 20.5987 276.975 21.1062 277.076 21.645C277.217 22.2346 277.265 22.8427 277.217 23.4471Z" fill="#202F47"/>
<path d="M213.398 29.6342C213.521 30.7199 213.447 31.8189 213.177 32.8779C212.977 33.9292 212.647 34.9515 212.195 35.9214C211.711 36.7929 211.147 37.6174 210.511 38.3843C209.927 39.0841 209.252 39.7035 208.506 40.2264C207.814 40.7012 207.074 41.1037 206.3 41.4278C205.561 41.7299 204.796 41.9645 204.014 42.1286C203.355 42.2691 202.683 42.343 202.009 42.3489H180.295L181.899 34.0994H202.912C203.434 34.1118 203.945 33.9419 204.355 33.6188C204.739 33.251 204.987 32.7639 205.057 32.2372C205.095 31.9849 205.095 31.7286 205.057 31.4763C205.048 31.3683 204.998 31.2679 204.917 31.196C204.853 31.099 204.762 31.0225 204.656 30.9758C204.47 30.9495 204.281 30.9495 204.095 30.9758H192.446C191.39 30.9711 190.341 30.8022 189.338 30.4752C188.236 30.0838 187.226 29.4704 186.371 28.6731C185.434 27.7979 184.743 26.6936 184.366 25.4694C184.168 24.882 184.067 24.2668 184.065 23.6473C183.962 22.6962 184.023 21.7346 184.245 20.804C184.403 19.8847 184.68 18.9896 185.067 18.141C185.334 17.4924 185.67 16.8747 186.07 16.2988C186.88 15.1654 187.877 14.177 189.017 13.3754C190.026 12.6233 191.159 12.054 192.365 11.6935C193.419 11.3729 194.512 11.2043 195.614 11.1929H214.801L213.217 19.5025H194.571C194.327 19.4833 194.082 19.5143 193.851 19.5936C193.62 19.6728 193.408 19.7986 193.228 19.9631C192.81 20.3238 192.533 20.8201 192.446 21.3646C192.31 21.7192 192.31 22.1114 192.446 22.4659C192.68 22.6443 192.975 22.7233 193.268 22.6862H204.997C206.453 22.6751 207.888 23.0334 209.167 23.7274C209.853 24.0707 210.488 24.5089 211.052 25.0289C211.636 25.6252 212.135 26.299 212.536 27.0312C212.961 27.8469 213.252 28.7259 213.398 29.6342Z" fill="#202F47"/>
<path d="M250.931 11.1329L249.247 19.4224H238.059L237.237 23.7474L233.608 42.3489H225.267L229.718 19.4224H218.45L220.114 11.1329H250.931Z" fill="#202F47"/>
<path d="M319.522 38.9049L319.722 37.8637H319.742L324.915 11.1329" fill="#202F47"/>
</svg>
