<svg xmlns="http://www.w3.org/2000/svg" viewBox="0 0 153.54 30.15"><defs><style>.cls-1{fill:#fff;}</style></defs><g id="Слой_2" data-name="Слой 2"><g id="Capa_1" data-name="Capa 1"><path class="cls-1" d="M14.49,18.48H6.63L5.37,22.2H0L7.62,1.14h5.94L21.18,22.2H15.75Zm-1.32-4L10.56,6.81,8,14.52Z"/><path class="cls-1" d="M26.4,21.69a6.67,6.67,0,0,1-2.7-2.06,5.36,5.36,0,0,1-1.11-2.92h5.07a2,2,0,0,0,.81,1.41,2.87,2.87,0,0,0,1.77.54,2.49,2.49,0,0,0,1.48-.37,1.16,1.16,0,0,0,.53-1,1.12,1.12,0,0,0-.75-1.06,15,15,0,0,0-2.43-.77,21.32,21.32,0,0,1-3-.89A5,5,0,0,1,24,13.12a4,4,0,0,1-.87-2.71,4.59,4.59,0,0,1,.79-2.62,5.36,5.36,0,0,1,2.34-1.88,9,9,0,0,1,3.68-.69,7.4,7.4,0,0,1,5,1.56A6.11,6.11,0,0,1,37,10.92H32.25a2,2,0,0,0-.76-1.38A2.69,2.69,0,0,0,29.79,9a2.34,2.34,0,0,0-1.38.35,1.09,1.09,0,0,0-.48.94,1.14,1.14,0,0,0,.77,1.08,12.18,12.18,0,0,0,2.38.72,24.19,24.19,0,0,1,3,1,5.24,5.24,0,0,1,2.06,1.5,4.26,4.26,0,0,1,.91,2.77A4.37,4.37,0,0,1,36.25,20a5.34,5.34,0,0,1-2.37,1.82,9,9,0,0,1-3.58.66A9.62,9.62,0,0,1,26.4,21.69Z"/><path class="cls-1" d="M43.14,21.69a6.67,6.67,0,0,1-2.7-2.06,5.36,5.36,0,0,1-1.11-2.92H44.4a2,2,0,0,0,.81,1.41,2.87,2.87,0,0,0,1.77.54,2.51,2.51,0,0,0,1.48-.37,1.16,1.16,0,0,0,.53-1,1.12,1.12,0,0,0-.75-1.06,15,15,0,0,0-2.43-.77,21.32,21.32,0,0,1-3-.89,5,5,0,0,1-2.07-1.47,4,4,0,0,1-.87-2.71,4.59,4.59,0,0,1,.79-2.62A5.36,5.36,0,0,1,43,5.91a9,9,0,0,1,3.68-.69,7.35,7.35,0,0,1,5,1.56,6.07,6.07,0,0,1,2.09,4.14H49a2,2,0,0,0-.77-1.38A2.64,2.64,0,0,0,46.53,9a2.34,2.34,0,0,0-1.38.35,1.09,1.09,0,0,0-.48.94,1.15,1.15,0,0,0,.76,1.08,12.32,12.32,0,0,0,2.39.72,24.19,24.19,0,0,1,3,1,5.21,5.21,0,0,1,2,1.5,4.21,4.21,0,0,1,.92,2.77A4.37,4.37,0,0,1,53,20a5.39,5.39,0,0,1-2.37,1.82,9,9,0,0,1-3.58.66A9.62,9.62,0,0,1,43.14,21.69Z"/><path class="cls-1" d="M72.66,15.06H61.05a3.5,3.5,0,0,0,1,2.39,3.08,3.08,0,0,0,2.18.82,2.7,2.7,0,0,0,2.67-1.62h5.46a7.57,7.57,0,0,1-4.26,5,8.82,8.82,0,0,1-3.69.75A9,9,0,0,1,60,21.39a7.47,7.47,0,0,1-3-3A9.26,9.26,0,0,1,56,13.83,9.37,9.37,0,0,1,57,9.27a7.38,7.38,0,0,1,3-3,9,9,0,0,1,4.41-1,9,9,0,0,1,4.32,1,7.31,7.31,0,0,1,3,2.91,8.83,8.83,0,0,1,1.07,4.41A13.1,13.1,0,0,1,72.66,15.06ZM67.5,12.21a2.64,2.64,0,0,0-.9-2.1,3.31,3.31,0,0,0-2.25-.78,3.26,3.26,0,0,0-2.18.75,3.33,3.33,0,0,0-1.09,2.13Z"/><path class="cls-1" d="M101.77,7.17a7.2,7.2,0,0,1,1.85,5.25V22.2h-5.1V13.11a3.45,3.45,0,0,0-.86-2.5,3.56,3.56,0,0,0-4.71,0,3.44,3.44,0,0,0-.85,2.5V22.2H87V13.11a3.45,3.45,0,0,0-.86-2.5,3.56,3.56,0,0,0-4.71,0,3.44,3.44,0,0,0-.85,2.5V22.2H75.45V5.46h5.13v2.1a5.48,5.48,0,0,1,2-1.66,6.42,6.42,0,0,1,2.85-.62,6.91,6.91,0,0,1,3.37.81A5.82,5.82,0,0,1,91.17,8.4a6.74,6.74,0,0,1,2.37-2.25,6.4,6.4,0,0,1,3.27-.87A6.61,6.61,0,0,1,101.77,7.17Z"/><path class="cls-1" d="M114.42,5.94a6.46,6.46,0,0,1,3.09-.72,6.93,6.93,0,0,1,3.75,1,7.26,7.26,0,0,1,2.65,3,10,10,0,0,1,1,4.53,10,10,0,0,1-1,4.54,7.32,7.32,0,0,1-2.65,3,6.94,6.94,0,0,1-3.75,1.06,6.46,6.46,0,0,1-3.09-.7,5.46,5.46,0,0,1-2.07-1.88V22.2h-5.13V0h5.13V7.83A5.28,5.28,0,0,1,114.42,5.94Zm4.18,4.85A3.51,3.51,0,0,0,116,9.69a3.47,3.47,0,0,0-2.6,1.11,4.19,4.19,0,0,0-1.06,3,4.19,4.19,0,0,0,1.06,3,3.59,3.59,0,0,0,5.21,0,4.2,4.2,0,0,0,1.08-3A4.13,4.13,0,0,0,118.6,10.79Z"/><path class="cls-1" d="M132.72,0V22.2h-5.13V0Z"/><path class="cls-1" d="M153.54,5.46,143,30.15h-5.52l3.84-8.52L134.55,5.46h5.73l3.87,10.47L148,5.46Z"/></g></g></svg>