<svg xmlns="http://www.w3.org/2000/svg" viewBox="0 0 177.18 160.96"><defs><style>.cls-1{fill:#fff;}.cls-2{fill:#a5110a;}</style></defs><g id="Capa_2" data-name="Capa 2"><g id="Capa_1-2" data-name="Capa 1"><rect class="cls-1" x="12.34" y="117.87" width="151.95" height="7.22"/><path class="cls-1" d="M162.29,124.56V159H14.34v-34.4h148m2-2H12.34V161h152v-38.4Z"/><path class="cls-1" d="M160.05,118.54H17.13a17.13,17.13,0,0,1,0-34.26H160.05a17.13,17.13,0,0,1,0,34.26ZM17.13,86.28a15.13,15.13,0,0,0,0,30.26H160.05a15.13,15.13,0,0,0,0-30.26Z"/><path class="cls-1" d="M25.15,109.23A7.82,7.82,0,1,1,33,101.41,7.83,7.83,0,0,1,25.15,109.23Zm0-13.64A5.82,5.82,0,1,0,31,101.41,5.83,5.83,0,0,0,25.15,95.59Z"/><path class="cls-1" d="M154.89,86.28H110.67V63.9A17.93,17.93,0,0,1,128.58,46H137A17.94,17.94,0,0,1,154.89,63.9Zm-42.22-2h40.22V63.9A15.93,15.93,0,0,0,137,48h-8.4A15.93,15.93,0,0,0,112.67,63.9Z"/><path class="cls-1" d="M91.16,86.28H17.33V22.13H91.16Zm-71.83-2H89.16V24.13H19.33Z"/><rect class="cls-2" x="34.18" y="0.5" width="40.14" height="22.63"/><path class="cls-1" d="M74.82,23.63H33.68V0H74.82Zm-40.14-1H73.82V1H34.68Z"/><circle class="cls-1" cx="132.78" cy="66.14" r="6.01"/><circle class="cls-1" cx="54.25" cy="54.21" r="3.67"/><path class="cls-1" d="M54.25,67.53A13.33,13.33,0,1,1,67.57,54.21,13.34,13.34,0,0,1,54.25,67.53Zm0-24.65A11.33,11.33,0,1,0,65.57,54.21,11.34,11.34,0,0,0,54.25,42.88Z"/><rect class="cls-1" x="62.99" y="41.72" width="12.19" height="3" transform="translate(-11.5 55.33) rotate(-40.58)"/><path class="cls-1" d="M25.15,100.16a1.25,1.25,0,1,0,1.26,1.25,1.25,1.25,0,0,0-1.26-1.25Z"/><path class="cls-1" d="M50.38,109.23a7.82,7.82,0,1,1,7.81-7.82A7.82,7.82,0,0,1,50.38,109.23Zm0-13.64a5.82,5.82,0,1,0,5.81,5.82A5.83,5.83,0,0,0,50.38,95.59Z"/><path class="cls-1" d="M50.38,100.16a1.25,1.25,0,1,0,1.25,1.25,1.25,1.25,0,0,0-1.25-1.25Z"/><path class="cls-1" d="M75.6,109.23a7.82,7.82,0,1,1,7.82-7.82A7.83,7.83,0,0,1,75.6,109.23Zm0-13.64a5.82,5.82,0,1,0,5.82,5.82A5.83,5.83,0,0,0,75.6,95.59Z"/><path class="cls-1" d="M75.6,100.16a1.25,1.25,0,1,0,1.25,1.25,1.26,1.26,0,0,0-1.25-1.25Z"/><path class="cls-1" d="M100.82,109.23a7.82,7.82,0,1,1,7.82-7.82A7.83,7.83,0,0,1,100.82,109.23Zm0-13.64a5.82,5.82,0,1,0,5.82,5.82A5.83,5.83,0,0,0,100.82,95.59Z"/><path class="cls-1" d="M100.82,100.16a1.25,1.25,0,1,0,1.25,1.25,1.25,1.25,0,0,0-1.25-1.25Z"/><path class="cls-1" d="M126,109.23a7.82,7.82,0,1,1,7.82-7.82A7.82,7.82,0,0,1,126,109.23Zm0-13.64a5.82,5.82,0,1,0,5.82,5.82A5.82,5.82,0,0,0,126,95.59Z"/><path class="cls-1" d="M126,100.16a1.25,1.25,0,1,0,1.26,1.25,1.25,1.25,0,0,0-1.26-1.25Z"/><path class="cls-1" d="M151.27,109.23a7.82,7.82,0,1,1,7.81-7.82A7.83,7.83,0,0,1,151.27,109.23Zm0-13.64a5.82,5.82,0,1,0,5.81,5.82A5.83,5.83,0,0,0,151.27,95.59Z"/><path class="cls-1" d="M151.27,100.16a1.25,1.25,0,1,0,1.25,1.25,1.25,1.25,0,0,0-1.25-1.25Z"/></g></g></svg>