<svg xmlns="http://www.w3.org/2000/svg" viewBox="0 0 125.16 60.45"><defs><style>.cls-1{fill:#fff;}</style></defs><g id="Слой_2" data-name="Слой 2"><g id="Capa_1" data-name="Capa 1"><path class="cls-1" d="M28.66,5.25V9.51h6.87v4H28.66v4.62h7.77V22.2H23.53V1.14h12.9V5.25Z"/><path class="cls-1" d="M39.72,9.27a7.26,7.26,0,0,1,2.65-3,6.93,6.93,0,0,1,3.75-1,6.61,6.61,0,0,1,3,.69,5.48,5.48,0,0,1,2.14,1.86V0h5.13V22.2H51.28V19.8a5.21,5.21,0,0,1-2.05,1.92,6.46,6.46,0,0,1-3.11.72,6.94,6.94,0,0,1-3.75-1.06,7.32,7.32,0,0,1-2.65-3,10,10,0,0,1-1-4.54A10,10,0,0,1,39.72,9.27Zm10.5,1.53a3.6,3.6,0,0,0-5.19,0,4.13,4.13,0,0,0-1.07,3,4.24,4.24,0,0,0,1.07,3A3.43,3.43,0,0,0,47.62,18a3.47,3.47,0,0,0,2.6-1.11,4.19,4.19,0,0,0,1.06-3A4.19,4.19,0,0,0,50.22,10.8Z"/><path class="cls-1" d="M69.6,5.94a5.29,5.29,0,0,1,2.05,1.89V5.46h5.13V22.17a9.43,9.43,0,0,1-.91,4.19,7,7,0,0,1-2.79,3,9,9,0,0,1-4.67,1.11,9.7,9.7,0,0,1-6-1.75,6.63,6.63,0,0,1-2.64-4.76h5.07A2.46,2.46,0,0,0,66,25.46a4.15,4.15,0,0,0,2.22.55,3.46,3.46,0,0,0,2.54-.92,3.9,3.9,0,0,0,.94-2.92V19.8a5.7,5.7,0,0,1-2.07,1.91,6.25,6.25,0,0,1-3.09.73,6.94,6.94,0,0,1-3.75-1.06,7.32,7.32,0,0,1-2.65-3,10,10,0,0,1-1-4.54,10,10,0,0,1,1-4.53,7.26,7.26,0,0,1,2.65-3,6.93,6.93,0,0,1,3.75-1A6.46,6.46,0,0,1,69.6,5.94Zm1,4.86a3.6,3.6,0,0,0-5.19,0,4.13,4.13,0,0,0-1.07,3,4.24,4.24,0,0,0,1.07,3A3.43,3.43,0,0,0,68,18a3.47,3.47,0,0,0,2.6-1.11,4.19,4.19,0,0,0,1.06-3A4.19,4.19,0,0,0,70.59,10.8Z"/><path class="cls-1" d="M96.19,15.06H84.58a3.5,3.5,0,0,0,1,2.39,3.05,3.05,0,0,0,2.17.82,2.7,2.7,0,0,0,2.67-1.62h5.46a7.48,7.48,0,0,1-1.51,3,7.6,7.6,0,0,1-2.75,2.07,8.82,8.82,0,0,1-3.69.75,9,9,0,0,1-4.38-1.05,7.47,7.47,0,0,1-3-3,9.26,9.26,0,0,1-1.08-4.56,9.37,9.37,0,0,1,1.07-4.56,7.36,7.36,0,0,1,3-3,9,9,0,0,1,4.41-1,9,9,0,0,1,4.32,1,7.34,7.34,0,0,1,3,2.91,8.83,8.83,0,0,1,1.06,4.41A13.1,13.1,0,0,1,96.19,15.06ZM91,12.21a2.64,2.64,0,0,0-.9-2.1,3.31,3.31,0,0,0-2.25-.78,3.24,3.24,0,0,0-2.17.75,3.34,3.34,0,0,0-1.1,2.13Z"/><path class="cls-1" d="M7.2,35.94a6.46,6.46,0,0,1,3.09-.72A6.93,6.93,0,0,1,14,36.27a7.35,7.35,0,0,1,2.66,3,11.09,11.09,0,0,1,0,9.07,7.41,7.41,0,0,1-2.66,3,6.94,6.94,0,0,1-3.75,1.06,6.46,6.46,0,0,1-3.09-.7,5.46,5.46,0,0,1-2.07-1.88V52.2H0V30H5.13v7.83A5.28,5.28,0,0,1,7.2,35.94Zm4.18,4.85a3.51,3.51,0,0,0-2.62-1.1,3.49,3.49,0,0,0-2.6,1.11,4.23,4.23,0,0,0-1.06,3,4.23,4.23,0,0,0,1.06,3,3.59,3.59,0,0,0,5.21,0,4.2,4.2,0,0,0,1.08-3A4.13,4.13,0,0,0,11.38,40.79Z"/><path class="cls-1" d="M36.06,45.06H24.45a3.5,3.5,0,0,0,1,2.39,3.08,3.08,0,0,0,2.18.82,2.7,2.7,0,0,0,2.67-1.62h5.46a7.57,7.57,0,0,1-4.26,5,8.82,8.82,0,0,1-3.69.75,9,9,0,0,1-4.38-1,7.47,7.47,0,0,1-3-3,9.26,9.26,0,0,1-1.08-4.56,9.37,9.37,0,0,1,1.06-4.56,7.38,7.38,0,0,1,3-3,9,9,0,0,1,4.41-1.05,9,9,0,0,1,4.32,1,7.31,7.31,0,0,1,2.95,2.91,8.83,8.83,0,0,1,1.07,4.41A13.1,13.1,0,0,1,36.06,45.06ZM30.9,42.21a2.64,2.64,0,0,0-.9-2.1,3.31,3.31,0,0,0-2.25-.78,3.26,3.26,0,0,0-2.18.75,3.33,3.33,0,0,0-1.09,2.13Z"/><path class="cls-1" d="M53.74,37.19a7.42,7.42,0,0,1,1.76,5.23V52.2H50.4V43.11a3.67,3.67,0,0,0-.87-2.61,3.41,3.41,0,0,0-4.68,0A3.67,3.67,0,0,0,44,43.11V52.2H38.85V35.46H44v2.22a5.51,5.51,0,0,1,2.1-1.76,6.81,6.81,0,0,1,3-.64A6.07,6.07,0,0,1,53.74,37.19Z"/><path class="cls-1" d="M59,39.27a7.19,7.19,0,0,1,2.65-3,6.93,6.93,0,0,1,3.75-1.05,6.64,6.64,0,0,1,3,.69,5.55,5.55,0,0,1,2.14,1.86V30h5.13V52.2H70.59V49.8a5.28,5.28,0,0,1-2,1.92,6.49,6.49,0,0,1-3.11.72,6.94,6.94,0,0,1-3.75-1.06,7.25,7.25,0,0,1-2.65-3,11,11,0,0,1,0-9.07Zm10.5,1.53a3.61,3.61,0,0,0-5.2,0,4.13,4.13,0,0,0-1.06,3,4.23,4.23,0,0,0,1.06,3,3.58,3.58,0,0,0,5.2,0,4.23,4.23,0,0,0,1.06-3A4.23,4.23,0,0,0,69.53,40.8Z"/><path class="cls-1" d="M79.81,32.92A2.55,2.55,0,0,1,79,31a2.63,2.63,0,0,1,.85-2A3.16,3.16,0,0,1,82,28.17a3.1,3.1,0,0,1,2.17.79,2.64,2.64,0,0,1,.86,2,2.56,2.56,0,0,1-.86,2,3,3,0,0,1-2.17.8A3.08,3.08,0,0,1,79.81,32.92Zm4.76,2.54V52.2H79.44V35.46Z"/><path class="cls-1" d="M103.18,37.19a7.42,7.42,0,0,1,1.76,5.23V52.2h-5.1V43.11A3.67,3.67,0,0,0,99,40.5a3.41,3.41,0,0,0-4.68,0,3.67,3.67,0,0,0-.87,2.61V52.2H88.29V35.46h5.13v2.22a5.51,5.51,0,0,1,2.1-1.76,6.81,6.81,0,0,1,3-.64A6.07,6.07,0,0,1,103.18,37.19Z"/><path class="cls-1" d="M118,35.94A5.32,5.32,0,0,1,120,37.83V35.46h5.13V52.17a9.44,9.44,0,0,1-.92,4.19,7,7,0,0,1-2.79,3,9,9,0,0,1-4.66,1.11,9.7,9.7,0,0,1-6-1.75,6.63,6.63,0,0,1-2.64-4.76h5.07a2.46,2.46,0,0,0,1.14,1.52,4.15,4.15,0,0,0,2.22.55,3.44,3.44,0,0,0,2.53-.92,3.9,3.9,0,0,0,1-2.92V49.8A5.7,5.7,0,0,1,118,51.71a6.25,6.25,0,0,1-3.09.73,6.94,6.94,0,0,1-3.75-1.06,7.34,7.34,0,0,1-2.66-3,10,10,0,0,1-1-4.54,10,10,0,0,1,1-4.53,7.28,7.28,0,0,1,2.66-3,6.93,6.93,0,0,1,3.75-1.05A6.42,6.42,0,0,1,118,35.94Zm1,4.86a3.45,3.45,0,0,0-2.59-1.11,3.5,3.5,0,0,0-2.6,1.1,4.13,4.13,0,0,0-1.06,3,4.23,4.23,0,0,0,1.06,3,3.57,3.57,0,0,0,5.19,0,4.2,4.2,0,0,0,1.07-3A4.2,4.2,0,0,0,119,40.8Z"/></g></g></svg>