<svg xmlns="http://www.w3.org/2000/svg" viewBox="0 0 86.04 144.16"><defs><style>.cls-1{fill:#fff;}.cls-2{fill:#a5110a;}</style></defs><g id="Capa_2" data-name="Capa 2"><g id="Capa_1-2" data-name="Capa 1"><path class="cls-1" d="M44.77,144.16H0V120.91H44.77ZM2,142.16H42.77V122.91H2Z"/><path class="cls-1" d="M52.06,115H0V91.7H52.06ZM2,113H50.06V93.7H2Z"/><path class="cls-1" d="M63.72,70.22h-9a15,15,0,0,1-15-15V32.73h39v22.5A15,15,0,0,1,63.72,70.22Zm-22-35.49v20.5a13,13,0,0,0,13,13h9a13,13,0,0,0,13-13V34.73Z"/><rect class="cls-1" x="58.95" y="33.73" width="1" height="25.1"/><rect class="cls-1" x="49.68" y="33.73" width="1" height="17.74"/><rect class="cls-1" x="67.76" y="33.73" width="1" height="17.74"/><path class="cls-1" d="M68.39,126.53H50.06V68.22H68.39Zm-16.33-2H66.39V70.22H52.06Z"/><rect class="cls-1" x="24.21" y="113.95" width="26.85" height="7.96"/><rect class="cls-1" x="39.99" y="126.3" width="15.45" height="6.68" transform="translate(177.36 81.92) rotate(90)"/><polygon class="cls-1" points="77.13 2.32 77.13 0 25.49 0 25.49 5.85 33.05 5.85 33.05 2.32 77.13 2.32"/><rect class="cls-2" x="44.74" y="9.21" width="28.97" height="23.41"/><path class="cls-1" d="M74.21,33.12h-30V8.71h30Zm-29-1h28V9.71h-28Z"/><path class="cls-1" d="M86,34.3H32.41v-33H86Zm-51.63-2H84v-29H34.41Z"/></g></g></svg>