<svg xmlns="http://www.w3.org/2000/svg" viewBox="0 0 116.87 143.4"><defs><style>.cls-1{fill:#fff;}.cls-2{fill:#a5110a;}</style></defs><g id="Capa_2" data-name="Capa 2"><g id="Capa_1-2" data-name="Capa 1"><path class="cls-1" d="M116.87,143.4H0V109.12H116.87ZM2,141.4H114.87V111.12H2Z"/><polyline class="cls-1" points="65.32 142.21 58.44 118.9 51.55 142.21"/><path class="cls-1" d="M57.44,107.52v-3.78h2v3.78Zm0-8.78v-5h2v5Zm0-10v-5h2v5Z"/><path class="cls-1" d="M60.32,110.92l-1.21-1.6,4-3,1.2,1.6Zm8-6-1.2-1.6,4-3,1.2,1.6Zm8-6-1.21-1.6,4-3,1.21,1.59Zm8-6-1.2-1.59,4-3,1.2,1.59Zm8-6-1.2-1.59,1.14-.87L93.4,86Z"/><path class="cls-1" d="M61.64,111.05l-.71-1.86,4.67-1.79.71,1.87ZM71,107.48l-.71-1.87,4.67-1.79.71,1.87Zm9.34-3.58L79.61,102l4.67-1.78.71,1.86Zm9.34-3.57L89,98.46l2.91-1.12.72,1.87Z"/><path class="cls-1" d="M56,110.92l-4-3,1.2-1.6,4,3Zm-8-6-4-3,1.21-1.6,4,3Zm-8-6-4-3,1.2-1.59,4,3Zm-8-6-4-3,1.2-1.59,4,3Zm-8-6L23,86l1.2-1.6,1.15.87Z"/><path class="cls-1" d="M54.7,111.05,50,109.27l.72-1.87,4.67,1.79Zm-9.34-3.57-4.66-1.79.71-1.87,4.67,1.79ZM36,103.9l-4.67-1.79.71-1.86L36.74,102Zm-9.34-3.57-2.92-1.12.72-1.87,2.91,1.12Z"/><path class="cls-1" d="M58.46,85l-.64-.47c-.07-.06-7.74-5.82-19-14.73l-.38-.3V34.67H77.67V69.51l-.38.3c-12,9.48-18.16,14.64-18.22,14.69Zm-18-16.47c9.18,7.28,15.91,12.39,17.93,13.92C60.2,81,66,76.17,75.67,68.54V36.67H40.46Z"/><rect class="cls-1" x="50.82" y="44.95" width="25.85" height="1"/><rect class="cls-1" x="53.99" y="48.61" width="22.68" height="1"/><rect class="cls-1" x="57.84" y="52.28" width="18.82" height="1"/><rect class="cls-1" x="62.13" y="55.94" width="14.53" height="1"/><rect class="cls-1" x="65.33" y="59.61" width="11.34" height="1"/><rect class="cls-1" x="68.78" y="63.28" width="7.89" height="1"/><polygon class="cls-1" points="76.28 2.49 76.28 0 24.32 0 24.32 6.27 31.93 6.27 31.93 2.49 76.28 2.49"/><rect class="cls-2" x="43.1" y="11.43" width="29.15" height="23.56"/><path class="cls-1" d="M72.75,35.49H42.6V10.93H72.75Zm-29.15-1H71.75V11.93H43.6Z"/><path class="cls-1" d="M84.65,36.67H30.7V1.49h54Zm-51.95-2h50V3.49H32.7Z"/></g></g></svg>