<svg xmlns="http://www.w3.org/2000/svg" viewBox="0 0 109.47 59.31"><defs><style>.cls-1{fill:#fff;}</style></defs><g id="Слой_2" data-name="Слой 2"><g id="Capa_1" data-name="Capa 1"><path class="cls-1" d="M17.69,17.1h6.72v4H12.56V0h5.13Z"/><path class="cls-1" d="M26.82,8.13a7.21,7.21,0,0,1,2.66-3,6.88,6.88,0,0,1,3.75-1,6.45,6.45,0,0,1,3.1.72,5.29,5.29,0,0,1,2.05,1.89V4.32h5.13V21.06H38.38V18.69a5.52,5.52,0,0,1-2.08,1.89,6.46,6.46,0,0,1-3.11.72,6.75,6.75,0,0,1-3.71-1.07,7.3,7.3,0,0,1-2.66-3,10.08,10.08,0,0,1-1-4.54A10,10,0,0,1,26.82,8.13Zm10.5,1.53a3.45,3.45,0,0,0-2.59-1.11,3.53,3.53,0,0,0-2.6,1.09,4.17,4.17,0,0,0-1.07,3,4.24,4.24,0,0,0,1.07,3,3.57,3.57,0,0,0,5.19,0,4.19,4.19,0,0,0,1.06-3A4.19,4.19,0,0,0,37.32,9.66Z"/><path class="cls-1" d="M50.14,20.55a6.67,6.67,0,0,1-2.7-2.06,5.39,5.39,0,0,1-1.11-2.92H51.4A2,2,0,0,0,52.21,17a2.87,2.87,0,0,0,1.77.54,2.54,2.54,0,0,0,1.49-.38,1.15,1.15,0,0,0-.23-2,16.39,16.39,0,0,0-2.43-.76,22.74,22.74,0,0,1-3-.89A5.09,5.09,0,0,1,47.74,12a4,4,0,0,1-.87-2.71,4.63,4.63,0,0,1,.8-2.63A5.34,5.34,0,0,1,50,4.77a8.94,8.94,0,0,1,3.67-.69,7.38,7.38,0,0,1,5,1.56,6.06,6.06,0,0,1,2.08,4.14H56a2,2,0,0,0-.76-1.38,2.67,2.67,0,0,0-1.7-.51,2.34,2.34,0,0,0-1.38.34,1.11,1.11,0,0,0-.48.95,1.16,1.16,0,0,0,.77,1.08,12.18,12.18,0,0,0,2.38.72,26.2,26.2,0,0,1,3,.94,5.34,5.34,0,0,1,2.06,1.5,4.26,4.26,0,0,1,.91,2.78A4.39,4.39,0,0,1,60,18.82a5.47,5.47,0,0,1-2.37,1.82A9.09,9.09,0,0,1,54,21.3,9.62,9.62,0,0,1,50.14,20.55Z"/><path class="cls-1" d="M79.66,13.92H68.05a3.48,3.48,0,0,0,1,2.38,3.06,3.06,0,0,0,2.17.83,2.7,2.7,0,0,0,2.67-1.62h5.46a7.48,7.48,0,0,1-1.51,3,7.6,7.6,0,0,1-2.75,2.07,8.82,8.82,0,0,1-3.69.75A9,9,0,0,1,67,20.25a7.47,7.47,0,0,1-3-3A9.26,9.26,0,0,1,63,12.69,9.37,9.37,0,0,1,64,8.13a7.36,7.36,0,0,1,3-3,9,9,0,0,1,4.41-1,9,9,0,0,1,4.32,1,7.34,7.34,0,0,1,3,2.91,8.83,8.83,0,0,1,1.06,4.41A13.1,13.1,0,0,1,79.66,13.92ZM74.5,11.07A2.64,2.64,0,0,0,73.6,9a3.31,3.31,0,0,0-2.25-.78,3.24,3.24,0,0,0-2.17.75,3.34,3.34,0,0,0-1.1,2.13Z"/><path class="cls-1" d="M89.83,4.93a5.9,5.9,0,0,1,3-.79V9.57H91.42a4.32,4.32,0,0,0-2.88.82,3.69,3.69,0,0,0-1,2.9v7.77H82.45V4.32h5.13V7.11A6.78,6.78,0,0,1,89.83,4.93Z"/><path class="cls-1" d="M1.06,38.13a7.36,7.36,0,0,1,3-3A8.87,8.87,0,0,1,8.4,34.08a8.31,8.31,0,0,1,5.27,1.65,7.78,7.78,0,0,1,2.77,4.65H11a2.63,2.63,0,0,0-2.67-1.92,2.71,2.71,0,0,0-2.25,1.09,5.1,5.1,0,0,0-.84,3.14,5,5,0,0,0,.84,3.13,2.7,2.7,0,0,0,2.25,1.1A2.63,2.63,0,0,0,11,45h5.46a7.86,7.86,0,0,1-2.79,4.62A8.21,8.21,0,0,1,8.4,51.3a8.87,8.87,0,0,1-4.36-1,7.36,7.36,0,0,1-3-3A9.37,9.37,0,0,1,0,42.69,9.37,9.37,0,0,1,1.06,38.13Z"/><path class="cls-1" d="M35.7,34.32V51.06H30.57V48.78a5.68,5.68,0,0,1-2.11,1.78,6.51,6.51,0,0,1-3,.68,6.62,6.62,0,0,1-3.39-.86,5.75,5.75,0,0,1-2.28-2.47A8.42,8.42,0,0,1,19,44.1V34.32h5.1v9.09A3.67,3.67,0,0,0,25,46a3.05,3.05,0,0,0,2.34.93A3.09,3.09,0,0,0,29.7,46a3.67,3.67,0,0,0,.87-2.61V34.32Z"/><path class="cls-1" d="M48.72,46.71v4.35H46.11a6.39,6.39,0,0,1-4.35-1.37c-1-.9-1.56-2.39-1.56-4.45V38.58h-2V34.32h2V30.24h5.13v4.08h3.36v4.26H45.33V45.3a1.41,1.41,0,0,0,.36,1.08,1.76,1.76,0,0,0,1.2.33Z"/><path class="cls-1" d="M60.9,46.71v4.35H58.29a6.39,6.39,0,0,1-4.35-1.37c-1-.9-1.56-2.39-1.56-4.45V38.58h-2V34.32h2V30.24h5.13v4.08h3.36v4.26H57.51V45.3a1.41,1.41,0,0,0,.36,1.08,1.76,1.76,0,0,0,1.2.33Z"/><path class="cls-1" d="M64.12,31.78a2.56,2.56,0,0,1-.85-2,2.62,2.62,0,0,1,.85-2A3.12,3.12,0,0,1,66.33,27a3.05,3.05,0,0,1,2.17.79,2.62,2.62,0,0,1,.86,2,2.57,2.57,0,0,1-.86,2,3.06,3.06,0,0,1-2.17.8A3.12,3.12,0,0,1,64.12,31.78Zm4.76,2.54V51.06H63.75V34.32Z"/><path class="cls-1" d="M87.49,36a7.45,7.45,0,0,1,1.76,5.24v9.78h-5.1V42a3.67,3.67,0,0,0-.87-2.61,3.41,3.41,0,0,0-4.68,0A3.67,3.67,0,0,0,77.73,42v9.09H72.6V34.32h5.13v2.22a5.42,5.42,0,0,1,2.1-1.76,6.67,6.67,0,0,1,3-.64A6.06,6.06,0,0,1,87.49,36Z"/><path class="cls-1" d="M102.28,34.8a5.32,5.32,0,0,1,2.06,1.89V34.32h5.13V51a9.4,9.4,0,0,1-.92,4.18,7,7,0,0,1-2.79,3,9,9,0,0,1-4.66,1.11,9.7,9.7,0,0,1-6-1.76,6.61,6.61,0,0,1-2.64-4.75H97.5a2.42,2.42,0,0,0,1.14,1.51,4.16,4.16,0,0,0,2.22.56,3.48,3.48,0,0,0,2.53-.92,3.91,3.91,0,0,0,1-2.92V48.66a5.59,5.59,0,0,1-2.07,1.9,6.25,6.25,0,0,1-3.09.74,6.86,6.86,0,0,1-3.75-1.07,7.37,7.37,0,0,1-2.66-3,10.08,10.08,0,0,1-1-4.54,10,10,0,0,1,1-4.53,7.28,7.28,0,0,1,2.66-3,6.93,6.93,0,0,1,3.75-1.05A6.42,6.42,0,0,1,102.28,34.8Zm1,4.86a3.45,3.45,0,0,0-2.59-1.11,3.53,3.53,0,0,0-2.6,1.09,4.17,4.17,0,0,0-1.06,3,4.23,4.23,0,0,0,1.06,3,3.57,3.57,0,0,0,5.19,0,4.2,4.2,0,0,0,1.07-3A4.2,4.2,0,0,0,103.27,39.66Z"/></g></g></svg>