<svg xmlns="http://www.w3.org/2000/svg" viewBox="0 0 161.07 32.28"><defs><style>.cls-1{fill:#fff;}</style></defs><g id="Слой_2" data-name="Слой 2"><g id="Capa_1" data-name="Capa 1"><path class="cls-1" d="M23.85,3V24H18.72V11.4L14,24H9.87L5.13,11.37V24H0V3H6.06L12,17.55,17.82,3Z"/><path class="cls-1" d="M27.5,11.1a7.26,7.26,0,0,1,2.65-3,6.93,6.93,0,0,1,3.75-1A6.46,6.46,0,0,1,37,7.77a5.29,5.29,0,0,1,2.05,1.89V7.29h5.13V24H39.06V21.66A5.6,5.6,0,0,1,37,23.55a6.49,6.49,0,0,1-3.11.72,6.8,6.8,0,0,1-3.72-1.06,7.32,7.32,0,0,1-2.65-3,10,10,0,0,1-1-4.54A10,10,0,0,1,27.5,11.1ZM38,12.63a3.6,3.6,0,0,0-5.19,0,4.13,4.13,0,0,0-1.07,3,4.24,4.24,0,0,0,1.07,3A3.42,3.42,0,0,0,35.4,19.8,3.47,3.47,0,0,0,38,18.69a4.19,4.19,0,0,0,1.06-3A4.19,4.19,0,0,0,38,12.63Z"/><path class="cls-1" d="M48,11.1a7.4,7.4,0,0,1,3-3,8.91,8.91,0,0,1,4.37-1A8.27,8.27,0,0,1,60.55,8.7a7.79,7.79,0,0,1,2.78,4.65H57.87a2.63,2.63,0,0,0-2.67-1.92A2.7,2.7,0,0,0,53,12.53a5,5,0,0,0-.84,3.13A5,5,0,0,0,53,18.79a2.67,2.67,0,0,0,2.25,1.1A2.63,2.63,0,0,0,57.87,18h5.46a7.86,7.86,0,0,1-2.79,4.62,8.21,8.21,0,0,1-5.25,1.68,8.91,8.91,0,0,1-4.37-1.05,7.4,7.4,0,0,1-3-3,9.37,9.37,0,0,1-1.06-4.56A9.37,9.37,0,0,1,48,11.1Z"/><path class="cls-1" d="M81,9a7.46,7.46,0,0,1,1.74,5.23V24h-5.1V14.94a3.67,3.67,0,0,0-.87-2.61,3.41,3.41,0,0,0-4.68,0,3.67,3.67,0,0,0-.87,2.61V24H66.06V1.83h5.13V9.54a5.48,5.48,0,0,1,2.13-1.77,6.81,6.81,0,0,1,3-.66A6,6,0,0,1,81,9Z"/><path class="cls-1" d="M86.65,4.75a2.55,2.55,0,0,1-.85-2,2.63,2.63,0,0,1,.85-2A3.16,3.16,0,0,1,88.86,0,3.1,3.1,0,0,1,91,.79a2.64,2.64,0,0,1,.86,2,2.56,2.56,0,0,1-.86,2,3,3,0,0,1-2.17.8A3.08,3.08,0,0,1,86.65,4.75Zm4.76,2.54V24H86.28V7.29Z"/><path class="cls-1" d="M110,9a7.42,7.42,0,0,1,1.76,5.23V24h-5.1V14.94a3.67,3.67,0,0,0-.87-2.61,3.41,3.41,0,0,0-4.68,0,3.67,3.67,0,0,0-.87,2.61V24H95.13V7.29h5.13V9.51a5.51,5.51,0,0,1,2.1-1.76,6.81,6.81,0,0,1,3-.64A6.07,6.07,0,0,1,110,9Z"/><path class="cls-1" d="M115.72,4.75a2.55,2.55,0,0,1-.85-2,2.63,2.63,0,0,1,.85-2A3.16,3.16,0,0,1,117.93,0a3.1,3.1,0,0,1,2.17.79,2.64,2.64,0,0,1,.86,2,2.56,2.56,0,0,1-.86,2,3,3,0,0,1-2.17.8A3.08,3.08,0,0,1,115.72,4.75Zm4.76,2.54V24h-5.13V7.29Z"/><path class="cls-1" d="M139.09,9a7.42,7.42,0,0,1,1.76,5.23V24h-5.1V14.94a3.67,3.67,0,0,0-.87-2.61,3.41,3.41,0,0,0-4.68,0,3.67,3.67,0,0,0-.87,2.61V24H124.2V7.29h5.13V9.51a5.51,5.51,0,0,1,2.1-1.76,6.81,6.81,0,0,1,3-.64A6.07,6.07,0,0,1,139.09,9Z"/><path class="cls-1" d="M153.88,7.77a5.32,5.32,0,0,1,2.06,1.89V7.29h5.13V24a9.44,9.44,0,0,1-.92,4.19,7,7,0,0,1-2.79,3,9,9,0,0,1-4.66,1.11,9.7,9.7,0,0,1-6-1.75A6.63,6.63,0,0,1,144,25.77h5.07a2.44,2.44,0,0,0,1.14,1.52,4.15,4.15,0,0,0,2.22.55,3.44,3.44,0,0,0,2.53-.92,3.9,3.9,0,0,0,.95-2.92V21.63a5.7,5.7,0,0,1-2.07,1.91,6.25,6.25,0,0,1-3.09.73A6.85,6.85,0,0,1,147,23.21a7.34,7.34,0,0,1-2.66-3,10,10,0,0,1-1-4.54,10,10,0,0,1,1-4.53,7.28,7.28,0,0,1,2.66-3,6.93,6.93,0,0,1,3.75-1A6.42,6.42,0,0,1,153.88,7.77Zm1,4.86a3.45,3.45,0,0,0-2.59-1.11,3.5,3.5,0,0,0-2.6,1.1,4.13,4.13,0,0,0-1.06,3,4.23,4.23,0,0,0,1.06,3,3.57,3.57,0,0,0,5.19,0,4.2,4.2,0,0,0,1.07-3A4.2,4.2,0,0,0,154.87,12.63Z"/></g></g></svg>