<svg xmlns="http://www.w3.org/2000/svg" viewBox="0 0 149.07 138.13"><defs><style>.cls-1{fill:#fff;}.cls-2{fill:#a5110a;}</style></defs><g id="Capa_2" data-name="Capa 2"><g id="Capa_1-2" data-name="Capa 1"><path class="cls-1" d="M148.57,24.13h-35V.9h35Zm-34-1h33V1.9h-33Z"/><path class="cls-1" d="M149.07,24.63H113V.4h36Zm-34-2h32V2.4H115Z"/><rect class="cls-1" x="21.11" width="3" height="20.81"/><rect class="cls-1" x="37.95" y="7.31" width="3" height="13.5"/><rect class="cls-1" x="54.78" width="3" height="20.81"/><circle class="cls-1" cx="25.78" cy="45.92" r="6.26"/><circle class="cls-1" cx="48.11" cy="45.92" r="6.26"/><circle class="cls-1" cx="70.44" cy="45.92" r="6.26"/><rect class="cls-1" x="110.74" y="66.95" width="1" height="0.26" transform="translate(-9.51 19.2) rotate(-9.46)"/><rect class="cls-1" x="118.53" y="88.39" width="20.25" height="1"/><rect class="cls-1" x="128.66" y="6.81" width="20.25" height="1"/><rect class="cls-1" x="128.66" y="12.02" width="20.25" height="1"/><rect class="cls-1" x="128.66" y="17.22" width="20.25" height="1"/><rect class="cls-1" x="118.53" y="98.79" width="20.25" height="1"/><rect class="cls-1" x="118.53" y="109.2" width="20.25" height="1"/><rect class="cls-2" x="29.33" y="76.23" width="25.04" height="33.62"/><path class="cls-1" d="M54.87,110.35h-26V75.73h26Zm-25-1h24V76.73h-24Z"/><path class="cls-1" d="M94.48,106.54a15.41,15.41,0,1,1,15.41-15.4A15.42,15.42,0,0,1,94.48,106.54Zm0-29.81a14.41,14.41,0,1,0,14.41,14.41A14.42,14.42,0,0,0,94.48,76.73Z"/><circle class="cls-1" cx="94.48" cy="91.14" r="3.59"/><rect class="cls-1" x="93.48" y="76.23" width="2" height="14.91"/><rect class="cls-1" x="99.42" y="88.19" width="2" height="14.91" transform="translate(-36.49 117.75) rotate(-52.78)"/><rect class="cls-1" x="80.98" y="94.48" width="14.91" height="2" transform="translate(-39.08 69.46) rotate(-35.66)"/><path class="cls-1" d="M149.07,138.13H128.64L118,124H93L82.35,138.13H6.71V19.82h73l7.4,14.62h19.65L112.06,66h37Zm-19.43-2h17.43V68h-36.7L105,36.44H85.84l-7.4-14.62H8.71V136.13H81.35L92,122H119Z"/><rect class="cls-1" x="130.05" y="23.63" width="2" height="43.32"/><polygon class="cls-1" points="8.71 21.85 67.87 21.85 67.87 17.72 0 17.72 0 27.52 8.71 27.52 8.71 21.85"/><polygon class="cls-1" points="125.69 132.54 85.1 132.54 92.47 123.01 118.53 123.01 125.69 132.54"/></g></g></svg>