<svg xmlns="http://www.w3.org/2000/svg" viewBox="0 0 126.06 32.28"><defs><style>.cls-1{fill:#fff;}</style></defs><g id="Слой_2" data-name="Слой 2"><g id="Capa_1" data-name="Capa 1"><path class="cls-1" d="M15.21,13.1a6.17,6.17,0,0,1-2.58,2.44,9.08,9.08,0,0,1-4.32.93H5.13V24H0V3H8.31a9.46,9.46,0,0,1,4.26.87,6,6,0,0,1,2.61,2.4,7,7,0,0,1,.87,3.51A6.8,6.8,0,0,1,15.21,13.1Zm-5.1-1.4a2.57,2.57,0,0,0,.72-1.95,2.57,2.57,0,0,0-.72-1.95,3.06,3.06,0,0,0-2.19-.69H5.13v5.28H7.92A3.06,3.06,0,0,0,10.11,11.7Z"/><path class="cls-1" d="M18.67,11.1a7.28,7.28,0,0,1,2.66-3,6.93,6.93,0,0,1,3.75-1,6.49,6.49,0,0,1,3.11.72,5.36,5.36,0,0,1,2,1.89V7.29h5.13V24H30.24V21.66a5.56,5.56,0,0,1-2.09,1.89,6.42,6.42,0,0,1-3.1.72,6.8,6.8,0,0,1-3.72-1.06,7.34,7.34,0,0,1-2.66-3,10,10,0,0,1-1-4.54A10,10,0,0,1,18.67,11.1Zm10.5,1.53a3.45,3.45,0,0,0-2.59-1.11,3.5,3.5,0,0,0-2.6,1.1,4.13,4.13,0,0,0-1.06,3,4.23,4.23,0,0,0,1.06,3,3.57,3.57,0,0,0,5.19,0,4.2,4.2,0,0,0,1.07-3A4.2,4.2,0,0,0,29.17,12.63Z"/><path class="cls-1" d="M39.46,4.75a2.55,2.55,0,0,1-.85-2,2.63,2.63,0,0,1,.85-2A3.16,3.16,0,0,1,41.67,0a3.1,3.1,0,0,1,2.17.79,2.64,2.64,0,0,1,.86,2,2.56,2.56,0,0,1-.86,2,3,3,0,0,1-2.17.8A3.08,3.08,0,0,1,39.46,4.75Zm4.76,2.54V24H39.09V7.29Z"/><path class="cls-1" d="M62.83,9a7.42,7.42,0,0,1,1.76,5.23V24h-5.1V14.94a3.67,3.67,0,0,0-.87-2.61,3.41,3.41,0,0,0-4.68,0,3.67,3.67,0,0,0-.87,2.61V24H47.94V7.29h5.13V9.51a5.51,5.51,0,0,1,2.1-1.76,6.81,6.81,0,0,1,3-.64A6.07,6.07,0,0,1,62.83,9Z"/><path class="cls-1" d="M77.49,19.68V24H74.88a6.39,6.39,0,0,1-4.35-1.36Q69,21.31,69,18.21V11.55h-2V7.29h2V3.21H74.1V7.29h3.36v4.26H74.1v6.72a1.41,1.41,0,0,0,.36,1.08,1.76,1.76,0,0,0,1.2.33Z"/><path class="cls-1" d="M80.71,4.75a2.55,2.55,0,0,1-.85-2,2.63,2.63,0,0,1,.85-2A3.16,3.16,0,0,1,82.92,0a3.1,3.1,0,0,1,2.17.79,2.64,2.64,0,0,1,.86,2,2.56,2.56,0,0,1-.86,2,3,3,0,0,1-2.17.8A3.08,3.08,0,0,1,80.71,4.75Zm4.76,2.54V24H80.34V7.29Z"/><path class="cls-1" d="M104.08,9a7.42,7.42,0,0,1,1.76,5.23V24h-5.1V14.94a3.67,3.67,0,0,0-.87-2.61,3.41,3.41,0,0,0-4.68,0,3.67,3.67,0,0,0-.87,2.61V24H89.19V7.29h5.13V9.51a5.51,5.51,0,0,1,2.1-1.76,6.81,6.81,0,0,1,3-.64A6.07,6.07,0,0,1,104.08,9Z"/><path class="cls-1" d="M118.87,7.77a5.32,5.32,0,0,1,2.06,1.89V7.29h5.13V24a9.44,9.44,0,0,1-.92,4.19,7,7,0,0,1-2.79,3,9,9,0,0,1-4.66,1.11,9.7,9.7,0,0,1-6-1.75A6.63,6.63,0,0,1,109,25.77h5.07a2.44,2.44,0,0,0,1.14,1.52,4.15,4.15,0,0,0,2.22.55,3.44,3.44,0,0,0,2.53-.92,3.9,3.9,0,0,0,1-2.92V21.63a5.7,5.7,0,0,1-2.07,1.91,6.25,6.25,0,0,1-3.09.73A6.85,6.85,0,0,1,112,23.21a7.34,7.34,0,0,1-2.66-3,10,10,0,0,1-1-4.54,10,10,0,0,1,1-4.53,7.28,7.28,0,0,1,2.66-3,6.93,6.93,0,0,1,3.75-1A6.42,6.42,0,0,1,118.87,7.77Zm1,4.86a3.45,3.45,0,0,0-2.59-1.11,3.5,3.5,0,0,0-2.6,1.1,4.13,4.13,0,0,0-1.06,3,4.23,4.23,0,0,0,1.06,3,3.57,3.57,0,0,0,5.19,0,4.2,4.2,0,0,0,1.07-3A4.2,4.2,0,0,0,119.86,12.63Z"/></g></g></svg>