<svg xmlns="http://www.w3.org/2000/svg" viewBox="0 0 142.33 149.17"><defs><style>.cls-1{fill:#fff;}.cls-2{fill:#a5110a;}</style></defs><g id="Capa_2" data-name="Capa 2"><g id="Capa_1-2" data-name="Capa 1"><path class="cls-1" d="M18.22,149.17H0V23.4H18.22ZM2,147.17H16.22V25.4H2Z"/><path class="cls-1" d="M123.49,96.65H52.64A11.25,11.25,0,0,1,41.4,85.41V84.27A11.25,11.25,0,0,1,52.64,73h70.85a11.3,11.3,0,0,1,10.15,6.4,11.09,11.09,0,0,1,1.09,4.84v1.14a11.09,11.09,0,0,1-1.09,4.84A11.3,11.3,0,0,1,123.49,96.65ZM52.64,75a9.25,9.25,0,0,0-9.24,9.24v1.14a9.26,9.26,0,0,0,9.24,9.24h70.85a9.29,9.29,0,0,0,8.34-5.26,9.12,9.12,0,0,0,.9-4V84.27a9.12,9.12,0,0,0-.9-4A9.27,9.27,0,0,0,123.49,75Z"/><path class="cls-1" d="M134.72,139.33H113.57v-1c0-.34-.17-33.84-14.65-41.8l-3.41-1.88H122l.3.33c.52.57,12.78,14.28,12.4,43.36Zm-19.16-2h17.18c.07-25.25-9.82-38.49-11.61-40.68H102.61C114.28,106.42,115.45,131.86,115.56,137.33Z"/><path class="cls-1" d="M91.31,112l-2.79-4.16A19.72,19.72,0,0,0,97,95.17l4.9,1a24.54,24.54,0,0,1-3.27,8.3A25.06,25.06,0,0,1,91.31,112Z"/><path class="cls-1" d="M94.21,69.57l-46.09-15L65.91,0,112,15ZM50.64,53.26,92.92,67.05l16.55-50.74L67.19,2.52Z"/><rect class="cls-2" x="69.44" y="22.14" width="21.22" height="25.28" transform="translate(14.73 -23.11) rotate(18.06)"/><path class="cls-1" d="M86.54,50.72,65.42,43.83l8.15-25,21.12,6.89ZM66.68,43.19,85.9,49.46l7.53-23.08L74.21,20.11Z"/><rect class="cls-1" x="51.91" y="52.96" width="2" height="14.23" transform="translate(-22.83 34.14) rotate(-29.73)"/><rect class="cls-1" x="79.76" y="69.21" width="14.23" height="2" transform="translate(-16.37 27.58) rotate(-16.51)"/><path class="cls-1" d="M136.36,90.82h-5.21l.68-1.43a9.12,9.12,0,0,0,.9-4V84.27a9.12,9.12,0,0,0-.9-4l-.68-1.43h5.21a6,6,0,0,1,4.22,10.21A5.91,5.91,0,0,1,136.36,90.82Zm-2.15-2h2.15a4,4,0,0,0,0-8h-2.15a11.19,11.19,0,0,1,.52,3.41v1.14A11.19,11.19,0,0,1,134.21,88.82Z"/><rect class="cls-1" x="116.57" y="105.4" width="11.22" height="1"/><rect class="cls-1" x="119.13" y="111.09" width="10.77" height="1"/><rect class="cls-1" x="121.69" y="116.78" width="9.82" height="1"/><path class="cls-1" d="M39.85,75.89,37,71.81l1.64-1.16,2.88,4.09Zm-5.77-8.17L31.2,63.63l1.63-1.15,2.89,4.09Zm-5.76-8.17-2.88-4.09,1.63-1.15L30,58.4Zm-5.77-8.17-2.88-4.09,1.64-1.15,2.88,4.08Z"/><path class="cls-1" d="M21.31,126.43l-1.64-1.15,2.88-4.09,1.64,1.15Zm5.76-8.17-1.63-1.16L28.32,113,30,114.17Zm5.76-8.18-1.63-1.15,2.88-4.08L35.72,106Zm5.77-8.17L37,100.76l2.89-4.09,1.63,1.16Z"/><path class="cls-1" d="M36.06,87.28h-5v-2h5Zm-10,0h-5v-2h5Z"/><rect class="cls-1" x="78.59" y="72.13" width="2.02" height="2" transform="translate(-21.67 110.91) rotate(-63.03)"/><rect class="cls-1" x="51.69" y="69.14" width="7.93" height="2" transform="translate(-24.09 110.87) rotate(-78.62)"/><rect class="cls-1" x="67.25" y="57.06" width="2" height="24.36" transform="translate(-15.62 118.42) rotate(-75.8)"/></g></g></svg>