<svg xmlns="http://www.w3.org/2000/svg" viewBox="0 0 143.25 32.28"><defs><style>.cls-1{fill:#fff;}</style></defs><g id="Слой_2" data-name="Слой 2"><g id="Capa_1" data-name="Capa 1"><path class="cls-1" d="M15.21,13.1a6.17,6.17,0,0,1-2.58,2.44,9.08,9.08,0,0,1-4.32.93H5.13V24H0V3H8.31a9.46,9.46,0,0,1,4.26.87,6,6,0,0,1,2.61,2.4,7,7,0,0,1,.87,3.51A6.8,6.8,0,0,1,15.21,13.1Zm-5.1-1.4a2.57,2.57,0,0,0,.72-1.95,2.57,2.57,0,0,0-.72-1.95,3.06,3.06,0,0,0-2.19-.69H5.13v5.28H7.92A3.06,3.06,0,0,0,10.11,11.7Z"/><path class="cls-1" d="M35.25,7.29V24H30.12V21.75A5.75,5.75,0,0,1,28,23.54a6.43,6.43,0,0,1-2.95.67,6.72,6.72,0,0,1-3.39-.85,5.78,5.78,0,0,1-2.28-2.48,8.42,8.42,0,0,1-.81-3.81V7.29h5.1v9.09A3.67,3.67,0,0,0,24.54,19a3.05,3.05,0,0,0,2.34.93A3.09,3.09,0,0,0,29.25,19a3.67,3.67,0,0,0,.87-2.61V7.29Z"/><path class="cls-1" d="M53.83,9a7.42,7.42,0,0,1,1.76,5.23V24h-5.1V14.94a3.67,3.67,0,0,0-.87-2.61,3.41,3.41,0,0,0-4.68,0,3.67,3.67,0,0,0-.87,2.61V24H38.94V7.29h5.13V9.51a5.51,5.51,0,0,1,2.1-1.76,6.81,6.81,0,0,1,3-.64A6.07,6.07,0,0,1,53.83,9Z"/><path class="cls-1" d="M59.2,11.1a7.4,7.4,0,0,1,3-3,8.91,8.91,0,0,1,4.37-1A8.27,8.27,0,0,1,71.8,8.7a7.79,7.79,0,0,1,2.78,4.65H69.12a2.63,2.63,0,0,0-2.67-1.92,2.7,2.7,0,0,0-2.25,1.1,5,5,0,0,0-.84,3.13,5,5,0,0,0,.84,3.13,2.67,2.67,0,0,0,2.25,1.1A2.63,2.63,0,0,0,69.12,18h5.46a7.86,7.86,0,0,1-2.79,4.62,8.21,8.21,0,0,1-5.25,1.68,8.91,8.91,0,0,1-4.37-1.05,7.4,7.4,0,0,1-3-3,9.37,9.37,0,0,1-1.06-4.56A9.37,9.37,0,0,1,59.2,11.1Z"/><path class="cls-1" d="M92.22,9A7.46,7.46,0,0,1,94,14.25V24h-5.1V14.94A3.67,3.67,0,0,0,88,12.33a3.41,3.41,0,0,0-4.68,0,3.67,3.67,0,0,0-.87,2.61V24H77.31V1.83h5.13V9.54a5.48,5.48,0,0,1,2.13-1.77,6.81,6.81,0,0,1,3-.66A6,6,0,0,1,92.22,9Z"/><path class="cls-1" d="M97.9,4.75a2.55,2.55,0,0,1-.85-2,2.63,2.63,0,0,1,.85-2A3.16,3.16,0,0,1,100.11,0a3.1,3.1,0,0,1,2.17.79,2.64,2.64,0,0,1,.86,2,2.56,2.56,0,0,1-.86,2,3,3,0,0,1-2.17.8A3.08,3.08,0,0,1,97.9,4.75Zm4.76,2.54V24H97.53V7.29Z"/><path class="cls-1" d="M121.27,9A7.42,7.42,0,0,1,123,14.25V24h-5.1V14.94a3.67,3.67,0,0,0-.87-2.61,3.41,3.41,0,0,0-4.68,0,3.67,3.67,0,0,0-.87,2.61V24h-5.13V7.29h5.13V9.51a5.51,5.51,0,0,1,2.1-1.76,6.81,6.81,0,0,1,3-.64A6.07,6.07,0,0,1,121.27,9Z"/><path class="cls-1" d="M136.06,7.77a5.32,5.32,0,0,1,2.06,1.89V7.29h5.13V24a9.44,9.44,0,0,1-.92,4.19,7,7,0,0,1-2.79,3,9,9,0,0,1-4.66,1.11,9.7,9.7,0,0,1-6-1.75,6.63,6.63,0,0,1-2.64-4.76h5.07a2.44,2.44,0,0,0,1.14,1.52,4.15,4.15,0,0,0,2.22.55,3.44,3.44,0,0,0,2.53-.92,3.9,3.9,0,0,0,1-2.92V21.63a5.7,5.7,0,0,1-2.07,1.91,6.25,6.25,0,0,1-3.09.73,6.85,6.85,0,0,1-3.75-1.06,7.34,7.34,0,0,1-2.66-3,10,10,0,0,1-1-4.54,10,10,0,0,1,1-4.53,7.28,7.28,0,0,1,2.66-3,6.93,6.93,0,0,1,3.75-1A6.42,6.42,0,0,1,136.06,7.77Zm1,4.86a3.45,3.45,0,0,0-2.59-1.11,3.5,3.5,0,0,0-2.6,1.1,4.13,4.13,0,0,0-1.06,3,4.23,4.23,0,0,0,1.06,3,3.57,3.57,0,0,0,5.19,0,4.2,4.2,0,0,0,1.07-3A4.2,4.2,0,0,0,137.05,12.63Z"/></g></g></svg>