<svg xmlns="http://www.w3.org/2000/svg" viewBox="0 0 111.4 171.05"><defs><style>.cls-1{fill:#a5110a;}.cls-2{fill:#fff;}</style></defs><g id="Capa_2" data-name="Capa 2"><g id="Capa_1-2" data-name="Capa 1"><rect class="cls-1" x="41.51" y="11.57" width="28.38" height="22.94"/><path class="cls-2" d="M70.39,35H41V11.07H70.39ZM42,34H69.39V12.07H42Z"/><path class="cls-2" d="M111.4,125,57.63,91.65V70.94h2.2a15,15,0,0,0,15-15V36.17H82V1.45H73.81V0H23.22V6.18h6.19v30h7.18V56a15,15,0,0,0,15,15h2.2V91.65L0,125l.05,0v9.81L26,151.73l.19-9.84,3.67,2.38-.14,9.89,25.91,16.89,55.76-36.2V125Zm-80-90.84V3.45H80V34.17H31.41ZM38.59,56V36.17h7.75V52.55h1V36.17H55.2V59.76h1V36.17h7.86V52.55h1V36.17h7.75V56a13,13,0,0,1-13,13H51.58A13,13,0,0,1,38.59,56ZM107.67,125l-52,33.56L29.86,141.91l27.68-17.19v0h.1V94ZM53.78,94v28.53L26.28,139.6,3.74,125Zm1.92,67L38.31,149.75,55.7,161l17.59-11.36Z"/></g></g></svg>