<svg xmlns="http://www.w3.org/2000/svg" viewBox="0 0 173.52 53.76"><defs><style>.cls-1{fill:#fff;}</style></defs><g id="Слой_2" data-name="Слой 2"><g id="Capa_1" data-name="Capa 1"><path class="cls-1" d="M29.59,23a6.79,6.79,0,0,1-2.92-2.22,6.07,6.07,0,0,1-1.16-3.54H31A2.59,2.59,0,0,0,31.79,19a2.53,2.53,0,0,0,1.79.62,2.8,2.8,0,0,0,1.8-.53,1.89,1.89,0,0,0,.14-2.74,4.24,4.24,0,0,0-1.29-.84,20.11,20.11,0,0,0-2.18-.75,23,23,0,0,1-3.32-1.26,6.18,6.18,0,0,1-2.23-1.86,5.18,5.18,0,0,1-.92-3.21,5.53,5.53,0,0,1,2.13-4.61,8.72,8.72,0,0,1,5.54-1.66,8.88,8.88,0,0,1,5.62,1.66,6,6,0,0,1,2.28,4.64H35.59a2.18,2.18,0,0,0-.75-1.61,2.63,2.63,0,0,0-1.76-.58,2.2,2.2,0,0,0-1.5.49A1.8,1.8,0,0,0,31,8.19a1.79,1.79,0,0,0,1,1.59A15.74,15.74,0,0,0,35,11a27.19,27.19,0,0,1,3.32,1.32,6.33,6.33,0,0,1,2.21,1.83,5,5,0,0,1,.93,3.09,6.07,6.07,0,0,1-.92,3.27,6.42,6.42,0,0,1-2.66,2.34,9.07,9.07,0,0,1-4.1.87A10.85,10.85,0,0,1,29.59,23Z"/><path class="cls-1" d="M61.09,6.78V23.52H56V21.24A5.6,5.6,0,0,1,53.85,23a6.48,6.48,0,0,1-3,.68,6.62,6.62,0,0,1-3.39-.86,5.75,5.75,0,0,1-2.28-2.47,8.42,8.42,0,0,1-.8-3.81V6.78h5.09v9.09a3.67,3.67,0,0,0,.87,2.61,3.45,3.45,0,0,0,4.71,0A3.67,3.67,0,0,0,56,15.87V6.78Z"/><path class="cls-1" d="M72.17,7.39a5.84,5.84,0,0,1,3-.79V12H73.75a4.27,4.27,0,0,0-2.87.82,3.66,3.66,0,0,0-1,2.9v7.77H64.78V6.78h5.14V9.57A6.6,6.6,0,0,1,72.17,7.39Z"/><path class="cls-1" d="M86,11H83.26V23.52H78.13V11H76.27V6.78h1.86V6.3A6,6,0,0,1,79.9,1.6,7.53,7.53,0,0,1,85.09,0q.57,0,.84,0V4.38a2.94,2.94,0,0,0-2.07.42,2.31,2.31,0,0,0-.6,1.83v.15H86Z"/><path class="cls-1" d="M88.38,10.59a7.26,7.26,0,0,1,2.65-3,6.93,6.93,0,0,1,3.75-1,6.46,6.46,0,0,1,3.11.72,5.29,5.29,0,0,1,2,1.89V6.78h5.13V23.52H99.94V21.15A5.52,5.52,0,0,1,97.86,23a6.46,6.46,0,0,1-3.11.72A6.81,6.81,0,0,1,91,22.69a7.35,7.35,0,0,1-2.65-3,10.08,10.08,0,0,1-1-4.54A10,10,0,0,1,88.38,10.59Zm10.5,1.53a3.61,3.61,0,0,0-5.19,0,4.16,4.16,0,0,0-1.07,3,4.24,4.24,0,0,0,1.07,3,3.43,3.43,0,0,0,2.59,1.13,3.47,3.47,0,0,0,2.6-1.11,4.19,4.19,0,0,0,1.06-3A4.19,4.19,0,0,0,98.88,12.12Z"/><path class="cls-1" d="M108.84,10.59a7.4,7.4,0,0,1,3-3,8.87,8.87,0,0,1,4.36-1,8.31,8.31,0,0,1,5.27,1.65,7.78,7.78,0,0,1,2.77,4.65h-5.46a2.63,2.63,0,0,0-2.67-1.92A2.71,2.71,0,0,0,113.83,12a5.1,5.1,0,0,0-.84,3.14,5,5,0,0,0,.84,3.13,2.7,2.7,0,0,0,2.25,1.1,2.63,2.63,0,0,0,2.67-1.92h5.46a7.86,7.86,0,0,1-2.79,4.62,8.21,8.21,0,0,1-5.25,1.68,8.87,8.87,0,0,1-4.36-1.05,7.4,7.4,0,0,1-3-3,9.37,9.37,0,0,1-1.07-4.56A9.37,9.37,0,0,1,108.84,10.59Z"/><path class="cls-1" d="M142.63,16.38H131a3.48,3.48,0,0,0,1,2.38,3.06,3.06,0,0,0,2.17.83A2.7,2.7,0,0,0,136.87,18h5.46a7.48,7.48,0,0,1-1.51,3A7.6,7.6,0,0,1,138.07,23a8.82,8.82,0,0,1-3.69.75A9,9,0,0,1,130,22.71a7.47,7.47,0,0,1-3-3,9.26,9.26,0,0,1-1.08-4.56A9.37,9.37,0,0,1,127,10.59a7.36,7.36,0,0,1,3-3,9,9,0,0,1,4.41-1,9,9,0,0,1,4.32,1,7.34,7.34,0,0,1,3,2.91,8.83,8.83,0,0,1,1.06,4.41A13.1,13.1,0,0,1,142.63,16.38Zm-5.16-2.85a2.64,2.64,0,0,0-.9-2.1,3.31,3.31,0,0,0-2.25-.78,3.24,3.24,0,0,0-2.17.75,3.34,3.34,0,0,0-1.1,2.13Z"/><path class="cls-1" d="M10.56,49.17v4.35H8A6.39,6.39,0,0,1,3.6,52.15C2.56,51.25,2,49.76,2,47.7V41H0V36.78H2V32.7H7.17v4.08h3.36V41H7.17v6.72a1.41,1.41,0,0,0,.36,1.08,1.76,1.76,0,0,0,1.2.33Z"/><path class="cls-1" d="M20.79,37.39a5.9,5.9,0,0,1,3-.79V42H22.38a4.32,4.32,0,0,0-2.88.82,3.69,3.69,0,0,0-1,2.9v7.77H13.41V36.78h5.13v2.79A6.78,6.78,0,0,1,20.79,37.39Z"/><path class="cls-1" d="M41.94,46.38H30.33a3.52,3.52,0,0,0,1,2.38,3.09,3.09,0,0,0,2.18.83A2.7,2.7,0,0,0,36.18,48h5.46a7.57,7.57,0,0,1-4.26,5,8.82,8.82,0,0,1-3.69.75,9,9,0,0,1-4.38-1,7.47,7.47,0,0,1-3-3,9.26,9.26,0,0,1-1.08-4.56,9.37,9.37,0,0,1,1.06-4.56,7.38,7.38,0,0,1,3-3,9,9,0,0,1,4.41-1.05,9,9,0,0,1,4.32,1,7.31,7.31,0,0,1,3,2.91A8.83,8.83,0,0,1,42,44.88,13.1,13.1,0,0,1,41.94,46.38Zm-5.16-2.85a2.64,2.64,0,0,0-.9-2.1,3.31,3.31,0,0,0-2.25-.78,3.22,3.22,0,0,0-2.17.75,3.29,3.29,0,0,0-1.1,2.13Z"/><path class="cls-1" d="M44.68,40.59a7.28,7.28,0,0,1,2.66-3,6.93,6.93,0,0,1,3.75-1.05,6.49,6.49,0,0,1,3.11.72,5.36,5.36,0,0,1,2,1.89V36.78h5.13V53.52H56.25V51.15A5.6,5.6,0,0,1,54.17,53a6.49,6.49,0,0,1-3.11.72,6.81,6.81,0,0,1-3.72-1.07,7.37,7.37,0,0,1-2.66-3,11.09,11.09,0,0,1,0-9.07Zm10.5,1.53A3.45,3.45,0,0,0,52.59,41,3.49,3.49,0,0,0,50,42.1a4.16,4.16,0,0,0-1.07,3,4.24,4.24,0,0,0,1.07,3,3.55,3.55,0,0,0,5.18,0,4.83,4.83,0,0,0,0-6.06Z"/><path class="cls-1" d="M74.43,49.17v4.35H71.82a6.39,6.39,0,0,1-4.35-1.37c-1-.9-1.56-2.39-1.56-4.45V41h-2V36.78h2V32.7H71v4.08H74.4V41H71v6.72a1.41,1.41,0,0,0,.36,1.08,1.76,1.76,0,0,0,1.2.33Z"/><path class="cls-1" d="M103.6,38.49a7.2,7.2,0,0,1,1.85,5.25v9.78h-5.1V44.43a3.47,3.47,0,0,0-.86-2.51,3.59,3.59,0,0,0-4.71,0,3.47,3.47,0,0,0-.85,2.51v9.09h-5.1V44.43A3.47,3.47,0,0,0,88,41.92a3.59,3.59,0,0,0-4.71,0,3.47,3.47,0,0,0-.85,2.51v9.09H77.28V36.78h5.13v2.1a5.5,5.5,0,0,1,2-1.67,6.41,6.41,0,0,1,2.85-.61,6.91,6.91,0,0,1,3.37.81A5.82,5.82,0,0,1,93,39.72a6.74,6.74,0,0,1,2.37-2.25,6.4,6.4,0,0,1,3.27-.87A6.61,6.61,0,0,1,103.6,38.49Z"/><path class="cls-1" d="M124.74,46.38H113.13a3.47,3.47,0,0,0,1,2.38,3.09,3.09,0,0,0,2.18.83A2.7,2.7,0,0,0,119,48h5.46a7.57,7.57,0,0,1-4.26,5,8.82,8.82,0,0,1-3.69.75,9,9,0,0,1-4.38-1,7.47,7.47,0,0,1-3-3A9.26,9.26,0,0,1,108,45.15a9.37,9.37,0,0,1,1.06-4.56,7.38,7.38,0,0,1,3-3,9,9,0,0,1,4.41-1.05,9,9,0,0,1,4.32,1,7.31,7.31,0,0,1,3,2.91,8.83,8.83,0,0,1,1.07,4.41A13.1,13.1,0,0,1,124.74,46.38Zm-5.16-2.85a2.64,2.64,0,0,0-.9-2.1,3.31,3.31,0,0,0-2.25-.78,3.26,3.26,0,0,0-2.18.75,3.33,3.33,0,0,0-1.09,2.13Z"/><path class="cls-1" d="M142.42,38.5a7.45,7.45,0,0,1,1.76,5.24v9.78h-5.1V44.43a3.67,3.67,0,0,0-.87-2.61,3.41,3.41,0,0,0-4.68,0,3.67,3.67,0,0,0-.87,2.61v9.09h-5.13V36.78h5.13V39a5.42,5.42,0,0,1,2.1-1.76,6.67,6.67,0,0,1,3-.64A6.06,6.06,0,0,1,142.42,38.5Z"/><path class="cls-1" d="M157.08,49.17v4.35h-2.61a6.39,6.39,0,0,1-4.35-1.37c-1-.9-1.56-2.39-1.56-4.45V41h-2V36.78h2V32.7h5.13v4.08h3.36V41h-3.36v6.72a1.41,1.41,0,0,0,.36,1.08,1.76,1.76,0,0,0,1.2.33Z"/><path class="cls-1" d="M162.84,53a6.67,6.67,0,0,1-2.7-2.06A5.39,5.39,0,0,1,159,48h5.07a2,2,0,0,0,.81,1.41,2.87,2.87,0,0,0,1.77.54,2.51,2.51,0,0,0,1.48-.38,1.14,1.14,0,0,0,.53-1,1.13,1.13,0,0,0-.75-1.07,15.26,15.26,0,0,0-2.43-.76,22.74,22.74,0,0,1-3-.89,5.09,5.09,0,0,1-2.07-1.47,4,4,0,0,1-.87-2.71,4.62,4.62,0,0,1,.79-2.63,5.34,5.34,0,0,1,2.34-1.87,9,9,0,0,1,3.68-.69,7.35,7.35,0,0,1,5,1.56,6.07,6.07,0,0,1,2.09,4.14h-4.74a2,2,0,0,0-.77-1.38,2.64,2.64,0,0,0-1.69-.51,2.34,2.34,0,0,0-1.38.34,1.11,1.11,0,0,0-.48,1,1.15,1.15,0,0,0,.76,1.08,12.32,12.32,0,0,0,2.39.72,26.2,26.2,0,0,1,3,.94,5.31,5.31,0,0,1,2,1.5,4.26,4.26,0,0,1,.92,2.78,4.39,4.39,0,0,1-.83,2.62,5.47,5.47,0,0,1-2.37,1.82,9,9,0,0,1-3.58.66A9.62,9.62,0,0,1,162.84,53Z"/></g></g></svg>