<svg xmlns="http://www.w3.org/2000/svg" viewBox="0 0 167.22 148.56"><defs><style>.cls-1{fill:#fff;}.cls-2{fill:#a5110a;}</style></defs><g id="Capa_2" data-name="Capa 2"><g id="Capa_1-2" data-name="Capa 1"><path class="cls-1" d="M89.21,62.49H85.33a15,15,0,0,1-15-15V29.92H104.2V47.51A15,15,0,0,1,89.21,62.49ZM72.34,31.92V47.51a13,13,0,0,0,13,13h3.88a13,13,0,0,0,13-13V31.92Z"/><rect class="cls-1" x="86.77" y="30.92" width="1" height="21.62"/><rect class="cls-1" x="78.98" y="30.92" width="1" height="15.29"/><rect class="cls-1" x="94.56" y="30.92" width="1" height="15.29"/><polygon class="cls-1" points="103.19 2.15 103.19 0 58.71 0 58.71 5.43 65.22 5.43 65.22 2.15 103.19 2.15"/><path class="cls-1" d="M93.38,92.83H81.16V60.49H93.38Zm-10.22-2h8.22V62.49H83.16Z"/><rect class="cls-2" x="74.79" y="10.17" width="24.95" height="20.17"/><path class="cls-1" d="M100.25,30.84h-26V9.67h26Zm-25-1h24V10.67h-24Z"/><path class="cls-1" d="M110.51,31.92H64V1.16h46.48ZM66,29.92h42.48V3.16H66Z"/><rect class="cls-1" y="139.26" width="167.22" height="9.3"/><circle class="cls-1" cx="87.27" cy="100.45" r="3.66"/><circle class="cls-1" cx="87.27" cy="119.67" r="3.66"/><circle class="cls-1" cx="98.78" cy="119.67" r="3.66"/><circle class="cls-1" cx="75.18" cy="119.67" r="3.66"/><circle class="cls-1" cx="81.12" cy="110.06" r="3.66"/><circle class="cls-1" cx="93.59" cy="110.06" r="3.66"/><circle class="cls-1" cx="81.12" cy="129.28" r="3.66"/><circle class="cls-1" cx="67.86" cy="129.28" r="3.66"/><circle class="cls-1" cx="93.59" cy="129.28" r="3.66"/><circle class="cls-1" cx="106.85" cy="129.28" r="3.66"/></g></g></svg>