<svg xmlns="http://www.w3.org/2000/svg" viewBox="0 0 125.89 145.52"><defs><style>.cls-1{fill:#fff;}.cls-2{fill:#a5110a;}</style></defs><g id="Capa_2" data-name="Capa 2"><g id="Capa_1-2" data-name="Capa 1"><path class="cls-1" d="M69.4,99.73H20.63A10.35,10.35,0,0,1,10.29,89.39V56.76H7.14A7.14,7.14,0,0,1,0,49.62V30.37a7.14,7.14,0,0,1,7.14-7.14h3.15V10.34A10.35,10.35,0,0,1,20.63,0H69.4A10.36,10.36,0,0,1,79.75,10.34V23.23H81a7.14,7.14,0,0,1,7.14,7.14V49.62A7.14,7.14,0,0,1,81,56.76H79.75V89.39A10.36,10.36,0,0,1,69.4,99.73ZM7.14,26.23A4.14,4.14,0,0,0,3,30.37V49.62a4.15,4.15,0,0,0,4.14,4.14h6.15V89.39a7.34,7.34,0,0,0,7.34,7.34H69.4a7.35,7.35,0,0,0,7.35-7.34V53.76H81a4.15,4.15,0,0,0,4.14-4.14V30.37A4.14,4.14,0,0,0,81,26.23H76.75V10.34A7.35,7.35,0,0,0,69.4,3H20.63a7.34,7.34,0,0,0-7.34,7.34V26.23Z"/><path class="cls-1" d="M67,52.81H21.13V27.18H67Zm-43.88-2H65V29.18H23.13Z"/><rect class="cls-1" x="31.16" y="32.99" width="1" height="14.01" transform="translate(-18.86 32.97) rotate(-43.71)"/><rect class="cls-1" x="44.13" y="32.99" width="1" height="14.01" transform="translate(-15.27 41.93) rotate(-43.71)"/><rect class="cls-1" x="57.09" y="32.99" width="1" height="14.01" transform="translate(-11.67 50.89) rotate(-43.71)"/><rect class="cls-1" x="20.24" y="117.79" width="46.45" height="13.5" rx="6.27" transform="translate(-83.68 89.43) rotate(-55.32)"/><path class="cls-1" d="M34.21,145.52a6.72,6.72,0,0,1-3.84-1.2l-.8-.55a6.75,6.75,0,0,1-1.71-9.41l19.29-27.9a6.79,6.79,0,0,1,9.42-1.71l.79.55a6.78,6.78,0,0,1,1.72,9.42l-19.3,27.89A6.76,6.76,0,0,1,34.21,145.52Zm18.52-41A5.77,5.77,0,0,0,48,107l-19.3,27.9a5.77,5.77,0,0,0,1.46,8l.8.55A5.77,5.77,0,0,0,39,142l19.3-27.89a5.78,5.78,0,0,0-1.46-8l-.8-.55A5.74,5.74,0,0,0,52.73,104.55Z"/><polygon class="cls-1" points="52.96 114.39 50.45 112.75 72.07 79.57 98.14 75.56 98.59 78.53 73.85 82.33 52.96 114.39"/><path class="cls-1" d="M100.64,71.18l-1.87-.72,1.81-4.66,1.86.72Zm3.6-9.33-1.86-.72,1.8-4.66,1.87.72Zm3.61-9.32L106,51.81l1-2.49,1.87.72Z"/><path class="cls-1" d="M105.81,104.77l-1.8-4.66,1.86-.72,1.8,4.66Zm-3.61-9.33-1.8-4.66,1.87-.72,1.8,4.66Zm-3.6-9.32-1-2.49,1.86-.72,1,2.49Z"/><path class="cls-1" d="M102.66,73.87l-1-1.73,4.33-2.5,1,1.73Zm8.66-5-1-1.73,4.33-2.5,1,1.73Zm8.66-5-1-1.73,2.31-1.33,1,1.73Z"/><path class="cls-1" d="M119.47,92.91l-4.33-2.5,1-1.73,4.33,2.5Zm-8.66-5-4.33-2.5,1-1.73,4.33,2.5Zm-8.66-5-2.31-1.33,1-1.73,2.31,1.33Z"/><path class="cls-1" d="M125.89,77.86h-2.66v-2h2.66Zm-7.66,0h-5v-2h5Zm-10,0h-5v-2h5Z"/><rect class="cls-2" x="37.28" y="115.21" width="9.33" height="23.05" transform="matrix(0.82, 0.57, -0.57, 0.82, 79.56, -1.35)"/><path class="cls-1" d="M39.35,139.56l-8.49-5.87,13.68-19.78L53,119.79Zm-7.1-6.13,6.85,4.74L51.64,120l-6.85-4.74Z"/></g></g></svg>