<svg xmlns="http://www.w3.org/2000/svg" viewBox="0 0 126.09 32.28"><defs><style>.cls-1{fill:#fff;}</style></defs><g id="Слой_2" data-name="Слой 2"><g id="Capa_1" data-name="Capa 1"><path class="cls-1" d="M30.09,3,24.6,24H18.39L15,10.17,11.55,24H5.34L0,3H5.49l3,15.33L12.27,3h5.64l3.6,15.33L24.57,3Z"/><path class="cls-1" d="M48.36,16.89H36.75a3.5,3.5,0,0,0,1,2.39,3.08,3.08,0,0,0,2.18.82,2.7,2.7,0,0,0,2.67-1.62h5.46a7.57,7.57,0,0,1-4.26,5,8.82,8.82,0,0,1-3.69.75,9,9,0,0,1-4.38-1.05,7.47,7.47,0,0,1-3-3,9.26,9.26,0,0,1-1.08-4.56,9.37,9.37,0,0,1,1.06-4.56,7.38,7.38,0,0,1,3-3,9,9,0,0,1,4.41-1,9,9,0,0,1,4.32,1,7.31,7.31,0,0,1,3,2.91,8.83,8.83,0,0,1,1.07,4.41A13.1,13.1,0,0,1,48.36,16.89ZM43.2,14a2.64,2.64,0,0,0-.9-2.1,3.31,3.31,0,0,0-2.25-.78,3.22,3.22,0,0,0-2.17.75A3.29,3.29,0,0,0,36.78,14Z"/><path class="cls-1" d="M56.28,1.83V24H51.15V1.83Z"/><path class="cls-1" d="M60,11.1a7.19,7.19,0,0,1,2.65-3,6.93,6.93,0,0,1,3.75-1,6.64,6.64,0,0,1,3,.69A5.55,5.55,0,0,1,71.52,9.6V1.83h5.13V24H71.52v-2.4a5.24,5.24,0,0,1-2.06,1.92,6.42,6.42,0,0,1-3.1.72,6.85,6.85,0,0,1-3.75-1.06,7.25,7.25,0,0,1-2.65-3,9.92,9.92,0,0,1-1-4.54A9.88,9.88,0,0,1,60,11.1Zm10.5,1.53a3.61,3.61,0,0,0-5.2,0,4.13,4.13,0,0,0-1.06,3,4.23,4.23,0,0,0,1.06,3,3.58,3.58,0,0,0,5.2,0,4.23,4.23,0,0,0,1.06-3A4.23,4.23,0,0,0,70.46,12.63Z"/><path class="cls-1" d="M80.74,4.75a2.55,2.55,0,0,1-.85-2,2.63,2.63,0,0,1,.85-2A3.16,3.16,0,0,1,83,0a3.1,3.1,0,0,1,2.17.79,2.64,2.64,0,0,1,.86,2,2.56,2.56,0,0,1-.86,2,3,3,0,0,1-2.17.8A3.08,3.08,0,0,1,80.74,4.75ZM85.5,7.29V24H80.37V7.29Z"/><path class="cls-1" d="M104.11,9a7.42,7.42,0,0,1,1.76,5.23V24h-5.1V14.94a3.67,3.67,0,0,0-.87-2.61,3.41,3.41,0,0,0-4.68,0,3.67,3.67,0,0,0-.87,2.61V24H89.22V7.29h5.13V9.51a5.51,5.51,0,0,1,2.1-1.76,6.81,6.81,0,0,1,3-.64A6.07,6.07,0,0,1,104.11,9Z"/><path class="cls-1" d="M118.9,7.77A5.32,5.32,0,0,1,121,9.66V7.29h5.13V24a9.44,9.44,0,0,1-.92,4.19,7,7,0,0,1-2.79,3,9,9,0,0,1-4.66,1.11,9.7,9.7,0,0,1-6-1.75,6.63,6.63,0,0,1-2.64-4.76h5.07a2.44,2.44,0,0,0,1.14,1.52,4.15,4.15,0,0,0,2.22.55,3.44,3.44,0,0,0,2.53-.92A3.9,3.9,0,0,0,121,24V21.63a5.7,5.7,0,0,1-2.07,1.91,6.25,6.25,0,0,1-3.09.73,6.85,6.85,0,0,1-3.75-1.06,7.34,7.34,0,0,1-2.66-3,10,10,0,0,1-1-4.54,10,10,0,0,1,1-4.53,7.28,7.28,0,0,1,2.66-3,6.93,6.93,0,0,1,3.75-1A6.42,6.42,0,0,1,118.9,7.77Zm1,4.86a3.45,3.45,0,0,0-2.59-1.11,3.5,3.5,0,0,0-2.6,1.1,4.13,4.13,0,0,0-1.06,3,4.23,4.23,0,0,0,1.06,3,3.57,3.57,0,0,0,5.19,0,4.2,4.2,0,0,0,1.07-3A4.2,4.2,0,0,0,119.89,12.63Z"/></g></g></svg>