<svg width="138" height="170" viewBox="0 0 138 170" fill="none" xmlns="http://www.w3.org/2000/svg">
<g clip-path="url(#clip0_158_17062)">
<path d="M68.9998 163.652C70.3906 162.948 106.553 147.112 118.028 137.61C129.85 127.757 136.109 113.681 136.109 96.789V17.6096L135.066 17.2577C106.205 1.42178 70.3906 2.4775 68.652 2.4775C67.2612 2.4775 31.4465 1.42178 2.58606 17.2577L1.89062 17.6096V97.1409C1.89062 114.033 8.14951 128.109 19.9718 137.962C31.4465 147.464 67.6089 163.3 68.9998 163.652Z" fill="#341B14"/>
<path d="M69 165.411C69 165.411 30.7513 148.52 18.9289 139.018C6.41117 128.461 0.5 114.033 0.5 97.4931V15.1465C30.7513 -1.39323 69 0.0144004 69 0.0144004C69 0.0144004 107.249 -1.39323 137.5 15.1465V97.1412C137.5 113.681 131.589 128.109 119.071 138.666C107.249 148.52 69 165.411 69 165.411ZM6.06345 97.4931C6.06345 112.977 11.6269 125.646 22.4061 134.444C32.1421 142.537 61.0025 155.558 69 159.077C76.9975 155.558 106.206 142.186 115.594 134.444C126.373 125.646 131.937 112.625 131.937 97.4931V16.5541C91.6015 12.6831 43.6168 14.7946 6.06345 49.9854V97.4931Z" fill="#FFB406"/>
<path d="M107.598 85.8797C112.814 89.0468 114.9 91.1583 115.248 95.0293C115.248 99.2522 112.466 101.716 107.946 101.716C104.121 101.716 99.6009 99.6041 96.4715 96.7888V108.05C100.296 110.161 104.817 111.921 109.685 111.921C121.507 111.921 127.07 103.475 127.07 95.7331C127.418 88.6949 125.332 83.0644 115.248 77.082C110.728 74.2667 107.251 72.5071 107.251 68.2842C107.251 64.0613 111.076 62.3018 114.205 62.3018C118.378 62.3018 122.55 64.7652 124.984 67.2285V56.6713C122.898 54.9117 118.378 52.4484 111.771 52.8003C103.774 53.1522 95.4283 58.7827 95.4283 68.6361C95.7761 75.3224 97.8624 80.2491 107.598 85.8797ZM66.5679 111.217C67.6111 111.569 69.3497 111.921 72.1314 111.921C85.6923 111.921 93.3421 99.6041 93.3421 82.0087C93.3421 64.0613 85.3446 53.1522 71.0882 53.1522C64.4816 53.1522 59.2659 54.5598 54.7456 57.3751V136.906H66.5679V111.217ZM66.5679 63.3575C67.6111 63.0056 69.3497 62.3018 70.7405 62.3018C77.6948 62.3018 80.4766 67.9323 80.4766 81.6568C80.4766 95.0293 76.9994 101.364 70.0451 101.364C68.3065 101.364 66.9156 101.012 66.2202 100.66V63.3575H66.5679ZM30.0578 111.921C37.3598 111.921 43.6187 110.161 48.139 106.994V53.856H35.9689V99.956C34.5781 101.012 32.8395 101.364 30.4055 101.364C24.842 101.364 24.1466 96.085 24.1466 92.9178V53.856H11.9766V92.214C11.9766 105.235 18.2354 111.921 30.0578 111.921ZM111.076 159.429V167.522H112.466V164.355H112.814L114.9 167.522H116.639C116.639 167.522 114.553 164.355 114.205 164.003C115.248 163.651 115.944 162.948 115.944 161.892C115.944 160.836 115.248 159.429 113.162 159.429H111.076ZM113.162 160.484C114.205 160.484 114.553 161.188 114.553 161.54C114.553 162.244 114.205 162.948 112.814 162.948H112.466V160.484H113.162Z" fill="#FFB406"/>
<path d="M118.721 163.3C118.721 166.115 116.287 168.578 113.505 168.578C110.723 168.578 108.289 166.115 108.289 163.3C108.289 160.484 110.723 158.021 113.505 158.021C116.634 158.021 118.721 160.484 118.721 163.3ZM113.505 156.613C110.028 156.613 106.898 159.429 106.898 163.3C106.898 166.819 109.68 169.986 113.505 169.986C116.982 169.986 120.112 167.171 120.112 163.3C120.112 159.78 116.982 156.613 113.505 156.613Z" fill="#FFB406"/>
</g>
<defs>
<clipPath id="clip0_158_17062">
<rect width="137" height="170" fill="white" transform="translate(0.5)"/>
</clipPath>
</defs>
</svg>
