<svg xmlns="http://www.w3.org/2000/svg" xmlns:xlink="http://www.w3.org/1999/xlink" viewBox="0 0 118.38 118.38"><defs><style>.cls-1{fill:url(#Degradado_sin_nombre_5);}.cls-2{fill:#8f8f8f;}.cls-3{fill:url(#Degradado_sin_nombre_5-2);}.cls-4{fill:url(#Degradado_sin_nombre_7);}.cls-5{fill:url(#Degradado_sin_nombre_9);}.cls-6{fill:url(#Degradado_sin_nombre_4);}.cls-7{fill:url(#Degradado_sin_nombre_6);}.cls-8{fill:#a3110a;}.cls-9{fill:url(#Degradado_sin_nombre_4-2);}.cls-10{fill:url(#Degradado_sin_nombre_8);}.cls-11{fill:url(#Degradado_sin_nombre_4-3);}.cls-12{fill:#a5110a;}</style><linearGradient id="Degradado_sin_nombre_5" x1="22.15" y1="19.69" x2="103.13" y2="106.04" gradientUnits="userSpaceOnUse"><stop offset="0" stop-color="#d3d3d3"/><stop offset="1"/></linearGradient><linearGradient id="Degradado_sin_nombre_5-2" x1="99.15" y1="100.94" x2="30.02" y2="28.71" xlink:href="#Degradado_sin_nombre_5"/><linearGradient id="Degradado_sin_nombre_7" x1="66.09" y1="43.3" x2="99.15" y2="59.56" gradientUnits="userSpaceOnUse"><stop offset="0.15" stop-color="#c36b66"/><stop offset="0.47" stop-color="#a5110a"/><stop offset="0.5" stop-color="#860e08"/><stop offset="0.56" stop-color="#3e0604"/><stop offset="0.6" stop-color="#110201"/><stop offset="0.63"/></linearGradient><linearGradient id="Degradado_sin_nombre_9" x1="34.72" y1="57.46" x2="76.79" y2="79.26" gradientUnits="userSpaceOnUse"><stop offset="0" stop-color="#c36b66"/><stop offset="0.8" stop-color="#a5110a"/><stop offset="0.82" stop-color="#860e08"/><stop offset="0.87" stop-color="#3e0604"/><stop offset="0.91" stop-color="#110201"/><stop offset="0.93"/></linearGradient><linearGradient id="Degradado_sin_nombre_4" x1="76.13" y1="29.17" x2="75.81" y2="71.08" gradientUnits="userSpaceOnUse"><stop offset="0.16" stop-color="#c36b66"/><stop offset="0.2" stop-color="#a5110a"/><stop offset="0.22" stop-color="#860e08"/><stop offset="0.28" stop-color="#3e0604"/><stop offset="0.32" stop-color="#110201"/><stop offset="0.34"/></linearGradient><linearGradient id="Degradado_sin_nombre_6" x1="-519.22" y1="351.37" x2="-559.03" y2="368.9" gradientTransform="matrix(0.59, 0.36, 0.35, 1.11, 259.84, -153.22)" gradientUnits="userSpaceOnUse"><stop offset="0.16" stop-color="#c36b66"/><stop offset="0.34" stop-color="#a5110a"/><stop offset="0.39" stop-color="#860e08"/><stop offset="0.51" stop-color="#3e0604"/><stop offset="0.6" stop-color="#110201"/><stop offset="0.64"/></linearGradient><linearGradient id="Degradado_sin_nombre_4-2" x1="63.48" y1="55.25" x2="36.33" y2="68.74" xlink:href="#Degradado_sin_nombre_4"/><linearGradient id="Degradado_sin_nombre_8" x1="-18.44" y1="-161.51" x2="-68.93" y2="-160.87" gradientTransform="matrix(0.88, -0.48, 0.6, 1.08, 168.68, 224.8)" gradientUnits="userSpaceOnUse"><stop offset="0.16" stop-color="#c36b66"/><stop offset="0.25" stop-color="#a5110a"/><stop offset="0.28" stop-color="#750c07"/><stop offset="0.32" stop-color="#360603"/><stop offset="0.35" stop-color="#0f0201"/><stop offset="0.36"/></linearGradient><linearGradient id="Degradado_sin_nombre_4-3" x1="36.46" y1="31.78" x2="36.62" y2="56.99" xlink:href="#Degradado_sin_nombre_4"/></defs><g id="Capa_2" data-name="Capa 2"><g id="Capa_1-2" data-name="Capa 1"><path class="cls-1" d="M59.19,0a59.19,59.19,0,1,0,59.19,59.19A59.19,59.19,0,0,0,59.19,0Zm0,116.86a57.67,57.67,0,1,1,57.67-57.67A57.67,57.67,0,0,1,59.19,116.86Z"/><path class="cls-2" d="M59.19,1.52a57.67,57.67,0,1,0,57.67,57.67A57.67,57.67,0,0,0,59.19,1.52Zm0,107.66a50,50,0,1,1,50-50A50,50,0,0,1,59.19,109.18Z"/><path class="cls-2" d="M59.19,9.2a50,50,0,1,0,50,50A50,50,0,0,0,59.19,9.2Zm0,98.7A48.71,48.71,0,1,1,107.9,59.19,48.71,48.71,0,0,1,59.19,107.9Z"/><path class="cls-3" d="M59.19,9.2a50,50,0,1,0,50,50A50,50,0,0,0,59.19,9.2Zm0,98.7A48.71,48.71,0,1,1,107.9,59.19,48.71,48.71,0,0,1,59.19,107.9Z"/><polygon class="cls-4" points="59.5 34.67 57.67 34.67 75.65 70.68 94.51 34.59 59.5 34.67"/><polygon class="cls-5" points="23.87 34.74 59.94 100.74 71.25 79.09 49.08 34.69 23.87 34.74"/><polyline class="cls-6" points="57.67 34.67 75.62 45.44 94.51 34.59"/><polygon class="cls-7" points="75.65 70.68 66.76 52.77 57.67 34.69 77.42 46.48 76.25 59.31 75.65 70.68"/><polygon class="cls-8" points="62.27 36.47 60.75 36.47 75.75 66.52 91.49 36.41 62.27 36.47"/><polyline class="cls-9" points="71.25 79.09 55.32 78.47 40.93 44.67 49.08 34.69"/><polygon class="cls-10" points="61.51 85.82 59.94 100.74 23.87 34.74 34.82 40.16 61.51 85.82"/><polyline class="cls-11" points="49.08 34.69 40.93 44.67 23.87 34.74"/><polygon class="cls-12" points="26.89 36.46 59.83 96.75 69.11 79.02 47.72 36.41 26.89 36.46"/></g></g></svg>