<svg width="74" height="48" viewBox="0 0 74 48" fill="none" xmlns="http://www.w3.org/2000/svg">
<g clip-path="url(#clip0_158_2933)">
<path d="M41.4517 6.68175C41.9751 6.26151 44.2752 4.17431 45.4185 2.7455C45.5011 2.63343 45.446 2.47934 45.322 2.43732C39.303 0.658304 21.0805 2.38129 12.4307 15.7029C12.3068 15.885 12.3343 15.941 12.472 16.0531C15.4885 11.0803 22.3339 7.17203 30.6119 6.35956C34.0139 6.02337 37.4849 6.30353 40.9007 6.90587C41.2313 6.93389 41.2175 6.87786 41.4517 6.68175Z" fill="white"/>
<path d="M33.0194 29.8512H35.4298L31.1738 19.3452H28.0334L23.7774 29.8512H26.1189L26.8075 28.0301H32.317L33.0194 29.8512ZM27.6477 26.069L29.5623 20.9841L31.4768 26.069H27.6477ZM17.6206 28.7305L20.2513 24.262C20.3477 24.0939 20.8574 23.1974 21.0226 22.8472H21.0502C21.0226 23.2394 21.0226 23.9398 21.0226 24.262V29.8512H23.2264V19.3452H21.1191L17.7721 24.9764L14.4251 19.3452H11.9321V29.8512H14.1358V24.262C14.1358 23.9398 14.1221 23.2534 14.1083 22.8472H14.1358C14.3011 23.1834 14.8108 24.0939 14.9072 24.262L17.5379 28.7305H17.6206ZM67.8253 28.7305L70.5111 24.262C70.6075 24.0939 71.1309 23.1974 71.2962 22.8472H71.3238C71.2962 23.2394 71.2962 23.9398 71.2962 24.262V29.8512H73.5V19.3452H71.2549L67.9079 24.9764L64.5609 19.3452H62.0679V29.8512H64.2717V24.262C64.2717 23.9398 64.2579 23.2534 64.2441 22.8472H64.2717C64.437 23.1834 64.9604 24.0939 65.0568 24.262L67.7426 28.7305H67.8253ZM10.6925 26.7694H8.35094V26.8394C8.35094 27.6939 7.89641 27.89 6.89094 27.89H4.65962C2.96547 27.89 2.70377 27.6799 2.70377 25.6768V23.3795C2.70377 21.5164 2.9517 21.3063 4.6183 21.3063H6.8083C7.8 21.3063 8.24075 21.4884 8.24075 22.2868H10.844C10.844 19.9895 9.94868 19.2051 7.13887 19.2051H4.21887C1.54679 19.2051 0.5 20.2277 0.5 22.8752V26.2231C0.5 28.8146 1.53302 29.8372 4.16377 29.8372H7.04245C9.82472 29.8372 10.6925 29.0667 10.6925 26.8114V26.7694ZM48.8453 26.7694H46.5038V26.8394C46.5038 27.6939 46.0492 27.89 45.0438 27.89H42.8125C41.1183 27.89 40.8566 27.6799 40.8566 25.6768V23.3795C40.8566 21.5164 41.1045 21.3063 42.7711 21.3063H44.9611C45.9528 21.3063 46.3936 21.4884 46.3936 22.2868H48.9968C48.9968 19.9895 48.1015 19.2051 45.2917 19.2051H42.3717C39.6996 19.2051 38.6528 20.2417 38.6528 22.8892V26.2371C38.6528 28.8286 39.6858 29.8372 42.3166 29.8372H45.1953C47.9775 29.8372 48.8453 29.0667 48.8453 26.8254V26.7694ZM58.3491 25.7888V26.8955C58.3491 27.7079 57.9083 27.89 56.9028 27.89H54.2308C52.5504 27.89 52.3024 27.6939 52.3024 25.7888V23.3795C52.3024 21.5164 52.5504 21.3063 54.217 21.3063H56.7651C57.7568 21.3063 58.1975 21.4884 58.1975 22.2868H60.8008C60.8008 19.9895 59.9055 19.2051 57.0957 19.2051H53.8313C51.1592 19.2051 50.1124 20.2417 50.1124 22.8892V26.1811C50.1124 28.8146 51.1455 29.8512 53.7487 29.8512H56.9441C59.7126 29.8512 60.5666 29.0667 60.5666 26.7834V23.9678H55.3326V25.7888H58.3491Z" fill="white"/>
<path d="M32.4983 42.3182C31.9749 42.7385 29.6747 44.8257 28.5315 46.2545C28.4488 46.3665 28.5039 46.5206 28.6279 46.5627C34.647 48.3417 52.8694 46.6047 61.5192 33.2831C61.6432 33.101 61.6156 33.0449 61.4779 32.9329C58.4615 37.9057 51.616 41.8139 43.3381 42.6264C39.936 42.9626 36.4651 42.6824 33.0492 42.0801C32.7187 42.0521 32.7324 42.1081 32.4983 42.3182Z" fill="white"/>
</g>
<defs>
<clipPath id="clip0_158_2933">
<rect width="73" height="48" fill="white" transform="translate(0.5)"/>
</clipPath>
</defs>
</svg>
