<svg width="225" height="48" viewBox="0 0 225 48" fill="none" xmlns="http://www.w3.org/2000/svg">
<path fill-rule="evenodd" clip-rule="evenodd" d="M67.7109 34.9754H72.1999V26.1394H80.461V34.9754H84.95V14.49H80.461V22.3552H72.1999V14.49H67.7109V34.9754ZM95.8543 29.2406C95.8543 30.1304 95.7378 32.6563 92.566 32.6563C91.2489 32.6563 90.0751 32.2877 90.0751 30.7686C90.0751 29.2765 91.222 28.845 92.4764 28.5844C93.7308 28.3507 95.1644 28.3237 95.8543 27.7215V29.2406ZM90.5321 24.7102C90.6754 23.1012 91.6789 22.472 93.2201 22.472C94.6537 22.472 95.8543 22.7327 95.8543 24.4765C95.8543 26.1394 93.5426 26.0585 91.0517 26.4271C88.534 26.7686 86.0162 27.5776 86.0162 30.9304C86.0162 33.9686 88.2473 35.3709 91.0517 35.3709C92.8527 35.3709 94.7433 34.8855 96.0245 33.5372C96.0514 34.0226 96.1679 34.508 96.3113 34.9754H100.433C100.057 34.3731 99.9221 33.0248 99.9221 31.6765V23.9641C99.9221 20.4046 96.374 19.7484 93.4351 19.7484C90.1199 19.7484 86.7151 20.899 86.4821 24.7102H90.5321ZM101.239 40.1979H105.298V33.1417H105.352C106.329 34.6068 108.013 35.3799 109.787 35.3799C114.106 35.3799 116.274 31.6765 116.274 27.7215C116.274 23.5057 114.186 19.7484 109.554 19.7484C107.726 19.7484 106.122 20.4675 105.146 22.0406H105.092V20.1439H101.23V40.1979H101.239ZM108.703 32.3057C106.069 32.3057 105.155 30.0136 105.155 27.6046C105.155 25.1956 106.015 22.8136 108.676 22.8136C111.283 22.8136 112.224 25.2495 112.224 27.6046C112.224 30.0136 111.364 32.3057 108.703 32.3057ZM126.659 29.2406C126.659 30.1304 126.542 32.6563 123.37 32.6563C122.053 32.6563 120.88 32.2877 120.88 30.7686C120.88 29.2765 122.026 28.845 123.281 28.5844C124.544 28.3507 125.969 28.3237 126.659 27.7215V29.2406ZM121.345 24.7102C121.489 23.1012 122.492 22.472 124.033 22.472C125.467 22.472 126.668 22.7327 126.668 24.4765C126.668 26.1394 124.356 26.0585 121.865 26.4271C119.347 26.7686 116.83 27.5776 116.83 30.9304C116.83 33.9686 119.061 35.3709 121.865 35.3709C123.666 35.3709 125.557 34.8855 126.838 33.5372C126.865 34.0226 126.981 34.508 127.125 34.9754H131.246C130.87 34.3731 130.736 33.0248 130.736 31.6765V23.9641C130.736 20.4046 127.187 19.7484 124.24 19.7484C120.924 19.7484 117.52 20.899 117.287 24.7102H121.345ZM146.828 20.1439H142.966V22.1215H142.912C141.936 20.3956 140.448 19.7394 138.504 19.7394C134.355 19.7394 132.151 23.2361 132.151 27.0832C132.151 31.1552 134.042 34.5439 138.468 34.5439C140.242 34.5439 142.016 33.7979 142.903 32.2518H142.957V34.2024C142.984 36.3237 141.953 37.8788 139.696 37.8788C138.262 37.8788 137.034 37.3664 136.667 35.8383H132.635C132.832 39.2271 136.237 40.6024 139.149 40.6024C145.959 40.6024 146.81 36.4675 146.81 34.0316L146.828 20.1439ZM139.507 31.4788C137.017 31.4788 136.219 29.1507 136.219 27.0293C136.219 24.8181 137.223 22.8136 139.507 22.8136C142.142 22.8136 142.966 24.9709 142.966 27.3799C142.966 29.5012 141.828 31.4788 139.507 31.4788ZM147.948 28.899H156.558V25.4024H147.948V28.899ZM157.651 34.9754H172.095V31.1911H162.14V14.49H157.651V34.9754ZM173.036 34.9754H177.095V14.49H173.036V34.9754ZM178.017 27.5776C178.017 32.2877 181.019 35.3799 185.651 35.3799C190.311 35.3799 193.312 32.2877 193.312 27.5776C193.312 22.8406 190.311 19.7484 185.651 19.7484C181.019 19.7484 178.017 22.8406 178.017 27.5776ZM182.076 27.5776C182.076 25.1956 182.901 22.8136 185.651 22.8136C188.429 22.8136 189.253 25.1956 189.253 27.5776C189.253 29.9327 188.42 32.3147 185.651 32.3147C182.91 32.3057 182.076 29.9237 182.076 27.5776Z" fill="white"/>
<path fill-rule="evenodd" clip-rule="evenodd" d="M207.586 20.1439H203.383L200.149 30.3012H200.095L196.753 20.1439H192.398L197.604 34.0585C198.061 35.2361 197.604 36.7012 196.206 36.845C195.409 36.872 194.603 36.7552 193.832 36.7012V40.054C194.656 40.1439 195.49 40.1979 196.323 40.1979C199.127 40.1979 200.525 39.2271 201.412 36.845L207.586 20.1439ZM217.684 34.9754H221.545V14.49H217.486V21.9507H217.424H217.451C216.51 20.4855 214.789 19.7394 213.051 19.7394C208.706 19.7394 206.501 23.4428 206.501 27.4248C206.501 31.5327 208.679 35.3709 213.132 35.3709C215.022 35.3709 216.68 34.6788 217.621 33.0788H217.675L217.684 34.9754ZM217.621 27.5147C217.621 29.9507 216.823 32.3057 214.126 32.3057C211.609 32.3057 210.551 29.8698 210.551 27.5417C210.551 25.1057 211.465 22.8046 214.126 22.8046C216.761 22.8136 217.621 25.1057 217.621 27.5147Z" fill="white"/>
<path fill-rule="evenodd" clip-rule="evenodd" d="M17.8825 7.39771H32.2812L23.0166 22.6606H25.8838L35.0678 7.39771H49.9414L40.7484 22.355H50.4879L46.4739 29.7707H36.1788L44.216 40.0988H29.3424L21.9055 29.7707H19.0383L26.4303 40.0988H12.1571L4.12891 29.2134L17.8825 7.39771Z" fill="white"/>
</svg>
