<svg width="206" height="48" viewBox="0 0 206 48" fill="none" xmlns="http://www.w3.org/2000/svg">
<g clip-path="url(#clip0_158_2941)">
<path d="M61.3047 33.9966V14H66.5104L73.0941 28.8408L79.5942 14H84.5772V33.9966H80.2902V22.5456L75.335 33.9966H70.7696L65.7588 22.6025V33.9966H61.3047ZM91.5785 33.9966H86.5259L95.1974 14H101.419L110.146 33.9966H105.163L103.451 29.9945L93.2488 30.023L91.5785 33.9966ZM101.837 26.2487L98.2874 17.9879L94.8216 26.2487H101.837ZM112.206 33.9966V14H130.886V18.0022H116.716V22.0044H128.867V25.9781H116.716V30.0087H130.886V34.0109H112.206V33.9966Z" fill="white"/>
<path d="M134.504 33.1283V13.1316H150.497C150.497 13.1316 151.527 13.0177 152.613 14.1001C153.587 15.0686 153.42 16.4929 153.42 16.4929V23.2154C153.42 23.2154 153.615 24.4545 152.459 25.5085C151.346 26.5197 149.731 26.306 149.731 26.306L153.448 33.1425H148.562L144.874 26.306H139.069V33.1425H134.504V33.1283ZM139.069 22.2896H148.868V17.1196H139.069V22.2896ZM161.646 33.1283H160.101C160.101 33.1283 158.737 33.0998 157.971 32.2737C157.081 31.3052 157.108 30.1943 157.108 30.1943V27.5879H161.646V29.1403H171.292V25.1097H160.212C160.212 25.1097 158.848 25.2521 158.013 24.3691C157.08 23.3863 157.178 22.2042 157.178 22.2042V16.208C157.178 16.208 157.164 15.1968 157.818 14.2995C158.779 13.0177 160.24 13.1459 160.24 13.1459L172.892 13.1601C172.892 13.1601 173.922 13.0889 174.939 14.0859C176.052 15.1826 175.788 16.3362 175.788 16.3362V18.729H171.278V17.148H161.632V21.1502H172.67C172.67 21.1502 173.964 21.0505 174.869 22.1187C175.788 23.1869 175.788 24.3691 175.788 24.3691V30.0091C175.788 30.0091 175.941 31.1201 175.064 32.117C174.076 33.2707 172.753 33.1283 172.753 33.1283H161.646Z" fill="white"/>
<path d="M180.117 33.1283V13.1174H184.752V21.1218L193.577 13.1174H199.854L189.332 22.4036L200.23 33.1141H193.73L184.738 24.013V33.1141H180.117V33.1283Z" fill="white"/>
<path d="M43.2394 6.29832C43.2394 3.62071 41.2211 1.01431 38.0754 1.02855L5.56068 1.00006C2.83255 0.985822 0.382812 3.32161 0.382812 6.29832V41.9049C0.382812 44.668 2.52634 47.2174 5.54676 47.2174H38.0615C41.0123 47.2032 43.2394 44.8104 43.2533 41.9191L43.2394 6.29832ZM40.9706 28.8017L27.6083 28.8159L30.6705 42.4034L30.587 42.4746L21.8459 31.5505H21.7345L13.0908 42.4888C13.0352 42.5316 13.0213 42.5316 12.9656 42.4888L15.9721 28.8586L2.63769 28.8159C2.58201 28.7732 2.58202 28.7447 2.58202 28.702L14.7054 22.7343L14.789 22.6489L6.43757 12.0096C6.40973 11.9526 6.46541 11.9242 6.49325 11.8672L18.5471 17.6782L21.7067 4.44678H21.7902L24.922 17.7209L36.9619 11.9099C37.0037 11.8814 37.0315 11.9526 37.0732 11.9669L28.7636 22.6346L40.9288 28.645C40.9984 28.6877 41.0541 28.7447 40.9706 28.8017Z" fill="white"/>
</g>
<defs>
<clipPath id="clip0_158_2941">
<rect width="205" height="48" fill="white" transform="translate(0.167969)"/>
</clipPath>
</defs>
</svg>
