<svg width="134" height="48" viewBox="0 0 134 48" fill="none" xmlns="http://www.w3.org/2000/svg">
<path d="M21.7161 32.9026C21.8997 33.0077 22.1241 32.9446 22.2261 32.7554C22.3281 32.5661 22.2669 32.3348 22.0833 32.2296C21.8997 32.1245 21.6753 32.1876 21.5734 32.3768C21.4714 32.5661 21.5326 32.7974 21.7161 32.9026ZM16.5349 23.6283C16.5349 23.8386 16.698 24.0069 16.902 24.0069C17.106 24.0069 17.2692 23.8386 17.2692 23.6283C17.2692 23.418 17.106 23.2498 16.902 23.2498C16.698 23.2498 16.5349 23.418 16.5349 23.6283ZM22.0833 15.1112C22.2669 15.006 22.3281 14.7747 22.2261 14.5854C22.1241 14.3961 21.8997 14.333 21.7161 14.4382C21.5326 14.5433 21.4714 14.7747 21.5734 14.9639C21.6957 15.1532 21.9201 15.2373 22.0833 15.1112ZM32.0379 14.4592C31.8543 14.3541 31.6299 14.4172 31.528 14.6064C31.426 14.7957 31.4872 15.027 31.6707 15.1322C31.8543 15.2373 32.0787 15.1742 32.1807 14.985C32.2827 14.7957 32.2215 14.5644 32.0379 14.4592ZM31.6707 32.2296C31.4872 32.3348 31.426 32.5661 31.528 32.7554C31.6299 32.9446 31.8543 33.0077 32.0379 32.9026C32.2215 32.7974 32.2827 32.5661 32.1807 32.3768C32.0787 32.1876 31.8543 32.1245 31.6707 32.2296ZM37.7904 26.6987L48.7649 23.6704L37.7904 20.6421L42.2577 14.4803L34.853 15.4056L35.7505 7.72961L29.7737 12.3562L26.8362 1L23.8988 12.3562L17.922 7.72961L18.8195 15.3845L11.4556 14.4803L15.9433 20.6631L4.96875 23.6914L15.9433 26.7197L11.4556 32.8815L18.8603 31.9562L17.9628 39.6322L23.9192 35.0056L26.8566 46.3618L29.7737 35.0056L35.7505 39.6532L34.853 31.9773L42.2577 32.9026L37.7904 26.6987ZM44.6444 23.6704H38.178C38.178 23.0605 38.1372 22.4506 38.0352 21.8618L44.6444 23.6704ZM9.0893 23.6704H15.5557C15.5557 24.2803 15.5965 24.8901 15.6985 25.479L9.0893 23.6704ZM34.5062 10.0009L32.5071 13.5549C31.9767 13.2395 31.4872 12.9871 30.916 12.7768L34.5062 10.0009ZM32.3643 15.0901C32.2011 15.3845 31.8339 15.4897 31.5484 15.3215C31.2628 15.1532 31.1608 14.7747 31.324 14.4803C31.4872 14.1858 31.8543 14.0807 32.1399 14.2489C32.4255 14.4172 32.5275 14.7957 32.3643 15.0901ZM26.8566 5.29013V11.9777C25.8775 11.9777 25.1023 12.1249 25.1023 12.1249L26.8566 5.29013ZM21.6141 14.2489C21.8997 14.0807 22.2669 14.1858 22.4301 14.4803C22.5933 14.7747 22.4913 15.1532 22.2057 15.3215C21.9201 15.4897 21.553 15.3845 21.3898 15.0901C21.2266 14.7957 21.3286 14.4172 21.6141 14.2489ZM21.2062 13.5549C20.6758 13.8704 20.227 14.1858 19.7579 14.5854L19.2071 10.0009L21.2062 13.5549ZM17.514 23.6283C17.514 23.9648 17.2488 24.2382 16.9224 24.2382C16.5961 24.2382 16.3309 23.9648 16.3309 23.6283C16.3309 23.2918 16.5961 23.0185 16.9224 23.0185C17.2488 23.0185 17.514 23.2918 17.514 23.6283ZM13.6382 15.7631L17.0652 17.824C16.7592 18.3708 16.5349 18.8755 16.3105 19.4644L13.6382 15.7631ZM13.6382 31.5987L17.0652 29.5378C17.3712 30.0846 17.6772 30.5472 18.0648 31.0309L13.6382 31.5987ZM19.2071 37.382L21.2062 33.8069C21.7365 34.1223 22.2261 34.3536 22.7973 34.585L19.2071 37.382ZM21.3898 32.2506C21.553 31.9562 21.9201 31.8511 22.2057 32.0193C22.4913 32.1876 22.5933 32.5661 22.4301 32.8605C22.2669 33.1549 21.8997 33.2601 21.6141 33.0918C21.3082 32.9236 21.2266 32.5451 21.3898 32.2506ZM26.8566 42.0717V35.3841C27.4482 35.3841 28.0398 35.3421 28.6109 35.2369L26.8566 42.0717ZM32.1603 33.1129C31.8747 33.2811 31.5076 33.176 31.3444 32.8815C31.1812 32.5871 31.2832 32.2086 31.5688 32.0403C31.8543 31.8721 32.2215 31.9773 32.3847 32.2717C32.5275 32.5661 32.4459 32.9446 32.1603 33.1129ZM32.5275 33.8069C33.0579 33.4914 33.5066 33.176 33.9758 32.7764L34.5266 37.382L32.5275 33.8069ZM26.8566 32.5661C22.1037 32.5661 18.2484 28.5914 18.2484 23.6704C18.2484 18.7494 22.1037 14.7747 26.8566 14.7747C31.6095 14.7747 35.4649 18.7494 35.4649 23.6704C35.4649 28.5914 31.6095 32.5661 26.8566 32.5661ZM40.0954 15.7631L36.6684 17.824C36.3625 17.2562 36.0565 16.8146 35.6689 16.3309L40.0954 15.7631ZM36.2197 23.6704C36.2197 23.3339 36.4849 23.0605 36.8112 23.0605C37.1376 23.0605 37.4028 23.3339 37.4028 23.6704C37.4028 24.0069 37.1376 24.2803 36.8112 24.2803C36.4849 24.2803 36.2197 24.0069 36.2197 23.6704ZM37.4232 27.8974L40.0954 31.5987L36.6684 29.5378C36.9744 28.97 37.1988 28.4863 37.4232 27.8974ZM37.1784 23.6704C37.1784 23.4601 37.0152 23.2918 36.8112 23.2918C36.6072 23.2918 36.4441 23.4601 36.4441 23.6704C36.4441 23.8807 36.6072 24.0489 36.8112 24.0489C37.0152 24.0489 37.1784 23.8807 37.1784 23.6704Z" fill="white"/>
<path fill-rule="evenodd" clip-rule="evenodd" d="M23.5711 28.5271C23.5711 28.6953 23.6731 28.8426 23.8363 28.9267C24.1015 29.0318 24.387 29.0318 24.6318 28.9267C24.795 28.8636 24.897 28.7164 24.897 28.5271C24.897 28.3589 24.795 28.2117 24.6522 28.1486C24.5298 28.0855 24.4074 28.0434 24.285 28.0224C24.1219 27.9803 23.9587 27.9383 23.7955 27.9172C23.7139 27.8962 23.6323 27.8752 23.5507 27.8752C23.0815 27.8121 22.6327 27.6018 22.2656 27.2653C22.184 27.1602 22.1024 27.034 22.0616 26.9078C21.7352 26.1507 22.0616 25.2464 22.7959 24.9099C23.6935 24.4893 24.7134 24.4893 25.611 24.8889C26.1413 25.0782 26.5085 25.6039 26.5289 26.2138H24.9786C24.9378 25.9825 24.7542 25.7932 24.5094 25.7722C24.3054 25.7301 24.1015 25.7511 23.9179 25.8353C23.7139 25.9194 23.5915 26.1717 23.6731 26.4031C23.7955 26.6134 23.9791 26.7396 24.2238 26.7816C24.6522 26.8447 25.0806 26.9499 25.509 27.0971C25.6926 27.1391 25.8557 27.2022 25.9985 27.3284C26.1413 27.4335 26.2637 27.5808 26.3453 27.728C26.7533 28.422 26.5493 29.3473 25.8557 29.7679C25.0194 30.1885 24.0607 30.2726 23.1835 29.9992C22.5103 29.873 22.0208 29.2632 22.0208 28.5481H23.5711V28.5271ZM31.7102 26.8026C31.6898 26.0876 31.3226 25.4357 30.7515 25.0571C29.9151 24.4262 28.7524 24.4893 27.9772 25.2044C27.508 25.625 27.2225 26.2348 27.2021 26.8657C27.1205 27.5177 27.1817 28.1696 27.4061 28.7795C27.6508 29.3473 28.12 29.7889 28.6912 29.9782C29.2419 30.2095 29.8539 30.1675 30.3843 29.873C31.1186 29.5155 31.6286 28.7584 31.6898 27.9172H30.2619C30.1803 28.2327 30.0171 28.464 29.8131 28.6112C29.3643 28.9267 28.8136 28.6112 28.6096 27.9172C28.4056 27.2232 28.6096 26.4031 29.0584 26.0876C29.5071 25.7722 30.0579 26.0876 30.2619 26.7816H31.7102V26.8026ZM29.6295 23.1434V19.7366C29.5887 19.2739 29.1807 18.9374 28.732 18.9795C28.324 19.0215 27.9976 19.358 27.9976 19.7996V23.6271C28.528 23.3958 29.0788 23.2486 29.6295 23.1434ZM25.7334 23.6061V19.7996C25.7334 19.337 25.3458 18.9584 24.897 18.9584C24.5094 18.9584 24.1626 19.2529 24.1015 19.6524V23.1855C24.6522 23.2486 25.203 23.3747 25.7334 23.6061ZM33.7909 24.1529C33.1381 24.5314 32.363 24.5735 31.6694 24.258C30.6291 23.8164 29.4663 23.8164 28.426 24.258C27.916 24.4683 27.3857 24.5735 26.8349 24.5524C26.2841 24.5524 25.7538 24.4473 25.2438 24.258C24.2034 23.8374 23.0407 23.8374 22.0004 24.258C21.3272 24.5735 20.5317 24.5314 19.8789 24.1529L20.2461 23.5009C20.6949 23.7533 21.2456 23.7743 21.7148 23.564V17.1919H24.0199V17.8018C24.1015 17.7177 24.183 17.6336 24.2646 17.5705C25.2846 16.7082 26.7941 16.8554 27.6304 17.9069C28.0588 17.3602 28.6912 17.0447 29.3847 17.0026C30.7311 16.9396 31.8734 18.0121 31.9346 19.4001V23.564C32.4038 23.7743 32.9545 23.7533 33.4033 23.5009L33.7909 24.1529Z" fill="white"/>
<path d="M80.6056 29.8785C79.9324 29.8154 79.2592 29.7734 78.6065 29.7313C77.9537 29.6893 77.2806 29.6682 76.6278 29.5841C75.9547 29.6472 75.3019 29.6893 74.6491 29.7313C73.9964 29.7734 73.3232 29.7944 72.65 29.8785H72.5684C71.8749 29.8785 71.1609 29.8575 71.1609 29.1635C71.1609 28.4906 71.5485 28.3013 72.1809 28.0069C72.9152 27.6704 72.9968 27.1446 72.9968 25.2309V14.085C72.9968 13.7064 72.956 13.412 72.9356 13.2858C72.8132 13.391 72.6092 13.8116 72.4053 14.2743L72.2625 14.5687L65.6329 28.806C65.3065 29.5 64.9189 29.8575 64.5313 29.8575C64.0622 29.8575 63.8582 29.4159 63.695 29.0794L63.6746 29.0373L57.1878 14.2743C56.8614 13.4751 56.6982 13.391 56.6574 13.391C56.6166 13.391 56.535 13.391 56.535 14.0429V23.233C56.535 25.1468 56.8614 27.0605 59.2277 28.0069C59.7376 28.2172 60.2272 28.4906 60.2272 29.1635C60.2272 29.8785 59.4928 29.8785 59.1869 29.8785C58.5953 29.8785 58.0037 29.8155 57.4326 29.7313C56.8614 29.6682 56.2698 29.5841 55.6987 29.5841C55.1275 29.5841 54.5359 29.6472 53.9648 29.7313C53.3936 29.7944 52.802 29.8785 52.2105 29.8785C51.8841 29.8785 51.3741 29.8785 51.3741 29.1635C51.3741 28.5536 51.7821 28.3433 52.2309 28.091L52.3329 28.0279C53.924 27.1236 54.4135 26.2403 54.4135 24.2635V11.1408C54.4135 9.77382 54.0056 7.98627 52.8632 7.41845C52.6593 7.3133 52.4961 7.22919 52.3329 7.1661C51.5781 6.80858 51.2109 6.61931 51.2109 6.07253C51.2109 5.56781 51.3741 5.35751 51.7821 5.35751C52.2921 5.35751 52.802 5.39957 53.2916 5.4206C53.7812 5.46266 54.2912 5.48369 54.7807 5.48369C55.2703 5.48369 55.7803 5.44163 56.2698 5.4206C56.7594 5.37854 57.2694 5.35751 57.7793 5.35751C58.4525 5.35751 58.7585 5.44163 59.0441 6.03047L65.5309 20.1627C65.7145 20.5412 65.8573 20.8777 65.9796 21.1511C66.1836 21.5927 66.3468 21.9502 66.4284 22.0764C66.5304 21.9712 66.714 21.6137 66.8568 21.3193C66.9384 21.1721 67.02 21.0039 67.1016 20.8356L74.3839 6.24077C74.7511 5.52575 74.9143 5.35751 75.2815 5.35751C75.7915 5.35751 76.3014 5.39957 76.791 5.4206C77.2806 5.46266 77.7905 5.48369 78.2801 5.48369C78.7697 5.48369 79.2796 5.44163 79.7692 5.4206C80.2588 5.37854 80.7688 5.35751 81.2787 5.35751C81.4011 5.35751 81.5031 5.39957 81.5643 5.48369C81.6663 5.60987 81.7071 5.79914 81.6867 6.07253C81.6867 6.6824 81.1155 6.8927 80.1772 7.25021L79.9936 7.3133C78.8921 7.69185 78.3617 7.96524 78.3617 9.98412V22.3498C78.3617 25.2099 78.4841 26.9974 81.0339 28.0279C81.7071 28.3013 82.1355 28.4906 82.1355 29.1845C82.0947 29.8785 81.2991 29.8785 80.6056 29.8785ZM93.6608 30.0888C98.4749 30.0888 101.453 26.009 101.453 22.2236C101.453 16.7137 97.4754 15.3258 93.9464 14.085C91.3149 13.1597 89.0303 12.3605 89.0303 9.98412C89.0303 8.09142 90.8254 7.103 92.5796 7.103C94.9663 7.103 97.7405 9.24807 98.4749 11.6876L98.5157 11.8348C98.7605 12.6549 98.9645 13.2858 99.7192 13.2858C100.29 13.2858 100.658 12.8863 100.658 12.2554C100.658 12.1292 100.617 11.8768 100.556 11.33C100.392 10.1524 100.148 8.17554 100.188 6.78755C100.188 6.36695 100.107 5.86223 99.3928 5.86223C99.1888 5.86223 98.9441 5.96738 98.6585 6.11459C98.4341 6.21974 98.1281 6.34592 98.0057 6.34592C97.6385 6.34592 97.149 6.15665 96.537 5.92532C95.5375 5.54678 94.1504 5 92.3553 5C88.4795 5 85.3381 8.13347 85.3381 12.003C85.3381 17.4918 89.5402 19.006 92.906 20.2468C95.4967 21.1931 97.7405 22.0133 97.7405 24.2635C97.7405 26.4506 96.1086 27.9858 93.7628 27.9858C90.601 27.9858 88.2959 25.4202 87.2148 23.0227C87.174 22.9176 87.1332 22.8124 87.072 22.6863C86.868 22.1605 86.6028 21.4245 85.8889 21.4245C84.9913 21.4245 84.9301 22.0343 84.9301 22.2026C84.9301 22.4549 85.0117 22.7704 85.0933 23.0438C85.1341 23.1489 85.1545 23.2751 85.1749 23.3592L86.358 28.133C86.5212 28.7219 87.0924 28.827 87.4392 28.8901C87.48 28.8901 87.5208 28.9112 87.5615 28.9112C88.1939 29.0373 88.8059 29.1845 89.3974 29.3528C90.7438 29.7313 92.1513 30.0888 93.6608 30.0888ZM116.507 30.0888C123.586 30.0888 127.156 24.3266 127.156 23.1489C127.156 22.476 126.727 22.3918 126.523 22.3918C125.972 22.3918 125.524 22.9176 125.156 23.3382C125.075 23.4223 125.014 23.5064 124.932 23.5695C122.994 25.6094 120.506 26.7871 118.099 26.7871C114.039 26.7871 110.755 22.3077 110.755 16.7979C110.755 10.2785 113.019 7.103 117.67 7.103C120.506 7.103 123.137 9.12189 125.116 12.7601C125.136 12.7811 125.156 12.8232 125.177 12.8652C125.381 13.2648 125.728 13.9588 126.238 13.9588C126.727 13.9588 126.992 13.412 126.992 12.8652C126.992 12.6129 126.931 12.2554 126.87 11.8979C126.829 11.6245 126.788 11.33 126.748 11.0566L126.258 6.36695C126.197 5.98841 125.932 5.77811 125.585 5.77811C124.953 5.77811 124.749 6.17768 124.585 6.4721C124.443 6.74549 124.381 6.85064 124.137 6.85064C123.892 6.85064 123.382 6.64034 122.77 6.40901C121.403 5.86223 119.363 5.04206 116.915 5.04206C113.754 5.04206 110.857 6.11459 108.776 8.04936C106.267 10.3837 104.941 13.9378 104.941 18.3751C104.941 25.6936 110.816 30.0888 116.507 30.0888ZM57.0858 37.1129C57.0858 37.0708 57.045 37.0077 56.9634 37.0077C56.7186 37.0077 56.8002 37.2811 56.5758 37.2811C56.331 37.2811 55.5967 36.7974 54.6379 36.7974C53.1284 36.7974 51.4761 37.7227 51.4761 40.2463C51.4761 42.1811 53.0468 43.2747 54.5155 43.2747C56.3718 43.2747 57.3102 41.7815 57.3102 41.5082C57.3102 41.424 57.2898 41.382 57.2082 41.382C57.0654 41.382 56.943 41.5712 56.8206 41.6764C56.3514 42.1601 55.6579 42.5386 54.9235 42.5386C53.7404 42.5386 52.8632 41.2137 52.8632 39.8257C52.8632 37.8489 53.6792 37.197 54.8011 37.197C55.5763 37.197 56.3106 37.7227 56.8614 38.7322C56.9022 38.7953 57.0042 39.0056 57.1062 39.0056C57.1878 39.0056 57.2286 38.8794 57.2286 38.7953C57.2286 38.6901 57.1878 38.5009 57.1674 38.3326L57.0858 37.1129ZM64.8985 42.097C64.8985 42.3914 64.7965 42.7489 64.4497 42.8541C64.3681 42.8751 64.205 42.9172 64.205 43.0644C64.205 43.2116 64.3273 43.2116 64.4701 43.2116C64.8169 43.2116 65.1841 43.1485 65.5309 43.1485C65.8777 43.1485 66.2448 43.2116 66.5916 43.2116C66.9996 43.2116 67.1016 43.1906 67.1016 43.0644C67.1016 42.9172 67.0404 42.8541 66.918 42.8541C66.5508 42.833 66.2448 42.6648 66.2448 41.9288V40.3936C66.2448 40.2674 66.306 40.2253 66.5304 40.2253C66.8568 40.2253 66.9996 40.4566 67.1424 40.73L68.1827 42.6648C68.3867 43.0223 68.6927 43.2116 68.9375 43.2116C69.2231 43.2116 70.2634 43.1485 70.2634 42.77C70.2634 42.6648 70.2226 42.6017 70.1206 42.6017C70.039 42.6017 69.937 42.6227 69.8554 42.6227C69.7738 42.6227 69.7126 42.5597 69.6106 42.4755C69.1823 41.9708 68.1827 40.1622 68.1827 40.015C68.1827 39.9309 68.4479 39.8678 68.6111 39.7627C68.9783 39.5524 69.2639 39.2369 69.2639 38.606C69.2639 37.1129 68.0399 36.8815 66.8568 36.8815C66.4692 36.8815 65.8165 36.9446 65.3473 36.9446C64.7149 36.9446 64.4905 36.8815 64.2662 36.8815C64.0622 36.8815 64.0214 36.9446 64.0214 37.0288C64.0214 37.176 64.0826 37.2391 64.205 37.2391C64.5721 37.3021 64.8781 37.4494 64.8781 37.9961V42.097H64.8985ZM66.2448 37.7227C66.2448 37.3863 66.3264 37.2601 66.7956 37.2601C67.5504 37.2601 67.9379 37.891 67.9379 38.5429C67.9379 39.4472 67.6116 39.8257 66.816 39.8257C66.2448 39.8257 66.2448 39.6154 66.2448 39.5103V37.7227ZM77.4642 40.8773C77.4642 42.6017 78.4025 43.2957 80.014 43.2957C82.0131 43.2957 83.0126 42.2652 83.0126 40.2463V38.3116C83.0126 37.5124 83.0738 37.3652 83.339 37.2391C83.4818 37.176 83.645 37.176 83.645 37.0288C83.645 36.9236 83.6246 36.8815 83.441 36.8815C83.1758 36.8815 82.9106 36.9236 82.6454 36.9236C82.3803 36.9236 82.1151 36.8815 81.8499 36.8815C81.6255 36.8815 81.5235 36.9236 81.5235 37.0288C81.5235 37.176 81.6663 37.2391 81.8091 37.2391C82.2987 37.2601 82.5231 37.5545 82.5231 38.0172V40.3305C82.5231 41.3399 82.1355 42.6438 80.5648 42.6438C79.4836 42.6438 78.7901 41.8867 78.7901 40.8142V38.0172C78.7901 37.6807 78.9329 37.4073 79.2185 37.2601C79.3612 37.197 79.4836 37.1549 79.4836 37.0498C79.4836 36.9657 79.4428 36.9026 79.2185 36.9026C78.8717 36.9026 78.5045 36.9657 78.1577 36.9657C77.8109 36.9657 77.4438 36.9026 77.097 36.9026C76.6686 36.9026 76.587 36.9446 76.587 37.0708C76.587 37.197 76.6482 37.2601 76.7706 37.2601C77.1378 37.2601 77.4438 37.4494 77.4438 38.0172V40.8773H77.4642ZM92.5796 38.0172C92.5796 37.7227 92.6 37.3652 92.9468 37.2601C93.0284 37.2391 93.2732 37.197 93.2732 37.0498C93.2732 36.9026 93.1508 36.9026 93.008 36.9026C92.6612 36.9026 92.2941 36.9657 91.9473 36.9657C91.6005 36.9657 91.2333 36.9026 90.8866 36.9026C90.6214 36.9026 90.3766 36.9026 90.3766 37.0498C90.3766 37.197 90.4378 37.2601 90.5602 37.2601C90.9273 37.2811 91.2333 37.4494 91.2333 38.0172V42.097C91.2333 42.3914 91.1721 42.7489 90.8254 42.8541C90.7438 42.8751 90.5806 42.9172 90.5806 43.0644C90.5806 43.2116 90.703 43.2116 90.8866 43.2116C91.2333 43.2116 91.6005 43.1485 91.9473 43.1485C92.2941 43.1485 92.6612 43.2116 92.9264 43.2116C93.1916 43.2116 93.4364 43.2116 93.4364 43.0644C93.4364 42.9172 93.3752 42.8541 93.2528 42.8541C93.0488 42.833 92.5796 42.6648 92.5796 42.097V38.0172ZM100.617 42.8541C100.658 42.9803 100.8 43.0013 100.882 43.0013C101.412 43.1064 101.922 43.2957 102.473 43.2957C103.779 43.2957 104.452 42.1601 104.452 41.2979C104.452 38.7953 101.188 39.6155 101.188 38.0592C101.188 37.5335 101.657 37.218 102.187 37.218C102.861 37.218 103.615 37.8279 103.799 38.4798C103.86 38.7112 103.901 38.8584 104.064 38.8584C104.187 38.8584 104.248 38.7742 104.248 38.6691C104.248 38.5639 104.105 37.7438 104.125 37.218C104.125 37.0918 104.105 37.0498 103.983 37.0498C103.901 37.0498 103.717 37.176 103.615 37.176C103.33 37.176 102.881 36.8185 102.126 36.8185C101.086 36.8185 100.352 37.6597 100.352 38.606C100.352 41.0875 103.615 40.3725 103.615 41.8446C103.615 42.5176 103.105 42.8961 102.493 42.8961C101.657 42.8961 101.025 42.2652 100.698 41.5502C100.637 41.424 100.596 41.1717 100.413 41.1717C100.27 41.1717 100.229 41.2348 100.229 41.3189C100.229 41.403 100.27 41.5292 100.29 41.6133L100.617 42.8541ZM112.081 41.9077C112.081 42.4335 112.02 42.6438 111.734 42.791C111.571 42.8751 111.408 42.9382 111.408 43.0854C111.408 43.2326 111.53 43.2326 111.816 43.2326C112.407 43.2326 112.999 43.1695 113.59 43.1695C114.182 43.1695 114.774 43.2326 115.365 43.2326C115.773 43.2326 116.181 42.791 116.283 42.4335C116.344 42.2442 116.426 41.9077 116.426 41.7185C116.426 41.6343 116.385 41.5502 116.283 41.5502C116.14 41.5502 116.059 41.8657 115.753 42.1601C115.447 42.4545 114.937 42.7489 114.019 42.7489C113.55 42.7489 113.427 42.6438 113.427 41.9708V40.4146C113.427 40.1833 113.509 40.0781 113.937 40.0781C114.447 40.0781 114.712 40.1412 114.916 40.4987C115.018 40.688 115.018 40.9614 115.161 40.9614C115.324 40.9614 115.324 40.8352 115.324 40.709C115.324 40.4356 115.283 40.1622 115.283 39.8888C115.283 39.6154 115.324 39.3421 115.324 39.0687C115.324 38.9425 115.324 38.8163 115.202 38.8163C115.12 38.8163 115.079 38.8373 114.978 39.0897C114.835 39.4893 114.447 39.6365 113.937 39.6365C113.59 39.6365 113.427 39.5944 113.427 39.4472V37.8489C113.427 37.4914 113.488 37.4073 113.733 37.4073H114.304C115.345 37.4073 115.589 37.6386 115.651 38.2064C115.651 38.2906 115.691 38.4588 115.834 38.4588C115.957 38.4588 115.997 38.3957 115.997 38.2906C115.997 38.0803 115.957 37.891 115.957 37.7017C115.957 37.4914 115.997 37.3021 115.997 37.0918C115.997 36.9026 115.814 36.9026 115.61 36.9026C114.937 36.9026 114.264 36.9657 113.57 36.9657C112.897 36.9657 112.224 36.9867 111.53 36.9026C111.347 36.9026 111.204 36.9026 111.204 37.0498C111.204 37.197 111.387 37.2811 111.653 37.3232C112.02 37.3652 112.06 38.0592 112.06 38.5009V41.9077H112.081ZM123.504 42.8541C123.545 42.9803 123.688 43.0013 123.769 43.0013C124.3 43.1064 124.81 43.2957 125.36 43.2957C126.666 43.2957 127.339 42.1601 127.339 41.2979C127.339 38.7953 124.075 39.6155 124.075 38.0592C124.075 37.5335 124.545 37.218 125.075 37.218C125.748 37.218 126.503 37.8279 126.686 38.4798C126.748 38.7112 126.788 38.8584 126.952 38.8584C127.074 38.8584 127.135 38.7742 127.135 38.6691C127.135 38.5639 126.992 37.7438 127.013 37.218C127.013 37.0918 126.992 37.0498 126.87 37.0498C126.788 37.0498 126.605 37.176 126.503 37.176C126.217 37.176 125.768 36.8185 125.014 36.8185C123.973 36.8185 123.239 37.6597 123.239 38.606C123.239 41.0875 126.503 40.3725 126.503 41.8446C126.503 42.5176 125.993 42.8961 125.381 42.8961C124.545 42.8961 123.912 42.2652 123.586 41.5502C123.525 41.424 123.484 41.1717 123.3 41.1717C123.157 41.1717 123.117 41.2348 123.117 41.3189C123.117 41.403 123.157 41.5292 123.178 41.6133L123.504 42.8541Z" fill="white"/>
</svg>
