<svg width="109" height="144" viewBox="0 0 109 144" fill="none" xmlns="http://www.w3.org/2000/svg">
<path d="M48.9498 5.34648C52.0481 2.36192 56.9519 2.36192 60.0501 5.34647L103.019 46.7384C106.285 49.885 106.285 55.115 103.019 58.2616L60.0502 99.6535C56.9519 102.638 52.0481 102.638 48.9499 99.6535L5.98108 58.2616C2.71461 55.115 2.7146 49.885 5.98107 46.7384L48.9498 5.34648Z" fill="url(#paint0_linear_23_1774)"/>
<line y1="-0.5" x2="40" y2="-0.5" transform="matrix(4.37114e-08 -1 -1 -4.37114e-08 56 144)" stroke="url(#paint1_linear_23_1774)"/>
<path d="M50.4378 94.7887L56 91.5774L61.5622 94.7887V101.211L56 104.423L50.4378 101.211V94.7887Z" stroke="#7A1120"/>
<path fill-rule="evenodd" clip-rule="evenodd" d="M42.4161 32.1845C41.7291 32.401 41.1125 32.8517 40.637 33.4849C39.9436 34.4081 39.981 33.5473 40.0153 47.8191C40.0457 60.45 40.0498 60.6877 40.2509 61.5443C40.921 64.3985 42.2149 66.7673 44.1593 68.6996C46.5575 71.0827 49.4695 72.4929 52.839 72.903C53.9206 73.0346 56.0898 73.0318 57.2072 72.8974C60.5074 72.5003 63.5276 71.0325 65.8404 68.7017C67.8146 66.7123 69.0529 64.4477 69.7369 61.5769C69.9522 60.6734 69.9524 60.6614 69.9841 47.8202C70.0196 33.5472 70.0569 34.4092 69.3628 33.4849C68.8783 32.8398 68.2673 32.3997 67.5511 32.1798C66.9747 32.003 66.4807 31.996 54.9666 32.001C43.5988 32.0059 42.9529 32.0153 42.4161 32.1845ZM54.6074 36.2544C54.6074 38.9594 54.58 39.7471 54.4848 39.7739C53.4106 40.0776 52.7092 40.5991 52.2687 41.4219C52.0142 41.8974 52.0069 41.9589 51.9761 43.9163L51.9444 45.9232H46.3596H40.7747V40.4758C40.7747 34.2067 40.7479 34.4276 41.6127 33.575C42.4402 32.7591 42.2148 32.784 48.8438 32.7763L54.6074 32.7695V36.2544ZM67.3577 32.9226C67.7445 33.0359 68.0126 33.2059 68.3884 33.5763C69.2516 34.4274 69.225 34.2078 69.225 40.4758V45.9232H63.6401H58.0553L58.0236 43.9163C57.9927 41.9508 57.9866 41.8991 57.7269 41.4139C57.3001 40.6163 56.5639 40.0705 55.5149 39.7739C55.4198 39.7471 55.3923 38.9594 55.3923 36.2544V32.7695H61.1135C66.0463 32.7695 66.907 32.7906 67.3577 32.9226ZM55.8828 40.7085C56.4761 40.9737 56.7474 41.2364 57.0231 41.8127L57.2543 42.2962L57.2531 46.31C57.2521 50.1421 57.2429 50.3436 57.0518 50.7591C56.9417 50.9984 56.7551 51.298 56.637 51.4247C56.3131 51.7725 55.5052 52.1112 54.9999 52.1112C54.0884 52.1112 53.1095 51.4091 52.8554 50.5732C52.6999 50.0613 52.6999 42.5587 52.8554 42.0469C53.2191 40.8504 54.7177 40.1878 55.8828 40.7085ZM51.9761 48.7038C52.0069 50.6631 52.0139 50.7221 52.269 51.1943C52.5837 51.7765 53.1262 52.3032 53.7245 52.6069C54.3585 52.9288 55.6413 52.9288 56.2752 52.6069C56.8736 52.3032 57.4161 51.7765 57.7307 51.1943C57.9859 50.7221 57.9928 50.6631 58.0236 48.7038L58.0553 46.6969H63.6449H69.2346L69.1991 53.6364C69.1651 60.2961 69.1554 60.611 68.9562 61.4464C68.2826 64.2724 67.0557 66.4341 65.0156 68.3897C63.0677 70.257 60.9337 71.3758 58.2067 71.9596C57.3412 72.1448 56.9112 72.1736 54.9999 72.1736C53.0885 72.1736 52.6585 72.1448 51.793 71.9596C49.0012 71.3619 46.791 70.1775 44.771 68.1964C42.9245 66.3856 41.6785 64.1299 41.0425 61.4472C40.8448 60.6126 40.8346 60.2835 40.8006 53.6364L40.7651 46.6969H46.3548H51.9444L51.9761 48.7038Z" fill="#7A1120"/>
<defs>
<linearGradient id="paint0_linear_23_1774" x1="55" y1="42.5" x2="55" y2="224.5" gradientUnits="userSpaceOnUse">
<stop stop-color="white"/>
<stop offset="0.507347" stop-color="white" stop-opacity="0"/>
</linearGradient>
<linearGradient id="paint1_linear_23_1774" x1="39.9998" y1="1.07529e-05" x2="-0.000200272" y2="1.04686e-05" gradientUnits="userSpaceOnUse">
<stop stop-color="#7A1120"/>
<stop offset="1" stop-color="#7A1120" stop-opacity="0"/>
</linearGradient>
</defs>
</svg>
