<svg width="66" height="66" viewBox="0 0 66 66" fill="none" xmlns="http://www.w3.org/2000/svg">
<g clip-path="url(#clip0_26_2007)">
<path d="M20.7391 30.268C20.7391 30.6783 20.5761 31.0717 20.286 31.3618C19.9959 31.6519 19.6025 31.8149 19.1922 31.8149H11.877C11.4668 31.8149 11.0733 31.6519 10.7832 31.3618C10.4931 31.0717 10.3302 30.6783 10.3302 30.268C10.3302 29.8578 10.4931 29.4643 10.7832 29.1742C11.0733 28.8841 11.4668 28.7212 11.877 28.7212H19.1922C19.6025 28.7212 19.9959 28.8841 20.286 29.1742C20.5761 29.4643 20.7391 29.8578 20.7391 30.268ZM32.2486 28.7212H24.9334C24.5232 28.7212 24.1297 28.8841 23.8396 29.1742C23.5495 29.4643 23.3866 29.8578 23.3866 30.268C23.3866 30.6783 23.5495 31.0717 23.8396 31.3618C24.1297 31.6519 24.5232 31.8149 24.9334 31.8149H32.2486C32.6589 31.8149 33.0523 31.6519 33.3424 31.3618C33.6325 31.0717 33.7955 30.6783 33.7955 30.268C33.7955 29.8578 33.6325 29.4643 33.3424 29.1742C33.0523 28.8841 32.6589 28.7212 32.2486 28.7212ZM45.305 28.7212H37.9897C37.5794 28.7212 37.186 28.8841 36.8959 29.1742C36.6058 29.4643 36.4428 29.8578 36.4428 30.268C36.4428 30.6783 36.6058 31.0717 36.8959 31.3618C37.186 31.6519 37.5794 31.8149 37.9897 31.8149H45.305C45.7153 31.8149 46.1087 31.6519 46.3988 31.3618C46.6889 31.0717 46.8519 30.6783 46.8519 30.268C46.8519 29.8578 46.6889 29.4643 46.3988 29.1742C46.1087 28.8841 45.7153 28.7212 45.305 28.7212ZM19.1922 39.9155H11.877C11.4668 39.9155 11.0733 40.0785 10.7832 40.3686C10.4931 40.6587 10.3302 41.0521 10.3302 41.4624C10.3302 41.8726 10.4931 42.2661 10.7832 42.5562C11.0733 42.8463 11.4668 43.0093 11.877 43.0093H19.1922C19.6025 43.0093 19.9959 42.8463 20.286 42.5562C20.5761 42.2661 20.7391 41.8726 20.7391 41.4624C20.7391 41.0521 20.5761 40.6587 20.286 40.3686C19.9959 40.0785 19.6025 39.9155 19.1922 39.9155ZM32.2486 39.9155H24.9334C24.5232 39.9155 24.1297 40.0785 23.8396 40.3686C23.5495 40.6587 23.3866 41.0521 23.3866 41.4624C23.3866 41.8726 23.5495 42.2661 23.8396 42.5562C24.1297 42.8463 24.5232 43.0093 24.9334 43.0093H32.2486C32.6589 43.0093 33.0523 42.8463 33.3424 42.5562C33.6325 42.2661 33.7955 41.8726 33.7955 41.4624C33.7955 41.0521 33.6325 40.6587 33.3424 40.3686C33.0523 40.0785 32.6589 39.9155 32.2486 39.9155ZM65.5469 40.4671L40.5582 65.4558C40.2725 65.7414 39.8865 65.9039 39.4826 65.9087L31.7026 65.9999H31.6844C31.4797 66 31.2771 65.9593 31.0882 65.8805C30.8993 65.8016 30.728 65.686 30.5841 65.5405C30.4402 65.3949 30.3267 65.2222 30.25 65.0324C30.1733 64.8427 30.1351 64.6395 30.1375 64.4349L30.2286 56.655C30.2334 56.251 30.3959 55.865 30.6816 55.5793L32.3445 53.9164H7.5918C5.57903 53.9141 3.64936 53.1135 2.22611 51.6903C0.802869 50.267 0.0022859 48.3374 0 46.3246L0 13.3557C0.0022859 11.3429 0.802869 9.41321 2.22611 7.98997C3.64936 6.56672 5.57903 5.76614 7.5918 5.76385H10.0031V3.01054C10.004 2.21239 10.3215 1.44718 10.8859 0.882788C11.4503 0.318393 12.2154 0.000894229 13.0136 -6.10352e-05L16.2938 -6.10352e-05C17.0918 0.000996615 17.8569 0.318545 18.4212 0.882932C18.9854 1.44732 19.3028 2.21247 19.3037 3.01054V5.76385H37.8783V3.01054C37.8792 2.21233 38.1967 1.44707 38.7611 0.882659C39.3256 0.31825 40.0909 0.000791956 40.8891 -6.10352e-05L44.1684 -6.10352e-05C44.9667 0.000689541 45.7321 0.318098 46.2967 0.882515C46.8612 1.44693 47.1788 2.21225 47.1797 3.01054V5.76385H49.5902C51.603 5.76614 53.5327 6.56672 54.9559 7.98997C56.3792 9.41321 57.1798 11.3429 57.182 13.3557V30.1957C57.4376 30.2668 57.6705 30.4029 57.858 30.5906L65.5469 38.2794C65.6905 38.4231 65.8045 38.5936 65.8822 38.7813C65.96 38.969 66 39.1701 66 39.3733C66 39.5764 65.96 39.7776 65.8822 39.9652C65.8045 40.1529 65.6905 40.3234 65.5469 40.4671ZM40.9721 11.5278H44.0859V3.09369H40.9721V11.5278ZM13.0966 11.5278H16.21V3.09369H13.0969L13.0966 11.5278ZM3.09375 13.3557V20.4607H54.0883V13.3557C54.0869 12.1631 53.6126 11.0198 52.7693 10.1766C51.9261 9.33331 50.7828 8.85897 49.5902 8.8576H47.1797V11.6109C47.1788 12.4091 46.8613 13.1744 46.2968 13.7388C45.7324 14.3032 44.9672 14.6206 44.169 14.6215H40.8891C40.0909 14.6206 39.3256 14.3032 38.7612 13.7388C38.1968 13.1743 37.8793 12.4091 37.8785 11.6109V8.8576H19.3037V11.6109C19.3028 12.409 18.9854 13.1741 18.4212 13.7385C17.8569 14.3029 17.0918 14.6205 16.2938 14.6215H13.0136C12.2154 14.6206 11.4503 14.3031 10.8859 13.7387C10.3215 13.1743 10.004 12.4091 10.0031 11.6109V8.8576H7.59258C6.3999 8.85876 5.2564 9.33301 4.41298 10.1763C3.56956 11.0196 3.09512 12.163 3.09375 13.3557ZM35.4384 50.8226L54.0883 32.1727V23.5545H3.09375V46.3246C3.09511 47.5171 3.56945 48.6604 4.41271 49.5037C5.25596 50.3469 6.39927 50.8213 7.5918 50.8226H35.4384ZM57.1367 44.502L51.6355 39.0008L33.3149 57.3213L33.2497 62.8878L38.8162 62.8227L57.1367 44.502ZM62.2655 39.3732L56.7643 33.872L53.8231 36.8131L59.3243 42.3144L62.2655 39.3732Z" fill="white"/>
</g>
<defs>
<clipPath id="clip0_26_2007">
<rect width="66" height="66" fill="white"/>
</clipPath>
</defs>
</svg>
