<svg width="407" height="350" viewBox="0 0 407 350" fill="none" xmlns="http://www.w3.org/2000/svg">
<g clip-path="url(#clip0_23_1598)">
<g style="mix-blend-mode:overlay">
<path d="M21.6746 311.825L-96.1667 385.26L-22.7313 503.102L95.1099 429.666L21.6746 311.825Z" stroke="white" stroke-width="6.03" stroke-miterlimit="10"/>
<path d="M28.9172 280.659L-127.319 378.021L-29.9571 534.257L126.279 436.895L28.9172 280.659Z" stroke="white" stroke-width="5.46" stroke-miterlimit="10"/>
<path d="M36.1429 249.503L-158.48 370.787L-37.1965 565.409L157.426 444.126L36.1429 249.503Z" stroke="white" stroke-width="4.9" stroke-miterlimit="10"/>
<path d="M43.3738 218.356L-189.635 363.561L-44.4306 596.57L188.579 451.365L43.3738 218.356Z" stroke="white" stroke-width="4.33" stroke-miterlimit="10"/>
<path d="M50.608 187.195L-220.796 356.327L-51.6648 627.731L219.739 458.6L50.608 187.195Z" stroke="white" stroke-width="3.77" stroke-miterlimit="10"/>
<path d="M57.8421 156.035L-251.948 349.087L-58.8956 658.878L250.895 465.825L57.8421 156.035Z" stroke="white" stroke-width="3.2" stroke-miterlimit="10"/>
<path d="M65.0762 124.874L-283.109 341.853L-66.1298 690.039L282.056 473.059L65.0762 124.874Z" stroke="white" stroke-width="2.64" stroke-miterlimit="10"/>
<path d="M72.3072 93.7268L-314.265 334.628L-73.3639 721.2L313.208 480.299L72.3072 93.7268Z" stroke="white" stroke-width="2.07" stroke-miterlimit="10"/>
<path d="M79.5498 62.5607L-345.417 327.388L-80.5897 752.355L344.377 487.528L79.5498 62.5607Z" stroke="white" stroke-width="1.51" stroke-miterlimit="10"/>
<path d="M86.7756 31.4052L-376.578 320.154L-87.8291 783.508L375.524 494.759L86.7756 31.4052Z" stroke="white" stroke-width="0.94" stroke-miterlimit="10"/>
<path d="M94.015 0.252794L-407.733 312.928L-95.0579 814.677L406.691 502.001L94.015 0.252794Z" stroke="white" stroke-width="0.38" stroke-miterlimit="10"/>
</g>
</g>
<defs>
<clipPath id="clip0_23_1598">
<rect width="815" height="349" fill="white" transform="translate(-408 0.00213623)"/>
</clipPath>
</defs>
</svg>
