<svg width="66" height="66" viewBox="0 0 66 66" fill="none" xmlns="http://www.w3.org/2000/svg">
<g clip-path="url(#clip0_26_2009)">
<path d="M58.2296 30.5842C55.9838 29.4614 51.7731 29.4484 51.595 29.4484C51.061 29.4484 50.6282 29.8813 50.6282 30.4152C50.6282 30.9492 51.061 31.382 51.595 31.382C52.6815 31.3821 55.8362 31.5495 57.3649 32.3138C57.5038 32.3832 57.6512 32.416 57.7965 32.416C58.1511 32.416 58.4926 32.22 58.662 31.8814C58.9009 31.4038 58.7072 30.8231 58.2296 30.5842Z" fill="white"/>
<path fill-rule="evenodd" clip-rule="evenodd" d="M58.4532 30.137L58.4533 30.137C59.1778 30.4994 59.4716 31.3804 59.1092 32.1051L59.1092 32.1051C58.8519 32.6195 58.3332 32.916 57.7965 32.916C57.5757 32.916 57.3514 32.8661 57.1413 32.761M58.2296 30.5842C55.9838 29.4614 51.7731 29.4484 51.595 29.4484C51.061 29.4484 50.6282 29.8813 50.6282 30.4152C50.6282 30.9492 51.061 31.382 51.595 31.382C52.6815 31.3821 55.8362 31.5495 57.3649 32.3138C57.5038 32.3832 57.6512 32.416 57.7965 32.416C58.1511 32.416 58.4926 32.22 58.662 31.8814C58.9009 31.4038 58.7072 30.8231 58.2296 30.5842ZM58.4532 30.137C57.2445 29.5327 55.5531 29.2425 54.1896 29.0981ZM54.1896 29.0981C52.8096 28.9519 51.6931 28.9484 51.595 28.9484ZM51.595 28.9484C50.7849 28.9484 50.1282 29.6052 50.1282 30.4152ZM50.1282 30.4152C50.1282 31.2253 50.7849 31.882 51.5949 31.882ZM51.595 31.882C52.1198 31.8821 53.1596 31.9229 54.253 32.0576ZM54.253 32.0576C55.3627 32.1942 56.4592 32.42 57.1412 32.7609Z" fill="white"/>
<path d="M63.0496 44.3489L59.0567 43.2081C58.8844 43.1589 58.764 42.9993 58.764 42.82V41.4872C59.0888 41.2622 59.3987 41.0103 59.6884 40.7291C61.0922 39.3668 61.8652 37.5396 61.8652 35.5838V33.7447L62.2513 32.9727C62.675 32.1252 62.8989 31.1763 62.8989 30.2288V25.2466C62.8989 24.7127 62.466 24.2798 61.9321 24.2798H52.6286C49.2455 24.2798 46.4931 27.0322 46.4931 30.4152V30.4728C46.4931 31.2607 46.6794 32.0497 47.0317 32.7543L47.5268 33.7446V35.3237C47.5268 37.8263 48.7601 40.0717 50.6281 41.4229L50.6283 42.8197C50.6283 43.0351 50.6283 43.1243 49.83 43.3525L47.8817 43.9091L42.2458 41.8598C42.266 41.5938 42.1763 41.3234 41.9823 41.1196L40.1814 39.2275V36.0513C40.3718 35.8944 40.5594 35.7332 40.7413 35.5628C43.0133 33.4333 44.3163 30.4267 44.3163 27.314V24.7774C45.0023 23.2845 45.35 21.7048 45.35 20.0778V9.74084C45.35 9.20692 44.9171 8.77405 44.3832 8.77405H29.911C24.8179 8.77405 20.6745 12.9176 20.6745 18.0106V20.0781C20.6745 21.705 21.0222 23.2848 21.7082 24.7776V26.9601C21.7082 30.5742 23.3151 33.8301 25.8431 35.9766V39.2276L24.0422 41.1197C23.8482 41.3235 23.7585 41.594 23.7787 41.8599L17.8303 44.0228C17.3993 44.1796 16.9987 44.3919 16.6351 44.649L15.701 44.182C18.4815 42.9717 19.3624 41.2695 19.4046 41.1849C19.5408 40.9128 19.5408 40.5924 19.4046 40.3202C18.7076 38.9262 18.6232 36.3712 18.5554 34.3182C18.5329 33.6348 18.5115 32.9891 18.4706 32.4142C18.141 27.7769 14.6156 24.2798 10.2702 24.2798C5.92479 24.2798 2.39933 27.7768 2.06985 32.4142C2.02898 32.9892 2.00759 33.6349 1.98503 34.3185C1.91722 36.3713 1.83266 38.9261 1.13579 40.3201C0.999668 40.5922 0.999668 40.9127 1.13579 41.1848C1.17807 41.2694 2.05709 42.9681 4.84314 44.1798L2.24864 45.477C0.861609 46.171 0 47.5652 0 49.1158V56.2583C0 56.7923 0.432867 57.2251 0.966797 57.2251C1.50073 57.2251 1.93359 56.7923 1.93359 56.2583V49.1158C1.93359 48.3021 2.38567 47.5706 3.11334 47.2067L6.34412 45.5913L7.46793 46.6593C8.25374 47.4061 9.26178 47.7793 10.2702 47.7793C11.2784 47.7793 12.287 47.4058 13.0725 46.6593L14.1962 45.5915L15.2496 46.1182C14.7536 46.9119 14.472 47.8426 14.472 48.8175V56.2586C14.472 56.7925 14.9049 57.2254 15.4388 57.2254C15.9728 57.2254 16.4056 56.7925 16.4056 56.2586V48.8175C16.4056 47.4903 17.2437 46.2938 18.4911 45.8401L24.7626 43.5597L27.3734 47.476C27.7071 47.9766 28.2419 48.2977 28.8407 48.357C28.9075 48.3636 28.9739 48.3668 29.0401 48.3668C29.5684 48.3668 30.0743 48.1589 30.4526 47.7808L32.0453 46.1881V56.2587C32.0453 56.7927 32.4782 57.2255 33.0121 57.2255C33.546 57.2255 33.9789 56.7927 33.9789 56.2587V46.1881L35.5717 47.7808C35.9498 48.159 36.4557 48.367 36.9841 48.367C37.0502 48.367 37.1167 48.3637 37.1834 48.3572C37.7823 48.2979 38.3171 47.9768 38.6509 47.4761L41.2617 43.5599L47.5331 45.8404C48.7804 46.294 49.6186 47.4905 49.6186 48.8177V56.2589C49.6186 56.7928 50.0515 57.2257 50.5854 57.2257C51.1193 57.2257 51.5522 56.7928 51.5522 56.2589V48.8177C51.5522 47.4735 51.0181 46.2128 50.1222 45.2804L50.3611 45.2122C50.602 45.1434 50.9307 45.0492 51.2607 44.8874L53.7292 47.3558V56.2589C53.7292 56.7928 54.162 57.2257 54.696 57.2257C55.2299 57.2257 55.6628 56.7928 55.6628 56.2589V47.3558L58.114 44.9045C58.2444 44.9708 58.3813 45.0267 58.5254 45.0679L62.5184 46.2087C63.4297 46.4691 64.0664 47.313 64.0664 48.261V56.2589C64.0664 56.7928 64.4993 57.2257 65.0332 57.2257C65.5671 57.2257 66 56.7928 66 56.2589V48.261C66 46.454 64.7867 44.8454 63.0496 44.3489ZM6.20232 42.6413C4.3939 41.9906 3.48679 41.1231 3.09955 40.6493C3.36355 39.9592 3.53474 39.1687 3.65062 38.3343C4.18378 39.6127 5.07671 40.704 6.20232 41.4826V42.6413ZM11.7408 45.2579C10.9162 46.0414 9.6244 46.0412 8.80004 45.2577L7.90092 44.4034C8.05264 44.1191 8.13605 43.7968 8.13605 43.4592V42.4288C8.81048 42.6395 9.52746 42.7532 10.2705 42.7532C11.0126 42.7532 11.7292 42.639 12.4048 42.4294L12.4046 43.4591C12.4046 43.7968 12.4879 44.1192 12.6398 44.4036L11.7408 45.2579ZM10.2707 40.8196C7.38375 40.8196 5.03521 38.471 5.03521 35.5841C5.03521 35.0502 4.60234 34.6173 4.06841 34.6173C4.01427 34.6173 3.96142 34.6228 3.90973 34.6315C3.91256 34.5483 3.91527 34.4651 3.91811 34.3827C3.93963 33.7179 3.96039 33.09 3.99867 32.5514C4.12216 30.8143 4.81632 29.2136 5.95328 28.0439C7.10041 26.8636 8.63363 26.2136 10.2705 26.2136C11.9073 26.2136 13.4404 26.8636 14.5877 28.0439C15.7246 29.2136 16.4188 30.8143 16.5423 32.5514C16.5804 33.0899 16.6013 33.7177 16.6232 34.3823C16.6252 34.4394 16.6271 34.4973 16.629 34.5548C15.5772 32.9342 13.9527 31.7399 11.8537 31.0654C9.91457 30.4424 8.24678 30.481 8.17639 30.4828C7.92322 30.4899 7.68294 30.5958 7.50724 30.7781L5.76288 32.5872C5.39228 32.9716 5.40336 33.5836 5.78776 33.9542C6.17216 34.3248 6.78421 34.3136 7.15481 33.9293L8.6063 32.4241C9.8563 32.4852 13.8778 32.9529 15.4418 36.3969C15.0483 38.9348 12.8669 40.8196 10.2707 40.8196ZM14.3381 42.6446L14.3382 41.4915C15.4629 40.7171 16.3572 39.6279 16.8907 38.3399C17.0066 39.1723 17.1777 39.961 17.4411 40.6496C17.0561 41.1188 16.1447 41.9941 14.3381 42.6446ZM23.6418 26.96V24.5613C23.6418 24.4158 23.6089 24.2721 23.5456 24.141C22.9235 22.8527 22.6081 21.4858 22.6081 20.0781V18.0107C22.6081 13.9838 25.8842 10.7078 29.911 10.7078H43.4164V20.0782C43.4164 21.4859 43.101 22.8528 42.4789 24.1411C42.4156 24.2722 42.3827 24.4159 42.3827 24.5615V27.3142C42.3827 29.9325 41.3302 32.3609 39.419 34.1523C39.1804 34.3759 38.9328 34.5855 38.6768 34.7808C38.6711 34.7846 38.6657 34.7889 38.6601 34.7929C36.8698 36.1522 34.6768 36.8128 32.3867 36.6645C27.4829 36.347 23.6418 32.0843 23.6418 26.96ZM29.0854 46.4134C29.0787 46.4201 29.0631 46.4359 29.0315 46.4326C29 46.4295 28.9877 46.4111 28.9824 46.4031L25.9756 41.8929L26.9432 40.8762L31.5046 43.9941L29.0854 46.4134ZM33.0122 42.6824L27.7767 39.1038V37.2991C29.1314 38.0314 30.6482 38.4894 32.2615 38.5938C32.5163 38.6103 32.7696 38.6184 33.0222 38.6184C34.8708 38.6184 36.65 38.1765 38.2478 37.3377V39.1038L33.0122 42.6824ZM37.0421 46.4033C37.0368 46.4113 37.0245 46.4298 36.993 46.4328C36.9614 46.4368 36.9459 46.4202 36.9391 46.4136L34.5199 43.9945L39.0813 40.8765L40.049 41.8932L37.0421 46.4033ZM54.696 45.5876L52.502 43.3938C52.5403 43.2199 52.5619 43.0295 52.5618 42.8195L52.5617 42.4115C53.1705 42.6113 53.8122 42.7299 54.4762 42.7497C54.5507 42.7521 54.6245 42.7531 54.6988 42.7531C55.4325 42.7531 56.1487 42.6422 56.8304 42.4307V42.82C56.8304 43.0128 56.8546 43.2018 56.9002 43.3834L54.696 45.5876ZM58.3418 39.3416C57.3171 40.336 55.9635 40.8611 54.5343 40.817C51.7365 40.7331 49.4604 38.2688 49.4604 35.324V33.5166C49.4604 33.3664 49.4255 33.2184 49.3583 33.0842L48.7611 31.8898C48.5424 31.4521 48.4267 30.9623 48.4267 30.473V30.4153C48.4267 28.0984 50.3117 26.2135 52.6286 26.2135H60.9653V30.2289C60.9653 30.8779 60.8119 31.5277 60.5217 32.1081L60.0337 33.0842C59.9665 33.2185 59.9316 33.3664 59.9316 33.5166V35.584C59.9316 37.0122 59.367 38.3467 58.3418 39.3416Z" fill="white"/>
<path fill-rule="evenodd" clip-rule="evenodd" d="M62.2513 32.9727L61.8652 33.7447V35.5838C61.8652 37.5396 61.0922 39.3669 59.6884 40.7291C59.3987 41.0103 59.0888 41.2622 58.764 41.4872V42.82C58.764 42.9993 58.8844 43.1589 59.0567 43.2081L63.0496 44.3489C64.7867 44.8454 66 46.454 66 48.261V56.2589C66 56.7928 65.5671 57.2257 65.0332 57.2257C64.4993 57.2257 64.0664 56.7928 64.0664 56.2589V48.261C64.0664 47.313 63.4297 46.4691 62.5184 46.2087L58.5254 45.0679C58.3813 45.0267 58.2444 44.9708 58.114 44.9045L55.6628 47.3558V56.2589C55.6628 56.7928 55.2299 57.2257 54.696 57.2257C54.162 57.2257 53.7292 56.7928 53.7292 56.2589V47.3558L51.2607 44.8874C51.0518 44.9898 50.8433 45.0652 50.6573 45.1242C50.5496 45.1583 50.4494 45.187 50.3611 45.2122L50.1222 45.2804C50.2497 45.4131 50.3698 45.5524 50.4822 45.6976C51.1593 46.5732 51.5522 47.6648 51.5522 48.8177V56.2589C51.5522 56.7928 51.1193 57.2257 50.5854 57.2257C50.0515 57.2257 49.6186 56.7928 49.6186 56.2589V48.8177C49.6186 47.4905 48.7804 46.294 47.5331 45.8404L41.2617 43.5599L38.6509 47.4761C38.3171 47.9768 37.7823 48.2979 37.1834 48.3572C37.1167 48.3637 37.0502 48.367 36.9841 48.367C36.4557 48.367 35.9498 48.159 35.5717 47.7808L33.9789 46.1881V56.2587C33.9789 56.7927 33.546 57.2255 33.0121 57.2255C32.4782 57.2255 32.0453 56.7927 32.0453 56.2587V46.1881L30.4526 47.7808C30.0743 48.1589 29.5684 48.3668 29.0401 48.3668C28.9739 48.3668 28.9075 48.3636 28.8407 48.357C28.2419 48.2977 27.7071 47.9766 27.3734 47.476L24.7626 43.5597L18.4911 45.8401C17.2437 46.2938 16.4056 47.4903 16.4056 48.8175V56.2586C16.4056 56.7925 15.9728 57.2254 15.4388 57.2254C14.9049 57.2254 14.472 56.7925 14.472 56.2586V48.8175C14.472 48.0163 14.6622 47.245 15.0052 46.555C15.0796 46.4054 15.1612 46.2596 15.2496 46.1182L14.1962 45.5915L13.0725 46.6593C12.287 47.4058 11.2784 47.7793 10.2702 47.7793C9.26178 47.7793 8.25374 47.4061 7.46793 46.6593L6.34412 45.5913L3.11334 47.2067C2.38567 47.5706 1.93359 48.3021 1.93359 49.1158V56.2583C1.93359 56.7923 1.50073 57.2251 0.966797 57.2251C0.432867 57.2251 0 56.7923 0 56.2583V49.1158C0 47.5652 0.861609 46.171 2.24864 45.477L4.84314 44.1798C4.64098 44.0919 4.44887 44.0014 4.26639 43.9092C1.93393 42.7301 1.17501 41.2632 1.13579 41.1848C0.999668 40.9127 0.999668 40.5922 1.13579 40.3201C1.83266 38.9261 1.91722 36.3713 1.98503 34.3185C2.00759 33.6349 2.02898 32.9892 2.06985 32.4142C2.39933 27.7768 5.92479 24.2798 10.2702 24.2798C14.6156 24.2798 18.141 27.7769 18.4706 32.4142C18.5115 32.9891 18.5329 33.6348 18.5554 34.3182C18.6232 36.3712 18.7076 38.9263 19.4046 40.3202C19.5408 40.5924 19.5408 40.9128 19.4046 41.1849C19.3654 41.2634 18.6051 42.7329 16.2775 43.9112C16.0951 44.0035 15.9031 44.0941 15.701 44.182L16.6351 44.649C16.9987 44.3919 17.3993 44.1796 17.8303 44.0228L23.7787 41.8599C23.7585 41.594 23.8482 41.3235 24.0422 41.1197L25.8431 39.2276V35.9766C23.3151 33.8301 21.7082 30.5742 21.7082 26.9601V24.7776C21.0222 23.2848 20.6745 21.705 20.6745 20.0781V18.0106C20.6745 12.9176 24.8179 8.77405 29.911 8.77405H44.3832C44.9171 8.77405 45.35 9.20692 45.35 9.74084V20.0778C45.35 21.7048 45.0023 23.2845 44.3163 24.7774V27.314C44.3163 30.4267 43.0133 33.4333 40.7413 35.5628C40.5594 35.7332 40.3718 35.8944 40.1814 36.0513V39.2275L41.9823 41.1196C42.1763 41.3234 42.266 41.5938 42.2458 41.8598L47.8817 43.9091L49.83 43.3525C50.6283 43.1243 50.6283 43.0351 50.6283 42.8197L50.6281 41.4229C48.7601 40.0717 47.5268 37.8263 47.5268 35.3237V33.7446L47.0317 32.7543C46.6794 32.0497 46.4931 31.2607 46.4931 30.4728V30.4152C46.4931 27.0322 49.2455 24.2798 52.6286 24.2798H61.9321C62.466 24.2798 62.8989 24.7127 62.8989 25.2466V30.2288C62.8989 31.1763 62.675 32.1252 62.2513 32.9727ZM47.0268 33.8626L46.5845 32.978C46.1975 32.2039 45.9931 31.3383 45.9931 30.4728V30.4152C45.9931 26.7561 48.9694 23.7798 52.6286 23.7798H61.9321C62.7422 23.7798 63.3989 24.4365 63.3989 25.2466V30.2288C63.3989 31.2539 63.1569 32.2793 62.6985 33.1963L62.3652 33.8628V35.5838C62.3652 37.6748 61.5374 39.6315 60.0366 41.088C60.0366 41.088 60.0366 41.0879 60.0366 41.088M60.0366 41.088C59.7911 41.3262 59.5325 41.5444 59.264 41.7438V42.7473L63.187 43.8682C65.1388 44.4259 66.5 46.2308 66.5 48.261V56.2589C66.5 57.0689 65.8433 57.7257 65.0332 57.7257C64.2231 57.7257 63.5664 57.0689 63.5664 56.2589V48.261C63.5664 47.5363 63.0777 46.8885 62.381 46.6894L58.3882 45.5487C58.3338 45.5331 58.2804 45.516 58.2283 45.4974L56.1628 47.5629V56.2589C56.1628 57.0689 55.506 57.7257 54.696 57.7257C53.8859 57.7257 53.2292 57.0689 53.2292 56.2589V47.5629L51.148 45.4817C51.0938 45.5028 51.0407 45.5224 50.9889 45.5406C51.6633 46.4747 52.0522 47.6151 52.0522 48.8177V56.2589C52.0522 57.0689 51.3955 57.7257 50.5854 57.7257C49.7753 57.7257 49.1186 57.0689 49.1186 56.2589V48.8177C49.1186 47.7008 48.412 46.6921 47.3623 46.3103L41.4599 44.164L39.0669 47.7534C38.6501 48.3788 37.9806 48.7807 37.2327 48.8547C37.1495 48.8629 37.0665 48.867 36.9841 48.867C36.3233 48.867 35.6901 48.6065 35.2181 48.1344C35.2181 48.1344 35.2181 48.1344 35.2181 48.1344L34.4789 47.3952V56.2587C34.4789 57.0688 33.8222 57.7255 33.0121 57.7255C32.202 57.7255 31.5453 57.0688 31.5453 56.2587V47.3952L30.8061 48.1344C30.334 48.6063 29.7008 48.8668 29.0401 48.8668C28.9576 48.8668 28.8749 48.8628 28.7917 48.8546C28.0439 48.7806 27.3742 48.3786 26.9573 47.7533L24.5644 44.1638L18.662 46.31C17.6121 46.6918 16.9056 47.7005 16.9056 48.8175V56.2586C16.9056 57.0687 16.2489 57.7254 15.4388 57.7254C14.6288 57.7254 13.972 57.0687 13.972 56.2586V48.8175C13.972 47.9363 14.1813 47.0887 14.558 46.3314L14.2863 46.1956L13.4169 47.0218C12.5351 47.8598 11.4019 48.2793 10.2702 48.2793C9.13828 48.2793 8.00559 47.86 7.12349 47.0218L6.25396 46.1954L3.33698 47.6539C2.77869 47.9331 2.43359 48.4915 2.43359 49.1158V56.2583C2.43359 57.0684 1.77687 57.7251 0.966797 57.7251C0.156725 57.7251 -0.5 57.0684 -0.5 56.2583V49.1158C-0.5 47.3757 0.46863 45.8086 2.0249 45.0299L3.71601 44.1843C1.51921 42.9792 0.761462 41.5542 0.688622 41.4085M0.688622 40.0964C0.995138 39.4832 1.18371 38.5709 1.29926 37.5121C1.41357 36.4647 1.45128 35.332 1.4853 34.302C1.50778 33.6208 1.52944 32.9651 1.5711 32.3787C1.91712 27.5086 5.63426 23.7798 10.2702 23.7798C14.9062 23.7798 18.6232 27.5088 18.9693 32.3787C19.011 32.965 19.0327 33.6207 19.0551 34.3017C19.0892 35.3318 19.1268 36.4646 19.2411 37.5121C19.3567 38.571 19.5452 39.4834 19.8518 40.0965M47.0268 33.8626V35.3237C47.0268 37.8983 48.2508 40.2178 50.1281 41.6731L50.1283 42.7301C50.1224 42.7325 50.1163 42.735 50.1097 42.7375C50.0188 42.773 49.8864 42.8164 49.6926 42.8717C49.6927 42.8717 49.6926 42.8717 49.6926 42.8717L47.9002 43.3838L42.7206 41.5004C42.668 41.235 42.5419 40.9822 42.3445 40.7748L40.6814 39.0276V36.285C40.8162 36.1705 40.9507 36.0519 41.0832 35.9277C43.456 33.7037 44.8163 30.565 44.8163 27.314V24.8856C45.5019 23.3575 45.85 21.7411 45.85 20.0778V9.74084C45.85 8.93077 45.1933 8.27405 44.3832 8.27405H29.911C24.5418 8.27405 20.1745 12.6415 20.1745 18.0106V20.0781C20.1745 21.7413 20.5226 23.3578 21.2082 24.8858V26.9601C21.2082 30.6394 22.8076 33.9655 25.3431 36.205V39.0277L23.68 40.775C23.4826 40.9824 23.3565 41.2352 23.3039 41.5005L18.0062 43.4268C19.3038 42.4479 19.7942 41.5239 19.8518 41.4086M8.80004 45.2577C9.6244 46.0412 10.9162 46.0414 11.7408 45.2579L12.6398 44.4036C12.4879 44.1192 12.4046 43.7968 12.4046 43.4591L12.4048 42.4294C12.2405 42.4804 12.0737 42.5257 11.9048 42.5651C11.3791 42.6878 10.8321 42.7532 10.2705 42.7532C9.70838 42.7532 9.16119 42.6882 8.63605 42.5652C8.46702 42.5256 8.30027 42.4801 8.13605 42.4288V43.4592C8.13605 43.7968 8.05264 44.1191 7.90092 44.4034L8.80004 45.2577ZM8.49824 44.2812C8.58823 44.0214 8.63605 43.7444 8.63605 43.4592V43.0778C9.16315 43.1927 9.71008 43.2532 10.2705 43.2532C10.8308 43.2532 11.3775 43.1923 11.9047 43.0777L11.9046 43.459C11.9046 43.7442 11.9524 44.0215 12.0424 44.2815L11.3964 44.8954C10.7648 45.4955 9.77586 45.4954 9.1445 44.8953L8.49824 44.2812ZM4.29799 34.6447C4.2244 34.6268 4.14752 34.6173 4.06841 34.6173C4.01427 34.6173 3.96142 34.6228 3.90973 34.6315L3.91811 34.3827C3.92091 34.2961 3.9237 34.2101 3.92652 34.1248C3.94534 33.5558 3.96538 33.0198 3.99867 32.5514C4.12216 30.8143 4.81632 29.2136 5.95328 28.0439C7.10041 26.8636 8.63363 26.2136 10.2705 26.2136C11.9073 26.2136 13.4404 26.8636 14.5877 28.0439C15.7246 29.2136 16.4188 30.8143 16.5423 32.5514C16.5662 32.8884 16.5833 33.2604 16.5981 33.6545C16.607 33.8901 16.615 34.1336 16.6232 34.3823L16.629 34.5548C16.5922 34.498 16.5546 34.4417 16.5163 34.3859C16.5163 34.386 16.5163 34.3859 16.5163 34.3859C16.387 34.1976 16.2496 34.0151 16.1045 33.839C15.0673 32.5798 13.6305 31.6363 11.8537 31.0654C9.91457 30.4424 8.24678 30.481 8.17639 30.4828C7.92322 30.4899 7.68294 30.5958 7.50724 30.7781L5.76288 32.5872C5.39228 32.9716 5.40336 33.5836 5.78776 33.9542C6.17216 34.3248 6.78421 34.3136 7.15481 33.9293L8.6063 32.4241C9.8563 32.4852 13.8778 32.9529 15.4418 36.3969C15.0483 38.9348 12.8669 40.8196 10.2707 40.8196C7.38375 40.8196 5.03521 38.471 5.03521 35.5841C5.03521 35.1293 4.7211 34.7478 4.29799 34.6447ZM4.4256 34.1611C5.06305 34.3206 5.53521 34.8972 5.53521 35.5841C5.53521 38.1948 7.6599 40.3196 10.2707 40.3196C12.5693 40.3196 14.5069 38.6875 14.9225 36.4675C14.1984 34.9798 12.9593 34.1127 11.717 33.6047C10.5766 33.1383 9.45905 32.986 8.80594 32.9374L7.51473 34.2764C6.95249 34.8594 6.02393 34.8764 5.44072 34.3142C4.85746 33.7518 4.84073 32.8232 5.40293 32.2401L7.14726 30.4311C7.14727 30.4311 7.14724 30.4311 7.14726 30.4311C7.41399 30.1544 7.7786 29.9937 8.1624 29.983L8.16358 29.9829C8.25897 29.9805 9.9907 29.9417 12.0066 30.5894C13.6396 31.1141 15.0129 31.9456 16.0714 33.0496C16.0631 32.8889 16.054 32.7343 16.0435 32.5868M16.0435 32.5868C15.9278 30.9587 15.2781 29.4715 14.2291 28.3924C13.1754 27.3083 11.7714 26.7136 10.2705 26.7136C8.76953 26.7136 7.3654 27.3083 6.31183 28.3923C5.26286 29.4715 4.61315 30.9588 4.49741 32.5869C4.46444 33.0508 4.44461 33.5848 4.4256 34.1611M23.9959 23.9236C24.0919 24.1225 24.1418 24.3405 24.1418 24.5613V26.96C24.1418 31.8388 27.796 35.8662 32.419 36.1655L32.3867 36.6645C27.4829 36.347 23.6418 32.0843 23.6418 26.96V24.5613C23.6418 24.4158 23.6089 24.2721 23.5456 24.141C22.9235 22.8527 22.6081 21.4858 22.6081 20.0781V18.0107C22.6081 13.9838 25.8842 10.7078 29.911 10.7078H43.4164V20.0782C43.4164 21.4859 43.101 22.8528 42.4789 24.1411C42.4156 24.2722 42.3827 24.4159 42.3827 24.5615V27.3142C42.3827 29.9325 41.3302 32.3609 39.419 34.1523C39.1804 34.3759 38.9328 34.5855 38.6768 34.7808C38.6732 34.7832 38.6698 34.7857 38.6664 34.7883C38.6643 34.7898 38.6622 34.7914 38.6601 34.7929C36.8698 36.1522 34.6768 36.8128 32.3867 36.6645L32.419 36.1655C34.5903 36.3062 36.6642 35.6805 38.3578 34.3946L38.3677 34.3872C38.3663 34.3881 38.3657 34.3888 38.3663 34.3884L38.3677 34.3872L38.3703 34.3854C38.3723 34.3838 38.3759 34.3812 38.3805 34.3779C38.6205 34.1944 38.8529 33.9975 39.0772 33.7874C40.8875 32.0905 41.8827 29.7941 41.8827 27.3142V24.5615C41.8827 24.3406 41.9326 24.1226 42.0286 23.9237C42.6185 22.7021 42.9164 21.4093 42.9164 20.0782V11.2078H29.911C26.1604 11.2078 23.1081 14.2599 23.1081 18.0107V20.0781C23.1081 21.4092 23.406 22.7019 23.9959 23.9236ZM29.0854 46.4134L31.5046 43.9941L26.9432 40.8762L25.9756 41.8929L28.7449 46.0468L28.797 46.125L28.9824 46.4031C28.9877 46.4111 29 46.4295 29.0315 46.4326C29.0628 46.4359 29.0786 46.4202 29.0854 46.4134ZM26.6134 41.9481L29.1054 45.6862L30.7248 44.0667L27.0122 41.529L26.6134 41.9481ZM37.0421 46.4033C37.0368 46.4113 37.0245 46.4298 36.993 46.4328C36.9628 46.4367 36.9473 46.4216 36.9401 46.4146L36.9391 46.4136L34.5199 43.9945L39.0813 40.8765L40.049 41.8932L37.0421 46.4033ZM39.4112 41.9484L36.9191 45.6865L35.2997 44.0671L39.0123 41.5293L39.4112 41.9484ZM54.5497 40.3173C55.8436 40.3572 57.066 39.8829 57.9936 38.9828C58.9218 38.082 59.4316 36.877 59.4316 35.584V33.5166C59.4316 33.2887 59.4846 33.0643 59.5865 32.8606L60.0745 31.8846C60.33 31.3735 60.4653 30.8002 60.4653 30.2289V26.7135H52.6286C50.5879 26.7135 48.9267 28.3745 48.9267 30.4153V30.473C48.9267 30.8847 49.0243 31.2979 49.2083 31.6662M48.7611 31.8898L49.3583 33.0842C49.4255 33.2184 49.4604 33.3664 49.4604 33.5166V35.324C49.4604 38.2688 51.7365 40.7331 54.5343 40.817C55.9635 40.8611 57.3171 40.336 58.3418 39.3416C59.367 38.3467 59.9316 37.0122 59.9316 35.584V33.5166C59.9316 33.3664 59.9665 33.2185 60.0337 33.0842L60.5217 32.1081C60.8119 31.5277 60.9653 30.8779 60.9653 30.2289V26.2135H52.6286C50.3117 26.2135 48.4267 28.0984 48.4267 30.4153V30.473C48.4267 30.9623 48.5424 31.4521 48.7611 31.8898ZM49.8055 32.8604L49.2083 31.6662ZM6.20232 42.6413V41.4826C5.3124 40.867 4.56791 40.056 4.03168 39.1116C3.88967 38.8614 3.76226 38.602 3.65063 38.3343C3.60993 38.6273 3.56242 38.9149 3.50647 39.1946C3.40307 39.7115 3.27085 40.2015 3.09955 40.6493C3.44931 41.0772 4.22321 41.8264 5.70232 42.4469C5.86078 42.5134 6.02733 42.5784 6.20232 42.6413ZM5.70232 41.9021V41.7391C4.98986 41.2092 4.37207 40.5588 3.8795 39.8178C3.81809 40.0651 3.7487 40.3064 3.67002 40.5399C4.01844 40.9054 4.64946 41.4316 5.70232 41.9021ZM14.3381 42.6446C14.5131 42.5816 14.6796 42.5165 14.8381 42.4498C16.3163 41.8284 17.0934 41.0734 17.4411 40.6496C17.2706 40.2039 17.1388 39.7164 17.0356 39.2022C16.9794 38.9218 16.9316 38.6336 16.8907 38.3399C16.7793 38.6089 16.6521 38.8692 16.5104 39.1198C15.9736 40.0691 15.2281 40.8789 14.3382 41.4915L14.3381 42.6446ZM14.8382 41.9048C15.8889 41.4339 16.5217 40.9049 16.8705 40.5397C16.7928 40.309 16.7241 40.0706 16.6632 39.8265C16.1699 40.5705 15.5511 41.2205 14.8382 41.7487L14.8382 41.9048ZM33.0122 42.6824L38.2478 39.1038V37.3377C38.083 37.4242 37.9163 37.5065 37.7478 37.5845C36.2823 38.263 34.6802 38.6184 33.0222 38.6184C32.7696 38.6184 32.5163 38.6103 32.2615 38.5938C30.8439 38.5021 29.5008 38.1373 28.2767 37.5533C28.1077 37.4727 27.941 37.3879 27.7767 37.2991V39.1038L33.0122 42.6824ZM28.2767 38.8399L33.0122 42.0768L37.7478 38.8399V38.133C36.2738 38.7803 34.6737 39.1184 33.0222 39.1184C32.7589 39.1184 32.4948 39.11 32.2292 39.0928C30.8287 39.0021 29.4979 38.6567 28.2767 38.1046V38.8399ZM54.696 45.5876L52.502 43.3938C52.5331 43.2524 52.5532 43.1001 52.5596 42.9352C52.5611 42.8973 52.5618 42.8587 52.5618 42.8195L52.5617 42.4115C52.726 42.4654 52.8928 42.5134 53.0617 42.5552C53.5186 42.6681 53.9914 42.7352 54.4762 42.7497C54.5507 42.7521 54.6245 42.7531 54.6988 42.7531C55.2552 42.7531 55.8015 42.6893 56.3304 42.5663C56.4989 42.5271 56.6657 42.4818 56.8304 42.4307V42.82C56.8304 42.864 56.8317 42.9079 56.8341 42.9515C56.8426 43.0988 56.865 43.2433 56.9002 43.3834L54.696 45.5876ZM56.3588 43.2178L54.696 44.8805L53.0378 43.2225C53.0441 43.1716 53.0491 43.1198 53.053 43.0672C53.5084 43.1723 53.979 43.2351 54.4609 43.2495M56.3588 43.2178C56.352 43.1709 56.3465 43.1237 56.3421 43.0762C55.8081 43.1928 55.2581 43.2531 54.6988 43.2531C54.62 43.2531 54.541 43.252 54.4609 43.2495M54.5497 40.3173C52.0447 40.2421 49.9604 38.0217 49.9604 35.324ZM49.9604 35.324V33.5166ZM49.9604 33.5166C49.9604 33.2889 49.9074 33.0641 49.8055 32.8604ZM49.8055 32.8604C49.8055 32.8605 49.8054 32.8604 49.8055 32.8604Z" fill="white"/>
<path d="M60.8982 49.0892C60.3643 49.0892 59.9314 49.5221 59.9314 50.056V56.2584C59.9314 56.7923 60.3643 57.2252 60.8982 57.2252C61.4321 57.2252 61.865 56.7923 61.865 56.2584V50.056C61.865 49.5222 61.4321 49.0892 60.8982 49.0892Z" fill="white"/>
<path fill-rule="evenodd" clip-rule="evenodd" d="M59.4314 50.056C59.4314 49.246 60.0881 48.5892 60.8982 48.5892C61.7083 48.5892 62.365 49.2461 62.365 50.056V56.2584C62.365 57.0684 61.7083 57.7252 60.8982 57.7252C60.0881 57.7252 59.4314 57.0684 59.4314 56.2584V50.056ZM59.9314 50.056C59.9314 49.5221 60.3643 49.0892 60.8982 49.0892C61.4321 49.0892 61.865 49.5222 61.865 50.056V56.2584C61.865 56.7923 61.4321 57.2252 60.8982 57.2252C60.3643 57.2252 59.9314 56.7923 59.9314 56.2584V50.056Z" fill="white"/>
<path d="M5.10181 50.3672C4.56788 50.3672 4.13501 50.8001 4.13501 51.334V56.2583C4.13501 56.7923 4.56788 57.2251 5.10181 57.2251C5.63574 57.2251 6.0686 56.7923 6.0686 56.2583V51.334C6.0686 50.8002 5.63574 50.3672 5.10181 50.3672Z" fill="white"/>
<path fill-rule="evenodd" clip-rule="evenodd" d="M3.63501 51.334C3.63501 50.5239 4.29173 49.8672 5.10181 49.8672C5.91192 49.8672 6.5686 50.5241 6.5686 51.334V56.2583C6.5686 57.0684 5.91188 57.7251 5.10181 57.7251C4.29173 57.7251 3.63501 57.0684 3.63501 56.2583V51.334ZM4.13501 51.334C4.13501 50.8001 4.56788 50.3672 5.10181 50.3672C5.63574 50.3672 6.0686 50.8002 6.0686 51.334V56.2583C6.0686 56.7923 5.63574 57.2251 5.10181 57.2251C4.56788 57.2251 4.13501 56.7923 4.13501 56.2583V51.334Z" fill="white"/>
<path d="M40.9319 20.4284C37.2753 16.7718 29.6249 17.4709 26.5051 17.9411C25.5224 18.0892 24.8093 18.9208 24.8093 19.9184V22.1457C24.8093 22.6796 25.2422 23.1125 25.7761 23.1125C26.3101 23.1125 26.7429 22.6796 26.7429 22.1457V19.9183C26.7429 19.8854 26.7646 19.8573 26.7935 19.8529C28.0396 19.6651 30.5124 19.3753 33.0744 19.5461C36.0893 19.7468 38.2729 20.5036 39.5647 21.7955C39.9423 22.1731 40.5545 22.1731 40.9319 21.7955C41.3095 21.418 41.3095 20.8058 40.9319 20.4284Z" fill="white"/>
<path fill-rule="evenodd" clip-rule="evenodd" d="M33.0412 20.045L33.0411 20.045C30.765 19.8933 28.5529 20.1128 27.2429 20.2933V22.1456C27.2429 22.9557 26.5862 23.6124 25.7761 23.6124C24.9661 23.6124 24.3093 22.9557 24.3093 22.1456V19.9184C24.3093 18.6749 25.2018 17.6319 26.4306 17.4467C28.0085 17.2088 30.7437 16.9109 33.5576 17.1388C36.3541 17.3653 39.3295 18.1189 41.2854 20.0747C41.8583 20.6475 41.8582 21.5762 41.2855 22.149C40.7128 22.722 39.7839 22.7219 39.2112 22.1491L39.2111 22.1491C38.0457 20.9836 36.0088 20.2426 33.0412 20.045ZM40.9319 21.7955C41.3095 21.418 41.3095 20.8058 40.9319 20.4284C37.2753 16.7718 29.6249 17.4709 26.5051 17.9411C25.5224 18.0892 24.8093 18.9208 24.8093 19.9184V22.1456C24.8093 22.6796 25.2422 23.1124 25.7761 23.1124C26.3101 23.1124 26.7429 22.6796 26.7429 22.1456V19.9183C26.7429 19.8854 26.7646 19.8573 26.7935 19.8529C28.0396 19.6651 30.5124 19.3753 33.0744 19.5461C36.0893 19.7468 38.2729 20.5036 39.5647 21.7955C39.9423 22.1731 40.5545 22.1731 40.9319 21.7955Z" fill="white"/>
<path d="M21.6414 51.1567C21.1074 51.1567 20.6746 51.5896 20.6746 52.1235V56.2585C20.6746 56.7924 21.1074 57.2253 21.6414 57.2253C22.1753 57.2253 22.6082 56.7924 22.6082 56.2585V52.1235C22.6082 51.5897 22.1753 51.1567 21.6414 51.1567Z" fill="white"/>
<path fill-rule="evenodd" clip-rule="evenodd" d="M20.1746 52.1235C20.1746 51.3135 20.8313 50.6567 21.6414 50.6567C22.4515 50.6567 23.1082 51.3136 23.1082 52.1235V56.2585C23.1082 57.0685 22.4514 57.7253 21.6414 57.7253C20.8313 57.7253 20.1746 57.0685 20.1746 56.2585V52.1235ZM20.6746 52.1235C20.6746 51.5896 21.1074 51.1567 21.6414 51.1567C22.1753 51.1567 22.6082 51.5897 22.6082 52.1235V56.2585C22.6082 56.7924 22.1753 57.2253 21.6414 57.2253C21.1074 57.2253 20.6746 56.7924 20.6746 56.2585V52.1235Z" fill="white"/>
<path d="M44.3833 51.1567C43.8494 51.1567 43.4165 51.5896 43.4165 52.1235V56.2585C43.4165 56.7924 43.8494 57.2253 44.3833 57.2253C44.9172 57.2253 45.3501 56.7924 45.3501 56.2585V52.1235C45.3501 51.5897 44.9172 51.1567 44.3833 51.1567Z" fill="white"/>
<path fill-rule="evenodd" clip-rule="evenodd" d="M42.9165 52.1235C42.9165 51.3135 43.5732 50.6567 44.3833 50.6567C45.1934 50.6567 45.8501 51.3136 45.8501 52.1235V56.2585C45.8501 57.0685 45.1934 57.7253 44.3833 57.7253C43.5732 57.7253 42.9165 57.0685 42.9165 56.2585V52.1235ZM43.4165 52.1235C43.4165 51.5896 43.8494 51.1567 44.3833 51.1567C44.9172 51.1567 45.3501 51.5897 45.3501 52.1235V56.2585C45.3501 56.7924 44.9172 57.2253 44.3833 57.2253C43.8494 57.2253 43.4165 56.7924 43.4165 56.2585V52.1235Z" fill="white"/>
</g>
<defs>
<clipPath id="clip0_26_2009">
<rect width="66" height="66" fill="white"/>
</clipPath>
</defs>
</svg>
