<svg width="66" height="66" viewBox="0 0 66 66" fill="none" xmlns="http://www.w3.org/2000/svg">
<g clip-path="url(#clip0_25_1955)">
<path d="M50.7208 42.3766C50.2914 42.3766 49.8672 42.2418 49.5047 41.9786C48.9156 41.5508 48.5981 40.8619 48.6557 40.1359L49.0171 35.5534L46.0309 32.058C45.5582 31.5054 45.4101 30.7617 45.6348 30.0694C45.8596 29.3771 46.4163 28.8622 47.1242 28.6923L51.5952 27.6199L53.9962 23.6996C54.3773 23.0785 55.0387 22.7084 55.7661 22.7084C55.7665 22.7084 55.7668 22.7084 55.7672 22.7084C56.4948 22.7088 57.1558 23.0794 57.5357 23.6997L59.9366 27.6199L64.4075 28.6922C65.1156 28.8621 65.6723 29.3771 65.8971 30.0695C66.1219 30.7617 65.9735 31.5054 65.5005 32.0586L62.5149 35.5534L62.8764 40.1364C62.9339 40.8618 62.6164 41.5506 62.0273 41.9786C61.4382 42.4064 60.685 42.4954 60.0126 42.2163L55.766 40.4566L51.5187 42.2165C51.2601 42.3237 50.9894 42.3766 50.7208 42.3766ZM60.3062 40.3396H60.3075H60.3062ZM55.7659 37.7722C55.9336 37.7722 56.1013 37.805 56.2593 37.8705L60.2417 39.5205L59.9029 35.2237C59.8761 34.8828 59.9857 34.5452 60.2078 34.2852L63.0076 31.0078L58.816 30.0024C58.4833 29.9226 58.1961 29.7138 58.0174 29.4221L55.7661 25.746L53.5148 29.4221C53.3362 29.7138 53.0489 29.9226 52.7163 30.0024L48.5246 31.0078L51.3244 34.2852C51.5465 34.5452 51.6562 34.8829 51.6294 35.2237L51.2905 39.5205L55.2728 37.8705C55.4305 37.805 55.5982 37.7722 55.7659 37.7722Z" fill="white"/>
<path d="M5.18882 42.3766C4.75945 42.3766 4.3351 42.2418 3.97276 41.9786C3.38367 41.5506 3.06619 40.8618 3.1238 40.1359L3.48525 35.5534L0.499093 32.058C0.0264075 31.5054 -0.12183 30.7617 0.102976 30.0695C0.327781 29.3771 0.884511 28.8622 1.59244 28.6923L6.06343 27.6199L8.46436 23.6996C8.84553 23.0785 9.50693 22.7084 10.2343 22.7084C10.2347 22.7084 10.235 22.7084 10.2354 22.7084C10.963 22.7088 11.624 23.0794 12.0039 23.6997L14.4048 27.6199L18.8757 28.6922C19.5837 28.8621 20.1406 29.3771 20.3653 30.0695C20.5901 30.7619 20.4417 31.5055 19.9686 32.0586L16.9831 35.5534L17.3446 40.1364C17.4021 40.8619 17.0846 41.5508 16.4955 41.9786C15.9063 42.4065 15.1531 42.4952 14.4809 42.2162L10.2343 40.4566L5.98699 42.2165C5.72815 42.3237 5.45746 42.3766 5.18882 42.3766ZM14.7743 40.3396H14.7756H14.7743ZM2.99258 31.0077L5.79234 34.285C6.01444 34.5452 6.12414 34.8828 6.09733 35.2236L5.75844 39.5204L9.74088 37.8703C10.0568 37.7394 10.4118 37.7394 10.7276 37.8703L14.7099 39.5204L14.3711 35.2236C14.3442 34.8826 14.4539 34.5449 14.676 34.285L17.4758 31.0077L13.2842 30.0023C12.9515 29.9225 12.6643 29.7136 12.4856 29.4219L10.2343 25.7459L7.98304 29.4219C7.80438 29.7136 7.51706 29.9225 7.18449 30.0023L2.99258 31.0077ZM18.0093 30.3829C18.0091 30.3833 18.0088 30.3835 18.0086 30.3839L18.0088 30.3835C18.0089 30.3833 18.0092 30.3832 18.0093 30.3829Z" fill="white"/>
<path d="M50.5577 19.6177C50.2621 18.7067 49.5293 18.029 48.5975 17.8051L39.965 15.7346L35.329 8.16489C34.8293 7.34868 33.9593 6.86117 33.002 6.86066H33.0004C32.0431 6.86066 31.1725 7.34765 30.671 8.16476L26.035 15.7346L17.4022 17.8053C16.4707 18.0289 15.7381 18.7065 15.4424 19.6177C15.1468 20.5286 15.3418 21.5069 15.9638 22.2342L21.7294 28.9834L21.0317 37.8321C20.956 38.7871 21.3737 39.6934 22.1489 40.2566C22.6257 40.6031 23.1841 40.7804 23.7491 40.7804C24.1027 40.7804 24.459 40.711 24.7993 40.5697L33.4936 36.9669C34.1514 36.6944 34.4636 35.9403 34.1911 35.2826C33.9186 34.625 33.1645 34.3128 32.5069 34.5853L27.9175 36.4867V31.525C27.9175 31.118 28.2505 30.7851 28.6574 30.7851H37.3442C37.7522 30.7851 38.0828 31.1157 38.0828 31.5237V38.3887C38.0827 38.3972 38.0829 38.4151 38.0834 38.4403C38.0953 38.9615 38.4177 39.4274 38.9031 39.6172C38.904 39.6176 38.9049 39.6179 38.9057 39.6183L41.2004 40.5696C42.0851 40.9367 43.0761 40.8196 43.8513 40.2566C44.6265 39.6935 45.044 38.7872 44.9685 37.8326L44.2706 28.9835L50.0358 22.2349C50.6581 21.5069 50.8533 20.5286 50.5577 19.6177ZM29.119 24.3257C29.119 22.1856 30.86 20.4447 33 20.4447C35.1401 20.4447 36.881 22.1857 36.881 24.3257C36.881 26.4657 35.1401 28.2066 33 28.2066C30.86 28.2068 29.119 26.4657 29.119 24.3257ZM48.0759 20.5598L41.9634 27.7151C41.7413 27.9753 41.6316 28.3129 41.6584 28.6537L42.3983 38.0357C42.4001 38.0589 42.405 38.1205 42.3361 38.1707C42.267 38.221 42.21 38.1975 42.1879 38.1881L40.6606 37.5549V31.5249C40.6606 29.9533 39.5627 28.6334 38.094 28.2925C38.949 27.197 39.4589 25.8199 39.4589 24.3258C39.4589 20.7642 36.5615 17.8667 32.9999 17.8667C29.4385 17.8667 26.5409 20.7643 26.5409 24.3258C26.5409 25.8199 27.0508 27.1971 27.9058 28.2925C26.4371 28.6334 25.3392 29.9533 25.3392 31.5249V37.5549L23.8112 38.1883C23.7898 38.1971 23.7328 38.221 23.6636 38.1707C23.5947 38.1205 23.5996 38.0589 23.6015 38.0352L24.3414 28.6537C24.3682 28.3127 24.2585 27.9751 24.0364 27.7151L17.9233 20.5593C17.9083 20.5415 17.868 20.4944 17.8942 20.4136C17.9206 20.3321 17.9812 20.3176 18.0036 20.3123L27.1557 18.1171C27.4884 18.0373 27.7756 17.8285 27.9543 17.5367L32.8687 9.51244C32.8811 9.49233 32.9138 9.43884 33.0003 9.43884H33.0004C33.086 9.43884 33.1182 9.49143 33.1304 9.51141L38.0454 17.5369C38.2241 17.8286 38.5114 18.0374 38.844 18.1172L47.9956 20.3123C48.0185 20.3177 48.079 20.3323 48.1055 20.4137C48.1318 20.4944 48.0915 20.5415 48.0759 20.5598Z" fill="white"/>
<path d="M55.7659 59.1392H10.2341C9.52216 59.1392 8.94507 58.5622 8.94507 57.8502V45.0234C8.94507 44.3116 9.52216 43.7344 10.2341 43.7344H35.5351C36.247 43.7344 36.8241 44.3116 36.8241 45.0234C36.8241 45.7352 36.247 46.3124 35.5351 46.3124H11.5231V56.5612H54.477V46.3124H47.8239C47.1119 46.3124 46.5348 45.7352 46.5348 45.0234C46.5348 44.3116 47.1119 43.7344 47.8239 43.7344H55.7661C56.478 43.7344 57.0551 44.3116 57.0551 45.0234V57.8502C57.055 58.562 56.4779 59.1392 55.7659 59.1392Z" fill="white"/>
<path d="M41.8944 46.3117C41.5554 46.3117 41.2228 46.1751 40.983 45.9353C40.9237 45.876 40.8696 45.8091 40.8232 45.7394C40.7768 45.6684 40.7368 45.5937 40.7046 45.5164C40.6724 45.439 40.6466 45.3579 40.6311 45.2753C40.6144 45.1917 40.6053 45.1077 40.6053 45.024C40.6053 44.6836 40.7433 44.3511 40.983 44.1127C41.0423 44.0521 41.1081 43.9993 41.179 43.9516C41.2486 43.9052 41.3234 43.8652 41.4007 43.833C41.4793 43.8008 41.5605 43.7763 41.643 43.7595C41.8093 43.726 41.9795 43.726 42.1458 43.7595C42.2283 43.7763 42.3095 43.8008 42.3881 43.833C42.4655 43.8652 42.5402 43.9052 42.6098 43.9516C42.6807 43.9993 42.7465 44.0521 42.8058 44.1127C43.0455 44.3512 43.1835 44.6838 43.1835 45.024C43.1835 45.1077 43.1745 45.1917 43.1577 45.2753C43.1409 45.3579 43.1164 45.4392 43.0842 45.5164C43.052 45.5938 43.012 45.6685 42.9656 45.7394C42.9192 45.809 42.8651 45.876 42.8058 45.9353C42.566 46.1751 42.2333 46.3117 41.8944 46.3117Z" fill="white"/>
<path d="M42.3239 50.6636H23.676C22.9641 50.6636 22.387 50.0864 22.387 49.3746C22.387 48.6628 22.9641 48.0856 23.676 48.0856H42.3239C43.0359 48.0856 43.6129 48.6628 43.6129 49.3746C43.6129 50.0864 43.0359 50.6636 42.3239 50.6636Z" fill="white"/>
<path d="M38.3279 54.7881H27.672C26.96 54.7881 26.3829 54.2109 26.3829 53.4991C26.3829 52.7873 26.96 52.2101 27.672 52.2101H38.3279C39.0399 52.2101 39.617 52.7873 39.617 53.4991C39.617 54.2109 39.0399 54.7881 38.3279 54.7881Z" fill="white"/>
</g>
<defs>
<clipPath id="clip0_25_1955">
<rect width="66" height="66" fill="white"/>
</clipPath>
</defs>
</svg>
