<svg width="66" height="66" viewBox="0 0 66 66" fill="none" xmlns="http://www.w3.org/2000/svg">
<g clip-path="url(#clip0_26_2046)">
<path d="M10.7907 15.93C8.063 15.93 5.84375 13.7096 5.84375 10.9805C5.84375 8.2534 8.063 6.03467 10.7907 6.03467C13.5204 6.03467 15.741 8.2534 15.741 10.9805C15.741 13.7097 13.5204 15.93 10.7907 15.93ZM10.7907 8.61279C9.48445 8.61279 8.42188 9.67498 8.42188 10.9805C8.42188 12.2882 9.48445 13.3519 10.7907 13.3519C12.0987 13.3519 13.1629 12.2882 13.1629 10.9805C13.1629 9.67498 12.0988 8.61279 10.7907 8.61279Z" fill="white"/>
<path d="M64.7109 40.7141H60.9456C61.703 38.238 62.0865 35.6677 62.0865 33.0493C62.0865 18.5966 50.3254 6.83842 35.8689 6.83842C30.7877 6.83842 25.8136 8.32651 21.5834 11.0718C21.5833 11.039 21.5843 11.0067 21.5839 10.9736C21.5805 5.02844 16.7399 0.193298 10.7906 0.193298C4.84327 0.193298 0.00425527 5.02844 0.000774799 10.9736C-0.0511744 16.1118 2.51741 19.483 5.23695 23.0521C5.50881 23.4089 8.20076 26.6195 8.20076 26.6195C8.87481 27.3982 9.57838 27.7312 10.1686 27.8566C9.82562 29.5632 9.65134 31.3024 9.65134 33.0492C9.65134 47.5019 21.4125 59.2601 35.8689 59.2601C37.5659 59.2601 39.2532 59.0973 40.905 58.7754V64.5175C40.905 65.2295 41.4823 65.8066 42.1941 65.8066H47.6645C48.3763 65.8066 48.9536 65.2295 48.9536 64.5175C48.9536 63.8056 48.3763 63.2285 47.6645 63.2285H43.4832V43.2922H48.0965V51.3077C48.0965 51.7749 48.3493 52.2054 48.7571 52.4332C49.1647 52.6609 49.664 52.6503 50.0618 52.4052L53.4525 50.3159L56.8434 52.4052C57.0504 52.5327 57.2849 52.5968 57.5196 52.5968C57.736 52.5968 57.9525 52.5424 58.1482 52.4332C58.5559 52.2054 58.8087 51.7749 58.8087 51.3077V43.2922C58.8087 43.2922 59.1354 43.2926 59.1382 43.2926C59.1415 43.2926 63.4219 43.2922 63.4219 43.2922V63.2285H59.2407C58.5289 63.2285 57.9516 63.8056 57.9516 64.5175C57.9516 65.2295 58.5289 65.8066 59.2407 65.8066H64.7109C65.4228 65.8066 66 65.2295 66 64.5175V42.0031C66 41.2912 65.4229 40.7141 64.7109 40.7141ZM21.1658 14.5433C23.346 12.8114 25.8104 11.4883 28.4294 10.6204C27.3983 11.7775 26.4445 13.1865 25.5909 14.8333C25.1751 15.6354 24.7906 16.481 24.4374 17.3631C23.1159 16.9952 21.8581 16.5617 20.6811 16.0664C20.8677 15.5741 21.0326 15.0687 21.1658 14.5433ZM23.5727 19.7958C22.4413 23.4049 21.7884 27.4906 21.6789 31.7602H12.2675C12.3557 30.1502 12.6059 28.554 13.0166 26.9957C13.1437 26.8799 13.267 26.7547 13.3849 26.6187C13.3849 26.6187 16.0762 23.4091 16.3479 23.0522C17.5181 21.5166 18.6589 20.0168 19.5764 18.3978C20.8311 18.931 22.169 19.3981 23.5727 19.7958ZM10.7906 25.3452C10.6107 25.3452 10.3772 25.1947 10.1507 24.933C10.1507 24.933 7.55429 21.8396 7.28772 21.4896C4.73679 18.1418 2.53391 15.2507 2.57877 10.9942C2.5789 10.9897 2.5789 10.9852 2.5789 10.9807C2.5789 6.45415 6.26265 2.77155 10.7906 2.77155C15.3206 2.77155 19.0058 6.45415 19.0058 10.9807C19.0058 10.9852 19.0058 10.9897 19.0059 10.9944C19.0509 15.2508 16.8479 18.1419 14.2971 21.4898C14.0305 21.8399 11.4348 24.9323 11.4348 24.9323C11.2076 25.1947 10.9726 25.3452 10.7906 25.3452ZM12.2653 34.3384H21.6789C21.7883 38.6048 22.4403 42.6875 23.5701 46.2946C21.5463 46.8691 19.6583 47.5894 17.952 48.4473C14.6503 44.613 12.5557 39.7117 12.2653 34.3384ZM19.8396 50.4023C21.2456 49.7549 22.7914 49.1983 24.4396 48.7409C24.7923 49.6211 25.176 50.4649 25.591 51.2654C26.4459 52.9147 27.4012 54.3255 28.4343 55.4836C25.2058 54.4114 22.2844 52.661 19.8396 50.4023ZM34.5799 56.5301C32.1045 55.9503 29.7629 53.7113 27.8797 50.0789C27.5578 49.4578 27.2563 48.8075 26.9747 48.132C29.3853 47.6385 31.9542 47.3433 34.5797 47.2704V56.5301H34.5799ZM34.5799 44.6907C31.6159 44.7659 28.7518 45.1001 26.075 45.6728C24.9938 42.2805 24.3675 38.4069 24.2582 34.3384H34.5799V44.6907ZM34.5799 31.7602H24.2582C24.3677 27.6884 24.9948 23.8118 26.0776 20.4174C28.7658 20.9935 31.6363 21.331 34.5797 21.4074V31.7602H34.5799ZM34.5799 18.8281C31.9452 18.7563 29.3798 18.4654 26.9722 17.9727C27.2545 17.295 27.5569 16.6426 27.8798 16.0198C29.7629 12.3872 32.1045 10.1483 34.58 9.56852V18.8281H34.5799ZM37.158 9.56826C39.6345 10.148 41.9765 12.3869 43.8592 16.0196C44.1811 16.6406 44.4825 17.291 44.764 17.9664C42.3531 18.46 39.7838 18.7552 37.158 18.8281V9.56826ZM40.905 56.1416C39.6758 56.408 38.4224 56.5765 37.158 56.6447V47.2711C38.4209 47.3056 39.674 47.3908 40.905 47.5256V56.1416ZM46.8564 40.7141H42.1941C41.4823 40.7141 40.905 41.2912 40.905 42.0031V44.9324C39.6717 44.8049 38.4188 44.7251 37.158 44.6925V34.3385H47.4777C47.4188 36.5218 47.212 38.658 46.8564 40.7141ZM37.158 31.7602V21.4078C40.1222 21.3326 42.9866 20.9983 45.6635 20.4255C46.7444 23.8177 47.3702 27.6912 47.4795 31.7602H37.158ZM47.2992 17.3574C46.9466 16.4774 46.563 15.6337 46.1482 14.8333C45.2937 13.1843 44.3385 11.7736 43.3057 10.6156C46.5332 11.6877 49.454 13.4379 51.8983 15.6962C50.4926 16.3436 48.947 16.9002 47.2992 17.3574ZM48.1684 19.8038C50.192 19.2293 52.0798 18.5089 53.7859 17.6512C57.0877 21.4854 59.1821 26.3868 59.4726 31.7601H50.0588C49.9495 27.4935 49.2977 23.4107 48.1684 19.8038ZM56.2306 48.9993L54.1288 47.7041C53.7142 47.4488 53.1911 47.4487 52.7763 47.7041L50.6746 48.9991V43.2921H56.2306V48.9993ZM58.2344 40.7141H49.4671C49.8028 38.6495 50 36.5151 50.0565 34.3384H59.4726C59.3551 36.5193 58.9406 38.6557 58.2344 40.7141Z" fill="white"/>
<path d="M53.4525 63.2285C52.7407 63.2285 52.1635 63.8056 52.1635 64.5175C52.1635 65.2295 52.7407 65.8066 53.4525 65.8066H53.4599C54.1717 65.8066 54.7453 65.2295 54.7453 64.5175C54.7453 63.8056 54.1645 63.2285 53.4525 63.2285Z" fill="white"/>
</g>
<defs>
<clipPath id="clip0_26_2046">
<rect width="66" height="66" fill="white"/>
</clipPath>
</defs>
</svg>
