<svg width="19" height="18" viewBox="0 0 19 18" fill="none" xmlns="http://www.w3.org/2000/svg">
<path d="M13.875 11.6251L15.2312 12.9814C14.3912 14.4601 12.3175 15.6414 10.375 15.9301V8.12512H13V6.37512H10.375V5.34262C11.39 4.97512 12.125 4.01262 12.125 2.87512C12.125 1.43137 10.9438 0.250122 9.5 0.250122C8.05625 0.250122 6.875 1.43137 6.875 2.87512C6.875 4.01262 7.61 4.97512 8.625 5.34262V6.37512H6V8.12512H8.625V15.9301C6.6825 15.6414 4.60875 14.4601 3.76875 12.9814L5.125 11.6251L1.625 9.00012V11.6251C1.625 15.0201 5.93 17.7501 9.5 17.7501C13.07 17.7501 17.375 15.0201 17.375 11.6251V9.00012L13.875 11.6251ZM9.5 2.00012C9.98125 2.00012 10.375 2.39387 10.375 2.87512C10.375 3.35637 9.98125 3.75012 9.5 3.75012C9.01875 3.75012 8.625 3.35637 8.625 2.87512C8.625 2.39387 9.01875 2.00012 9.5 2.00012Z" fill="white"/>
</svg>
