<svg width="38" height="39" viewBox="0 0 38 39" fill="none" xmlns="http://www.w3.org/2000/svg">
<path fill-rule="evenodd" clip-rule="evenodd" d="M3.5 19.5C3.5 18.8096 4.05964 18.25 4.75 18.25H33.25C33.9403 18.25 34.5 18.8096 34.5 19.5C34.5 20.1904 33.9403 20.75 33.25 20.75H4.75C4.05964 20.75 3.5 20.1904 3.5 19.5Z" fill="white"/>
<path fill-rule="evenodd" clip-rule="evenodd" d="M22.8661 9.11612C23.3543 8.62796 24.1457 8.62796 24.6339 9.11612L34.1339 18.6161C34.622 19.1043 34.622 19.8957 34.1339 20.3839L24.6339 29.8839C24.1457 30.372 23.3543 30.372 22.8661 29.8839C22.378 29.3957 22.378 28.6043 22.8661 28.1161L31.4822 19.5L22.8661 10.8839C22.378 10.3957 22.378 9.60427 22.8661 9.11612Z" fill="white"/>
</svg>
