<svg width="20" height="20" viewBox="0 0 20 20" fill="none" xmlns="http://www.w3.org/2000/svg">
<path d="M10.002 5.14842C7.27632 5.14842 5.07775 7.31264 5.07775 9.99577C5.07775 12.6789 7.27632 14.8431 10.002 14.8431C12.7277 14.8431 14.9263 12.6789 14.9263 9.99577C14.9263 7.31264 12.7277 5.14842 10.002 5.14842ZM10.002 13.1472C8.2406 13.1472 6.8006 11.7339 6.8006 9.99577C6.8006 8.25764 8.23632 6.84436 10.002 6.84436C11.7677 6.84436 13.2035 8.25764 13.2035 9.99577C13.2035 11.7339 11.7635 13.1472 10.002 13.1472ZM16.2763 4.95014C16.2763 5.57874 15.762 6.08077 15.1277 6.08077C14.4892 6.08077 13.9792 5.57452 13.9792 4.95014C13.9792 4.32577 14.4935 3.81952 15.1277 3.81952C15.762 3.81952 16.2763 4.32577 16.2763 4.95014ZM19.5377 6.09764C19.4649 4.58311 19.1135 3.24155 17.9863 2.13624C16.8635 1.03092 15.5006 0.684985 13.962 0.609048C12.3763 0.520454 7.62346 0.520454 6.03775 0.609048C4.50346 0.680767 3.1406 1.0267 2.01346 2.13202C0.886317 3.23733 0.539174 4.57889 0.462031 6.09342C0.372031 7.65436 0.372031 12.333 0.462031 13.8939C0.534888 15.4084 0.886317 16.75 2.01346 17.8553C3.1406 18.9606 4.49917 19.3065 6.03775 19.3825C7.62346 19.4711 12.3763 19.4711 13.962 19.3825C15.5006 19.3108 16.8635 18.9648 17.9863 17.8553C19.1092 16.75 19.4606 15.4084 19.5377 13.8939C19.6277 12.333 19.6277 7.65858 19.5377 6.09764ZM17.4892 15.5687C17.1549 16.3956 16.5077 17.0326 15.6635 17.3659C14.3992 17.8595 11.3992 17.7456 10.002 17.7456C8.60489 17.7456 5.6006 17.8553 4.3406 17.3659C3.5006 17.0369 2.85346 16.3998 2.51489 15.5687C2.01346 14.3242 2.12917 11.3711 2.12917 9.99577C2.12917 8.62045 2.01775 5.66311 2.51489 4.4228C2.84917 3.59592 3.49632 2.95889 4.3406 2.62561C5.60489 2.13202 8.60489 2.24592 10.002 2.24592C11.3992 2.24592 14.4035 2.13624 15.6635 2.62561C16.5035 2.95467 17.1506 3.5917 17.4892 4.4228C17.9906 5.66733 17.8749 8.62045 17.8749 9.99577C17.8749 11.3711 17.9906 14.3284 17.4892 15.5687Z" fill="black"/>
</svg>
