<svg width="22" height="21" viewBox="0 0 22 21" fill="none" xmlns="http://www.w3.org/2000/svg">
<path d="M4.92019 21.0009H0.547595V6.98056H4.92019V21.0009ZM2.73154 5.06806C1.33333 5.06806 0.199219 3.91494 0.199219 2.52275C0.199219 1.85403 0.466016 1.2127 0.940919 0.739846C1.41582 0.26699 2.05993 0.00134277 2.73154 0.00134277C3.40315 0.00134277 4.04726 0.26699 4.52216 0.739846C4.99706 1.2127 5.26386 1.85403 5.26386 2.52275C5.26386 3.91494 4.12928 5.06806 2.73154 5.06806ZM21.2854 21.0009H16.9222V14.1759C16.9222 12.5493 16.8893 10.4634 14.6488 10.4634C12.3755 10.4634 12.0271 12.2306 12.0271 14.0587V21.0009H7.65919V6.98056H11.8529V8.89306H11.9141C12.4979 7.7915 13.9238 6.629 16.0513 6.629C20.4766 6.629 21.2901 9.53056 21.2901 13.2993V21.0009H21.2854Z" fill="black"/>
</svg>
