<svg width="208" height="132" viewBox="0 0 208 132" fill="none" xmlns="http://www.w3.org/2000/svg">
<path d="M14.3398 117.144L10.1366 128.283H9.1162L4.93167 117.144V128.283H2.53516V113.579H5.91461L9.62171 123.479L13.3569 113.579H16.7364V128.283H14.3398V117.144Z" fill="#00ABC8"/>
<path d="M27.7064 125.463H21.2283L20.2266 128.283H17.6055L22.9789 113.579H25.9745L31.348 128.283H28.7268L27.7064 125.463ZM21.9117 123.187H27.0324L24.4673 115.755L21.9117 123.187Z" fill="#00ABC8"/>
<path d="M36.997 122.794H34.6192V128.283H32.2227V113.579H38.2327C40.9381 113.579 42.698 115.473 42.698 118.192C42.698 120.82 41.0972 122.23 39.459 122.512L42.801 128.294H40.03L36.997 122.794ZM37.905 115.845H34.6285V120.518H37.905C39.2624 120.518 40.2453 119.592 40.2453 118.182C40.2453 116.772 39.253 115.845 37.905 115.845Z" fill="#00ABC8"/>
<path d="M44.4844 113.579H46.8809V128.283H44.4844V113.579Z" fill="#00ABC8"/>
<path d="M51.5762 117.567V128.283H49.1797V113.579H51.6417L58.6347 124.013V113.579H61.0312V128.283H58.7189L51.5762 117.567Z" fill="#00ABC8"/>
<path d="M63.3203 113.579H72.6911V115.845H65.7168V119.662H72.5413V121.928H65.7168V126.007H72.6911V128.273H63.3203V113.579Z" fill="#00ABC8"/>
<path d="M165.546 85.0473L178.269 91.5233C174.571 99.4797 167.091 108.081 153.246 108.081C136.461 108.081 123.495 96.3374 122.297 78.8433L114.808 107.416H99.1556L90.4683 68.2984L81.7903 107.416H66.1381L53.7062 60.2715L43.184 66.1734C41.0309 62.0944 36.6404 58.3075 31.0517 58.3075C21.6716 58.3075 15.0531 66.0726 15.0531 76.1643C15.0531 86.2458 21.6716 94.021 31.0517 94.021C35.2643 94.021 39.5705 92.1678 41.63 90.3147V85.5106H28.73V71.5414H56.4116V96.0655C50.2237 103.377 41.8828 108.091 31.0423 108.091C13.9297 108.091 0 95.7835 0 76.1743C0 56.5551 13.9297 44.2578 31.0423 44.2578C40.7407 44.2578 47.537 48.4475 51.9743 53.8156L49.6995 44.9225H66.2972L74.9846 86.4472L84.7859 44.9225H96.1412L105.943 86.4472L114.536 44.9225H131.218L128.26 56.404C133.83 48.7698 142.789 44.2578 153.236 44.2578C167.082 44.2578 174.477 52.6776 178.259 60.8153L165.537 67.2913C163.646 62.3865 158.741 58.3277 153.236 58.3277C143.856 58.3277 137.238 66.0928 137.238 76.1844C137.238 86.266 143.856 94.0411 153.236 94.0411C158.75 94.021 163.655 89.942 165.546 85.0473Z" fill="#40AE49"/>
<path fill-rule="evenodd" clip-rule="evenodd" d="M189.841 1.07121C191.179 2.52965 191.179 4.86317 189.841 6.29144C188.502 7.72978 186.311 7.72978 184.973 6.29144C183.634 4.85311 183.634 2.52965 184.973 1.07121C186.311 -0.357069 188.502 -0.357069 189.841 1.07121Z" fill="#00ABC8"/>
<path fill-rule="evenodd" clip-rule="evenodd" d="M189.841 37.9718C191.179 39.4102 191.179 41.7437 189.841 43.172C188.502 44.6103 186.311 44.6103 184.973 43.172C183.634 41.7336 183.634 39.4001 184.973 37.9718C186.311 36.5335 188.502 36.5335 189.841 37.9718Z" fill="#00ABC8"/>
<path fill-rule="evenodd" clip-rule="evenodd" d="M201.274 25.665C202.613 27.1033 202.613 29.4368 201.274 30.8953C199.917 32.3336 197.745 32.3336 196.406 30.8953C195.068 29.4368 195.068 27.1033 196.406 25.665C197.745 24.2367 199.917 24.2367 201.274 25.665Z" fill="#40AE49"/>
<path fill-rule="evenodd" clip-rule="evenodd" d="M195.563 31.817C196.902 33.2554 196.902 35.5889 195.563 37.0172C194.225 38.4756 192.034 38.4756 190.695 37.0172C189.357 35.5788 189.357 33.2554 190.695 31.817C192.034 30.3787 194.225 30.3787 195.563 31.817Z" fill="#00ABC8"/>
<path fill-rule="evenodd" clip-rule="evenodd" d="M206.995 19.5211C208.334 20.9595 208.334 23.293 206.995 24.7515C205.638 26.1898 203.466 26.1898 202.137 24.7515C200.798 23.293 200.798 20.9595 202.137 19.5211C203.466 18.0828 205.638 18.0828 206.995 19.5211Z" fill="#40AE49"/>
<path fill-rule="evenodd" clip-rule="evenodd" d="M184.134 31.817C185.472 33.2554 185.472 35.5889 184.134 37.0172C182.795 38.4756 180.623 38.4756 179.266 37.0172C177.927 35.5788 177.927 33.2554 179.266 31.817C180.623 30.3787 182.795 30.3787 184.134 31.817Z" fill="#00ABC8"/>
<path fill-rule="evenodd" clip-rule="evenodd" d="M195.563 19.5211C196.902 20.9595 196.902 23.293 195.563 24.7515C194.225 26.1898 192.034 26.1898 190.695 24.7515C189.357 23.293 189.357 20.9595 190.695 19.5211C192.034 18.0828 194.225 18.0828 195.563 19.5211Z" fill="#40AE49"/>
<path fill-rule="evenodd" clip-rule="evenodd" d="M189.841 25.665C191.179 27.1033 191.179 29.4368 189.841 30.8953C188.502 32.3336 186.311 32.3336 184.973 30.8953C183.634 29.4368 183.634 27.1033 184.973 25.665C186.311 24.2367 188.502 24.2367 189.841 25.665Z" fill="#00ABC8"/>
<path fill-rule="evenodd" clip-rule="evenodd" d="M201.274 13.3776C202.613 14.8159 202.613 17.1696 201.274 18.6079C199.917 20.0462 197.745 20.0462 196.406 18.6079C195.068 17.1696 195.068 14.8159 196.406 13.3776C197.745 11.9392 199.917 11.9392 201.274 13.3776Z" fill="#40AE49"/>
<path fill-rule="evenodd" clip-rule="evenodd" d="M189.841 13.3776C191.179 14.8159 191.179 17.1696 189.841 18.6079C188.502 20.0462 186.311 20.0462 184.973 18.6079C183.634 17.1696 183.634 14.8159 184.973 13.3776C186.311 11.9392 188.502 11.9392 189.841 13.3776Z" fill="#00ABC8"/>
<path fill-rule="evenodd" clip-rule="evenodd" d="M195.563 7.22377C196.902 8.66211 196.902 11.0157 195.563 12.4541C194.225 13.8924 192.034 13.8924 190.695 12.4541C189.357 11.0157 189.357 8.66211 190.695 7.22377C192.034 5.78544 194.225 5.78544 195.563 7.22377Z" fill="#00ABC8"/>
<path fill-rule="evenodd" clip-rule="evenodd" d="M184.134 7.22377C185.472 8.66211 185.472 11.0157 184.134 12.4541C182.795 13.8924 180.623 13.8924 179.266 12.4541C177.927 11.0157 177.927 8.66211 179.266 7.22377C180.623 5.78544 182.795 5.78544 184.134 7.22377Z" fill="#00ABC8"/>
<path d="M119.934 128.234H117.388C115.553 128.234 114.055 126.894 113.578 124.88C112.838 126.008 111.93 126.582 110.882 126.582C108.186 126.582 106.52 124.406 106.52 121.254C106.52 117.85 108.186 115.745 110.882 115.745H116.087V122.926C116.087 124.698 116.864 125.645 118.446 125.645H119.944V128.234H119.934ZM113.634 121.002V117.719H111.509C109.871 117.719 108.851 119.129 108.851 121.234C108.851 122.976 109.759 124.477 111.172 124.477C112.707 124.477 113.634 122.936 113.634 121.002ZM112.015 114.526H109.693V111.988H112.015V114.526ZM115.993 114.526H113.672V111.988H115.993V114.526Z" fill="#00ABC8"/>
<path d="M126.001 128.216H119.336V125.646H126.001V128.216Z" fill="#00ABC8"/>
<path d="M127.599 131.969H125.277V129.431H127.599V131.969ZM131.643 124.134C131.643 126.873 130.464 128.233 128.123 128.233H125.633V125.645H127.618C128.395 125.645 128.881 125.393 129.116 124.899C129.218 124.627 129.284 124.084 129.284 123.268V117.94H131.643V124.134ZM131.578 131.969H129.256V129.431H131.578V131.969Z" fill="#00ABC8"/>
<path d="M142.111 128.233H138.339C137.983 130.66 136.064 132 133.199 132V129.824C135.156 129.824 136.129 128.777 136.129 126.601V117.94H138.488V125.645H142.111V128.233Z" fill="#00ABC8"/>
<path d="M158.232 128.233H141.316V125.645H153.496C153.496 124.235 153.14 123.036 152.4 122.039C151.539 120.881 150.313 120.317 148.777 120.317C148.253 120.317 147.663 120.448 147.008 120.75C146.25 121.092 145.613 121.566 145.108 122.18C144.874 121.707 144.499 121.052 143.966 120.186C144.621 119.531 145.361 118.987 146.222 118.574C147.149 118.141 148.075 117.94 149.002 117.94C150.453 117.94 151.745 118.303 152.84 119.028C154.759 120.297 155.808 122.492 156.004 125.645H158.242V128.233H158.232Z" fill="#00ABC8"/>
<path d="M167.349 128.234H157.613V125.645H159.804C160.497 125.645 160.965 125.394 161.217 124.87C161.386 124.527 161.47 123.943 161.47 123.148V117.931H163.811V123.007C163.811 124.346 163.642 125.202 163.305 125.635H167.349V128.234ZM163.792 131.99H161.47V129.452H163.792V131.99Z" fill="#00ABC8"/>
<path d="M172.673 124.133C172.673 126.872 171.494 128.232 169.135 128.232H166.645V125.643H168.648C169.425 125.643 169.912 125.392 170.146 124.898C170.249 124.626 170.314 124.082 170.314 123.266V113.608H172.673V124.133Z" fill="#00ABC8"/>
<path d="M177.188 128.231H174.848V113.587H177.188V128.231Z" fill="#00ABC8"/>
</svg>
