<svg width="198" height="129" viewBox="0 0 198 129" fill="none" xmlns="http://www.w3.org/2000/svg">
<path d="M13.6432 114.482L9.64213 125.368H8.67081L4.68751 114.482V125.368H2.40625V110.998H5.62319L9.15201 120.673L12.7076 110.998H15.9245V125.368H13.6432V114.482Z" fill="white"/>
<path d="M26.3691 122.612H20.2025L19.249 125.368H16.7539L21.8689 110.998H24.7205L29.8355 125.368H27.3404L26.3691 122.612ZM20.853 120.388H25.7275L23.2858 113.124L20.853 120.388Z" fill="white"/>
<path d="M35.2088 120.004H32.9453V125.368H30.6641V110.998H36.385C38.9604 110.998 40.6357 112.848 40.6357 115.506C40.6357 118.075 39.1119 119.453 37.5524 119.728L40.7337 125.378H38.096L35.2088 120.004ZM36.0731 113.213H32.9542V117.78H36.0731C37.3653 117.78 38.3009 116.874 38.3009 115.496C38.3009 114.118 37.3564 113.213 36.0731 113.213Z" fill="white"/>
<path d="M42.3359 110.998H44.6172V125.368H42.3359V110.998Z" fill="white"/>
<path d="M49.086 114.896V125.368H46.8047V110.998H49.1483L55.805 121.195V110.998H58.0862V125.368H55.8852L49.086 114.896Z" fill="white"/>
<path d="M60.2695 110.998H69.1896V113.212H62.5508V116.943H69.047V119.157H62.5508V123.144H69.1896V125.358H60.2695V110.998Z" fill="white"/>
<path d="M157.585 83.1135L169.696 89.4423C166.176 97.2179 159.056 105.623 145.876 105.623C129.898 105.623 117.556 94.147 116.416 77.0506L109.287 104.974H94.3872L86.1176 66.7454L77.857 104.974H62.9575L51.1234 58.9009L41.1073 64.6687C39.0577 60.6824 34.8783 56.9817 29.5584 56.9817C20.6294 56.9817 14.3292 64.5702 14.3292 74.4324C14.3292 84.2848 20.6294 91.8832 29.5584 91.8832C33.5684 91.8832 37.6676 90.0722 39.628 88.2612V83.5663H27.3484V69.9147H53.6988V93.8813C47.8085 101.027 39.8686 105.633 29.5495 105.633C13.2598 105.633 0 93.6057 0 74.4423C0 55.2691 13.2598 43.2513 29.5495 43.2513C38.7815 43.2513 45.251 47.3458 49.4749 52.5919L47.3095 43.901H63.109L71.3785 84.4817L80.7085 43.901H91.5178L100.848 84.4817L109.028 43.901H124.908L122.092 55.1214C127.394 47.6608 135.922 43.2513 145.867 43.2513C159.047 43.2513 166.087 51.4797 169.687 59.4324L157.576 65.7612C155.776 60.9679 151.107 57.0013 145.867 57.0013C136.938 57.0013 130.638 64.5899 130.638 74.4521C130.638 84.3045 136.938 91.9029 145.867 91.9029C151.116 91.8832 155.785 87.897 157.585 83.1135Z" fill="white"/>
<path fill-rule="evenodd" clip-rule="evenodd" d="M180.722 1.04685C181.997 2.47215 181.997 4.75262 180.722 6.14842C179.448 7.55405 177.363 7.55405 176.089 6.14842C174.814 4.74279 174.814 2.47215 176.089 1.04685C177.363 -0.348951 179.448 -0.348951 180.722 1.04685Z" fill="white"/>
<path fill-rule="evenodd" clip-rule="evenodd" d="M180.722 37.1089C181.997 38.5146 181.997 40.795 180.722 42.1908C179.448 43.5965 177.363 43.5965 176.089 42.1908C174.814 40.7852 174.814 38.5047 176.089 37.1089C177.363 35.7033 179.448 35.7033 180.722 37.1089Z" fill="white"/>
<path fill-rule="evenodd" clip-rule="evenodd" d="M191.601 25.0812C192.876 26.4868 192.876 28.7673 191.601 30.1926C190.309 31.5982 188.242 31.5982 186.967 30.1926C185.693 28.7673 185.693 26.4868 186.967 25.0812C188.242 23.6853 190.309 23.6853 191.601 25.0812Z" fill="white"/>
<path fill-rule="evenodd" clip-rule="evenodd" d="M186.164 31.0945C187.438 32.5001 187.438 34.7806 186.164 36.1764C184.889 37.6017 182.804 37.6017 181.53 36.1764C180.256 34.7708 180.256 32.5001 181.53 31.0945C182.804 29.6889 184.889 29.6889 186.164 31.0945Z" fill="white"/>
<path fill-rule="evenodd" clip-rule="evenodd" d="M197.045 19.0773C198.32 20.4829 198.32 22.7634 197.045 24.1887C195.753 25.5944 193.686 25.5944 192.421 24.1887C191.146 22.7634 191.146 20.4829 192.421 19.0773C193.686 17.6717 195.753 17.6717 197.045 19.0773Z" fill="white"/>
<path fill-rule="evenodd" clip-rule="evenodd" d="M175.285 31.0945C176.559 32.5001 176.559 34.7806 175.285 36.1764C174.011 37.6017 171.943 37.6017 170.651 36.1764C169.377 34.7708 169.377 32.5001 170.651 31.0945C171.943 29.6889 174.011 29.6889 175.285 31.0945Z" fill="white"/>
<path fill-rule="evenodd" clip-rule="evenodd" d="M186.164 19.0773C187.438 20.4829 187.438 22.7634 186.164 24.1887C184.889 25.5944 182.804 25.5944 181.53 24.1887C180.256 22.7634 180.256 20.4829 181.53 19.0773C182.804 17.6717 184.889 17.6717 186.164 19.0773Z" fill="white"/>
<path fill-rule="evenodd" clip-rule="evenodd" d="M180.722 25.0812C181.997 26.4868 181.997 28.7673 180.722 30.1926C179.448 31.5982 177.363 31.5982 176.089 30.1926C174.814 28.7673 174.814 26.4868 176.089 25.0812C177.363 23.6853 179.448 23.6853 180.722 25.0812Z" fill="white"/>
<path fill-rule="evenodd" clip-rule="evenodd" d="M191.601 13.0729C192.876 14.4785 192.876 16.7787 191.601 18.1843C190.309 19.59 188.242 19.59 186.967 18.1843C185.693 16.7787 185.693 14.4785 186.967 13.0729C188.242 11.6673 190.309 11.6673 191.601 13.0729Z" fill="white"/>
<path fill-rule="evenodd" clip-rule="evenodd" d="M180.722 13.0728C181.997 14.4784 181.997 16.7786 180.722 18.1842C179.448 19.5898 177.363 19.5898 176.089 18.1842C174.814 16.7786 174.814 14.4784 176.089 13.0728C177.363 11.6671 179.448 11.6671 180.722 13.0728Z" fill="white"/>
<path fill-rule="evenodd" clip-rule="evenodd" d="M186.164 7.05923C187.438 8.46487 187.438 10.765 186.164 12.1706C184.889 13.5763 182.804 13.5763 181.53 12.1706C180.256 10.765 180.256 8.46487 181.53 7.05923C182.804 5.6536 184.889 5.6536 186.164 7.05923Z" fill="white"/>
<path fill-rule="evenodd" clip-rule="evenodd" d="M175.285 7.05911C176.559 8.46475 176.559 10.7649 175.285 12.1705C174.011 13.5762 171.943 13.5762 170.651 12.1705C169.377 10.7649 169.377 8.46475 170.651 7.05911C171.943 5.65347 174.011 5.65347 175.285 7.05911Z" fill="white"/>
<path d="M114.16 125.319H111.737C109.99 125.319 108.564 124.01 108.11 122.041C107.406 123.144 106.541 123.705 105.543 123.705C102.977 123.705 101.391 121.579 101.391 118.498C101.391 115.171 102.977 113.114 105.543 113.114H110.498V120.132C110.498 121.864 111.237 122.789 112.743 122.789H114.169V125.319H114.16ZM108.163 118.252V115.043H106.14C104.581 115.043 103.609 116.421 103.609 118.478C103.609 120.181 104.474 121.648 105.819 121.648C107.281 121.648 108.163 120.142 108.163 118.252ZM106.621 111.923H104.412V109.443H106.621V111.923ZM110.409 111.923H108.199V109.443H110.409V111.923Z" fill="white"/>
<path d="M119.935 125.301H113.59V122.789H119.935V125.301Z" fill="white"/>
<path d="M121.46 128.971H119.25V126.49H121.46V128.971ZM125.31 121.313C125.31 123.99 124.187 125.319 121.959 125.319H119.589V122.789H121.478C122.217 122.789 122.681 122.543 122.904 122.061C123.002 121.795 123.064 121.264 123.064 120.467V115.26H125.31V121.313ZM125.247 128.971H123.037V126.49H125.247V128.971Z" fill="white"/>
<path d="M135.28 125.319H131.689C131.35 127.691 129.524 129 126.797 129V126.874C128.659 126.874 129.586 125.85 129.586 123.724V115.26H131.832V122.789H135.28V125.319Z" fill="white"/>
<path d="M150.61 125.319H134.508V122.789H146.101C146.101 121.411 145.763 120.24 145.059 119.266C144.239 118.134 143.071 117.583 141.61 117.583C141.111 117.583 140.55 117.711 139.926 118.006C139.204 118.341 138.598 118.803 138.117 119.404C137.894 118.941 137.538 118.301 137.03 117.455C137.653 116.815 138.357 116.284 139.177 115.88C140.059 115.457 140.942 115.26 141.824 115.26C143.205 115.26 144.435 115.614 145.477 116.323C147.304 117.563 148.302 119.709 148.489 122.789H150.619V125.319H150.61Z" fill="white"/>
<path d="M159.295 125.319H150.027V122.789H152.113C152.772 122.789 153.218 122.543 153.458 122.031C153.619 121.697 153.699 121.126 153.699 120.348V115.25H155.927V120.21C155.927 121.52 155.766 122.356 155.445 122.779H159.295V125.319ZM155.909 128.99H153.699V126.51H155.909V128.99Z" fill="white"/>
<path d="M164.368 121.311C164.368 123.988 163.245 125.316 160.999 125.316H158.629V122.787H160.536C161.276 122.787 161.739 122.541 161.962 122.059C162.06 121.793 162.122 121.261 162.122 120.464V111.025H164.368V121.311Z" fill="white"/>
<path d="M168.661 125.317H166.434V111.006H168.661V125.317Z" fill="white"/>
</svg>
