<svg width="25" height="25" viewBox="0 0 25 25" fill="none" xmlns="http://www.w3.org/2000/svg">
<g clip-path="url(#clip0_162_1083)">
<path d="M24.2524 0.419922H0.742188V23.9301H24.2524V0.419922Z" fill="white" fill-opacity="0.01"/>
<path fill-rule="evenodd" clip-rule="evenodd" d="M6.58497 5.16426C5.93191 5.16426 5.56607 5.73563 5.73828 6.24601C6.56232 8.68817 8.0867 12.3227 10.3388 14.5748C12.5909 16.827 16.2254 18.3513 18.6677 19.1753C19.1779 19.3475 19.7494 18.9818 19.7494 18.3286V15.8437L17.5848 14.6402L15.2764 15.7944C15.0839 15.8906 14.8651 15.9208 14.6538 15.8803L14.8383 14.9182C14.6538 15.8803 14.6541 15.8804 14.6538 15.8803L14.6511 15.8798L14.6477 15.8791L14.6391 15.8774L14.6145 15.8723C14.5948 15.8681 14.5687 15.8623 14.5366 15.8547C14.4726 15.8396 14.3847 15.8173 14.277 15.7862C14.062 15.7241 13.7658 15.6265 13.4222 15.48C12.7389 15.1888 11.8438 14.6944 11.0315 13.8821C10.2193 13.07 9.72361 12.1737 9.43113 11.4896C9.28406 11.1455 9.18568 10.8489 9.1231 10.6336C9.09175 10.5258 9.0692 10.4378 9.0539 10.3737C9.04624 10.3416 9.04039 10.3155 9.03614 10.2958L9.03095 10.2712L9.02921 10.2626L9.02855 10.2593L9.02827 10.2579C9.02821 10.2575 9.02802 10.2566 9.98959 10.0696L9.02802 10.2566C8.98677 10.0445 9.01679 9.82473 9.11342 9.63147L10.2678 7.32272L9.06958 5.16431L6.58497 5.16426ZM11.0314 10.1763C11.0762 10.3198 11.1414 10.5062 11.2326 10.7194C11.4574 11.2452 11.829 11.9089 12.4168 12.4968C13.0046 13.0845 13.6666 13.4545 14.1903 13.6777C14.4024 13.7681 14.5879 13.8327 14.7305 13.8769L16.7085 12.8879C16.7086 12.8879 16.7085 12.888 16.7085 12.8879C17.2872 12.5986 17.9714 12.6136 18.5368 12.9279L20.7014 14.1313C21.323 14.477 21.7085 15.1323 21.7085 15.8437V18.3286C21.7085 20.2065 19.929 21.6687 18.0413 21.0317C15.5581 20.1938 11.5472 18.5539 8.95347 15.9601C6.35976 13.3664 4.71979 9.3555 3.88192 6.87238C3.24496 4.98461 4.70713 3.20508 6.58497 3.20508H9.06956C9.78129 3.20508 10.437 3.59108 10.7825 4.21328L11.9807 6.37177C12.2944 6.93693 12.3093 7.62058 12.0201 8.19888C12.0201 8.1989 12.0201 8.19886 12.0201 8.19888L11.0314 10.1763Z" fill="white"/>
</g>
<defs>
<clipPath id="clip0_162_1083">
<rect width="24" height="24" fill="white" transform="translate(0.5 0.419922)"/>
</clipPath>
</defs>
</svg>
