<svg width="34" height="34" viewBox="0 0 34 34" fill="none" xmlns="http://www.w3.org/2000/svg">
<path d="M17 32.9199C25.8366 32.9199 33 25.7565 33 16.9199C33 8.08336 25.8366 0.919922 17 0.919922C8.16344 0.919922 1 8.08336 1 16.9199C1 25.7565 8.16344 32.9199 17 32.9199Z" fill="#00171F"/>
<path fill-rule="evenodd" clip-rule="evenodd" d="M16.9984 1.26982C8.35518 1.26982 1.34844 8.27657 1.34844 16.9198C1.34844 25.5631 8.35518 32.5698 16.9984 32.5698C25.6417 32.5698 32.6484 25.5631 32.6484 16.9198C32.6484 8.27657 25.6417 1.26982 16.9984 1.26982ZM0.648438 16.9198C0.648438 7.88997 7.96858 0.569824 16.9984 0.569824C26.0283 0.569824 33.3484 7.88997 33.3484 16.9198C33.3484 25.9497 26.0283 33.2698 16.9984 33.2698C7.96858 33.2698 0.648438 25.9497 0.648438 16.9198Z" fill="white"/>
<path d="M23.8921 22.5872C21.044 24.0453 17.4085 23.5107 14.9881 22.2762C13.1169 21.5247 11.1135 21.1578 9.09744 21.1972C8.48893 21.5367 7.91012 21.9269 7.36719 22.3637C8.94191 21.8679 13.3259 22.7233 14.7159 23.3941C16.1059 24.0648 20.9468 25.97 24.0865 23.6468C24.9136 22.9097 25.8276 22.2765 26.8083 21.761C26.4974 21.6284 26.1707 21.5369 25.8362 21.4888C24.8642 21.9554 23.8921 22.5872 23.8921 22.5872Z" fill="white"/>
<path d="M25.2138 12.4485C25.1606 12.4485 25.108 12.4379 25.059 12.4172C25.01 12.3966 24.9656 12.3664 24.9285 12.3283C24.8913 12.2903 24.8622 12.2452 24.8427 12.1957C24.8233 12.1462 24.8139 12.0934 24.8152 12.0402C24.8152 11.9345 24.8572 11.8332 24.932 11.7584C25.0067 11.6837 25.1081 11.6417 25.2138 11.6417C25.2669 11.6404 25.3198 11.6497 25.3693 11.6692C25.4187 11.6886 25.4638 11.7178 25.5019 11.7549C25.5399 11.7921 25.5702 11.8364 25.5908 11.8854C25.6114 11.9344 25.622 11.9871 25.622 12.0402C25.622 12.1485 25.579 12.2523 25.5024 12.3289C25.4259 12.4055 25.322 12.4485 25.2138 12.4485ZM24.0084 12.4485C23.9552 12.4485 23.9026 12.4379 23.8536 12.4172C23.8046 12.3966 23.7602 12.3664 23.7231 12.3283C23.686 12.2903 23.6568 12.2452 23.6374 12.1957C23.6179 12.1462 23.6086 12.0934 23.6099 12.0402C23.6099 11.9345 23.6519 11.8332 23.7266 11.7584C23.8013 11.6837 23.9027 11.6417 24.0084 11.6417C24.0616 11.6404 24.1144 11.6497 24.1639 11.6692C24.2134 11.6886 24.2585 11.7178 24.2965 11.7549C24.3346 11.7921 24.3648 11.8364 24.3854 11.8854C24.4061 11.9344 24.4167 11.9871 24.4167 12.0402C24.4167 12.0938 24.4061 12.1469 24.3856 12.1965C24.3651 12.246 24.335 12.291 24.2971 12.3289C24.2592 12.3668 24.2142 12.3969 24.1647 12.4174C24.1151 12.4379 24.062 12.4485 24.0084 12.4485ZM26.3219 12.9053V9.32819C26.3202 9.25369 26.2917 9.18229 26.2418 9.12699C26.1918 9.07168 26.1237 9.03615 26.0497 9.02686C25.9838 9.04292 25.9258 9.08224 25.8865 9.1376C25.8473 9.19296 25.8293 9.26063 25.8359 9.32819V10.8349H23.2308C23.1908 10.8318 23.1507 10.8375 23.1133 10.8517C23.0758 10.8659 23.0419 10.8882 23.0141 10.917C22.9862 10.9457 22.9651 10.9803 22.9521 11.0182C22.9392 11.0561 22.9347 11.0964 22.9392 11.1362V13.9843H26.3219V12.9053Z" fill="white"/>
<path d="M25.068 16.5216C24.9603 16.5216 24.8551 16.4897 24.7656 16.4299C24.6761 16.37 24.6063 16.285 24.5651 16.1856C24.5239 16.0861 24.5131 15.9766 24.5341 15.8711C24.5551 15.7655 24.607 15.6685 24.6831 15.5923C24.7592 15.5162 24.8562 15.4644 24.9618 15.4434C25.0674 15.4224 25.1768 15.4331 25.2763 15.4743C25.3758 15.5155 25.4608 15.5853 25.5206 15.6748C25.5804 15.7643 25.6124 15.8696 25.6124 15.9773C25.6124 16.1216 25.555 16.2601 25.4529 16.3622C25.3508 16.4642 25.2124 16.5216 25.068 16.5216ZM23.2211 16.5216C23.113 16.5235 23.0069 16.4933 22.9161 16.4346C22.8253 16.376 22.754 16.2917 22.7113 16.1924C22.6686 16.0931 22.6564 15.9834 22.6763 15.8771C22.6962 15.7709 22.7473 15.673 22.823 15.5959C22.8987 15.5188 22.9957 15.466 23.1016 15.4442C23.2074 15.4224 23.3173 15.4326 23.4174 15.4735C23.5174 15.5144 23.603 15.5841 23.6633 15.6738C23.7235 15.7636 23.7557 15.8692 23.7557 15.9773C23.7558 16.12 23.6997 16.257 23.5997 16.3588C23.4998 16.4606 23.3638 16.5191 23.2211 16.5216ZM21.3645 16.5216C21.2339 16.504 21.114 16.4397 21.0273 16.3404C20.9405 16.2412 20.8927 16.1139 20.8927 15.9821C20.8927 15.8503 20.9405 15.723 21.0273 15.6238C21.114 15.5246 21.2339 15.4602 21.3645 15.4426C21.4414 15.4323 21.5196 15.4385 21.594 15.4609C21.6683 15.4832 21.737 15.5212 21.7954 15.5723C21.8538 15.6234 21.9006 15.6864 21.9327 15.7571C21.9648 15.8278 21.9814 15.9045 21.9814 15.9821C21.9814 16.0597 21.9648 16.1364 21.9327 16.2071C21.9006 16.2778 21.8538 16.3408 21.7954 16.3919C21.737 16.443 21.6683 16.481 21.594 16.5034C21.5196 16.5257 21.4414 16.5319 21.3645 16.5216ZM19.5176 16.5216C19.4095 16.5235 19.3033 16.4933 19.2125 16.4346C19.1218 16.376 19.0505 16.2917 19.0078 16.1924C18.9651 16.0931 18.9529 15.9834 18.9728 15.8771C18.9927 15.7709 19.0438 15.673 19.1195 15.5959C19.1952 15.5188 19.2922 15.466 19.398 15.4442C19.5039 15.4224 19.6138 15.4326 19.7139 15.4735C19.8139 15.5144 19.8995 15.5841 19.9597 15.6738C20.02 15.7636 20.0522 15.8692 20.0522 15.9773C20.0522 16.12 19.9962 16.257 19.8962 16.3588C19.7962 16.4606 19.6603 16.5191 19.5176 16.5216ZM26.3219 14.4414H18.7205C18.6592 14.4414 18.5985 14.4535 18.5419 14.4769C18.4853 14.5004 18.4339 14.5347 18.3906 14.5781C18.3472 14.6214 18.3129 14.6728 18.2894 14.7294C18.266 14.786 18.2539 14.8467 18.2539 14.908V17.3576H26.3219V14.4414Z" fill="white"/>
<path d="M9.18596 18.7472C9.17893 18.7133 9.17954 18.6782 9.18775 18.6445C9.19597 18.6109 9.21158 18.5795 9.23346 18.5526C9.25533 18.5257 9.28292 18.504 9.31422 18.4892C9.34552 18.4743 9.37974 18.4666 9.4144 18.4666C9.44905 18.4666 9.48327 18.4743 9.51457 18.4892C9.54587 18.504 9.57346 18.5257 9.59533 18.5526C9.61721 18.5795 9.63282 18.6109 9.64104 18.6445C9.64926 18.6782 9.64987 18.7133 9.64283 18.7472V19.1166H10.2844V18.7472C10.2844 18.6853 10.309 18.626 10.3527 18.5823C10.3965 18.5385 10.4558 18.5139 10.5177 18.5139C10.5796 18.5139 10.6389 18.5385 10.6826 18.5823C10.7264 18.626 10.751 18.6853 10.751 18.7472V19.3499C10.751 19.4118 10.7264 19.4711 10.6826 19.5149C10.6389 19.5586 10.5796 19.5832 10.5177 19.5832H9.40954C9.37934 19.5832 9.34945 19.5771 9.32167 19.5653C9.29389 19.5534 9.2688 19.5361 9.24791 19.5143C9.22702 19.4925 9.21076 19.4667 9.20011 19.4384C9.18946 19.4102 9.18465 19.3801 9.18596 19.3499V18.7472ZM14.7558 21.3912C16.2166 22.1436 17.8261 22.5626 19.4683 22.6181C21.1105 22.6736 22.7446 22.3641 24.2528 21.712C24.2528 21.712 24.9624 21.3037 25.7595 20.8955C25.847 20.7691 25.9928 20.5066 25.9928 20.5066C25.9928 20.5066 27.9952 17.7266 27.3342 17.7266H7.03773C5.21026 17.7266 8.85547 20.1373 9.14708 20.3219C11.0689 20.3052 12.975 20.6686 14.7558 21.3912Z" fill="white"/>
<path d="M8.71705 14.0718H9.08643V14.1885H8.90174V17.3379H9.78631V14.0718H10.1557V14.1885H9.971V17.3379H10.8458V14.0718H11.2541V14.1885H11.0694V17.3379H11.954V14.0718H12.3234V14.1885H12.0901V17.3379H13.0135V14.0718H13.3829V14.1885H13.1593V17.3379H14.0828V14.0718H14.4522V14.1885H14.1703V17.3379H15.0548V14.0718H15.4728V14.1885H15.2395V17.3379H16.1144V14.0718H16.5324V14.1885H16.3088V17.3379H17.2808V13.6441C17.2835 13.6204 17.2813 13.5963 17.2743 13.5735C17.2674 13.5506 17.2558 13.5294 17.2403 13.5112C17.2248 13.493 17.2058 13.4781 17.1843 13.4675C17.1629 13.457 17.1395 13.4509 17.1156 13.4497H8.16298C8.10729 13.449 8.05316 13.4681 8.01037 13.5038C7.96758 13.5394 7.93896 13.5892 7.92969 13.6441V17.3379H8.71705V14.0718Z" fill="white"/>
</svg>
