<svg width="34" height="34" viewBox="0 0 34 34" fill="none" xmlns="http://www.w3.org/2000/svg">
<path d="M17 32.9199C25.8366 32.9199 33 25.7565 33 16.9199C33 8.08336 25.8366 0.919922 17 0.919922C8.16345 0.919922 1 8.08336 1 16.9199C1 25.7565 8.16345 32.9199 17 32.9199Z" fill="#00171F"/>
<path fill-rule="evenodd" clip-rule="evenodd" d="M16.9999 1.27133C8.35749 1.27133 1.35141 8.27741 1.35141 16.9198C1.35141 25.5623 8.35749 32.5684 16.9999 32.5684C25.6424 32.5684 32.6484 25.5623 32.6484 16.9198C32.6484 8.27741 25.6424 1.27133 16.9999 1.27133ZM0.648438 16.9198C0.648438 7.88917 7.96925 0.568359 16.9999 0.568359C26.0306 0.568359 33.3514 7.88917 33.3514 16.9198C33.3514 25.9505 26.0306 33.2713 16.9999 33.2713C7.96925 33.2713 0.648438 25.9505 0.648438 16.9198Z" fill="white"/>
<path fill-rule="evenodd" clip-rule="evenodd" d="M27.726 16.303C27.8324 16.4966 27.9196 16.7095 28.0067 16.9031H27.4259V17.9291H28.3358C28.3907 18.1328 28.4327 18.3397 28.4616 18.5486L29.0908 18.7325C29.0133 19.1487 29.0037 20.1554 28.9262 20.5716L28.2874 20.9007V20.833C28.309 20.4796 28.2581 20.1256 28.1377 19.7927C28.0174 19.4598 27.8301 19.155 27.5876 18.8972C27.345 18.6393 27.0523 18.4338 26.7273 18.2934C26.4024 18.1529 26.0521 18.0805 25.6981 18.0805C25.3441 18.0805 24.9939 18.1529 24.6689 18.2934C24.344 18.4338 24.0512 18.6393 23.8086 18.8972C23.5661 19.155 23.3789 19.4598 23.2585 19.7927C23.1382 20.1256 23.0872 20.4796 23.1088 20.833C23.0939 20.9713 23.0939 21.1109 23.1088 21.2492H19.4113L19.0725 22.0042H11.8806C12.0498 21.6386 12.1374 21.2406 12.1374 20.8378C12.1374 20.435 12.0498 20.037 11.8806 19.6714H19.3532L19.692 12.5377C21.6763 12.5957 23.3412 12.6732 24.193 12.7893L26.3999 15.8287L27.726 16.303ZM9.57693 18.7519C9.16223 18.7461 8.75518 18.8638 8.40756 19.09C8.05993 19.3162 7.78744 19.6407 7.62473 20.0222C7.46202 20.4037 7.41646 20.825 7.49382 21.2325C7.57118 21.6399 7.76798 22.0152 8.05919 22.3105C8.3504 22.6058 8.72286 22.8078 9.12921 22.8909C9.53555 22.9739 9.95741 22.9343 10.3411 22.7769C10.7249 22.6195 11.0531 22.3516 11.2842 22.0072C11.5152 21.6628 11.6386 21.2574 11.6387 20.8427C11.6412 20.2924 11.4258 19.7635 11.0394 19.3717C10.653 18.9798 10.1272 18.757 9.57693 18.7519ZM9.57693 19.7198C9.80324 19.7179 10.025 19.7833 10.2141 19.9076C10.4032 20.0319 10.5511 20.2096 10.639 20.4182C10.727 20.6267 10.751 20.8567 10.708 21.0789C10.665 21.301 10.557 21.5055 10.3977 21.6662C10.2383 21.8269 10.0348 21.9366 9.81302 21.9815C9.5912 22.0263 9.36105 22.0043 9.15178 21.9181C8.94251 21.832 8.76355 21.6856 8.63762 21.4976C8.51168 21.3095 8.44444 21.0883 8.44443 20.862C8.44442 20.5608 8.56343 20.2717 8.77554 20.0578C8.98765 19.8439 9.27569 19.7224 9.57693 19.7198ZM18.4917 11.0083H6.66341C6.51876 11.0108 6.3809 11.0701 6.27952 11.1733C6.17813 11.2765 6.12133 11.4154 6.12135 11.56V13.7766H13.7391V12.4699L17.6109 15.0834L13.7391 17.6871V16.3804H6.12135V18.5777C6.12135 18.7214 6.17846 18.8593 6.28012 18.9609C6.38177 19.0626 6.51965 19.1197 6.66341 19.1197H7.69911C7.93519 18.8551 8.22452 18.6434 8.54813 18.4985C8.87174 18.3535 9.22234 18.2786 9.57693 18.2786C9.93153 18.2786 10.2821 18.3535 10.6057 18.4985C10.9293 18.6434 11.2187 18.8551 11.4547 19.1197H18.153C18.2959 19.1172 18.4324 19.0593 18.5335 18.9582C18.6346 18.8571 18.6925 18.7206 18.695 18.5777L19.0338 11.56C19.0351 11.488 19.022 11.4165 18.9953 11.3496C18.9687 11.2827 18.9289 11.2218 18.8785 11.1705C18.828 11.1191 18.7678 11.0783 18.7014 11.0505C18.635 11.0226 18.5637 11.0083 18.4917 11.0083ZM7.28289 19.7198C7.12484 20.0697 7.04238 20.449 7.04091 20.833C7.03095 20.9715 7.03095 21.1106 7.04091 21.2492H6.70212L5.54059 20.9007L5.49219 19.6714L7.28289 19.7198ZM23.225 21.7622H19.7404L19.5371 22.2268H23.225V21.7622ZM25.6933 18.7906C25.2765 18.7849 24.8676 18.9039 24.519 19.1323C24.1704 19.3608 23.898 19.6881 23.7368 20.0725C23.5755 20.4568 23.5329 20.8806 23.6142 21.2893C23.6956 21.6981 23.8973 22.0732 24.1934 22.3665C24.4895 22.6599 24.8665 22.858 25.276 22.9355C25.6855 23.013 26.1088 22.9663 26.4916 22.8015C26.8744 22.6367 27.1992 22.3612 27.4244 22.0104C27.6495 21.6597 27.7646 21.2496 27.755 20.833C27.7576 20.5601 27.7062 20.2895 27.6038 20.0366C27.5015 19.7837 27.3502 19.5534 27.1586 19.3592C26.967 19.1649 26.7389 19.0104 26.4875 18.9045C26.236 18.7986 25.9661 18.7435 25.6933 18.7422V18.7906ZM25.6933 19.7102C25.467 19.7082 25.2452 19.7736 25.0561 19.8979C24.867 20.0223 24.7191 20.2 24.6312 20.4085C24.5432 20.617 24.5192 20.847 24.5622 21.0692C24.6052 21.2914 24.7132 21.4958 24.8725 21.6565C25.0319 21.8172 25.2354 21.9269 25.4572 21.9718C25.679 22.0167 25.9091 21.9946 26.1184 21.9085C26.3277 21.8223 26.5066 21.6759 26.6326 21.4879C26.7585 21.2999 26.8258 21.0786 26.8258 20.8523C26.827 20.7028 26.7987 20.5545 26.7424 20.416C26.686 20.2775 26.6028 20.1515 26.4975 20.0453C26.3922 19.9391 26.2669 19.8548 26.1289 19.7973C25.9909 19.7398 25.8428 19.7102 25.6933 19.7102ZM20.6503 16.3514V16.8837C21.0948 16.8949 21.5385 16.8395 21.9667 16.7192C22.0142 16.6875 22.0484 16.6393 22.0627 16.584C22.077 16.5286 22.0704 16.4699 22.0441 16.4191L20.6503 16.3514ZM25.3932 16.3514C25.0254 15.6254 24.0478 14.1057 23.6509 13.4475C22.8378 13.3507 21.8021 13.3507 20.7471 13.312C20.7471 14.1251 20.7471 14.9382 20.6987 15.7609L23.5347 15.8384L23.8251 16.2546L25.3932 16.3514Z" fill="white"/>
</svg>
