<svg width="34" height="34" viewBox="0 0 34 34" fill="none" xmlns="http://www.w3.org/2000/svg">
<path d="M17 33C25.8366 33 33 25.8366 33 17C33 8.16344 25.8366 1 17 1C8.16344 1 1 8.16344 1 17C1 25.8366 8.16344 33 17 33Z" fill="#00171F"/>
<path fill-rule="evenodd" clip-rule="evenodd" d="M16.9984 1.3499C8.35518 1.3499 1.34844 8.35665 1.34844 16.9999C1.34844 25.6432 8.35518 32.6499 16.9984 32.6499C25.6417 32.6499 32.6484 25.6432 32.6484 16.9999C32.6484 8.35665 25.6417 1.3499 16.9984 1.3499ZM0.648438 16.9999C0.648438 7.97005 7.96858 0.649902 16.9984 0.649902C26.0283 0.649902 33.3484 7.97005 33.3484 16.9999C33.3484 26.0298 26.0283 33.3499 16.9984 33.3499C7.96858 33.3499 0.648438 26.0298 0.648438 16.9999Z" fill="white"/>
<path fill-rule="evenodd" clip-rule="evenodd" d="M14.4909 13.0534L12.0996 13.6561C12.003 13.6798 11.9009 13.6645 11.8155 13.6136C11.73 13.5626 11.668 13.4802 11.6428 13.3839C11.6282 13.3354 11.6237 13.2844 11.6297 13.2341C11.6357 13.1838 11.6519 13.1353 11.6774 13.0915C11.703 13.0477 11.7372 13.0097 11.7781 12.9797C11.8189 12.9498 11.8655 12.9285 11.9149 12.9173L14.1312 12.3244L14.4909 13.0534ZM12.1191 15.1142L9.83473 13.0826L7.89062 13.5881C8.23084 14.1616 9.65004 18.7302 11.3025 18.3122L15.9684 17.1263L15.4046 22.2005L17.582 21.6172C19.8915 19.4236 21.8431 16.8816 23.3657 14.0838L24.1434 13.9186C23.9878 14.2393 23.6087 14.8906 23.4726 15.2017L26.2527 14.4921C27.0304 14.2977 29.2758 13.0534 29.0717 12.2758C28.8675 11.4982 26.311 11.4884 25.5431 11.6828L23.8031 12.13L22.5103 12.4605L15.8906 14.1519L15.0352 14.3657L12.1191 15.1142ZM15.6962 13.6075L14.7242 11.7606L17.1835 11.0996L21.8882 12.0717L15.6962 13.6075ZM14.4325 20.7424L10.0972 21.8408C10.0487 21.854 9.99803 21.8573 9.94819 21.8507C9.89836 21.8441 9.85034 21.8277 9.80692 21.8024C9.7635 21.7771 9.72555 21.7433 9.69528 21.7032C9.66501 21.6631 9.64302 21.6173 9.6306 21.5686C9.60953 21.4696 9.62694 21.3663 9.6793 21.2796C9.73166 21.1929 9.81503 21.1295 9.9125 21.102L14.5103 19.9356L14.4325 20.7424ZM14.2673 22.5504L10.0972 23.6197C10.0456 23.6399 9.99037 23.6488 9.93507 23.6459C9.87978 23.643 9.82575 23.6284 9.77658 23.6029C9.72741 23.5775 9.68425 23.5418 9.64998 23.4983C9.61571 23.4548 9.59112 23.4045 9.57785 23.3508C9.56459 23.297 9.56296 23.2411 9.57307 23.1866C9.58318 23.1322 9.6048 23.0805 9.63648 23.0351C9.66816 22.9897 9.70917 22.9516 9.75678 22.9233C9.80438 22.8951 9.85747 22.8773 9.9125 22.8712L14.3353 21.7533L14.2673 22.5504ZM14.5978 19.0121L10.0972 20.1494C9.99922 20.1739 9.89554 20.1585 9.80895 20.1065C9.72236 20.0546 9.65995 19.9704 9.63546 19.8724C9.61097 19.7744 9.6264 19.6707 9.67835 19.5842C9.73031 19.4976 9.81453 19.4352 9.9125 19.4107L14.6756 18.2053L14.5978 19.0121Z" fill="white"/>
</svg>
