<svg width="34" height="34" viewBox="0 0 34 34" fill="none" xmlns="http://www.w3.org/2000/svg">
<path d="M17 32.9199C25.8366 32.9199 33 25.7565 33 16.9199C33 8.08336 25.8366 0.919922 17 0.919922C8.16344 0.919922 1 8.08336 1 16.9199C1 25.7565 8.16344 32.9199 17 32.9199Z" fill="#00171F"/>
<path fill-rule="evenodd" clip-rule="evenodd" d="M16.9999 1.27133C8.35748 1.27133 1.35141 8.27741 1.35141 16.9198C1.35141 25.5623 8.35748 32.5684 16.9999 32.5684C25.6424 32.5684 32.6484 25.5623 32.6484 16.9198C32.6484 8.27741 25.6424 1.27133 16.9999 1.27133ZM0.648438 16.9198C0.648438 7.88917 7.96925 0.568359 16.9999 0.568359C26.0306 0.568359 33.3514 7.88917 33.3514 16.9198C33.3514 25.9505 26.0306 33.2713 16.9999 33.2713C7.96925 33.2713 0.648438 25.9505 0.648438 16.9198Z" fill="white"/>
<path d="M28.0753 15.4301L17.4279 6.48627C17.2728 6.35061 17.0725 6.27807 16.8665 6.283C16.6575 6.27752 16.4539 6.34998 16.2954 6.48627L5.64798 15.3914C5.55582 15.4658 5.47921 15.5575 5.42253 15.6615C5.36584 15.7655 5.33019 15.8796 5.31761 15.9973C5.30502 16.1151 5.31575 16.2342 5.34919 16.3478C5.38262 16.4614 5.4381 16.5673 5.51246 16.6594C5.58682 16.7516 5.67861 16.8282 5.78258 16.8849C5.88654 16.9415 6.00066 16.9772 6.1184 16.9898C6.23615 17.0024 6.35522 16.9916 6.46882 16.9582C6.58242 16.9248 6.68832 16.8693 6.78048 16.7949L16.8665 8.36409L26.9525 16.7949C27.0418 16.87 27.1451 16.9266 27.2565 16.9615C27.3678 16.9963 27.485 17.0087 27.6011 16.9979C27.7173 16.9871 27.8302 16.9533 27.9332 16.8985C28.0362 16.8438 28.1273 16.7691 28.2012 16.6788C28.3493 16.4962 28.4192 16.2624 28.3956 16.0285C28.372 15.7946 28.2569 15.5795 28.0753 15.4301Z" fill="white"/>
<path d="M9.6825 25.3321V16.9303L16.9228 10.8806L24.0953 16.8819V25.3321H25.0632V16.6883C25.0625 16.604 25.044 16.5207 25.009 16.444C24.974 16.3673 24.9232 16.2988 24.8599 16.2431L17.2615 9.91267C17.157 9.82525 17.0251 9.77734 16.8889 9.77734C16.7526 9.77734 16.6207 9.82525 16.5162 9.91267L8.87911 16.3011C8.81456 16.3537 8.76274 16.4202 8.72754 16.4956C8.69234 16.5711 8.67466 16.6535 8.67584 16.7367V25.3321H9.6825Z" fill="white"/>
<path d="M13.3508 18.6149L14.8318 17.1339L13.0895 15.3916C12.7363 15.8625 12.5653 16.4451 12.608 17.0322C12.6507 17.6192 12.9042 18.171 13.3218 18.5858" fill="white"/>
<path d="M16.807 15.1978C16.3968 14.7564 15.8382 14.4817 15.2382 14.4264C14.6381 14.371 14.0387 14.5388 13.5547 14.8977L15.3067 16.64L16.807 15.1978Z" fill="white"/>
<path d="M16.4569 22.3414L18.7025 20.0958L18.5476 19.7376L18.3928 19.4182L17.9862 19.8151L16.0503 17.8308L18.0927 15.7884C18.35 15.5319 18.6973 15.386 19.0607 15.3819C19.4231 15.39 19.769 15.5353 20.0286 15.7884C20.1844 15.945 20.3007 16.1363 20.368 16.3467C20.4354 16.5571 20.4517 16.7804 20.4158 16.9983C20.3989 17.09 20.3763 17.1805 20.348 17.2694C20.348 17.3468 20.4351 17.4242 20.4642 17.5017L20.5513 17.7049L20.619 17.8501L20.6965 18.034C20.8794 17.7982 21.0053 17.5232 21.0643 17.2307C21.1415 16.8868 21.1304 16.529 21.0323 16.1906C20.9341 15.8521 20.752 15.544 20.5029 15.2948C20.1143 14.9163 19.5934 14.7046 19.051 14.7046C18.5086 14.7046 17.9876 14.9163 17.599 15.2948L13.553 19.3989C13.2354 19.7026 13.0306 20.1054 12.9723 20.541C12.9141 20.967 12.9893 21.4004 13.1874 21.7819C13.3856 22.1634 13.697 22.4741 14.079 22.6714C14.4609 22.8688 14.8945 22.943 15.3203 22.8839C15.7461 22.8248 16.1431 22.6353 16.4569 22.3414ZM14.8598 19.273L14.1241 20.0087C13.9498 20.1944 13.8323 20.4262 13.7853 20.6765C13.7568 20.8651 13.7726 21.0578 13.8314 21.2392C13.8902 21.4206 13.9904 21.5859 14.1241 21.7219C14.1447 21.7401 14.1612 21.7624 14.1725 21.7875C14.1838 21.8125 14.1897 21.8397 14.1897 21.8671C14.1897 21.8946 14.1838 21.9217 14.1725 21.9468C14.1612 21.9718 14.1447 21.9942 14.1241 22.0123C14.0863 22.0484 14.036 22.0685 13.9838 22.0685C13.9315 22.0685 13.8812 22.0484 13.8434 22.0123C13.6924 21.8629 13.5725 21.685 13.4907 21.489C13.4089 21.2929 13.3668 21.0826 13.3668 20.8701C13.3668 20.6577 13.4089 20.4474 13.4907 20.2513C13.5725 20.0553 13.6924 19.8774 13.8434 19.728L14.579 18.9826L14.6758 18.8955C14.7162 18.8608 14.7678 18.8417 14.821 18.8417C14.8743 18.8417 14.9258 18.8608 14.9662 18.8955C15.003 18.9349 15.0234 18.9868 15.0234 19.0407C15.0234 19.0946 15.003 19.1465 14.9662 19.1859L14.8598 19.273Z" fill="white"/>
<path d="M18.9658 23.5898H14.3875C14.1926 23.6362 14.019 23.747 13.8948 23.9042C13.7707 24.0614 13.7031 24.2558 13.7031 24.4562C13.7031 24.6565 13.7707 24.851 13.8948 25.0082C14.019 25.1654 14.1926 25.2761 14.3875 25.3225H18.9658C19.1607 25.2761 19.3343 25.1654 19.4585 25.0082C19.5826 24.851 19.6502 24.6565 19.6502 24.4562C19.6502 24.2558 19.5826 24.0614 19.4585 23.9042C19.3343 23.747 19.1607 23.6362 18.9658 23.5898Z" fill="white"/>
<path d="M21.1225 20.1924L20.2998 18.2565L20.2126 18.0533L20.1449 17.9081L20.0674 17.7048C20.0027 17.5377 19.8901 17.3935 19.7437 17.2902C19.5974 17.1869 19.4238 17.1291 19.2447 17.124H19.1285H19.0414L18.7994 17.2305H18.7123H18.6542C18.5366 17.359 18.4592 17.5192 18.4316 17.6912C18.4041 17.8633 18.4277 18.0396 18.4994 18.1984L18.5865 18.392L18.6542 18.5372L19.0027 19.3793L19.3028 20.0763L17.3669 22.0122L16.2344 23.135H18.7123C18.8119 23.1387 18.9111 23.1207 19.003 23.0823C19.0949 23.0438 19.1774 22.9858 19.2447 22.9124L21.0257 20.9765C21.1318 20.8408 21.1972 20.6778 21.2143 20.5065C21.2315 20.3352 21.1996 20.1625 21.1225 20.0085" fill="white"/>
</svg>
