<svg width="34" height="34" viewBox="0 0 34 34" fill="none" xmlns="http://www.w3.org/2000/svg">
<path d="M17 32.9199C25.8366 32.9199 33 25.7565 33 16.9199C33 8.08336 25.8366 0.919922 17 0.919922C8.16344 0.919922 1 8.08336 1 16.9199C1 25.7565 8.16344 32.9199 17 32.9199Z" fill="#00171F"/>
<path fill-rule="evenodd" clip-rule="evenodd" d="M16.9984 1.26982C8.35518 1.26982 1.34844 8.27657 1.34844 16.9198C1.34844 25.5631 8.35518 32.5698 16.9984 32.5698C25.6417 32.5698 32.6484 25.5631 32.6484 16.9198C32.6484 8.27657 25.6417 1.26982 16.9984 1.26982ZM0.648437 16.9198C0.648437 7.88997 7.96858 0.569824 16.9984 0.569824C26.0283 0.569824 33.3484 7.88997 33.3484 16.9198C33.3484 25.9497 26.0283 33.2698 16.9984 33.2698C7.96858 33.2698 0.648437 25.9497 0.648437 16.9198Z" fill="white"/>
<path d="M27.0423 7.75342C26.3618 8.61855 15.7859 8.61855 15.1055 7.75342C15.7859 8.61855 15.7859 22.062 15.1055 22.9272C15.7859 22.062 26.3618 22.062 27.0423 22.9272C26.3618 22.062 26.3618 8.61855 27.0423 7.75342ZM25.8661 17.3184L25.6328 19.2625L25.8467 21.3136L24.1942 21.1192L22.6389 21.3622L21.0739 21.1192L19.5186 21.3622L17.9633 21.1192L16.3108 21.3136L16.5149 19.2625L16.2817 17.3184L16.5149 15.3743L16.2817 13.4302L16.5149 11.4861L16.3011 9.32814L17.9439 9.52255L19.5186 9.32814L21.0642 9.57116L22.6292 9.32814L24.1844 9.57116L25.8467 9.32814L25.6328 11.3792L25.8661 13.3233L25.6328 15.2674L25.8661 17.3184Z" fill="white"/>
<path d="M19.2865 10.2129C18.606 11.0683 8.03009 11.0683 7.35938 10.2129C8.03009 11.0683 8.03009 24.5215 7.35938 25.3769C8.03009 24.5215 18.606 24.5215 19.2865 25.3769C18.606 24.5215 18.606 11.0683 19.2865 10.2129ZM11.7531 11.739L13.3181 11.9723L14.8734 11.739L16.4286 11.9723L18.0908 11.7779L17.877 13.8289L18.1103 15.773L17.877 17.7171L18.1103 19.6612L17.877 21.6054L18.0908 23.6661L16.4384 23.4717L14.8831 23.7147L13.3278 23.4717L11.7725 23.7147L10.2075 23.4717L8.555 23.6661L8.76885 21.6151L8.52584 19.671L8.76885 17.7269L8.52584 15.7828L8.76885 13.8387L8.52584 11.7876L10.1686 11.9723" fill="white"/>
</svg>
