<svg width="35" height="35" viewBox="0 0 35 35" fill="none" xmlns="http://www.w3.org/2000/svg">
<path d="M17.46 33.92C26.5506 33.92 33.92 26.5506 33.92 17.46C33.92 8.36939 26.5506 1 17.46 1C8.36939 1 1 8.36939 1 17.46C1 26.5506 8.36939 33.92 17.46 33.92Z" fill="#00171F"/>
<path fill-rule="evenodd" clip-rule="evenodd" d="M17.4584 1.3499C8.56113 1.3499 1.34844 8.5626 1.34844 17.4599C1.34844 26.3572 8.56113 33.5699 17.4584 33.5699C26.3557 33.5699 33.5684 26.3572 33.5684 17.4599C33.5684 8.5626 26.3557 1.3499 17.4584 1.3499ZM0.648438 17.4599C0.648438 8.17599 8.17453 0.649902 17.4584 0.649902C26.7423 0.649902 34.2684 8.17599 34.2684 17.4599C34.2684 26.7438 26.7423 34.2699 17.4584 34.2699C8.17453 34.2699 0.648438 26.7438 0.648438 17.4599Z" fill="white"/>
<path fill-rule="evenodd" clip-rule="evenodd" d="M19.5503 9.5L27.0903 14.85L26.9603 15.55H25.3903V24.45H20.2303V16.58H13.2303V15.58H11.9303L11.7203 14.78L19.5503 9.5ZM9.02031 18.75L7.82031 21.75V23.29H8.12031C8.14279 23.6084 8.2816 23.9074 8.51031 24.13C8.7648 24.381 9.10787 24.5217 9.46531 24.5217C9.82275 24.5217 10.1658 24.381 10.4203 24.13C10.6497 23.9038 10.7884 23.6014 10.8103 23.28H12.2103V18.75H9.02031ZM19.0203 23.28V17.79H12.9203V23.28H15.9203C15.9472 23.5972 16.0853 23.8947 16.3103 24.12C16.5632 24.3701 16.9046 24.5102 17.2603 24.51C17.6008 24.5135 17.9298 24.3873 18.1805 24.1569C18.4312 23.9266 18.5849 23.6095 18.6103 23.27L19.0203 23.28ZM17.6503 22.79C17.5471 22.6939 17.4113 22.6404 17.2703 22.64C17.2018 22.6394 17.1338 22.6523 17.0703 22.6781C17.0068 22.7038 16.9491 22.7419 16.9003 22.79C16.8495 22.8394 16.8091 22.8985 16.7816 22.9637C16.754 23.029 16.7398 23.0991 16.7398 23.17C16.7398 23.2409 16.754 23.311 16.7816 23.3763C16.8091 23.4415 16.8495 23.5006 16.9003 23.55C16.9491 23.5981 17.0068 23.6362 17.0703 23.6619C17.1338 23.6877 17.2018 23.7006 17.2703 23.7C17.3411 23.7001 17.4112 23.6859 17.4765 23.6585C17.5418 23.631 17.6009 23.5907 17.6503 23.54C17.7457 23.4404 17.7994 23.308 17.8003 23.17C17.8023 23.0998 17.79 23.03 17.7642 22.9647C17.7384 22.8993 17.6997 22.8399 17.6503 22.79ZM9.85031 22.79C9.90102 22.8394 9.9413 22.8985 9.96878 22.9638C9.99626 23.0291 10.0104 23.0992 10.0103 23.17C10.0053 23.309 9.94791 23.4409 9.84957 23.5393C9.75124 23.6376 9.61929 23.695 9.48031 23.7C9.33909 23.7006 9.20302 23.6469 9.10031 23.55C9.04951 23.5006 9.00913 23.4415 8.98155 23.3763C8.95398 23.311 8.93977 23.2409 8.93977 23.17C8.93977 23.0991 8.95398 23.029 8.98155 22.9637C9.00913 22.8985 9.04951 22.8394 9.10031 22.79C9.20357 22.6939 9.33928 22.6404 9.48031 22.64C9.61828 22.6409 9.75067 22.6946 9.85031 22.79ZM8.85031 21.65L9.62031 19.49H10.8203V21.65H8.85031ZM21.8503 20.87H24.1803V17.59H21.7903L21.8503 20.87Z" fill="white"/>
</svg>
