<svg width="34" height="34" viewBox="0 0 34 34" fill="none" xmlns="http://www.w3.org/2000/svg">
<path d="M17 32.9199C25.8366 32.9199 33 25.7565 33 16.9199C33 8.08336 25.8366 0.919922 17 0.919922C8.16344 0.919922 1 8.08336 1 16.9199C1 25.7565 8.16344 32.9199 17 32.9199Z" fill="#00171F"/>
<path fill-rule="evenodd" clip-rule="evenodd" d="M16.9984 1.26982C8.35518 1.26982 1.34844 8.27657 1.34844 16.9198C1.34844 25.5631 8.35518 32.5698 16.9984 32.5698C25.6417 32.5698 32.6484 25.5631 32.6484 16.9198C32.6484 8.27657 25.6417 1.26982 16.9984 1.26982ZM0.648438 16.9198C0.648438 7.88997 7.96858 0.569824 16.9984 0.569824C26.0283 0.569824 33.3484 7.88997 33.3484 16.9198C33.3484 25.9497 26.0283 33.2698 16.9984 33.2698C7.96858 33.2698 0.648438 25.9497 0.648438 16.9198Z" fill="white"/>
<path d="M21.1875 10.6308L20.6723 9.32822L20.371 9.67816C20.0725 9.48995 19.7436 9.35509 19.3989 9.27961C18.9955 9.1778 18.5757 9.15797 18.1644 9.22129C17.7593 9.2822 17.3698 9.42083 17.0174 9.62955C16.6689 9.83724 16.3677 10.1153 16.1328 10.4461C16.3941 10.1573 16.7097 9.92279 17.0616 9.75601C17.4135 9.58922 17.7949 9.4934 18.1838 9.47402C18.8519 9.43207 19.5132 9.62839 20.0502 10.0281L19.8169 10.3003L21.1875 10.6308Z" fill="white"/>
<path d="M16.1914 23.4811L16.9204 24.6767L17.1537 24.2782C17.465 24.4019 17.7923 24.4805 18.1258 24.5115C18.544 24.5346 18.9629 24.4786 19.3603 24.3462C19.747 24.2174 20.1039 24.0125 20.4101 23.7435C20.7144 23.4681 20.9649 23.1385 21.1489 22.7715C20.9447 23.111 20.6735 23.4054 20.3518 23.6366C20.0392 23.8612 19.6859 24.0229 19.3117 24.1129C18.9432 24.2066 18.5593 24.2231 18.1841 24.1615C17.9077 24.116 17.6392 24.0309 17.387 23.9088L17.6106 23.5297L16.1914 23.4811Z" fill="white"/>
<path d="M16.5055 14.6647C16.4055 14.6647 16.3078 14.6351 16.2246 14.5796C16.1415 14.524 16.0767 14.4451 16.0385 14.3527C16.0002 14.2603 15.9902 14.1587 16.0097 14.0607C16.0292 13.9626 16.0774 13.8725 16.148 13.8019C16.2187 13.7312 16.3088 13.683 16.4069 13.6635C16.5049 13.644 16.6065 13.654 16.6989 13.6923C16.7913 13.7305 16.8702 13.7953 16.9257 13.8785C16.9813 13.9616 17.0109 14.0593 17.0109 14.1593C17.0109 14.2933 16.9577 14.4219 16.8629 14.5167C16.7681 14.6115 16.6395 14.6647 16.5055 14.6647Z" fill="white"/>
<path d="M15.553 20.4194H17.4971V20.0209H15.553V20.4194ZM15.553 21.2845H17.4971V20.886H15.553V21.2845ZM16.525 13.1679C16.3328 13.1679 16.1449 13.2249 15.985 13.3317C15.8251 13.4385 15.7006 13.5903 15.627 13.7679C15.5534 13.9456 15.5342 14.141 15.5717 14.3296C15.6092 14.5181 15.7018 14.6913 15.8377 14.8273C15.9736 14.9632 16.1468 15.0558 16.3354 15.0933C16.524 15.1308 16.7194 15.1116 16.897 15.038C17.0747 14.9644 17.2265 14.8398 17.3333 14.68C17.4401 14.5201 17.4971 14.3322 17.4971 14.1399C17.4971 13.8821 17.3947 13.6349 17.2124 13.4526C17.0301 13.2703 16.7828 13.1679 16.525 13.1679ZM18.2747 21.4984C18.2747 21.8678 18.0512 22.1594 17.779 22.1594H15.2517C14.9795 22.1594 14.7656 21.8678 14.7656 21.4984V12.0209C14.7656 11.6515 14.9795 11.3599 15.2517 11.3599H17.7595C18.0317 11.3599 18.2553 11.6515 18.2553 12.0209L18.2747 21.4984ZM17.5165 15.5883H15.5724V19.2724H17.5165V15.5883Z" fill="white"/>
<path d="M13.4015 20.886H11.4574V21.2845H13.4015V20.886ZM13.4015 20.0111H11.4574V20.4097H13.4015V20.0111ZM13.4015 15.5883H11.4574V19.2724H13.4015V15.5883ZM13.4015 14.1594C13.4015 13.9671 13.3445 13.7792 13.2377 13.6193C13.1309 13.4595 12.9791 13.3349 12.8015 13.2613C12.6238 13.1877 12.4284 13.1685 12.2398 13.206C12.0513 13.2435 11.8781 13.3361 11.7421 13.472C11.6062 13.608 11.5136 13.7812 11.4761 13.9697C11.4386 14.1583 11.4578 14.3537 11.5314 14.5314C11.605 14.709 11.7296 14.8608 11.8894 14.9676C12.0493 15.0744 12.2372 15.1314 12.4295 15.1314C12.6873 15.1314 12.9345 15.029 13.1168 14.8467C13.2991 14.6644 13.4015 14.4172 13.4015 14.1594ZM14.1597 12.0209V21.4984C14.1597 21.8678 13.9362 22.1594 13.6737 22.1594H11.195C10.9228 22.1594 10.6992 21.8678 10.6992 21.4984V12.0209C10.6992 11.6515 10.9228 11.3599 11.195 11.3599H13.7029C13.9653 11.3599 14.1889 11.6515 14.1889 12.0209" fill="white"/>
<path d="M12.4508 13.6538C12.5848 13.6538 12.7134 13.7071 12.8082 13.8019C12.903 13.8967 12.9562 14.0252 12.9562 14.1593C12.9538 14.2926 12.8997 14.4197 12.8054 14.5139C12.7112 14.6082 12.5841 14.6623 12.4508 14.6647C12.3216 14.665 12.1973 14.6157 12.1033 14.5272C12.0093 14.4386 11.9528 14.3174 11.9453 14.1884C11.9453 14.0544 11.9986 13.9258 12.0934 13.831C12.1882 13.7362 12.3167 13.683 12.4508 13.683" fill="white"/>
<path d="M8.40781 13.6538C8.54187 13.6538 8.67044 13.7071 8.76523 13.8019C8.86002 13.8967 8.91328 14.0252 8.91328 14.1593C8.91079 14.2926 8.85673 14.4197 8.76247 14.5139C8.66822 14.6082 8.54109 14.6623 8.40781 14.6647C8.27375 14.6647 8.14519 14.6115 8.05039 14.5167C7.9556 14.4219 7.90234 14.2933 7.90234 14.1593C7.90234 14.0252 7.9556 13.8967 8.05039 13.8019C8.14519 13.7071 8.27375 13.6538 8.40781 13.6538Z" fill="white"/>
<path d="M10.1459 21.4984C10.1459 21.8678 9.93207 22.1594 9.6599 22.1594H7.14228C6.87982 22.1594 6.65625 21.8678 6.65625 21.4984V12.0209C6.65625 11.6515 6.87982 11.3599 7.14228 11.3599H9.6599C9.93207 11.3599 10.1459 11.6515 10.1459 12.0209V21.4984ZM9.39744 15.5883H7.45334V19.2724H9.39744V15.5883ZM9.39744 14.1594C9.39744 13.9671 9.34043 13.7792 9.23362 13.6193C9.12681 13.4595 8.975 13.3349 8.79738 13.2613C8.61976 13.1877 8.42431 13.1685 8.23575 13.206C8.04719 13.2435 7.87399 13.3361 7.73804 13.472C7.6021 13.608 7.50952 13.7812 7.47201 13.9697C7.43451 14.1583 7.45376 14.3537 7.52733 14.5314C7.6009 14.709 7.72549 14.8608 7.88534 14.9676C8.0452 15.0744 8.23313 15.1314 8.42539 15.1314C8.68319 15.1314 8.93044 15.029 9.11273 14.8467C9.29503 14.6644 9.39744 14.4172 9.39744 14.1594ZM9.39744 20.886H7.45334V21.2845H9.39744V20.886ZM9.39744 20.0111H7.45334V20.4194H9.39744V20.0111Z" fill="white"/>
<path fill-rule="evenodd" clip-rule="evenodd" d="M19.5352 22.1497V11.3696H27.3116V22.1497H19.5352ZM25.9993 20.7305H23.8219V20.1084H25.9993V20.7305ZM23.1804 20.7305H20.9058V18.8447H23.2192L23.1804 20.7305ZM25.9993 19.4668H23.8219V18.8447H25.9993V19.4668ZM25.9993 18.2129H20.9058V17.5908H25.9993V18.2129ZM25.9993 16.9492H20.9058V16.3271H25.9993V16.9395V16.9492ZM25.9993 15.6855H20.9058V15.0634H25.9993V15.6855ZM20.9058 12.7694H25.9993V14.1886H20.9058V12.7694ZM26.7381 21.5179V11.9917H20.1573V21.5276L26.7381 21.5179Z" fill="white"/>
</svg>
