<svg width="34" height="34" viewBox="0 0 34 34" fill="none" xmlns="http://www.w3.org/2000/svg">
<path d="M17 33C25.8366 33 33 25.8366 33 17C33 8.16344 25.8366 1 17 1C8.16345 1 1 8.16344 1 17C1 25.8366 8.16345 33 17 33Z" fill="#00171F"/>
<path fill-rule="evenodd" clip-rule="evenodd" d="M16.9984 1.3499C8.35518 1.3499 1.34844 8.35665 1.34844 16.9999C1.34844 25.6432 8.35518 32.6499 16.9984 32.6499C25.6417 32.6499 32.6484 25.6432 32.6484 16.9999C32.6484 8.35665 25.6417 1.3499 16.9984 1.3499ZM0.648438 16.9999C0.648438 7.97005 7.96858 0.649902 16.9984 0.649902C26.0283 0.649902 33.3484 7.97005 33.3484 16.9999C33.3484 26.0298 26.0283 33.3499 16.9984 33.3499C7.96858 33.3499 0.648438 26.0298 0.648438 16.9999Z" fill="white"/>
<path fill-rule="evenodd" clip-rule="evenodd" d="M13.4024 12.0229H17.485V13.2963H14.6563V13.7046H17.485V14.5114H14.6563V14.9197H17.485V15.8237H14.6563V16.2125H17.485V17.0971H14.6563V17.5053H18.3015V12.0618H22.5494V13.2963H19.7207V13.7046H22.5494V14.5114H19.7207V14.9197H22.5494V15.8237H19.7207V16.2125H22.5494V17.0971H19.7207V17.5053H23.3659V12.0618H27.5263V13.2963H24.6976V13.7046H27.5263V14.5114H24.6976V14.9197H27.5263V15.8237H24.6976V16.2125H27.5263V17.0971H24.6976V17.5053H28.3817V12.0618H29.937V18.7496H29.1205V19.8188H29.4704V21.8796H29.3538C29.2618 22.2483 29.0701 22.5846 28.7997 22.8516C28.609 23.0444 28.3819 23.1975 28.1316 23.3019C27.8813 23.4064 27.6128 23.4602 27.3416 23.4602C27.0704 23.4602 26.8019 23.4064 26.5516 23.3019C26.3013 23.1975 26.0743 23.0444 25.8835 22.8516C25.6131 22.5846 25.4214 22.2483 25.3295 21.8796H25.0184C24.9298 22.2497 24.7376 22.5868 24.4643 22.8516C24.2743 23.0456 24.0474 23.1997 23.797 23.3049C23.5467 23.4101 23.2778 23.4643 23.0062 23.4643C22.7347 23.4643 22.4658 23.4101 22.2155 23.3049C21.9651 23.1997 21.7382 23.0456 21.5482 22.8516C21.2778 22.5846 21.0861 22.2483 20.9941 21.8796H10.9625C10.8742 22.2476 10.6858 22.584 10.4182 22.8516C10.2281 23.0456 10.0012 23.1997 9.75086 23.3049C9.50049 23.4101 9.23165 23.4643 8.96007 23.4643C8.6885 23.4643 8.41965 23.4101 8.16929 23.3049C7.91892 23.1997 7.69206 23.0456 7.50199 22.8516C7.23433 22.584 7.04593 22.2476 6.95764 21.8796H4.98438V20.0424H5.58705V17.1846L5.69397 17.0193L7.52144 14.1906L7.70612 13.8893L12.5081 13.8115V19.7897H14.6174V18.7204H13.4024V12.0229ZM10.2432 15.1627V17.6123H11.2152V15.153L10.2432 15.1627ZM9.84464 17.6123V15.1724H8.44489L6.91876 17.5442V17.5928L9.84464 17.6123ZM28.2067 20.5965C28.1009 20.4886 27.9746 20.4029 27.8352 20.3444C27.6958 20.2859 27.5462 20.2558 27.3951 20.2558C27.2439 20.2558 27.0943 20.2859 26.9549 20.3444C26.8156 20.4029 26.6893 20.4886 26.5834 20.5965C26.3687 20.8104 26.2465 21.1001 26.2432 21.4033C26.246 21.7093 26.3681 22.0023 26.5834 22.2198C26.7464 22.3714 26.9497 22.4727 27.1689 22.5117C27.3881 22.5506 27.6139 22.5254 27.8191 22.4392C28.0243 22.353 28.2004 22.2094 28.326 22.0257C28.4517 21.8419 28.5216 21.6258 28.5275 21.4033C28.528 21.2528 28.4981 21.1038 28.4397 20.9652C28.3812 20.8265 28.2954 20.7011 28.1873 20.5965H28.2067ZM23.8908 20.5965C23.785 20.4872 23.658 20.4007 23.5176 20.3422C23.3772 20.2837 23.2264 20.2544 23.0743 20.2562C22.7701 20.2562 22.4783 20.3771 22.2632 20.5922C22.0481 20.8073 21.9273 21.0991 21.9273 21.4033C21.9265 21.7082 22.0451 22.0013 22.2578 22.2198C22.4774 22.4307 22.7698 22.549 23.0743 22.5503C23.3794 22.5521 23.6729 22.4333 23.8908 22.2198C24.1061 22.0023 24.2282 21.7093 24.231 21.4033C24.2277 21.1001 24.1056 20.8104 23.8908 20.5965ZM9.7766 20.5284C9.61518 20.3724 9.41152 20.2672 9.19088 20.2258C8.97023 20.1845 8.7423 20.2087 8.53532 20.2957C8.32834 20.3826 8.15143 20.5284 8.0265 20.7149C7.90156 20.9014 7.83411 21.1205 7.83249 21.3449C7.83249 21.6492 7.95334 21.9409 8.16845 22.156C8.38356 22.3711 8.67531 22.492 8.97952 22.492C9.28373 22.492 9.57547 22.3711 9.79058 22.156C10.0057 21.9409 10.1265 21.6492 10.1265 21.3449C10.1273 21.04 10.0087 20.7469 9.79604 20.5284" fill="white"/>
</svg>
