<svg width="34" height="34" viewBox="0 0 34 34" fill="none" xmlns="http://www.w3.org/2000/svg">
<path d="M17 33C25.8366 33 33 25.8366 33 17C33 8.16344 25.8366 1 17 1C8.16344 1 1 8.16344 1 17C1 25.8366 8.16344 33 17 33Z" fill="#00171F"/>
<path fill-rule="evenodd" clip-rule="evenodd" d="M16.9984 1.3499C8.35518 1.3499 1.34844 8.35665 1.34844 16.9999C1.34844 25.6432 8.35518 32.6499 16.9984 32.6499C25.6417 32.6499 32.6484 25.6432 32.6484 16.9999C32.6484 8.35665 25.6417 1.3499 16.9984 1.3499ZM0.648438 16.9999C0.648438 7.97005 7.96858 0.649902 16.9984 0.649902C26.0283 0.649902 33.3484 7.97005 33.3484 16.9999C33.3484 26.0298 26.0283 33.3499 16.9984 33.3499C7.96858 33.3499 0.648438 26.0298 0.648438 16.9999Z" fill="white"/>
<path d="M17.7468 15.6389C17.9865 15.383 18.1569 15.0701 18.242 14.7299C18.327 14.3897 18.3239 14.0334 18.2328 13.6948C18.0967 12.888 17.5912 12.2173 17.4746 11.4299C17.0372 12.5575 14.9667 14.3461 16.1137 15.6584C16.3341 15.8676 16.6264 15.9842 16.9302 15.9842C17.2341 15.9842 17.5264 15.8676 17.7468 15.6584V15.6389ZM22.607 16.9415H11.5742V10.4287H22.607V16.9415Z" fill="white"/>
<path d="M16.7811 14.7737C16.7894 14.8212 16.7871 14.8699 16.7746 14.9164C16.762 14.9629 16.7394 15.0061 16.7084 15.043C16.6774 15.0798 16.6386 15.1095 16.595 15.1298C16.5513 15.1501 16.5037 15.1607 16.4555 15.1607C16.4073 15.1607 16.3597 15.1501 16.316 15.1298C16.2724 15.1095 16.2336 15.0798 16.2026 15.043C16.1716 15.0061 16.149 14.9629 16.1364 14.9164C16.1239 14.8699 16.1216 14.8212 16.1299 14.7737C16.1216 14.7262 16.1239 14.6775 16.1364 14.631C16.149 14.5845 16.1716 14.5413 16.2026 14.5044C16.2336 14.4676 16.2724 14.4379 16.316 14.4176C16.3597 14.3973 16.4073 14.3867 16.4555 14.3867C16.5037 14.3867 16.5513 14.3973 16.595 14.4176C16.6386 14.4379 16.6774 14.4676 16.7084 14.5044C16.7394 14.5413 16.762 14.5845 16.7746 14.631C16.7871 14.6775 16.7894 14.7262 16.7811 14.7737Z" fill="white"/>
<path d="M22.7163 18.6426H11.6641V25.1359H22.7163V18.6426Z" fill="white"/>
<path d="M11.1875 17.7777C11.187 17.6299 11.2426 17.4875 11.343 17.3791C11.4427 17.2763 11.5789 17.2169 11.7221 17.2139H22.4147C22.5503 17.2318 22.6747 17.2983 22.7648 17.4012C22.855 17.504 22.9046 17.6361 22.9046 17.7728C22.9046 17.9095 22.855 18.0416 22.7648 18.1444C22.6747 18.2472 22.5503 18.3138 22.4147 18.3317H11.7221C11.5786 18.3267 11.4426 18.2661 11.3429 18.1627C11.2431 18.0594 11.1874 17.9213 11.1875 17.7777Z" fill="white"/>
<path d="M23.0824 25.933C23.0837 26.0053 23.0706 26.0771 23.0438 26.1443C23.017 26.2114 22.9772 26.2726 22.9265 26.3242C22.8758 26.3757 22.8154 26.4167 22.7487 26.4447C22.682 26.4726 22.6104 26.487 22.5381 26.487H11.8455C11.7305 26.4924 11.6167 26.4618 11.5198 26.3995C11.423 26.3372 11.348 26.2462 11.3053 26.1393C11.2625 26.0324 11.2541 25.9149 11.2812 25.803C11.3084 25.6911 11.3697 25.5904 11.4567 25.515C11.5061 25.4615 11.5664 25.4191 11.6334 25.3907C11.7004 25.3622 11.7727 25.3482 11.8455 25.3497H22.5381C22.6104 25.3497 22.682 25.3641 22.7487 25.3921C22.8154 25.42 22.8758 25.461 22.9265 25.5126C22.9772 25.5642 23.017 25.6253 23.0438 25.6925C23.0706 25.7597 23.0837 25.8315 23.0824 25.9038" fill="white"/>
<path d="M22.869 9.55407C22.8703 9.62683 22.8573 9.69914 22.8306 9.76686C22.804 9.83457 22.7642 9.89637 22.7137 9.94873C22.6631 10.0011 22.6027 10.043 22.536 10.072C22.4693 10.101 22.3975 10.1166 22.3247 10.1179H11.5738C11.4285 10.1128 11.2911 10.0508 11.1911 9.94538C11.0911 9.83992 11.0365 9.69939 11.0392 9.55407C11.0392 9.4093 11.0948 9.27008 11.1947 9.16525C11.2944 9.06244 11.4306 9.00307 11.5738 9H22.2664C22.4116 9.00255 22.5501 9.06205 22.6519 9.16568C22.7537 9.26931 22.8107 9.40879 22.8107 9.55407" fill="white"/>
</svg>
