<svg width="34" height="34" viewBox="0 0 34 34" fill="none" xmlns="http://www.w3.org/2000/svg">
<path d="M17 32.9199C25.8366 32.9199 33 25.7565 33 16.9199C33 8.08336 25.8366 0.919922 17 0.919922C8.16345 0.919922 1 8.08336 1 16.9199C1 25.7565 8.16345 32.9199 17 32.9199Z" fill="#00171F"/>
<path fill-rule="evenodd" clip-rule="evenodd" d="M16.9999 1.27133C8.35749 1.27133 1.35141 8.27741 1.35141 16.9198C1.35141 25.5623 8.35749 32.5684 16.9999 32.5684C25.6424 32.5684 32.6484 25.5623 32.6484 16.9198C32.6484 8.27741 25.6424 1.27133 16.9999 1.27133ZM0.648438 16.9198C0.648438 7.88917 7.96925 0.568359 16.9999 0.568359C26.0306 0.568359 33.3514 7.88917 33.3514 16.9198C33.3514 25.9505 26.0306 33.2713 16.9999 33.2713C7.96925 33.2713 0.648438 25.9505 0.648438 16.9198Z" fill="white"/>
<path d="M26.9856 18.2942L26.2694 19.0105L19.8615 12.6026L24.1399 8.33399L23.6656 7.85969L18.9226 12.6026L19.8228 13.5028L19.2614 14.0642H14.7798L14.0151 13.2802L14.7024 12.5833L9.95943 7.84033L9.48513 8.31463L13.7635 12.5833L7.35564 19.0105L6.53289 18.1877L6.05859 18.6523L7.35564 19.9494L8.44943 18.8556L9.77552 20.1817C9.53416 20.4472 9.39669 20.7909 9.38834 21.1496C9.39089 21.5356 9.54601 21.9049 9.81984 22.1769C10.0937 22.4489 10.464 22.6016 10.8499 22.6015H11.0532C11.019 22.8077 11.0307 23.0189 11.0874 23.22C11.144 23.4211 11.2443 23.6073 11.3811 23.7653C11.5178 23.9233 11.6877 24.0493 11.8786 24.1342C12.0696 24.2191 12.2768 24.261 12.4858 24.2567H12.689C12.6838 24.3244 12.6838 24.3923 12.689 24.46C12.6916 24.8443 12.8454 25.2121 13.1171 25.4839C13.3888 25.7556 13.7567 25.9094 14.141 25.9119C14.2086 25.9166 14.2766 25.9166 14.3442 25.9119C14.2984 26.1196 14.3018 26.335 14.354 26.5412C14.4062 26.7473 14.5059 26.9384 14.645 27.0991C14.7842 27.2599 14.959 27.386 15.1555 27.4672C15.352 27.5485 15.5647 27.5827 15.7768 27.5671C16.014 27.5694 16.2476 27.5093 16.4544 27.3929C16.6973 27.5656 16.9887 27.6571 17.2868 27.6542C17.4808 27.6542 17.6729 27.6159 17.8521 27.5413C18.0312 27.4668 18.1938 27.3575 18.3306 27.2199C18.4673 27.0822 18.5755 26.9189 18.6489 26.7393C18.7222 26.5597 18.7594 26.3673 18.7581 26.1733V26.0184C18.9759 26.0432 19.1965 26.0178 19.4029 25.9439C19.6093 25.8701 19.796 25.7499 19.9487 25.5925C20.1212 25.437 20.2543 25.2427 20.3368 25.0255C20.4193 24.8084 20.4488 24.5747 20.4229 24.3439H20.5778C20.9511 24.3375 21.3078 24.1886 21.5748 23.9276C21.7295 23.7711 21.8478 23.5824 21.9214 23.3749C21.995 23.1675 22.0221 22.9464 22.0007 22.7274C22.2662 22.7565 22.5346 22.7127 22.7772 22.6008C23.0197 22.489 23.2272 22.3132 23.3774 22.0923C23.5277 21.8715 23.6149 21.6139 23.6299 21.3472C23.6448 21.0805 23.5869 20.8148 23.4623 20.5785L23.5494 20.6753L25.2627 18.9524L26.2306 19.9203L27.4212 18.7298L26.9856 18.2942ZM11.4985 21.5465C11.4714 21.614 11.4282 21.6738 11.3726 21.7207C11.2593 21.8349 11.1143 21.9125 10.9564 21.9433H10.8209C10.6121 21.9434 10.4116 21.8611 10.2631 21.7143C10.1145 21.5675 10.0297 21.3681 10.0272 21.1593C10.0272 21.1593 10.0272 21.0625 10.0272 21.0238C10.0556 20.8622 10.1334 20.7134 10.2498 20.5979C10.302 20.5483 10.3606 20.506 10.424 20.4721C10.5381 20.4035 10.6685 20.3667 10.8015 20.3656C11.0104 20.3681 11.2098 20.4529 11.3565 20.6015C11.5033 20.75 11.5856 20.9505 11.5856 21.1593C11.6011 21.2912 11.581 21.4249 11.5275 21.5465H11.4985ZM13.144 23.1823C13.11 23.2458 13.0677 23.3044 13.0181 23.3565C12.9015 23.4715 12.7532 23.549 12.5922 23.5792H12.4858C12.2769 23.5792 12.0765 23.4969 11.9279 23.3501C11.7793 23.2034 11.6946 23.004 11.6921 22.7951C11.6867 22.7501 11.6867 22.7046 11.6921 22.6596C11.7108 22.5444 11.7554 22.435 11.8225 22.3394C11.8895 22.2439 11.9773 22.1647 12.0792 22.1079C12.1961 22.0376 12.33 22.0008 12.4664 22.0014C12.5698 21.9974 12.6728 22.0161 12.7681 22.0563C12.8634 22.0964 12.9488 22.157 13.0181 22.2337C13.0924 22.305 13.1514 22.3907 13.1913 22.4856C13.2313 22.5805 13.2514 22.6825 13.2505 22.7855C13.2569 22.922 13.2303 23.0582 13.173 23.1823H13.144ZM14.7798 24.8181C14.723 24.9201 14.6438 25.0079 14.5483 25.0749C14.4527 25.142 14.3433 25.1865 14.2281 25.2053H14.0926C13.8837 25.2028 13.6843 25.118 13.5376 24.9695C13.3908 24.8209 13.3085 24.6204 13.3085 24.4116C13.3037 24.3698 13.3037 24.3276 13.3085 24.2858C13.3277 24.1694 13.3734 24.0591 13.4423 23.9634C13.5111 23.8677 13.6012 23.7892 13.7054 23.734C13.8189 23.6641 13.9496 23.6272 14.0829 23.6276C14.1875 23.6253 14.2913 23.6448 14.388 23.6848C14.4846 23.7247 14.5719 23.7844 14.6443 23.8599C14.7177 23.9318 14.776 24.0177 14.8159 24.1124C14.8558 24.2071 14.8764 24.3088 14.8766 24.4116C14.8927 24.5508 14.8692 24.6917 14.8088 24.8181H14.7798ZM16.4253 26.454C16.3674 26.555 16.2879 26.6421 16.1926 26.709C16.0972 26.776 15.9883 26.8211 15.8736 26.8412H15.7381C15.5276 26.8412 15.3257 26.7575 15.1768 26.6087C15.028 26.4598 14.9444 26.2579 14.9444 26.0474C14.9531 25.9103 14.9946 25.7772 15.0654 25.6593C15.1361 25.5414 15.234 25.4422 15.3509 25.3699C15.4678 25.2996 15.6017 25.2628 15.7381 25.2634C15.946 25.2634 16.1454 25.346 16.2925 25.493C16.4395 25.6401 16.5221 25.8395 16.5221 26.0474C16.5331 26.1865 16.5099 26.3261 16.4544 26.454H16.4253ZM22.6976 21.8175C22.6221 21.8933 22.5323 21.9535 22.4335 21.9945C22.3347 22.0355 22.2287 22.0567 22.1217 22.0567C22.0147 22.0567 21.9087 22.0355 21.8099 21.9945C21.7111 21.9535 21.6213 21.8933 21.5458 21.8175L20.4229 20.6947L19.9487 21.169L21.1296 22.3402C21.2705 22.4893 21.349 22.6867 21.349 22.8919C21.349 23.0971 21.2705 23.2945 21.1296 23.4437C21.0565 23.5216 20.968 23.5835 20.8696 23.6252C20.7713 23.6668 20.6653 23.6874 20.5585 23.6856C20.3422 23.6856 20.1343 23.6025 19.9777 23.4533L18.8452 22.3208L18.3709 22.7855L19.455 23.9276C19.6142 24.074 19.7087 24.2775 19.7178 24.4935C19.7268 24.7096 19.6497 24.9203 19.5034 25.0795C19.3571 25.2387 19.1535 25.3332 18.9375 25.3422C18.7215 25.3513 18.5107 25.2742 18.3515 25.1279L17.1997 23.9276L16.7351 24.4019L17.8676 25.5247C18.0212 25.679 18.1075 25.8878 18.1075 26.1055C18.1075 26.3232 18.0212 26.5321 17.8676 26.6863C17.712 26.8381 17.5042 26.9247 17.2868 26.9283C17.1802 26.9253 17.0751 26.9023 16.9771 26.8605C17.1437 26.6224 17.2317 26.3381 17.2287 26.0474C17.2287 25.6624 17.0758 25.2931 16.8035 25.0208C16.5312 24.7485 16.1619 24.5955 15.7768 24.5955H15.5832C15.588 24.5278 15.588 24.4599 15.5832 24.3922C15.5834 24.2007 15.5449 24.0111 15.4701 23.8348C15.3952 23.6585 15.2856 23.4991 15.1476 23.3662C14.8725 23.1009 14.5038 22.9549 14.1216 22.9597H13.9183C13.949 22.754 13.9349 22.5442 13.8769 22.3445C13.819 22.1449 13.7185 21.9601 13.5824 21.8029C13.4464 21.6457 13.2779 21.5197 13.0886 21.4337C12.8993 21.3477 12.6937 21.3036 12.4858 21.3045H12.2825C12.2877 21.2368 12.2877 21.1689 12.2825 21.1012C12.2822 20.7163 12.129 20.3472 11.8566 20.0752C11.5834 19.8046 11.2151 19.6517 10.8306 19.6493C10.6585 19.6525 10.4882 19.6852 10.3272 19.7461L8.91404 18.3232L13.5312 13.7061L14.4991 14.674H16.0188L12.6213 18.1199L13.2892 18.7878C13.6627 19.1581 14.1668 19.3667 14.6927 19.3686C14.9555 19.3682 15.2157 19.3158 15.4582 19.2145C15.7008 19.1131 15.9209 18.9649 16.1059 18.7781L17.2384 17.636C17.3339 17.5462 17.4466 17.4767 17.5697 17.4318C17.6928 17.3869 17.8238 17.3674 17.9547 17.3746H19.455L22.7267 20.6269C22.8085 20.703 22.8737 20.7952 22.9183 20.8976C22.9629 21 22.9859 21.1105 22.9859 21.2222C22.9859 21.3339 22.9629 21.4444 22.9183 21.5469C22.8737 21.6493 22.8085 21.7414 22.7267 21.8175H22.6976ZM23.1138 20.1333L19.7067 16.7455H17.9547C17.7373 16.7374 17.5205 16.7736 17.3176 16.8518C17.1146 16.93 16.9296 17.0486 16.7738 17.2004L15.6316 18.3523C15.5055 18.4798 15.3544 18.5799 15.1879 18.6465C15.0214 18.7132 14.8429 18.7448 14.6637 18.7394C14.4845 18.7436 14.3064 18.7115 14.14 18.6449C13.9737 18.5784 13.8225 18.4788 13.6957 18.3523L13.4924 18.1587L16.8996 14.7418H19.4647L20.2197 13.9868L24.7303 18.4878L23.1138 20.1333Z" fill="white"/>
</svg>
