<svg width="34" height="34" viewBox="0 0 34 34" fill="none" xmlns="http://www.w3.org/2000/svg">
<path d="M17 32.9199C25.8366 32.9199 33 25.7565 33 16.9199C33 8.08336 25.8366 0.919922 17 0.919922C8.16344 0.919922 1 8.08336 1 16.9199C1 25.7565 8.16344 32.9199 17 32.9199Z" fill="#00171F"/>
<path fill-rule="evenodd" clip-rule="evenodd" d="M16.9984 1.26982C8.35518 1.26982 1.34844 8.27657 1.34844 16.9198C1.34844 25.5631 8.35518 32.5698 16.9984 32.5698C25.6417 32.5698 32.6484 25.5631 32.6484 16.9198C32.6484 8.27657 25.6417 1.26982 16.9984 1.26982ZM0.648437 16.9198C0.648437 7.88997 7.96858 0.569824 16.9984 0.569824C26.0283 0.569824 33.3484 7.88997 33.3484 16.9198C33.3484 25.9497 26.0283 33.2698 16.9984 33.2698C7.96858 33.2698 0.648437 25.9497 0.648437 16.9198Z" fill="white"/>
<path d="M7.48235 16.6269C7.35598 16.5005 7.21018 16.4325 7.17129 16.4811L6.45197 17.2004C6.40337 17.2004 6.45197 17.3851 6.58806 17.5115L7.11297 18.0364L6.97688 18.8237L7.75453 18.6779L8.13363 19.057L7.98782 19.8347L8.77518 19.6986L13.0036 23.9076L12.8578 24.6852L13.6354 24.5394L14.1604 25.0643L14.0632 25.8517L14.8408 25.7059L15.1713 26.0267L15.0255 26.814L15.8031 26.6682L16.0753 26.9404C16.1919 27.057 16.3378 27.1251 16.3864 27.0765L17.1057 26.3572C17.1057 26.3086 17.1057 26.1725 16.9599 26.0461L7.48235 16.6269Z" fill="white"/>
<path d="M14.591 19.2125L15.1159 19.7374L12.1997 20.5734L12.8316 21.2149L14.7271 20.7581L15.2811 21.3121L13.4245 21.7982L14.0564 22.4397L14.9701 22.1773L15.4658 22.673L14.5521 22.9257L17.4683 25.8419C17.4683 25.8419 19.218 25.6864 18.314 24.2186C18.314 24.2186 14.9604 20.0387 15.4756 16.1117C15.4756 16.1117 15.5339 15.0813 14.8632 15.9561L18.6347 5.86621H14.6299L12.0345 12.7386C11.984 12.6661 11.9175 12.6062 11.8401 12.5637C11.6262 12.447 11.2374 12.447 10.5958 13.0497L7.67969 15.9658L11.6554 20.0193L14.591 19.2125Z" fill="white"/>
<path d="M23.1738 23.9076C24.0927 23.9076 24.9911 23.6351 25.7552 23.1245C26.5193 22.614 27.1148 21.8883 27.4665 21.0393C27.8182 20.1902 27.9102 19.256 27.7309 18.3547C27.5516 17.4534 27.1091 16.6255 26.4593 15.9757C25.8095 15.3258 24.9815 14.8833 24.0802 14.704C23.1789 14.5247 22.2447 14.6168 21.3957 14.9684C20.5466 15.3201 19.821 15.9157 19.3104 16.6798C18.7999 17.4439 18.5273 18.3422 18.5273 19.2612C18.5273 20.4935 19.0169 21.6753 19.8882 22.5467C20.7596 23.418 21.9415 23.9076 23.1738 23.9076ZM21.6865 23.1202L21.4435 23.2466C20.8576 23.0234 20.3293 22.6712 19.8979 22.2162C19.8979 22.1482 19.8979 22.0607 19.9465 21.9635C19.9465 21.6913 20.034 21.3705 20.0535 21.2442C20.0729 21.1178 20.0535 21.2442 20.0535 21.2442L20.3256 21.3122L21.4435 21.6233L21.531 21.7788C21.6574 21.9635 21.8712 22.3037 22.0267 22.5564C22.1823 22.8092 22.1628 22.7606 22.192 22.8189V22.8675L21.5699 23.1785L21.6865 23.1202ZM23.0474 17.8225L23.1446 17.9003L24.4277 18.8043L23.8931 20.4276H22.3184L21.7837 18.8043L23.0571 17.9003L23.164 17.8225H23.0474ZM23.0571 17.7253V16.4228H23.164H23.2612V17.6864L23.164 17.6184L23.0571 17.7253ZM24.7582 21.4677L24.6318 21.6427L23.7862 20.5443H24.0389L24.7582 21.4677ZM22.26 20.5443H22.5128L21.7448 21.633L21.6379 21.4677L22.26 20.5443ZM23.1446 22.9355C22.916 22.9375 22.6879 22.9146 22.4642 22.8675L22.3086 22.6245C22.5821 22.6919 22.863 22.7246 23.1446 22.7217C23.4429 22.7262 23.7405 22.6903 24.0292 22.6147L23.8736 22.8675C23.6329 22.9103 23.3891 22.9331 23.1446 22.9355ZM24.8846 23.3049L24.6318 23.1785C24.3791 23.0522 24.0875 22.9161 24.0292 22.8772C23.9708 22.8383 24.0292 22.8772 24.0292 22.8189L24.1944 22.5467L24.7679 21.633L25.8761 21.3414L26.1871 21.2539C26.1871 21.3219 26.2649 21.6621 26.3135 21.9538C26.3135 22.051 26.3135 22.1384 26.3135 22.2162C25.8927 22.6845 25.3753 23.0559 24.7971 23.3049H24.8846ZM26.2357 21.0886L25.9441 21.1664C26.2702 20.6656 26.4642 20.0904 26.5079 19.4945L26.6829 19.7277C26.6243 20.2063 26.4724 20.6686 26.2357 21.0886ZM25.8177 18.3766C25.8177 18.2405 25.8177 17.6962 25.8955 17.3073C25.8955 17.1712 25.8955 17.0546 25.8955 16.9963C25.9733 16.9963 26.3038 17.0546 26.5857 17.1032L26.8578 17.1518C27.1665 17.6988 27.3553 18.3052 27.4119 18.9307L27.2175 19.1154L26.712 19.6014C26.712 19.6014 26.5954 19.4556 26.5079 19.3486L25.9344 18.6293L25.8275 18.4932L25.8177 18.3766ZM24.5444 19.1348L24.6221 18.8918L25.7303 18.4058L25.8663 18.571L24.5444 19.1348ZM25.7983 16.9574V17.2587C25.4103 16.7655 24.8966 16.3861 24.3111 16.1603L24.593 16.0534C25.0587 16.2679 25.4755 16.5755 25.8177 16.9574H25.7983ZM22.1045 15.1591L22.2309 14.9258C22.8317 14.7832 23.4575 14.7832 24.0583 14.9258C24.0583 14.9841 24.1361 15.0716 24.1944 15.1688L24.5346 15.7715H24.4666L24.1653 15.8881L23.2612 16.2381H23.1738H23.0571L22.1434 15.8784L21.842 15.8007C21.842 15.7229 22.017 15.4313 22.1434 15.1785L22.1045 15.1591ZM21.6962 15.8881L21.9781 16.0048C21.4035 16.2166 20.8965 16.5793 20.5103 17.0546V16.763C20.8493 16.3934 21.2592 16.0958 21.7157 15.8881H21.6962ZM20.6173 18.4058L21.6768 18.7363L21.7546 18.9793L20.5006 18.5613L20.6173 18.4058ZM19.5577 19.5139L18.9259 19.0473L18.7315 18.8529C18.8095 18.2357 19.0112 17.6406 19.3244 17.1032C19.4118 17.1106 19.4996 17.1106 19.5869 17.1032L20.3159 16.9768C20.3218 17.0804 20.3218 17.1843 20.3159 17.2879C20.3159 17.6767 20.384 18.2599 20.3937 18.4058L20.277 18.5613L19.6646 19.3292L19.48 19.5625L19.5577 19.5139ZM19.5577 19.7277L19.7424 19.4945C19.7793 20.0707 19.9671 20.6272 20.2868 21.1081L20.0146 21.0497C19.7724 20.6455 19.6168 20.1953 19.5577 19.7277Z" fill="white"/>
<path d="M24.8896 25.5793C24.2184 26.0887 23.4951 26.5253 22.7316 26.8818C21.9135 27.2077 21.063 27.4456 20.1946 27.5914C19.3086 27.7509 18.4117 27.8418 17.5117 27.8636V27.9705C18.4208 28.1181 19.3424 28.1735 20.2626 28.1358C21.1958 28.1021 22.122 27.9619 23.0233 27.7178C23.98 27.5107 24.8692 27.0661 25.6089 26.425C26.3404 25.7509 26.7857 24.822 26.8532 23.8296H26.7559C26.222 24.5081 25.5972 25.1099 24.8993 25.6182" fill="white"/>
</svg>
