<svg width="34" height="34" viewBox="0 0 34 34" fill="none" xmlns="http://www.w3.org/2000/svg">
<path d="M17 32.9199C25.8366 32.9199 33 25.7565 33 16.9199C33 8.08336 25.8366 0.919922 17 0.919922C8.16345 0.919922 1 8.08336 1 16.9199C1 25.7565 8.16345 32.9199 17 32.9199Z" fill="#00171F"/>
<path fill-rule="evenodd" clip-rule="evenodd" d="M16.9984 1.26982C8.35518 1.26982 1.34844 8.27657 1.34844 16.9198C1.34844 25.5631 8.35518 32.5698 16.9984 32.5698C25.6417 32.5698 32.6484 25.5631 32.6484 16.9198C32.6484 8.27657 25.6417 1.26982 16.9984 1.26982ZM0.648437 16.9198C0.648437 7.88997 7.96858 0.569824 16.9984 0.569824C26.0283 0.569824 33.3484 7.88997 33.3484 16.9198C33.3484 25.9497 26.0283 33.2698 16.9984 33.2698C7.96858 33.2698 0.648437 25.9497 0.648437 16.9198Z" fill="white"/>
<path d="M23.807 22.3181C23.7963 22.1008 23.7604 21.8855 23.7 21.6765C23.5549 21.2317 23.3049 20.8282 22.971 20.5003C22.6145 20.1224 22.1845 19.8214 21.7073 19.6158C21.5622 19.5506 21.4128 19.4954 21.2602 19.4505C20.9173 19.3823 20.5628 19.4023 20.2298 19.5088C20.1505 19.5337 20.0726 19.5629 19.9965 19.5963C20.1095 19.5113 20.2338 19.4426 20.3659 19.3922L20.7256 19.295C20.5311 19.1881 20.3465 19.0714 20.1618 18.9548C19.2198 18.3642 18.3573 17.6553 17.5955 16.8454C17.5275 16.7579 17.4497 16.6899 17.3817 16.6024C17.5166 16.6987 17.6738 16.759 17.8386 16.7774C17.8136 16.7466 17.7909 16.7141 17.7705 16.6802C17.7115 16.5712 17.672 16.4528 17.6539 16.3302C17.6347 16.2635 17.6347 16.1928 17.6539 16.1261C17.7868 16.25 17.9518 16.3342 18.1302 16.3691C18.0924 16.3392 18.0566 16.3067 18.0232 16.2719C17.9451 16.1918 17.8854 16.0956 17.8483 15.99C17.804 15.8782 17.7778 15.7601 17.7705 15.6401C17.766 15.4026 17.7465 15.1656 17.7122 14.9305C17.8876 15.058 18.0767 15.1656 18.276 15.2513C17.9563 14.8473 17.6915 14.4028 17.4886 13.9293C17.4267 13.7839 17.3747 13.6345 17.3331 13.4821C17.4839 13.6367 17.6146 13.8098 17.7219 13.9973C17.7749 14.0815 17.8369 14.1597 17.9066 14.2306C17.9163 14.1596 17.9163 14.0877 17.9066 14.0167C17.8816 13.7647 17.8261 13.5166 17.7413 13.278C17.6213 12.9586 17.475 12.6498 17.3039 12.3545C17.2788 12.3188 17.2591 12.2795 17.2456 12.2379C17.517 12.3495 17.801 12.4278 18.0913 12.4712C18.2678 12.4896 18.446 12.4593 18.6065 12.3837C18.2382 12.2482 17.8861 12.0721 17.5567 11.8588C17.1629 11.6121 16.8144 11.2998 16.5263 10.9353C16.4949 10.9061 16.4715 10.8693 16.4582 10.8284C16.7615 10.8201 17.063 10.8765 17.3428 10.9937C17.5599 11.0836 17.771 11.1875 17.9746 11.3047C17.8369 11.1053 17.6659 10.9311 17.4692 10.7895C17.0848 10.4928 16.6632 10.2477 16.2152 10.0605C15.9457 9.94736 15.6698 9.84999 15.389 9.76887C15.2165 9.71443 15.0413 9.66901 14.8641 9.63279L15.0099 9.55502C15.4187 9.36951 15.7588 9.06003 15.9819 8.67045C15.8515 8.80571 15.6869 8.90313 15.5056 8.95235C15.3161 9.00539 15.1187 9.02512 14.9224 9.01067C14.613 8.99286 14.3065 8.9407 14.0087 8.85514C13.5324 8.7385 13.0366 8.59269 12.5797 8.51492C12.5287 8.2027 12.4199 7.90273 12.259 7.63036C12.2138 7.54641 12.1508 7.47341 12.0743 7.4165C12.0647 7.55242 12.0647 7.68885 12.0743 7.82477C12.0803 8.01826 12.0573 8.21156 12.0062 8.39828L11.8215 8.3594C11.5748 8.28179 11.3101 8.28179 11.0633 8.3594C10.7671 8.48971 10.5045 8.68585 10.2954 8.93291C10.0524 9.19536 9.84828 9.48698 9.61498 9.74943C9.5809 9.77704 9.55138 9.80985 9.5275 9.84664C9.59439 9.86436 9.66474 9.86436 9.73163 9.84664C9.77977 9.8372 9.82929 9.8372 9.87744 9.84664C9.75107 10.0605 9.50806 10.1674 9.35253 10.3715C9.45536 10.356 9.55633 10.3299 9.65386 10.2938C9.72191 10.2938 9.78995 10.2355 9.858 10.2355C9.75218 10.3896 9.63522 10.5358 9.50806 10.6729C9.12755 11.0615 8.71093 11.413 8.26383 11.7227L8.18607 11.781C8.09394 12.0654 8.09394 12.3715 8.18607 12.6559C8.25842 12.88 8.39746 13.0767 8.58461 13.2197C8.78576 13.3664 9.01904 13.4631 9.26504 13.5016C9.30312 13.4669 9.34561 13.4375 9.39141 13.4141C9.54721 13.3542 9.69972 13.286 9.84828 13.2099C9.9076 13.1523 9.95399 13.0827 9.98436 13.0058C10.1366 12.7141 10.3786 12.479 10.6745 12.3351C11.0413 12.1851 11.4461 12.1545 11.8313 12.2476C11.8679 12.2643 11.9077 12.2729 11.9479 12.2729C11.9882 12.2729 12.0279 12.2643 12.0646 12.2476C12.2425 12.1576 12.3884 12.0151 12.4825 11.8393C12.6117 11.6045 12.6755 11.3393 12.6672 11.0714C12.6651 10.9349 12.6283 10.8011 12.5603 10.6826C12.6143 10.7409 12.6601 10.8063 12.6964 10.877C12.812 11.126 12.8427 11.406 12.7839 11.6741C12.7247 11.9111 12.6001 12.1267 12.4242 12.2962C12.3201 12.3839 12.2059 12.459 12.084 12.5198C12.0313 12.9652 11.9501 13.4068 11.841 13.8418C11.7368 14.2588 11.5869 14.663 11.3938 15.0471L11.0147 15.3193C10.7061 15.5507 10.459 15.8545 10.2954 16.2039C10.2954 16.2039 10.2954 16.2039 10.2954 16.2622C10.2954 16.4566 10.2954 16.6413 10.2954 16.8357C10.3003 16.9735 10.3199 17.1103 10.3537 17.244C10.5199 17.3374 10.6734 17.4518 10.8106 17.5842C10.9124 17.6714 10.9923 17.7812 11.0439 17.905L10.9175 17.7592C10.7344 17.5752 10.5162 17.4298 10.276 17.3314C9.61933 17.2916 8.96817 17.1874 8.33187 17.0204C8.1083 16.9621 7.89445 16.8746 7.6806 16.7968C7.20231 17.0718 6.77218 17.4232 6.40721 17.8369C5.95549 18.317 5.62258 18.8963 5.43515 19.5283C5.36872 19.795 5.34574 20.0707 5.36711 20.3448H5.49348C5.95301 20.2963 6.406 20.1986 6.84463 20.0532C7.0589 19.9759 7.25917 19.8643 7.43758 19.7227C7.3764 19.7323 7.31408 19.7323 7.25289 19.7227C7.1828 19.71 7.11825 19.6762 7.06788 19.6258C7.01751 19.5754 6.98371 19.5109 6.971 19.4408C6.99511 19.3083 7.03089 19.1782 7.07792 19.052C7.15351 18.8736 7.25867 18.7093 7.38898 18.566C7.58756 18.3505 7.85631 18.2126 8.14718 18.1771C8.50256 18.1576 8.85783 18.2174 9.18728 18.3521C10.2368 18.8045 11.1584 19.509 11.8701 20.4031C12.1172 20.2996 12.3345 20.1359 12.502 19.9268C12.728 19.66 12.9146 19.3621 13.0561 19.0423C13.0762 18.9968 13.1023 18.9543 13.1338 18.9159C13.1073 19.051 13.0716 19.1842 13.0269 19.3144C12.9053 19.6047 12.7657 19.8872 12.6089 20.1601C12.7692 20.4403 12.9653 20.6984 13.1921 20.928C13.5458 21.2997 13.9442 21.6262 14.378 21.9001C14.378 21.9001 8.97343 23.5234 5.74621 26.0799C5.74621 26.0799 15.7195 19.4602 30.7085 25.6231C30.7085 25.6231 26.5384 22.9888 23.807 22.3375V22.3181ZM8.68181 12.3643C8.64584 12.4935 8.56257 12.6046 8.44852 12.6753C8.37855 12.615 8.33374 12.5306 8.32295 12.4388C8.31215 12.347 8.33614 12.2545 8.3902 12.1796C8.4379 12.1267 8.49804 12.0866 8.56517 12.0629C8.60534 12.0533 8.64224 12.0332 8.67209 12.0046C8.67209 12.0046 8.67209 11.9463 8.74014 11.9171C8.73985 12.068 8.72025 12.2183 8.68181 12.3643ZM10.5093 10.5562C10.4327 10.5756 10.3525 10.5756 10.276 10.5562C10.306 10.484 10.351 10.4189 10.4079 10.3653C10.4649 10.3117 10.5326 10.2708 10.6065 10.2452C10.6956 10.2212 10.7895 10.2212 10.8787 10.2452C10.8476 10.3256 10.798 10.3975 10.7338 10.4549C10.6695 10.5124 10.5926 10.5538 10.5093 10.5757V10.5562ZM16.8276 15.9025C16.8276 15.9025 16.8276 16.0095 16.779 16.0678C16.779 15.8442 16.779 15.6109 16.8276 15.3776C16.8372 14.7591 16.7686 14.1418 16.6235 13.5404C16.4248 12.78 16.096 12.0598 15.6514 11.4116C15.2363 10.7782 14.717 10.2195 14.1156 9.75915L13.9795 9.60362C14.7234 10.0194 15.369 10.5905 15.8722 11.2783C16.3755 11.9661 16.7245 12.7542 16.8957 13.589C17.0512 14.3458 17.0512 15.1263 16.8957 15.8831" fill="white"/>
</svg>
