<svg width="32" height="24" viewBox="0 0 32 24" fill="none" xmlns="http://www.w3.org/2000/svg">
<g clip-path="url(#clip0_74_1381)">
<path d="M30.329 16.3507H27.8522C27.6914 16.3507 27.5612 16.2071 27.5612 16.0302C27.5612 15.8532 27.6914 15.7098 27.8522 15.7098H30.329C30.4833 15.7098 30.6315 15.6423 30.7406 15.5221C30.8497 15.4019 30.9111 15.2388 30.9111 15.0689V13.3673C30.9116 13.1821 30.8395 13.0056 30.7132 12.8835C28.4431 10.8038 25.6927 9.91313 22.3022 10.1629C22.236 10.1676 22.1703 10.1473 22.116 10.1053C20.3299 8.71094 18.3491 7.64707 16.2515 6.9553C15.7638 6.7976 15.2605 6.70608 14.7528 6.68286C13.2479 6.60139 11.7409 6.78425 10.2882 7.22448C8.97488 7.6374 7.73288 8.28717 6.61235 9.14705C6.07125 9.56443 5.40764 9.74262 4.75263 9.64707L1.09137 9.07335L1.62985 9.67902C1.97044 10.0666 2.2056 10.5517 2.30858 11.079C2.41139 11.6063 2.378 12.1549 2.21192 12.6624C2.03249 13.1376 1.98275 13.6601 2.06851 14.1659C2.15428 14.6717 2.37202 15.1392 2.69505 15.5111C2.80506 15.6382 2.95761 15.71 3.11701 15.7098H5.844C6.00481 15.7098 6.13504 15.8532 6.13504 16.0303C6.13504 16.2071 6.00481 16.3507 5.844 16.3507H3.11701C2.79593 16.3553 2.4875 16.2139 2.26431 15.9598C1.87539 15.4989 1.61388 14.9256 1.51072 14.3068C1.40773 13.688 1.46714 13.0498 1.68225 12.467C1.81107 12.0678 1.83549 11.6368 1.75272 11.2234C1.66995 10.8097 1.48313 10.43 1.21374 10.1278L0.0815999 8.84606C-0.00205504 8.74873 -0.0219137 8.60399 0.0320386 8.48383C0.0870482 8.36522 0.202862 8.29633 0.323072 8.31084L4.8311 8.99968C5.34358 9.07476 5.86291 8.93525 6.28626 8.60882C7.45849 7.71252 8.75776 7.03686 10.131 6.60922C11.6454 6.14617 13.2177 5.9546 14.7875 6.04208C15.339 6.07188 15.885 6.17405 16.4145 6.34645C18.5393 7.04694 20.5478 8.11928 22.3631 9.52213C25.8555 9.28819 28.7162 10.227 31.0944 12.406C31.3538 12.6502 31.5028 13.0077 31.5019 13.3834V15.085C31.4981 15.4238 31.3724 15.7472 31.1527 15.9844C30.9329 16.2214 30.6367 16.3532 30.329 16.3507Z" fill="black"/>
<path d="M23.414 16.3507H10.2822C10.1214 16.3507 9.99119 16.2071 9.99119 16.0302C9.99119 15.8532 10.1214 15.7098 10.2822 15.7098H23.414C23.5748 15.7098 23.705 15.8532 23.705 16.0302C23.705 16.2071 23.5748 16.3507 23.414 16.3507Z" fill="black"/>
<path d="M8.06466 17.972C7.3508 17.9694 6.66699 17.6552 6.16328 17.0981C5.65961 16.5408 5.37734 15.7865 5.37842 15.0006C5.37948 14.2144 5.66365 13.4609 6.16872 12.9054C6.67383 12.3498 7.35849 12.0377 8.07235 12.0375C8.78621 12.0371 9.4711 12.3488 9.97652 12.9038C10.4819 13.4589 10.7668 14.2122 10.7683 14.9982C10.7683 15.7875 10.4834 16.5444 9.9762 17.1021C9.46916 17.66 8.78149 17.9729 8.06466 17.972ZM8.06466 12.6781C7.50439 12.6806 6.96802 12.9281 6.57345 13.366C6.17889 13.8039 5.95835 14.3964 5.96046 15.0132C5.96257 15.6299 6.187 16.2207 6.58434 16.6552C6.98187 17.0898 7.51982 17.3329 8.08009 17.331C8.64035 17.329 9.17691 17.0821 9.57179 16.6446C9.96685 16.2073 10.1877 15.6151 10.1862 14.9982C10.1839 14.3809 9.95911 13.79 9.56139 13.355C9.16351 12.92 8.62528 12.6764 8.06466 12.6781Z" fill="black"/>
<path d="M25.6347 17.972C24.9203 17.972 24.2351 17.6597 23.7296 17.1038C23.2244 16.5476 22.9402 15.7936 22.9397 15.007C22.9391 14.2202 23.2223 13.4656 23.727 12.9089C24.2316 12.352 24.9164 12.0386 25.6308 12.0376C26.3452 12.0364 27.0308 12.3476 27.5369 12.9029C28.043 13.4581 28.3281 14.2118 28.3297 14.9983C28.3297 15.7861 28.0459 16.5413 27.5406 17.0989C27.0354 17.6564 26.35 17.9704 25.6347 17.972ZM25.6347 12.6781C25.0739 12.6781 24.5363 12.9236 24.14 13.3604C23.7437 13.7971 23.5212 14.3894 23.5217 15.0069C23.5223 15.6241 23.7456 16.216 24.1427 16.652C24.5397 17.0879 25.078 17.3321 25.6386 17.331C26.1994 17.3298 26.7366 17.0835 27.1322 16.6458C27.5278 16.2083 27.7493 15.6156 27.7477 14.9981C27.7454 14.3826 27.5219 13.793 27.1259 13.3583C26.73 12.9237 26.1939 12.6789 25.6347 12.6781Z" fill="black"/>
<path d="M22.282 10.1632H11.6621C11.199 10.1632 10.7549 9.96058 10.4275 9.5999C10.0999 9.23941 9.91592 8.75046 9.91592 8.24059V6.91705C9.91592 6.74 10.0463 6.59661 10.207 6.59661C10.3678 6.59661 10.498 6.73999 10.498 6.91705V8.24366C10.498 8.58364 10.6207 8.90967 10.8391 9.15002C11.0574 9.39034 11.3535 9.5254 11.6621 9.5254H22.2821C22.4429 9.5254 22.5731 9.66898 22.5731 9.84584C22.5731 10.0229 22.4429 10.1663 22.2821 10.1663L22.282 10.1632Z" fill="black"/>
<path d="M30.329 16.3507H27.8522C27.6914 16.3507 27.5612 16.2071 27.5612 16.0302C27.5612 15.8532 27.6914 15.7098 27.8522 15.7098H30.329C30.4833 15.7098 30.6315 15.6423 30.7406 15.5221C30.8497 15.4019 30.9111 15.2388 30.9111 15.0689V13.3673C30.9116 13.1821 30.8395 13.0056 30.7132 12.8835C28.4431 10.8038 25.6927 9.91313 22.3022 10.1629C22.236 10.1676 22.1703 10.1473 22.116 10.1053C20.3299 8.71094 18.3491 7.64707 16.2515 6.9553C15.7638 6.7976 15.2605 6.70608 14.7528 6.68286C13.2479 6.60139 11.7409 6.78425 10.2882 7.22448C8.97488 7.6374 7.73288 8.28717 6.61235 9.14705C6.07125 9.56443 5.40764 9.74262 4.75263 9.64707L1.09137 9.07335L1.62985 9.67902C1.97044 10.0666 2.2056 10.5517 2.30858 11.079C2.41139 11.6063 2.378 12.1549 2.21192 12.6624C2.03249 13.1376 1.98275 13.6601 2.06851 14.1659C2.15428 14.6717 2.37202 15.1392 2.69505 15.5111C2.80506 15.6382 2.95761 15.71 3.11701 15.7098H5.844C6.00481 15.7098 6.13504 15.8532 6.13504 16.0303C6.13504 16.2071 6.00481 16.3507 5.844 16.3507H3.11701C2.79593 16.3553 2.4875 16.2139 2.26431 15.9598C1.87539 15.4989 1.61388 14.9256 1.51072 14.3068C1.40773 13.688 1.46714 13.0498 1.68225 12.467C1.81107 12.0678 1.83549 11.6368 1.75272 11.2234C1.66995 10.8097 1.48313 10.43 1.21374 10.1278L0.0815999 8.84606C-0.00205504 8.74873 -0.0219137 8.60399 0.0320386 8.48383C0.0870482 8.36522 0.202862 8.29633 0.323072 8.31084L4.8311 8.99968C5.34358 9.07476 5.86291 8.93525 6.28626 8.60882C7.45849 7.71252 8.75776 7.03686 10.131 6.60922C11.6454 6.14617 13.2177 5.9546 14.7875 6.04208C15.339 6.07188 15.885 6.17405 16.4145 6.34645C18.5393 7.04694 20.5478 8.11928 22.3631 9.52213C25.8555 9.28819 28.7162 10.227 31.0944 12.406C31.3538 12.6502 31.5028 13.0077 31.5019 13.3834V15.085C31.4981 15.4238 31.3724 15.7472 31.1527 15.9844C30.9329 16.2214 30.6367 16.3532 30.329 16.3507Z" stroke="black" stroke-width="0.2"/>
<path d="M23.414 16.3507H10.2822C10.1214 16.3507 9.99119 16.2071 9.99119 16.0302C9.99119 15.8532 10.1214 15.7098 10.2822 15.7098H23.414C23.5748 15.7098 23.705 15.8532 23.705 16.0302C23.705 16.2071 23.5748 16.3507 23.414 16.3507Z" stroke="black" stroke-width="0.2"/>
<path d="M8.06466 17.972C7.3508 17.9694 6.66699 17.6552 6.16328 17.0981C5.65961 16.5408 5.37734 15.7865 5.37842 15.0006C5.37948 14.2144 5.66365 13.4609 6.16872 12.9054C6.67383 12.3498 7.35849 12.0377 8.07235 12.0375C8.78621 12.0371 9.4711 12.3488 9.97652 12.9038C10.4819 13.4589 10.7668 14.2122 10.7683 14.9982C10.7683 15.7875 10.4834 16.5444 9.9762 17.1021C9.46916 17.66 8.78149 17.9729 8.06466 17.972ZM8.06466 12.6781C7.50439 12.6806 6.96802 12.9281 6.57345 13.366C6.17889 13.8039 5.95835 14.3964 5.96046 15.0132C5.96257 15.6299 6.187 16.2207 6.58434 16.6552C6.98187 17.0898 7.51982 17.3329 8.08009 17.331C8.64035 17.329 9.17691 17.0821 9.57179 16.6446C9.96685 16.2073 10.1877 15.6151 10.1862 14.9982C10.1839 14.3809 9.95911 13.79 9.56139 13.355C9.16351 12.92 8.62528 12.6764 8.06466 12.6781Z" stroke="black" stroke-width="0.2"/>
<path d="M25.6347 17.972C24.9203 17.972 24.2351 17.6597 23.7296 17.1038C23.2244 16.5476 22.9402 15.7936 22.9397 15.007C22.9391 14.2202 23.2223 13.4656 23.727 12.9089C24.2316 12.352 24.9164 12.0386 25.6308 12.0376C26.3452 12.0364 27.0308 12.3476 27.5369 12.9029C28.043 13.4581 28.3281 14.2118 28.3297 14.9983C28.3297 15.7861 28.0459 16.5413 27.5406 17.0989C27.0354 17.6564 26.35 17.9704 25.6347 17.972ZM25.6347 12.6781C25.0739 12.6781 24.5363 12.9236 24.14 13.3604C23.7437 13.7971 23.5212 14.3894 23.5217 15.0069C23.5223 15.6241 23.7456 16.216 24.1427 16.652C24.5397 17.0879 25.078 17.3321 25.6386 17.331C26.1994 17.3298 26.7366 17.0835 27.1322 16.6458C27.5278 16.2083 27.7493 15.6156 27.7477 14.9981C27.7454 14.3826 27.5219 13.793 27.1259 13.3583C26.73 12.9237 26.1939 12.6789 25.6347 12.6781Z" stroke="black" stroke-width="0.2"/>
<path d="M22.282 10.1632H11.6621C11.199 10.1632 10.7549 9.96058 10.4275 9.5999C10.0999 9.23941 9.91592 8.75046 9.91592 8.24059V6.91705C9.91592 6.74 10.0463 6.59661 10.207 6.59661C10.3678 6.59661 10.498 6.73999 10.498 6.91705V8.24366C10.498 8.58364 10.6207 8.90967 10.8391 9.15002C11.0574 9.39034 11.3535 9.5254 11.6621 9.5254H22.2821C22.4429 9.5254 22.5731 9.66898 22.5731 9.84584C22.5731 10.0229 22.4429 10.1663 22.2821 10.1663L22.282 10.1632Z" stroke="black" stroke-width="0.2"/>
</g>
<defs>
<clipPath id="clip0_74_1381">
<rect width="32" height="24" fill="white"/>
</clipPath>
</defs>
</svg>
