<svg width="24" height="25" viewBox="0 0 24 25" fill="none" xmlns="http://www.w3.org/2000/svg">
<path fill-rule="evenodd" clip-rule="evenodd" d="M12.2929 6.64836C12.6834 6.25784 13.3166 6.25784 13.7071 6.64836L18.7071 11.6484C19.0976 12.0389 19.0976 12.6721 18.7071 13.0626L13.7071 18.0626C13.3166 18.4531 12.6834 18.4531 12.2929 18.0626C11.9024 17.6721 11.9024 17.0389 12.2929 16.6484L16.5858 12.3555L12.2929 8.06258C11.9024 7.67205 11.9024 7.03889 12.2929 6.64836Z" fill="#DD1A1E"/>
<path fill-rule="evenodd" clip-rule="evenodd" d="M5.29289 6.64836C5.68342 6.25784 6.31658 6.25784 6.70711 6.64836L11.7071 11.6484C12.0976 12.0389 12.0976 12.6721 11.7071 13.0626L6.70711 18.0626C6.31658 18.4531 5.68342 18.4531 5.29289 18.0626C4.90237 17.6721 4.90237 17.0389 5.29289 16.6484L9.58579 12.3555L5.29289 8.06258C4.90237 7.67205 4.90237 7.03889 5.29289 6.64836Z" fill="#DD1A1E"/>
</svg>
