<svg width="26" height="24" viewBox="0 0 26 24" fill="none" xmlns="http://www.w3.org/2000/svg">
<path d="M5.37858 8.27806H13.3088C13.5734 8.27806 13.788 8.09077 13.788 7.85973C13.788 7.62869 13.5734 7.44141 13.3088 7.44141H5.37858C5.11394 7.44141 4.89941 7.62869 4.89941 7.85973C4.89941 8.09077 5.11394 8.27806 5.37858 8.27806Z" fill="black"/>
<path d="M16.1598 10.2031H5.37858C5.11394 10.2031 4.89941 10.3904 4.89941 10.6215C4.89941 10.8525 5.11394 11.0398 5.37858 11.0398H16.1598C16.4245 11.0398 16.639 10.8525 16.639 10.6215C16.639 10.3904 16.4245 10.2031 16.1598 10.2031Z" fill="black"/>
<path d="M16.1598 12.9648H5.37858C5.11394 12.9648 4.89941 13.1521 4.89941 13.3832C4.89941 13.6142 5.11394 13.8015 5.37858 13.8015H16.1598C16.4245 13.8015 16.639 13.6142 16.639 13.3832C16.639 13.1521 16.4245 12.9648 16.1598 12.9648Z" fill="black"/>
<path d="M16.1598 15.7246H5.37858C5.11394 15.7246 4.89941 15.9119 4.89941 16.1429C4.89941 16.374 5.11394 16.5613 5.37858 16.5613H16.1598C16.4245 16.5613 16.639 16.374 16.639 16.1429C16.639 15.9119 16.4245 15.7246 16.1598 15.7246Z" fill="black"/>
<path d="M25.5208 16.872H22.2346C22.1213 16.872 22.0292 16.7916 22.0292 16.6927V16.2752C22.0292 15.8628 21.7472 15.4944 21.3108 15.3366C20.8743 15.1788 20.3765 15.2652 20.0425 15.5568L19.5375 15.9977V5.30876C19.5375 5.19782 19.487 5.0914 19.3972 5.01297L14.9409 1.12253C14.8511 1.04409 14.7292 1 14.6021 1H2.47917C2.21452 1 2 1.18728 2 1.41833V21.5817C2 21.8127 2.21452 22 2.47917 22H19.0583C19.323 22 19.5375 21.8127 19.5375 21.5817V21.2604L20.0425 21.7012C20.2657 21.896 20.562 21.9993 20.8642 21.9993C21.0143 21.9993 21.1659 21.9738 21.3108 21.9214C21.7471 21.7636 22.0292 21.3952 22.0292 20.9828V20.5653C22.0292 20.4664 22.1213 20.386 22.2346 20.386H25.5208C25.7855 20.386 26 20.1987 26 19.9676V17.2904C26 17.0593 25.7855 16.872 25.5208 16.872ZM15.0813 2.42825L17.9015 4.89044H15.0813V2.42825ZM18.5792 21.1633H2.95833V1.83665H14.1229V5.30876C14.1229 5.53981 14.3374 5.72709 14.6021 5.72709H18.5792V16.8343L16.8623 18.3332C16.7949 18.3921 16.7496 18.4666 16.7312 18.547C16.7251 18.5738 16.7219 18.6013 16.7219 18.629C16.7219 18.7399 16.7724 18.8464 16.8623 18.9248L18.5792 20.4237V21.1633ZM25.0417 19.5493H22.2346C21.5929 19.5493 21.0708 20.0051 21.0708 20.5653V20.9828C21.0708 21.0871 20.9914 21.1313 20.944 21.1485C20.8966 21.1656 20.8046 21.1833 20.7202 21.1096L17.8788 18.629L20.7201 16.1484C20.8046 16.0747 20.8967 16.0924 20.944 16.1095C20.9913 16.1267 21.0708 16.171 21.0708 16.2752V16.6927C21.0708 17.2529 21.5928 17.7087 22.2345 17.7087H25.0417V19.5493Z" fill="black"/>
</svg>
