<svg width="84" height="23" viewBox="0 0 84 23" fill="none" xmlns="http://www.w3.org/2000/svg">
<path d="M0.24 1.232H5.232V18.448H15.44V22H0.24V1.232ZM28.1785 22.32C27.0265 22.32 25.9598 22.2453 24.9785 22.096C24.0185 21.9467 23.0158 21.6907 21.9705 21.328C20.8398 20.944 19.9545 20.3253 19.3145 19.472C18.6745 18.5973 18.3545 17.5413 18.3545 16.304V7.216C18.3545 6.192 18.5785 5.27467 19.0265 4.464C19.4958 3.65333 20.0932 3.01333 20.8185 2.544C21.4585 2.13867 22.2478 1.79733 23.1865 1.52C24.1252 1.24266 24.9998 1.072 25.8105 1.008C26.5572 0.943999 27.3465 0.911999 28.1785 0.911999C29.1598 0.911999 30.0132 0.954666 30.7385 1.04C31.4638 1.104 32.2745 1.25333 33.1705 1.488C34.1945 1.78667 35.0372 2.14933 35.6985 2.576C36.3598 3.00267 36.9145 3.6 37.3625 4.368C37.8318 5.15733 38.0665 6.10667 38.0665 7.216V16.304C38.0665 17.456 37.7572 18.448 37.1385 19.28C36.5412 20.112 35.7092 20.7413 34.6425 21.168C32.7225 21.936 30.5678 22.32 28.1785 22.32ZM28.2425 18.768C28.9465 18.768 29.5332 18.7467 30.0025 18.704C30.4932 18.64 30.9945 18.5333 31.5065 18.384C32.0185 18.2347 32.4025 17.9893 32.6585 17.648C32.9358 17.2853 33.0745 16.8373 33.0745 16.304V7.184C33.0745 6.20267 32.6798 5.50933 31.8905 5.104C31.1012 4.67733 29.8745 4.464 28.2105 4.464C26.5465 4.464 25.3198 4.66667 24.5305 5.072C23.7412 5.47733 23.3465 6.18133 23.3465 7.184V16.304C23.3465 16.8373 23.4852 17.2853 23.7625 17.648C24.0398 17.9893 24.4452 18.2347 24.9785 18.384C25.4905 18.5333 25.9812 18.64 26.4505 18.704C26.9412 18.7467 27.5385 18.768 28.2425 18.768ZM51.9718 22.32C50.7771 22.32 49.7211 22.2667 48.8038 22.16C47.8864 22.0533 46.9798 21.872 46.0838 21.616C45.1238 21.36 44.3344 21.0187 43.7158 20.592C43.0971 20.144 42.5958 19.568 42.2118 18.864C41.8278 18.1173 41.6358 17.264 41.6358 16.304V7.664C41.6358 6.61867 41.8491 5.68 42.2758 4.848C42.7024 3.99467 43.2784 3.32267 44.0038 2.832C44.6864 2.384 45.4971 2 46.4358 1.68C47.3958 1.36 48.3344 1.14667 49.2517 1.04C50.0198 0.954666 50.9478 0.911999 52.0358 0.911999C54.9798 0.911999 57.7958 1.136 60.4838 1.584V5.36C58.0091 4.76267 55.1931 4.464 52.0358 4.464C48.4304 4.464 46.6278 5.50933 46.6278 7.6V15.952C46.6278 16.976 47.1078 17.7013 48.0677 18.128C49.0491 18.5547 50.5211 18.768 52.4838 18.768C53.5291 18.768 54.6491 18.608 55.8438 18.288V13.456H52.4518V10.192H60.6118V20.976C59.5451 21.36 58.1798 21.68 56.5158 21.936C54.8731 22.192 53.3584 22.32 51.9718 22.32ZM74.0223 22.32C72.8703 22.32 71.8036 22.2453 70.8223 22.096C69.8623 21.9467 68.8596 21.6907 67.8143 21.328C66.6836 20.944 65.7983 20.3253 65.1583 19.472C64.5183 18.5973 64.1983 17.5413 64.1983 16.304V7.216C64.1983 6.192 64.4223 5.27467 64.8703 4.464C65.3396 3.65333 65.9369 3.01333 66.6623 2.544C67.3023 2.13867 68.0916 1.79733 69.0303 1.52C69.9689 1.24266 70.8436 1.072 71.6543 1.008C72.4009 0.943999 73.1903 0.911999 74.0223 0.911999C75.0036 0.911999 75.8569 0.954666 76.5823 1.04C77.3076 1.104 78.1183 1.25333 79.0143 1.488C80.0383 1.78667 80.8809 2.14933 81.5423 2.576C82.2036 3.00267 82.7583 3.6 83.2063 4.368C83.6756 5.15733 83.9103 6.10667 83.9103 7.216V16.304C83.9103 17.456 83.6009 18.448 82.9823 19.28C82.3849 20.112 81.5529 20.7413 80.4862 21.168C78.5663 21.936 76.4116 22.32 74.0223 22.32ZM74.0863 18.768C74.7903 18.768 75.3769 18.7467 75.8463 18.704C76.3369 18.64 76.8383 18.5333 77.3503 18.384C77.8623 18.2347 78.2463 17.9893 78.5023 17.648C78.7796 17.2853 78.9183 16.8373 78.9183 16.304V7.184C78.9183 6.20267 78.5236 5.50933 77.7343 5.104C76.9449 4.67733 75.7183 4.464 74.0543 4.464C72.3903 4.464 71.1636 4.66667 70.3743 5.072C69.5849 5.47733 69.1903 6.18133 69.1903 7.184V16.304C69.1903 16.8373 69.3289 17.2853 69.6063 17.648C69.8836 17.9893 70.2889 18.2347 70.8223 18.384C71.3343 18.5333 71.8249 18.64 72.2943 18.704C72.7849 18.7467 73.3823 18.768 74.0863 18.768Z" fill="#DD1A1E"/>
</svg>
