<svg width="31" height="24" viewBox="0 0 31 24" fill="none" xmlns="http://www.w3.org/2000/svg">
<path d="M24.7576 10.3022H20.3366L15.6854 2.43107C15.251 1.56222 14.4843 1 13.641 1H12.2354L15.2254 10.2767H14.7909H13.411C13.1044 10.2767 12.7976 10.3022 12.491 10.3278L9.57769 10.6856L7.78884 7.36333H6V16.9467H7.76338L9.55222 13.6244L12.4656 13.9822C12.7722 14.0077 13.0789 14.0333 13.3856 14.0333H14.7655H15.1999L12.2356 23.3867H13.6412C14.4845 23.3867 15.2767 22.8499 15.6857 21.9811L20.3368 14.1099H24.7835C25.8823 14.1099 28.3357 13.3944 28.3357 12.2188C28.3354 11.0433 25.8565 10.3021 24.7577 10.3021L24.7576 10.3022ZM24.7576 13.4456H19.9532L15.0976 21.6745C14.791 22.3389 14.2288 22.7224 13.6409 22.7224H13.1298L16.1198 13.4457H14.7909H13.411C13.1298 13.4457 12.8487 13.4202 12.5676 13.3945L9.19438 12.9601L7.37984 16.3335L6.66428 16.3334V8.05336H7.37984L9.19438 11.4266L12.5676 11.0177C12.8487 10.9922 13.1298 10.9665 13.411 10.9665H14.7909H16.1198L13.1298 1.66428H13.6409C14.2286 1.66428 14.7908 2.07321 15.1231 2.73762L19.9786 10.941H24.8086C25.882 10.941 27.722 11.6565 27.722 12.1932C27.7222 12.7298 25.8565 13.4454 24.7577 13.4454L24.7576 13.4456Z" fill="black" stroke="black" stroke-width="0.3"/>
</svg>
