<svg width="56" height="57" viewBox="0 0 56 57" fill="none" xmlns="http://www.w3.org/2000/svg">
<g clip-path="url(#clip0_66_63)">
<path d="M56 0H0V56.0185H56V0Z" fill="#2F89CE"/>
<path fill-rule="evenodd" clip-rule="evenodd" d="M22.1898 30.2455C22.6357 29.6444 32.0539 23.7721 33.1095 23.1247C33.9376 22.5884 35.9759 20.9793 36.895 21.118C36.895 21.7746 33.0458 24.8171 32.4361 25.5199L27.3039 30.3102C27.1492 30.4582 27.0127 30.5507 26.8398 30.6986C26.4849 30.9853 26.3029 31.235 25.9298 31.5217C24.8742 32.4464 24.9288 32.0395 24.765 33.9261C24.674 35.0173 24.5739 36.0993 24.4738 37.1813L22.1898 30.2455ZM14 27.7948C14.3367 28.7196 15.9929 28.9601 17.3305 29.4039C22.1898 30.9946 20.8248 29.4872 22.5447 34.9526C22.8632 35.9791 23.5093 38.4667 24.0643 39.1141C25.6568 39.2435 25.9935 38.2448 26.7943 37.5142C27.4765 36.7836 28.2094 36.1037 28.9873 35.4797C29.3786 35.8311 29.8973 36.1825 30.3614 36.5062L34.7293 39.7984C37.8141 42.0918 37.6958 39.1418 38.5512 35.0821C38.8424 33.7041 42.0091 19.1759 42 18.131C42 15.9115 39.7068 17.0767 38.9789 17.3541C37.7413 17.835 36.5674 18.2789 35.3389 18.7875C32.9093 19.7123 30.507 20.6371 28.0591 21.6266C25.6113 22.6161 23.2454 23.4761 20.8339 24.4656L15.3741 26.6296C14.637 26.8608 14.1001 27.203 14 27.7948Z" fill="white"/>
</g>
<defs>
<clipPath id="clip0_66_63">
<rect width="56" height="56.0185" fill="white"/>
</clipPath>
</defs>
</svg>
