<svg width="56" height="57" viewBox="0 0 56 57" fill="none" xmlns="http://www.w3.org/2000/svg">
<g clip-path="url(#clip0_66_60)">
<path d="M56 0H0V56.0185H56V0Z" fill="#76479C"/>
<path fill-rule="evenodd" clip-rule="evenodd" d="M18.6484 14.4232C17.7113 14.6168 16.8298 15.0188 16.069 15.5994C13.1159 18.1614 14.3555 20.7326 15.7318 23.7049C17.5502 27.5896 20.0753 31.1019 23.1784 34.0625C23.975 34.857 24.8213 35.6001 25.7122 36.2872C27.8574 37.9809 30.1764 39.4418 32.6302 40.6454C33.4752 41.0986 34.3526 41.4887 35.2552 41.8124C35.7481 41.9911 36.2747 42.0577 36.7966 42.0072C37.3184 41.9568 37.8225 41.7905 38.2721 41.5206C39.7395 40.7821 41.4166 39.1228 41.6992 37.4634C41.7644 36.9739 41.6843 36.4761 41.4687 36.0318C41.2532 35.5876 40.9117 35.2167 40.4869 34.9652L39.4296 34.1354C38.3568 33.2897 37.2269 32.519 36.0481 31.8287C33.1406 30.4246 32.4023 33.324 31.2994 33.8528C29.7773 34.5822 26.8789 32.394 26.0859 31.774C24.6905 30.6391 23.5584 29.2142 22.7682 27.5981C20.2161 22.7111 26.5872 24.2702 24.3086 19.9576C23.8737 19.1545 23.3866 18.3809 22.8502 17.6417C22.7135 17.4594 22.5677 17.3226 22.4492 17.1402C22.3163 16.9479 22.1701 16.7651 22.0117 16.5932C21.164 15.6085 20.1888 14.1861 18.6484 14.4232ZM30.5612 20.7326C32.0286 20.4955 33.4049 21.7537 33.9518 22.4467C34.3666 22.945 34.6627 23.5311 34.8176 24.1608C34.9908 24.8811 35.0182 25.9843 34.1705 25.9843C33.3229 25.9843 33.4505 24.9085 33.2591 24.2429C32.694 22.4193 31.1354 22.3646 30.2513 22.0729C29.5495 21.8449 29.5768 20.8694 30.5794 20.7052L30.5612 20.7326ZM29.2122 17.3682C29.9414 17.0399 32.4296 17.8697 33.0585 18.1523C34.4234 18.7576 35.6061 19.7099 36.4888 20.9144C37.3715 22.1189 37.9235 23.5336 38.0898 25.0178C38.1445 25.7928 38.263 26.8414 37.6796 26.9873C36.4218 27.3976 36.8684 26.1211 36.2122 23.8143C35.4466 21.079 33.9244 19.9667 31.2994 19.2555C29.9961 18.8817 28.8021 19.0367 28.7747 18.1979C28.7464 18.0368 28.7744 17.8708 28.8541 17.728C28.9338 17.5852 29.0603 17.4742 29.2122 17.4138V17.3682ZM28.3007 14.0585C29.3582 14.0014 30.4186 14.0842 31.4544 14.3047C33.999 14.9183 36.3028 16.277 38.0716 18.207L38.8645 19.1644C40.262 20.9593 41.1499 23.098 41.4348 25.3552C41.5077 25.9205 41.4986 26.4766 41.5169 27.051C41.5351 27.6255 41.5807 28.2272 40.9882 28.3275C40.3958 28.4278 40.0768 28.0814 40.0768 27.4796C40.001 25.9779 39.722 24.4934 39.2473 23.0667C38.7381 21.4159 37.8303 19.916 36.6041 18.6994C34.5382 16.9151 31.9733 15.8104 29.2578 15.5355C28.7838 15.4717 28.1185 15.5356 27.8815 15.1709C27.8202 15.0744 27.7815 14.9652 27.7684 14.8517C27.7553 14.7381 27.768 14.623 27.8058 14.5151C27.8435 14.4072 27.9052 14.3092 27.9861 14.2285C28.0671 14.1479 28.1653 14.0867 28.2734 14.0494L28.3007 14.0585Z" fill="white"/>
</g>
<defs>
<clipPath id="clip0_66_60">
<rect width="56" height="56.0185" fill="white"/>
</clipPath>
</defs>
</svg>
