<svg width="56" height="57" viewBox="0 0 56 57" fill="none" xmlns="http://www.w3.org/2000/svg">
<g clip-path="url(#clip0_66_66)">
<path d="M56 0H0V56.0185H56V0Z" fill="#0DB14B"/>
<path fill-rule="evenodd" clip-rule="evenodd" d="M15.6914 28.3625C15.6955 25.319 16.7509 22.3708 18.6785 20.0179C18.9614 19.661 19.1815 19.4616 19.454 19.1153L20.2925 18.3385C22.5918 16.4003 25.4743 15.2914 28.478 15.1897C29.7585 15.1261 31.0412 15.257 32.2825 15.578C33.09 15.7978 33.8786 16.0821 34.6407 16.4282L36.674 17.6143C36.9872 17.8318 37.2881 18.0666 37.5753 18.3175C37.7535 18.4855 37.8268 18.517 37.9945 18.6744C38.1421 18.8063 38.2821 18.9465 38.4138 19.0942C39.9873 20.6806 41.1307 22.6428 41.7356 24.7952C42.3405 26.9477 42.387 29.2191 41.8707 31.3945C41.3544 33.5699 40.2924 35.5775 38.7851 37.2271C37.2778 38.8767 35.3752 40.1139 33.2572 40.8215C31.4868 41.4198 29.6111 41.641 27.7503 41.4711C25.8896 41.3012 24.0848 40.7439 22.4515 39.8349L22.0638 39.5935C21.5712 39.2891 21.8541 39.2996 20.6488 39.667C19.9781 39.8664 19.3073 40.0973 18.6365 40.3177L16.6032 40.937C16.8338 40.4542 18.2068 36.1822 18.2068 36.1087L17.2635 34.5448C17.1105 34.2662 16.9741 33.9788 16.8548 33.6841C16.4287 32.7531 16.1189 31.773 15.9325 30.7661C15.7926 29.9897 15.712 29.2037 15.6914 28.4149V28.3625ZM21.2882 24.4474C21.2067 25.4428 21.422 26.44 21.9066 27.3128C22.2075 27.9148 22.5581 28.4906 22.9546 29.0342L23.5416 29.8424C24.1436 30.6308 24.8096 31.3681 25.5329 32.0467C27.0044 33.4992 28.8011 34.5788 30.7733 35.1956C32.5131 35.8253 34.0852 36.1087 35.6783 34.9226C36.037 34.6963 36.3371 34.3881 36.5539 34.0232C36.7707 33.6583 36.898 33.2471 36.9255 32.8234C36.9491 32.6071 36.9491 32.3889 36.9255 32.1726C36.8417 31.6688 36.129 31.5428 35.4058 31.123C34.6826 30.7031 33.1419 29.7795 32.6598 30.2833L31.4336 31.8472C31.3514 31.976 31.2238 32.069 31.0762 32.1079C30.9287 32.1468 30.7719 32.1287 30.637 32.0572C29.0874 31.4487 27.6992 30.4895 26.581 29.2546C26.2235 28.8362 25.8944 28.3945 25.5958 27.9322C25.1451 27.2709 24.9669 27.1134 25.5958 26.5046C26.0412 26.1134 26.3528 25.5921 26.4867 25.0142C26.465 24.8107 26.393 24.6159 26.277 24.4474C26.1932 24.2794 26.1408 24.101 26.0569 23.9016L25.3547 22.2222C24.8621 20.9836 24.8307 21.1725 24.0446 21.1725C23.2586 21.1725 22.7555 21.1726 22.0218 22.1592C21.5116 22.8241 21.2188 23.6305 21.1834 24.4683L21.2882 24.4474ZM13.176 27.6592C13.0644 29.5947 13.3424 31.533 13.9935 33.3587C14.3201 34.2914 14.7269 35.194 15.2093 36.0563C15.4923 36.5181 15.4294 36.4236 15.2093 36.9904C14.9892 37.5572 12.6311 44.4112 12.5996 44.7996C12.9455 44.7996 18.6051 42.9523 19.5798 42.6269C22.4411 41.6613 20.565 42.1861 24.3276 43.3407C35.4163 46.7415 46.0438 37.3893 44.6813 26.5466C44.6152 25.9824 44.5207 25.4219 44.3983 24.8672C43.7968 22.2313 42.522 19.7972 40.6986 17.8032C40.5394 17.6362 40.389 17.461 40.2479 17.2784L38.1518 15.494C37.364 14.9512 36.5332 14.4738 35.6678 14.0665C34.2312 13.3869 32.6958 12.9404 31.1191 12.744C29.3753 12.5058 27.6038 12.5626 25.8787 12.912C25.3537 13.0115 24.8356 13.1446 24.3276 13.3108C22.688 13.817 21.1412 14.5863 19.7475 15.5885L18.6994 16.4702C18.4793 16.6591 18.3955 16.7116 18.1859 16.9215C16.8034 18.2045 15.673 19.7354 14.853 21.435C13.8593 23.367 13.2877 25.4888 13.176 27.6592Z" fill="white"/>
</g>
<defs>
<clipPath id="clip0_66_66">
<rect width="56" height="56.0185" fill="white"/>
</clipPath>
</defs>
</svg>
