<svg xmlns="http://www.w3.org/2000/svg" xmlns:xlink="http://www.w3.org/1999/xlink" viewBox="0 0 308.33 170.03"><defs><style>.cls-1{fill:none;stroke:#000;stroke-miterlimit:10;}.cls-2{font-size:10.03px;font-family:Roboto-Regular, Roboto;}.cls-3{fill:#1e2e61;}.cls-4{fill:#a5110a;}.cls-5{fill:url(#Degradado_sin_nombre_5);}.cls-6{fill:#8f8f8f;}.cls-7{fill:url(#Degradado_sin_nombre_5-2);}.cls-8{fill:url(#Degradado_sin_nombre_7);}.cls-9{fill:url(#Degradado_sin_nombre_9);}.cls-10{fill:url(#Degradado_sin_nombre_4);}.cls-11{fill:url(#Degradado_sin_nombre_6);}.cls-12{fill:#a3110a;}.cls-13{fill:url(#Degradado_sin_nombre_4-2);}.cls-14{fill:url(#Degradado_sin_nombre_8);}.cls-15{fill:url(#Degradado_sin_nombre_4-3);}</style><linearGradient id="Degradado_sin_nombre_5" x1="255.84" y1="17.9" x2="290.33" y2="54.67" gradientUnits="userSpaceOnUse"><stop offset="0" stop-color="#d3d3d3"/><stop offset="1"/></linearGradient><linearGradient id="Degradado_sin_nombre_5-2" x1="288.64" y1="52.5" x2="259.19" y2="21.74" xlink:href="#Degradado_sin_nombre_5"/><linearGradient id="Degradado_sin_nombre_7" x1="274.56" y1="27.95" x2="288.64" y2="34.88" gradientUnits="userSpaceOnUse"><stop offset="0.15" stop-color="#c36b66"/><stop offset="0.47" stop-color="#a5110a"/><stop offset="0.5" stop-color="#860e08"/><stop offset="0.56" stop-color="#3e0604"/><stop offset="0.6" stop-color="#110201"/><stop offset="0.63"/></linearGradient><linearGradient id="Degradado_sin_nombre_9" x1="261.19" y1="33.98" x2="279.11" y2="43.27" gradientUnits="userSpaceOnUse"><stop offset="0" stop-color="#c36b66"/><stop offset="0.8" stop-color="#a5110a"/><stop offset="0.82" stop-color="#860e08"/><stop offset="0.87" stop-color="#3e0604"/><stop offset="0.91" stop-color="#110201"/><stop offset="0.93"/></linearGradient><linearGradient id="Degradado_sin_nombre_4" x1="278.83" y1="21.93" x2="278.69" y2="39.78" gradientUnits="userSpaceOnUse"><stop offset="0.16" stop-color="#c36b66"/><stop offset="0.2" stop-color="#a5110a"/><stop offset="0.22" stop-color="#860e08"/><stop offset="0.28" stop-color="#3e0604"/><stop offset="0.32" stop-color="#110201"/><stop offset="0.34"/></linearGradient><linearGradient id="Degradado_sin_nombre_6" x1="-1759.24" y1="4.96" x2="-1776.19" y2="12.43" gradientTransform="matrix(0.59, 0.36, 0.35, 1.11, 1317.04, 664.43)" gradientUnits="userSpaceOnUse"><stop offset="0.16" stop-color="#c36b66"/><stop offset="0.34" stop-color="#a5110a"/><stop offset="0.39" stop-color="#860e08"/><stop offset="0.51" stop-color="#3e0604"/><stop offset="0.6" stop-color="#110201"/><stop offset="0.64"/></linearGradient><linearGradient id="Degradado_sin_nombre_4-2" x1="273.44" y1="33.04" x2="261.88" y2="38.79" xlink:href="#Degradado_sin_nombre_4"/><linearGradient id="Degradado_sin_nombre_8" x1="-1923.83" y1="-912.45" x2="-1945.34" y2="-912.18" gradientTransform="matrix(0.88, -0.48, 0.6, 1.08, 2498.04, 90.24)" gradientUnits="userSpaceOnUse"><stop offset="0.16" stop-color="#c36b66"/><stop offset="0.25" stop-color="#a5110a"/><stop offset="0.28" stop-color="#750c07"/><stop offset="0.32" stop-color="#360603"/><stop offset="0.35" stop-color="#0f0201"/><stop offset="0.36"/></linearGradient><linearGradient id="Degradado_sin_nombre_4-3" x1="261.93" y1="23.04" x2="262.01" y2="33.78" xlink:href="#Degradado_sin_nombre_4"/></defs><g id="Слой_2" data-name="Слой 2"><g id="Capa_1" data-name="Capa 1"><line class="cls-1" x1="34.81" y1="123.79" x2="271.28" y2="123.79"/><circle cx="34.81" cy="123.79" r="4.6"/><circle cx="271.7" cy="124.21" r="4.6"/><text class="cls-2" transform="translate(13.68 143.25)">Budapest<tspan x="5.82" y="12.03">Airport</tspan><tspan x="-5.8" y="24.07">Liszt Ferenc</tspan></text><text class="cls-2" transform="translate(235.91 143.25)">Vilati Gyártó Zrt.<tspan x="26.24" y="12.03">Eger</tspan><tspan x="1.28" y="24.07">Faiskola utca 9.</tspan></text><text class="cls-2" transform="translate(135.88 143.25)">137 Km<tspan x="-3.66" y="12.03">1h 43min</tspan></text></g><g id="Icons"><path d="M138.32,105.15s-.43,1.93,0,2.47,4.57.51,5.15,0,.27-2.26.27-2.26C142.07,105.36,138.32,105.15,138.32,105.15Z"/><path d="M162.34,105.36s-.31,1.75.27,2.26,4.74.54,5.17,0,0-2.47,0-2.47S164,105.36,162.34,105.36Z"/><path d="M168.59,102.58a1.65,1.65,0,0,0-1-.61,14.3,14.3,0,0,0-.32-3.59c-.37-.69-3.76-2.37-3.76-2.37l.41-.4a10.31,10.31,0,0,0,2.49,0,1.49,1.49,0,0,0,0-1.64,6.29,6.29,0,0,0-3.22-.08c-.37.21-.33,1.23-.33,1.23-2.24-6.29-2.94-5.72-2.94-5.72H146.15s-.69-.57-2.93,5.72c0,0,0-1-.33-1.23s-2.82-.28-3.22.08a1.48,1.48,0,0,0,0,1.64,10.32,10.32,0,0,0,2.49,0l.4.4s-3.38,1.68-3.75,2.37a13.93,13.93,0,0,0-.33,3.59,1.68,1.68,0,0,0-1,.61,10.32,10.32,0,0,0,0,2.74s5.35,1.79,15.55,1.79,15.54-1.79,15.54-1.79A9.91,9.91,0,0,0,168.59,102.58ZM146.4,90.38c.65-.16,6.65,0,6.65,0s6-.16,6.65,0,2.81,5,2.65,5.63-9.3.57-9.3.57-9.14.09-9.3-.57S145.75,90.55,146.4,90.38ZM145.13,102c-.61.33-5.42-1.22-5.42-1.22V98.83a20.17,20.17,0,0,1,3.22.53C144.2,99.73,145.75,101.64,145.13,102Zm13.51,4c-.08.41-5.59.49-5.59.49s-5.51-.08-5.59-.49-.29-2.08.16-2.21,5.43,0,5.43,0,5-.12,5.42,0S158.72,105.52,158.64,105.93Zm7.75-5.18S161.57,102.3,161,102s.94-2.24,2.21-2.61a20.17,20.17,0,0,1,3.22-.53Z"/><path class="cls-3" d="M34.65,1c16,.32,29.45,10.5,33.56,25.64a34.34,34.34,0,0,1-2.73,25.2q-12,23.72-24,47.4c-1.1,2.19-2.21,4.37-3.31,6.55a3.63,3.63,0,0,1-3.39,2.17,3.7,3.7,0,0,1-3.5-2.19C22,87.3,12.47,69,3.4,50.42-6.48,30.22,6.19,5.76,28.33,1.75,30.41,1.37,32.54,1.22,34.65,1Zm.12,60.64c14,.16,25.73-11.47,25.91-25.74a25.87,25.87,0,1,0-51.74-.07C8.8,50,20.26,61.43,34.77,61.6Z"/><path class="cls-3" d="M25.45,53.09c-.83-1.51-1.63-3-2.51-4.53a3.45,3.45,0,0,0-1.16-1.15c-1.48-.89-3-1.7-4.55-2.56a1.35,1.35,0,0,1,1.51-1c1.45,0,2.91,0,4.36,0a1.33,1.33,0,0,0,.94-.3c2.38-2.94,4.72-5.92,7.14-9-1.25-.63-2.43-1.27-3.66-1.81-.23-.1-.67.14-1,.32s-.64.95-1.29.35-.12-.92.24-1.3a2,2,0,0,0,.18-.31l-7-3.51c1.07-1.4,2-2.3,3.94-2,4.45.69,8.94,1.07,13.41,1.6a2.59,2.59,0,0,0,2.27-.75c1.87-1.69,3.79-3.32,5.79-4.84a8.79,8.79,0,0,1,2.94-1.41c1.82-.51,3,.69,2.43,2.48a11.32,11.32,0,0,1-1.68,3.28c-1.48,1.95-3.1,3.79-4.73,5.61a2.16,2.16,0,0,0-.59,1.9c.56,4.61,1,9.23,1.66,13.83.26,1.81-.73,2.64-2,3.72l-3.57-7.05c-.26.19-.42.41-.6.43A1.51,1.51,0,0,1,37,45a.9.9,0,0,1,0-.86c.94-.71.58-1.41.14-2.19s-.93-1.82-1.43-2.8c-2.64,2.1-5.17,4.22-7.82,6.17a3.07,3.07,0,0,0-1.47,3.08,17,17,0,0,1,0,3.19,6.65,6.65,0,0,1-.52,1.56Z"/><path class="cls-4" d="M271.54,0c16,.32,29.45,10.5,33.56,25.64a34.34,34.34,0,0,1-2.73,25.2q-12,23.72-24,47.4c-1.1,2.19-2.21,4.36-3.31,6.55a3.65,3.65,0,0,1-3.39,2.17,3.7,3.7,0,0,1-3.5-2.19C258.87,86.34,249.36,68,240.29,49.46,230.41,29.26,243.08,4.8,265.22.79,267.3.41,269.43.26,271.54,0Zm.12,60.64c14,.16,25.73-11.47,25.91-25.74a25.87,25.87,0,1,0-51.74-.07C245.69,49,257.16,60.47,271.66,60.64Z"/><path class="cls-5" d="M271.62,9.51a25.21,25.21,0,1,0,25.21,25.21A25.21,25.21,0,0,0,271.62,9.51Zm0,49.77a24.56,24.56,0,1,1,24.56-24.56A24.56,24.56,0,0,1,271.62,59.28Z"/><path class="cls-6" d="M271.62,10.16a24.56,24.56,0,1,0,24.56,24.56A24.56,24.56,0,0,0,271.62,10.16Zm0,45.85a21.29,21.29,0,1,1,21.29-21.29A21.29,21.29,0,0,1,271.62,56Z"/><path class="cls-6" d="M271.62,13.43a21.29,21.29,0,1,0,21.29,21.29A21.29,21.29,0,0,0,271.62,13.43Zm0,42a20.74,20.74,0,1,1,20.74-20.74A20.74,20.74,0,0,1,271.62,55.46Z"/><path class="cls-7" d="M271.62,13.43a21.29,21.29,0,1,0,21.29,21.29A21.29,21.29,0,0,0,271.62,13.43Zm0,42a20.74,20.74,0,1,1,20.74-20.74A20.74,20.74,0,0,1,271.62,55.46Z"/><polygon class="cls-8" points="271.75 24.28 270.97 24.28 278.63 39.61 286.66 24.25 271.75 24.28"/><polygon class="cls-9" points="256.57 24.31 271.94 52.42 276.75 43.2 267.31 24.29 256.57 24.31"/><polyline class="cls-10" points="270.97 24.28 278.62 28.86 286.66 24.25"/><polygon class="cls-11" points="278.63 39.61 274.84 31.98 270.97 24.29 279.38 29.31 278.88 34.77 278.63 39.61"/><polygon class="cls-12" points="272.93 25.04 272.28 25.04 278.67 37.84 285.38 25.02 272.93 25.04"/><polyline class="cls-13" points="276.75 43.2 269.97 42.93 263.84 28.54 267.31 24.29"/><polygon class="cls-14" points="272.61 46.06 271.94 52.42 256.57 24.31 261.24 26.61 272.61 46.06"/><polyline class="cls-15" points="267.31 24.29 263.84 28.54 256.57 24.31"/><polygon class="cls-4" points="257.86 25.04 271.89 50.72 275.84 43.17 266.73 25.02 257.86 25.04"/></g></g></svg>