<svg width="713" height="76" viewBox="0 0 713 76" fill="none" xmlns="http://www.w3.org/2000/svg">
<g opacity="0.04">
<path d="M632.635 0.672378L619.985 66.2134C619.694 67.5628 619.149 68.8446 618.38 69.9909C617.778 70.9513 617.047 71.8252 616.209 72.588L615.926 72.8241C614.946 73.5313 613.884 74.1179 612.763 74.5712C611.586 75.0164 610.34 75.2559 609.082 75.2795C607.928 75.2489 606.784 75.0582 605.683 74.7128C604.32 74.1524 603.12 73.2596 602.19 72.1158L572.265 32.9706L564.335 74.3352H544.699L557.397 9.07748C557.725 7.13975 558.63 5.34608 559.993 3.93055C561.184 2.55098 562.667 1.45415 564.335 0.719644C566.229 -0.00860137 568.291 -0.188682 570.282 0.200152C572.192 0.663621 573.87 1.80447 575.002 3.41106L605.022 42.1313L613.094 0.672378L632.635 0.672378Z" fill="#202F47"/>
<path d="M295.384 0.672363L291.655 20.2685L223.969 20.2685L225.951 9.88026C226.175 8.5104 226.725 7.21457 227.556 6.1026C228.136 5.07136 228.904 4.1583 229.822 3.41104C230.724 2.56818 231.782 1.91056 232.937 1.47516C234.219 0.982258 235.576 0.710756 236.949 0.672363L295.384 0.672363Z" fill="#7A1120"/>
<path d="M284.952 54.8806L281.035 74.3351L213.632 74.3351L217.408 54.5027L222.411 27.7764L284.811 27.7764L280.94 47.3254L238.459 47.3254L237.09 54.4084C237.127 54.5637 237.127 54.7253 237.09 54.8806L284.952 54.8806Z" fill="#202F47"/>
<path d="M98.9333 0.719727L97.0452 10.1637L96.4316 13.3746L84.537 74.1463H64.9014L70.3295 46.0505L51.4491 70.7465C50.4475 72.1839 49.0781 73.3256 47.4842 74.0519C46.0209 74.788 44.4018 75.1604 42.7641 75.1379C41.1093 75.1118 39.487 74.6737 38.044 73.863C36.4747 72.8802 35.2786 71.401 34.6455 69.6604L25.2053 44.8229L19.73 74.3352H0L10.6202 19.5131L12.6971 8.88864L14.2547 0.766848L29.9726 0.766848L31.5775 4.96947L37.1944 19.7964L47.3426 46.3811L74.1055 11.5329L79.7225 4.35559L82.4129 0.955767L98.9333 0.719727Z" fill="#202F47"/>
<path d="M207.213 54.8806L203.484 74.3351L145.71 74.3351C144.326 74.3494 142.956 74.0592 141.698 73.4852C140.594 72.9545 139.613 72.1985 138.818 71.2659C138.01 70.2417 137.445 69.0467 137.166 67.7715C137.002 66.5177 137.002 65.2478 137.166 63.994L149.486 0.672363L169.074 0.672363L158.643 54.8806L207.213 54.8806Z" fill="#202F47"/>
<path d="M134.003 0.719727L128.15 30.4681L119.56 74.3352H99.9714L100.868 69.8493L114.321 0.719727L134.003 0.719727Z" fill="#202F47"/>
<path d="M712.877 0.672363L709.148 20.2685L641.462 20.2685L643.397 9.88026C643.649 8.5186 644.196 7.22886 645.002 6.1026C645.598 5.08307 646.365 4.1728 647.267 3.41104C648.193 2.54066 649.285 1.8662 650.477 1.4279C651.751 0.96927 653.089 0.714288 654.442 0.672363L712.877 0.672363Z" fill="#7A1120"/>
<path d="M702.445 54.9277L698.528 74.3351L652.223 74.3351H650.619H630.983L634.853 54.2667L635.231 52.0945L635.514 50.8196L636.222 46.9948L639.857 27.7764L702.256 27.7764L698.339 47.3725L655.858 47.3725L654.489 54.4084C654.474 54.5812 654.474 54.7549 654.489 54.9277L702.445 54.9277Z" fill="#202F47"/>
<path d="M539.697 19.3713C539.719 18.9939 539.719 18.6155 539.697 18.2381C539.597 18.0096 539.518 17.7726 539.461 17.5298V17.5298C538.483 14.1759 536.773 11.0808 534.455 8.46778C532.137 5.85479 529.268 3.78904 526.055 2.41949C522.247 0.758198 518.126 -0.063202 513.972 0.0112346L497.829 0.0112346C493.441 0.00395178 489.089 0.804265 484.991 2.37222C481.034 3.82649 477.348 5.93332 474.087 8.60525C471.283 10.9675 468.849 13.7372 466.865 16.8216V17.1993C466.542 17.5448 466.257 17.9248 466.016 18.3325C463.939 21.7972 462.441 25.577 461.579 29.5235C461.561 29.7751 461.561 30.0276 461.579 30.2791L459.03 43.2645C458.182 47.4878 458.182 51.8378 459.03 56.0611C459.818 59.801 461.431 63.3177 463.75 66.355C466.178 69.2886 469.268 71.6029 472.766 73.1074C476.602 74.7262 480.733 75.5301 484.896 75.4684H501.181C505.519 75.4787 509.822 74.6946 513.878 73.1546C517.837 71.7018 521.499 69.5418 524.687 66.78C528.026 64.0275 530.868 60.7211 533.088 57.0054C535.323 53.2159 536.917 49.0839 537.808 44.7756L540.169 32.2151C540.368 31.637 540.48 31.0321 540.499 30.4207C540.92 26.7197 540.648 22.9726 539.697 19.3713V19.3713ZM520.344 29.7597V30.0903C520.321 30.31 520.321 30.5316 520.344 30.7513L517.937 43.0285C517.575 44.9262 516.888 46.7471 515.907 48.4114C514.63 50.7325 512.728 52.6488 510.417 53.9425C508.106 55.2363 505.478 55.8558 502.833 55.7306H486.548C484.935 55.8069 483.325 55.533 481.828 54.9278C480.72 54.5157 479.754 53.7947 479.043 52.8501C478.296 51.9183 477.793 50.8146 477.58 49.6392C477.251 47.9711 477.251 46.2547 477.58 44.5866L479.987 32.0262C479.987 31.6484 480.082 31.3179 480.271 31.0346V30.5153C480.538 29.1884 481.016 27.9129 481.687 26.7376C482.558 25.2529 483.657 23.9145 484.943 22.7712C486.398 21.7302 487.986 20.8885 489.663 20.2685H489.994C491.508 19.7188 493.104 19.4314 494.714 19.4186H510.951C512.439 19.3746 513.92 19.6481 515.294 20.2213H515.718H516.049L516.757 20.5518L517.937 21.449C518.134 21.6146 518.308 21.8051 518.456 22.0156C519.241 23.0424 519.775 24.2394 520.014 25.51C520.346 26.9005 520.457 28.3346 520.344 29.7597V29.7597Z" fill="#202F47"/>
<path d="M370.103 44.3506C370.394 46.9109 370.218 49.5028 369.584 52.0002C369.113 54.4793 368.336 56.8902 367.271 59.1775C366.133 61.2327 364.805 63.1772 363.306 64.9856C361.931 66.6359 360.344 68.0967 358.586 69.3299C356.957 70.4495 355.217 71.3988 353.394 72.163C351.654 72.8754 349.853 73.4286 348.013 73.8157C346.461 74.1471 344.88 74.3212 343.293 74.3352L292.174 74.3352L295.95 54.8807L345.417 54.8807C346.647 54.9101 347.849 54.5092 348.815 53.7473C349.719 52.8801 350.302 51.7312 350.467 50.4891C350.556 49.8943 350.556 49.2897 350.467 48.6949C350.446 48.4402 350.328 48.2033 350.137 48.0338C349.987 47.805 349.774 47.6246 349.523 47.5144C349.085 47.4524 348.64 47.4524 348.202 47.5144H320.778C318.293 47.5034 315.824 47.1051 313.462 46.3339C310.867 45.4109 308.489 43.9643 306.476 42.084C304.271 40.0202 302.644 37.4159 301.756 34.529C301.291 33.1438 301.052 31.693 301.048 30.232C300.806 27.989 300.95 25.7212 301.473 23.5267C301.845 21.3587 302.495 19.2479 303.408 17.2466C304.035 15.7172 304.826 14.2605 305.768 12.9023C307.676 10.2294 310.022 7.89861 312.707 6.00826C315.082 4.23441 317.75 2.89186 320.589 2.04182C323.069 1.28566 325.644 0.888139 328.236 0.861328L373.407 0.861328L369.678 20.4575L325.781 20.4575C325.208 20.4123 324.631 20.4854 324.087 20.6722C323.543 20.859 323.043 21.1556 322.619 21.5436C321.635 22.3943 320.983 23.5647 320.778 24.8489C320.458 25.685 320.458 26.6099 320.778 27.446C321.33 27.8665 322.025 28.053 322.713 27.9654L350.326 27.9654C353.753 27.9394 357.131 28.7842 360.143 30.4208C361.759 31.2305 363.253 32.2639 364.58 33.4902C365.956 34.8964 367.131 36.4853 368.073 38.2121C369.076 40.1358 369.761 42.2085 370.103 44.3506V44.3506Z" fill="#202F47"/>
<path d="M458.463 0.719727L454.498 20.2686L428.16 20.2686L426.225 30.4681L417.682 74.3352H398.046L408.525 20.2686L381.998 20.2686L385.915 0.719727L458.463 0.719727Z" fill="#202F47"/>
<path d="M619.938 66.2134L620.41 63.7579H620.457L632.635 0.719727" fill="#202F47"/>
</g>
</svg>
