<svg xmlns="http://www.w3.org/2000/svg" xmlns:xlink="http://www.w3.org/1999/xlink" viewBox="0 0 221.52 269.36"><defs><style>.cls-1{opacity:0.19;}.cls-2{fill:url(#Degradado_sin_nombre_7);}.cls-3{fill:url(#Degradado_sin_nombre_9);}.cls-4{fill:url(#Degradado_sin_nombre_4);}.cls-5{fill:url(#Degradado_sin_nombre_6);}.cls-6{fill:#a3110a;}.cls-7{fill:url(#Degradado_sin_nombre_4-2);}.cls-8{fill:url(#Degradado_sin_nombre_8);}.cls-9{fill:url(#Degradado_sin_nombre_4-3);}.cls-10{fill:#a5110a;}</style><linearGradient id="Degradado_sin_nombre_7" x1="164.48" y1="47.98" x2="295.65" y2="112.5" gradientUnits="userSpaceOnUse"><stop offset="0.15" stop-color="#c36b66"/><stop offset="0.47" stop-color="#a5110a"/><stop offset="0.5" stop-color="#860e08"/><stop offset="0.56" stop-color="#3e0604"/><stop offset="0.6" stop-color="#110201"/><stop offset="0.63"/></linearGradient><linearGradient id="Degradado_sin_nombre_9" x1="44.21" y1="93.01" x2="215.62" y2="181.85" gradientUnits="userSpaceOnUse"><stop offset="0" stop-color="#c36b66"/><stop offset="0.8" stop-color="#a5110a"/><stop offset="0.82" stop-color="#860e08"/><stop offset="0.87" stop-color="#3e0604"/><stop offset="0.91" stop-color="#110201"/><stop offset="0.93"/></linearGradient><linearGradient id="Degradado_sin_nombre_4" x1="179.95" y1="-21.53" x2="178.64" y2="146.73" gradientUnits="userSpaceOnUse"><stop offset="0.16" stop-color="#c36b66"/><stop offset="0.2" stop-color="#a5110a"/><stop offset="0.22" stop-color="#860e08"/><stop offset="0.28" stop-color="#3e0604"/><stop offset="0.32" stop-color="#110201"/><stop offset="0.34"/></linearGradient><linearGradient id="Degradado_sin_nombre_6" x1="899.17" y1="-516.07" x2="736.98" y2="-444.63" gradientTransform="matrix(0.59, 0.36, 0.35, 1.11, -135.46, 310.38)" gradientUnits="userSpaceOnUse"><stop offset="0.16" stop-color="#c36b66"/><stop offset="0.34" stop-color="#a5110a"/><stop offset="0.39" stop-color="#860e08"/><stop offset="0.51" stop-color="#3e0604"/><stop offset="0.6" stop-color="#110201"/><stop offset="0.64"/></linearGradient><linearGradient id="Degradado_sin_nombre_4-2" x1="161.41" y1="84" x2="50.77" y2="139" xlink:href="#Degradado_sin_nombre_4"/><linearGradient id="Degradado_sin_nombre_8" x1="-247.22" y1="289.33" x2="-452.91" y2="291.92" gradientTransform="matrix(0.88, -0.48, 0.6, 1.08, 176.89, -330.48)" gradientUnits="userSpaceOnUse"><stop offset="0.16" stop-color="#c36b66"/><stop offset="0.25" stop-color="#a5110a"/><stop offset="0.28" stop-color="#750c07"/><stop offset="0.32" stop-color="#360603"/><stop offset="0.35" stop-color="#0f0201"/><stop offset="0.36"/></linearGradient><linearGradient id="Degradado_sin_nombre_4-3" x1="51.29" y1="-11.62" x2="51.98" y2="91.12" xlink:href="#Degradado_sin_nombre_4"/></defs><g id="Слой_2" data-name="Слой 2"><g id="Capa_1" data-name="Capa 1"><g class="cls-1"><polygon class="cls-2" points="221.53 0 221.53 126.72 210.99 146.89 143.49 11.67 137.81 0.29 137.75 0.18 145.18 0.17 221.53 0"/><polygon class="cls-3" points="0 0.47 146.96 269.36 193.06 181.17 102.74 0.26 0 0.47"/><polygon class="cls-4" points="221.53 0 221.53 37.93 210.97 43.99 210.87 44.05 165.5 16.84 150.43 7.79 137.75 0.18 221.53 0"/><polygon class="cls-5" points="210.98 146.89 174.77 73.9 137.74 0.26 218.19 48.29 213.44 100.58 210.98 146.89"/><polygon class="cls-6" points="221.53 7.35 221.53 110.57 211.94 128.91 211.41 129.93 150.46 7.85 150.43 7.79 150.28 7.51 156.49 7.49 221.53 7.35"/><polygon class="cls-7" points="193.06 181.17 128.15 178.65 69.51 40.9 102.74 0.26 193.06 181.17"/><polygon class="cls-8" points="153.37 208.59 146.96 269.36 0 0.47 44.61 22.54 153.37 208.59"/><polygon class="cls-9" points="102.74 0.26 69.51 40.9 0 0.47 102.74 0.26"/><polygon class="cls-10" points="12.3 7.45 146.53 253.12 184.33 180.88 97.19 7.24 12.3 7.45"/></g></g></g></svg>