<svg width="502" height="349" viewBox="0 0 502 349" fill="none" xmlns="http://www.w3.org/2000/svg">
<g clip-path="url(#clip0_26_2068)">
<g style="mix-blend-mode:overlay">
<path d="M385.325 37.1779L503.167 -36.2574L429.731 -154.099L311.89 -80.6634L385.325 37.1779Z" stroke="white" stroke-width="6.03" stroke-miterlimit="10"/>
<path d="M378.083 68.3441L534.319 -29.0179L436.957 -185.254L280.721 -87.8921L378.083 68.3441Z" stroke="white" stroke-width="5.46" stroke-miterlimit="10"/>
<path d="M370.857 99.4996L565.48 -21.7838L444.196 -216.406L249.574 -95.1231L370.857 99.4996Z" stroke="white" stroke-width="4.9" stroke-miterlimit="10"/>
<path d="M363.626 130.647L596.635 -14.5582L451.431 -247.567L218.421 -102.363L363.626 130.647Z" stroke="white" stroke-width="4.33" stroke-miterlimit="10"/>
<path d="M356.392 161.807L627.796 -7.3241L458.665 -278.728L187.261 -109.597L356.392 161.807Z" stroke="white" stroke-width="3.77" stroke-miterlimit="10"/>
<path d="M349.158 192.968L658.948 -0.0845947L465.896 -309.875L156.105 -116.823L349.158 192.968Z" stroke="white" stroke-width="3.2" stroke-miterlimit="10"/>
<path d="M341.924 224.129L690.109 7.14954L473.13 -341.036L124.944 -124.057L341.924 224.129Z" stroke="white" stroke-width="2.64" stroke-miterlimit="10"/>
<path d="M334.693 255.276L721.265 14.3752L480.364 -372.197L93.7918 -131.296L334.693 255.276Z" stroke="white" stroke-width="2.07" stroke-miterlimit="10"/>
<path d="M327.45 286.442L752.417 21.6146L487.59 -403.352L62.6228 -138.525L327.45 286.442Z" stroke="white" stroke-width="1.51" stroke-miterlimit="10"/>
<path d="M320.224 317.598L783.578 28.8488L494.829 -434.505L31.4755 -145.756L320.224 317.598Z" stroke="white" stroke-width="0.94" stroke-miterlimit="10"/>
<path d="M312.985 348.75L814.733 36.0745L502.058 -465.674L0.309416 -152.998L312.985 348.75Z" stroke="white" stroke-width="0.38" stroke-miterlimit="10"/>
</g>
</g>
<defs>
<clipPath id="clip0_26_2068">
<rect width="815" height="349" fill="white" transform="translate(815 349.001) rotate(-180)"/>
</clipPath>
</defs>
</svg>
