<svg width="341" height="620" viewBox="0 0 341 620" fill="none" xmlns="http://www.w3.org/2000/svg">
<path d="M229.236 408.868L218.867 394.778L226.401 388.343L239.494 400.797L234.045 404.514L229.236 408.868V408.868ZM277.161 380.466L265.235 378.441L255.423 387.317L249.724 376.693L245.137 372.477L223.954 337.251L246.583 329.041L245.387 347.652L245.776 355.447L247.583 359.385L251.586 361.133L270.406 364.101L273.325 367.235L276.049 374.225L277.161 380.466Z" stroke="white" stroke-width="2" stroke-linecap="round" stroke-linejoin="round"/>
<path d="M65.1396 189.883L114.844 189.911V205.138H149.759L152.122 223.806L160.6 245.385L173.416 264.246L173.332 292.316L178.836 328.514L203.967 330.427L223.954 337.251L245.136 372.477L249.723 376.693L255.422 387.316L247.444 395.416L239.493 400.797L226.4 388.343L218.867 394.778L229.236 408.868L221.758 415.691L216.754 430.947L210.638 442.874L187.649 432.639L188.01 460.986H152.15L152.122 589.715L149.425 593.431L150.287 596.177L128.549 613.624L111.897 619.282L93.7445 619.393L74.5356 616.62L58.4123 609.769L43.1508 592.461L19.7164 553.656L25.7488 552.963L34.1162 545.446L36.3123 536.431L33.5602 502.869L30.8915 493.966L17.1868 468.309L16.1026 463.094L19.5497 453.192L20.3002 446.286L19.9388 439.934L17.9651 437.188L9.40311 431.918L7.06802 419.935L6.59544 406.954L3.67657 398.578L5.95607 392.198L5.48349 384.792L4.06575 376.915L3.67657 369.204L6.23405 350.038L6.01166 342.632L1.48047 316.032L5.1499 300.749L5.59468 293.787L1.48047 289.432L10.1537 277.976L16.2694 276.95L19.911 281.443L20.9118 287.934L23.7751 290.625L23.7473 297.531L32.3093 299.112L27.2221 284.8L26.138 278.67L25.7488 272.262L27.5001 264.108L27.7225 259.725L25.7488 255.343L23.1357 253.595L16.0748 252.236L12.3776 250.489L16.047 245.995L20.2724 244.803L24.7202 244.248L29.029 241.89L32.1147 234.429L35.5339 234.068L37.5632 237.397L39.9261 238.146L41.5941 240.836L41.0103 246.8L38.8976 256.425L39.2034 266.438L41.7886 273.15L45.6249 277.089L48.8217 276.146L50.5731 265.162L50.7676 256.702L52.1854 252.902L55.827 249.13L60.6918 252.68L65.1396 252.902L67.1689 250.433L71.6445 240.087L74.0908 235.733L65.223 239.172L57.0502 240.642L50.2673 237.868L45.6249 228.465L45.2635 223.417L47.5986 206.664L48.377 205.055L51.4904 202.448L52.1854 200.617L49.7947 195.514V184.835L54.2147 185.917L55.7436 183.115L56.8 179.287L59.7744 177.346L61.9705 178.566L63.8609 181.645L65.0284 185.722L65.1396 189.883V189.883Z" stroke="white" stroke-width="2" stroke-linecap="round" stroke-linejoin="round"/>
<path d="M277.16 380.465L278.272 386.734L278.911 415.913L275.436 452.277L277.132 456.465L274.352 459.488L269.404 480.791L265.29 487.503L254.17 500.04L250.779 508.639L243.19 512.3L241.633 515.351L232.849 549.163L231.153 552.963L227.4 555.764L225.649 562.477L223.48 577.205L219.255 582.586L206.301 590.325L203.577 592.932L201.853 601.087L197.822 606.579L193.402 610.989L190.456 615.871L186.731 610.628L187.926 605.691L190.789 600.116L192.457 592.932L189.983 589.021L184.229 588.328L172.97 589.437L172.47 583.28L170.44 583.113L167.16 585.499L162.879 587.052L157.264 587.662L152.121 589.715L152.149 460.986H188.009L187.648 432.639L210.637 442.874L216.753 430.947L221.757 415.691L229.235 408.868L234.044 404.513L239.493 400.797L247.443 395.416L255.421 387.316L265.234 378.44L277.16 380.465Z" stroke="white" stroke-width="2" stroke-linecap="round" stroke-linejoin="round"/>
<path d="M253.06 244.165L244.748 239.034L226.401 231.656L211.362 248.27L209.694 269.517L178.087 269.434L173.417 264.247L160.602 245.386L152.123 223.806L149.76 205.139H114.845V189.911L65.1406 189.883L69.6718 186.832L72.6463 182.006L73.5914 176.209L72.4517 172.187L114.595 172.52V135.491H159.656V145.809H176.586L176.641 157.126L192.125 157.154L192.181 170.772L214.892 170.578L214.809 127.059L217.311 127.475L231.155 126.365L238.966 127.114L245.388 129.167L251.003 132.301L256.313 136.295L260.594 140.678L264.096 146.142L266.404 152.383L271.935 191.104L271.852 195.958L270.907 200.063L268.322 201.81L266.431 200.618L264.652 195.486L261.845 194.294L259.315 195.791L257.063 199.286L255.868 203.364L256.313 206.664L259.204 209.299L261.956 208.939L264.096 206.859L265.264 204.224L270.434 212.406L266.181 220.644L259.76 223.14L258.509 213.932L254.172 215.235L243.192 221.171L247.862 223.113L252.754 226.108L256.674 229.686L258.509 233.32L257.425 241.059L253.06 244.165V244.165Z" stroke="white" stroke-width="2" stroke-linecap="round" stroke-linejoin="round"/>
<path d="M214.81 127.058L214.893 170.578L192.182 170.772L192.126 157.153L176.642 157.125L176.587 145.809H159.657V135.49H114.595V172.52L72.4526 172.187L69.7283 172.714L65.0859 167.638L65.6419 160.066L74.0093 139.734L75.3437 132.828L76.2332 116.657L79.9027 119.68L80.82 121.733H82.8215L90.077 100.431L96.4707 91.1386L105.644 87.2554L110.481 86.1737L123.964 80.7927L126.771 78.7678L128.495 73.3036L135.973 65.6482L137.752 60.2949L143.59 62.4584L150.15 60.4058L161.826 53L187.317 66.8686L192.46 72.6657L192.988 79.5167L192.321 88.3927L192.571 96.1313L195.935 99.432L202.023 101.873L203.885 107.809L204.219 115.131L205.803 121.733L210.779 126.337L214.81 127.058V127.058Z" fill="white" stroke="white" stroke-width="2" stroke-linecap="round" stroke-linejoin="round"/>
<path d="M209.693 269.516L211.361 288.877L212.195 313.757L223.954 337.251L203.966 330.427L178.836 328.513L173.332 292.316L173.415 264.246L178.086 269.433L209.693 269.516V269.516Z" stroke="white" stroke-width="2" stroke-linecap="round" stroke-linejoin="round"/>
<path d="M253.057 244.165L247.581 245.469L243.189 247.854L238.797 245.635L239.519 264.219L238.797 270.071L234.349 276.534L232.57 279.974L233.32 283.247L245.079 303.744L246.97 308.737L247.581 313.674L246.58 329.041L223.952 337.251L212.193 313.757L211.359 288.877L209.691 269.517L211.359 248.27L226.398 231.655L244.746 239.033L253.057 244.165V244.165Z" stroke="white" stroke-width="2" stroke-linecap="round" stroke-linejoin="round"/>
<path d="M168.333 33.5002L170.142 35.3085C169.022 37.2802 166.257 38.8552 163.667 39.2402V28.8335H167.167V26.5002H163.667V25.1235C165.02 24.6335 166 23.3502 166 21.8335C166 19.9085 164.425 18.3335 162.5 18.3335C160.575 18.3335 159 19.9085 159 21.8335C159 23.3502 159.98 24.6335 161.333 25.1235V26.5002H157.833V28.8335H161.333V39.2402C158.743 38.8552 155.978 37.2802 154.858 35.3085L156.667 33.5002L152 30.0002V33.5002C152 38.0268 157.74 41.6668 162.5 41.6668C167.26 41.6668 173 38.0268 173 33.5002V30.0002L168.333 33.5002ZM162.5 20.6668C163.142 20.6668 163.667 21.1918 163.667 21.8335C163.667 22.4752 163.142 23.0002 162.5 23.0002C161.858 23.0002 161.333 22.4752 161.333 21.8335C161.333 21.1918 161.858 20.6668 162.5 20.6668Z" fill="white"/>
<g opacity="0.4">
<path d="M278.333 129.5L280.142 131.308C279.022 133.28 276.257 134.855 273.667 135.24V124.833H277.167V122.5H273.667V121.123C275.02 120.633 276 119.35 276 117.833C276 115.908 274.425 114.333 272.5 114.333C270.575 114.333 269 115.908 269 117.833C269 119.35 269.98 120.633 271.333 121.123V122.5H267.833V124.833H271.333V135.24C268.743 134.855 265.978 133.28 264.858 131.308L266.667 129.5L262 126V129.5C262 134.027 267.74 137.667 272.5 137.667C277.26 137.667 283 134.027 283 129.5V126L278.333 129.5ZM272.5 116.667C273.142 116.667 273.667 117.192 273.667 117.833C273.667 118.475 273.142 119 272.5 119C271.858 119 271.333 118.475 271.333 117.833C271.333 117.192 271.858 116.667 272.5 116.667Z" fill="white"/>
</g>
<g opacity="0.4">
<path d="M271.333 340.5L273.142 342.308C272.022 344.28 269.257 345.855 266.667 346.24V335.833H270.167V333.5H266.667V332.123C268.02 331.633 269 330.35 269 328.833C269 326.908 267.425 325.333 265.5 325.333C263.575 325.333 262 326.908 262 328.833C262 330.35 262.98 331.633 264.333 332.123V333.5H260.833V335.833H264.333V346.24C261.743 345.855 258.978 344.28 257.858 342.308L259.667 340.5L255 337V340.5C255 345.027 260.74 348.667 265.5 348.667C270.26 348.667 276 345.027 276 340.5V337L271.333 340.5ZM265.5 327.667C266.142 327.667 266.667 328.192 266.667 328.833C266.667 329.475 266.142 330 265.5 330C264.858 330 264.333 329.475 264.333 328.833C264.333 328.192 264.858 327.667 265.5 327.667Z" fill="white"/>
</g>
<g opacity="0.4">
<path d="M305.333 389.5L307.142 391.308C306.022 393.28 303.257 394.855 300.667 395.24V384.833H304.167V382.5H300.667V381.123C302.02 380.633 303 379.35 303 377.833C303 375.908 301.425 374.333 299.5 374.333C297.575 374.333 296 375.908 296 377.833C296 379.35 296.98 380.633 298.333 381.123V382.5H294.833V384.833H298.333V395.24C295.743 394.855 292.978 393.28 291.858 391.308L293.667 389.5L289 386V389.5C289 394.027 294.74 397.667 299.5 397.667C304.26 397.667 310 394.027 310 389.5V386L305.333 389.5ZM299.5 376.667C300.142 376.667 300.667 377.192 300.667 377.833C300.667 378.475 300.142 379 299.5 379C298.858 379 298.333 378.475 298.333 377.833C298.333 377.192 298.858 376.667 299.5 376.667Z" fill="white"/>
</g>
<g opacity="0.4">
<path d="M301.833 438.5L303.642 440.308C302.522 442.28 299.757 443.855 297.167 444.24V433.833H300.667V431.5H297.167V430.123C298.52 429.633 299.5 428.35 299.5 426.833C299.5 424.908 297.925 423.333 296 423.333C294.075 423.333 292.5 424.908 292.5 426.833C292.5 428.35 293.48 429.633 294.833 430.123V431.5H291.333V433.833H294.833V444.24C292.243 443.855 289.478 442.28 288.358 440.308L290.167 438.5L285.5 435V438.5C285.5 443.027 291.24 446.667 296 446.667C300.76 446.667 306.5 443.027 306.5 438.5V435L301.833 438.5ZM296 425.667C296.642 425.667 297.167 426.192 297.167 426.833C297.167 427.475 296.642 428 296 428C295.358 428 294.833 427.475 294.833 426.833C294.833 426.192 295.358 425.667 296 425.667Z" fill="white"/>
</g>
<g opacity="0.4">
<path d="M295.833 349.5L297.642 351.308C296.522 353.28 293.757 354.855 291.167 355.24V344.833H294.667V342.5H291.167V341.123C292.52 340.633 293.5 339.35 293.5 337.833C293.5 335.908 291.925 334.333 290 334.333C288.075 334.333 286.5 335.908 286.5 337.833C286.5 339.35 287.48 340.633 288.833 341.123V342.5H285.333V344.833H288.833V355.24C286.243 354.855 283.478 353.28 282.358 351.308L284.167 349.5L279.5 346V349.5C279.5 354.027 285.24 357.667 290 357.667C294.76 357.667 300.5 354.027 300.5 349.5V346L295.833 349.5ZM290 336.667C290.642 336.667 291.167 337.192 291.167 337.833C291.167 338.475 290.642 339 290 339C289.358 339 288.833 338.475 288.833 337.833C288.833 337.192 289.358 336.667 290 336.667Z" fill="white"/>
</g>
<g opacity="0.4">
<path d="M329.833 218.5L331.642 220.308C330.522 222.28 327.757 223.855 325.167 224.24V213.833H328.667V211.5H325.167V210.123C326.52 209.633 327.5 208.35 327.5 206.833C327.5 204.908 325.925 203.333 324 203.333C322.075 203.333 320.5 204.908 320.5 206.833C320.5 208.35 321.48 209.633 322.833 210.123V211.5H319.333V213.833H322.833V224.24C320.243 223.855 317.478 222.28 316.358 220.308L318.167 218.5L313.5 215V218.5C313.5 223.027 319.24 226.667 324 226.667C328.76 226.667 334.5 223.027 334.5 218.5V215L329.833 218.5ZM324 205.667C324.642 205.667 325.167 206.192 325.167 206.833C325.167 207.475 324.642 208 324 208C323.358 208 322.833 207.475 322.833 206.833C322.833 206.192 323.358 205.667 324 205.667Z" fill="white"/>
</g>
</svg>
