<svg width="341" height="607" viewBox="0 0 341 607" fill="none" xmlns="http://www.w3.org/2000/svg">
<path fill-rule="evenodd" clip-rule="evenodd" d="M247.183 315.241C247.452 315.443 247.602 315.768 247.581 316.105L246.389 334.66L246.766 342.205L248.333 345.621L251.869 347.165L270.562 350.113C270.783 350.148 270.986 350.255 271.138 350.419L274.057 353.553C274.143 353.646 274.211 353.754 274.257 353.872L276.981 360.862C277.005 360.922 277.022 360.985 277.034 361.049L278.146 367.29C278.203 367.611 278.1 367.939 277.871 368.17C277.642 368.401 277.315 368.506 276.994 368.451L265.546 366.508L256.093 375.058C255.865 375.265 255.555 375.354 255.252 375.302C254.949 375.249 254.687 375.06 254.541 374.789L248.923 364.315L244.46 360.213C244.39 360.149 244.329 360.074 244.28 359.993L223.097 324.766C222.943 324.51 222.912 324.199 223.012 323.917C223.112 323.635 223.332 323.413 223.613 323.311L246.242 315.101C246.559 314.986 246.913 315.038 247.183 315.241ZM225.437 324.777L245.92 358.838L250.401 362.957C250.483 363.033 250.552 363.122 250.605 363.221L255.7 372.718L264.565 364.699C264.792 364.494 265.101 364.404 265.403 364.455L275.927 366.242L275.082 361.497L272.463 354.776L269.909 352.035L251.431 349.121C251.346 349.107 251.264 349.083 251.186 349.049L247.183 347.302C246.958 347.203 246.777 347.026 246.674 346.802L244.867 342.864C244.814 342.748 244.784 342.623 244.778 342.496L244.388 334.702C244.387 334.664 244.387 334.626 244.389 334.588L245.487 317.502L225.437 324.777ZM225.751 374.583C226.141 374.25 226.719 374.265 227.09 374.618L240.183 387.072C240.402 387.281 240.515 387.577 240.491 387.878C240.466 388.179 240.307 388.453 240.057 388.623L234.666 392.301L229.907 396.61L229.236 395.868L228.431 396.461L218.062 382.371C217.751 381.948 217.819 381.358 218.218 381.018L225.751 374.583ZM229.385 394.384L233.374 390.772C233.408 390.742 233.444 390.713 233.482 390.688L237.908 387.668L226.365 376.689L220.224 381.934L229.385 394.384Z" fill="white"/>
<path fill-rule="evenodd" clip-rule="evenodd" d="M59.2278 163.508C59.5385 163.306 59.9359 163.292 60.2602 163.472L62.4563 164.692C62.6066 164.776 62.7328 164.897 62.8227 165.043L64.7131 168.122C64.7605 168.199 64.7972 168.283 64.8222 168.37L65.9898 172.447C66.0129 172.528 66.0258 172.612 66.0281 172.696L66.1133 175.884L114.844 175.911C115.396 175.911 115.844 176.359 115.844 176.911V191.138H149.759C150.263 191.138 150.688 191.513 150.751 192.013L153.098 210.556L161.49 231.916L174.243 250.684C174.356 250.851 174.416 251.048 174.416 251.249L174.333 279.242L179.706 314.577L204.042 316.43C204.127 316.437 204.21 316.454 204.29 316.481L224.277 323.304C224.5 323.381 224.689 323.533 224.811 323.735L245.919 358.838L250.4 362.957C250.482 363.033 250.552 363.122 250.604 363.22L256.303 373.844C256.51 374.23 256.442 374.706 256.134 375.018L248.156 383.117C248.11 383.164 248.059 383.207 248.004 383.244L240.054 388.625C239.665 388.888 239.145 388.845 238.804 388.521L226.364 376.689L220.223 381.934L230.041 395.275C230.344 395.688 230.288 396.262 229.91 396.607L222.626 403.253L217.704 418.259C217.688 418.308 217.668 418.357 217.644 418.403L211.528 430.33C211.286 430.803 210.717 431.003 210.232 430.787L188.668 421.188L189.01 447.974C189.013 448.241 188.91 448.499 188.722 448.689C188.534 448.879 188.277 448.986 188.01 448.986H153.149L153.122 576.715C153.122 576.926 153.055 577.131 152.931 577.302L150.53 580.612L151.241 582.878C151.365 583.271 151.234 583.699 150.913 583.957L129.174 601.404C129.084 601.477 128.981 601.533 128.87 601.571L112.219 607.229C112.117 607.264 112.011 607.282 111.903 607.282L93.7506 607.393C93.7008 607.394 93.6509 607.39 93.6016 607.383L74.3927 604.609C74.3073 604.597 74.2239 604.574 74.1445 604.54L58.0212 597.689C57.8837 597.631 57.7611 597.542 57.6623 597.43L42.4007 580.122C42.3612 580.077 42.3257 580.029 42.2948 579.978L18.8604 541.173C18.6845 540.882 18.6688 540.521 18.8189 540.215C18.9689 539.91 19.2641 539.702 19.6023 539.663L25.3177 539.006L33.2178 531.909L35.3024 523.352L32.5722 490.056L29.9624 481.349L16.3047 455.78C16.2598 455.696 16.2271 455.606 16.2077 455.512L15.1236 450.298C15.0867 450.121 15.0987 449.937 15.1582 449.766L18.5678 439.971L19.2971 433.26L18.957 427.281L17.2701 424.934L8.87894 419.769C8.6409 419.623 8.47505 419.383 8.42158 419.109L6.08649 407.127C6.07653 407.075 6.07058 407.024 6.06868 406.972L5.60158 394.141L2.73226 385.907C2.65712 385.691 2.65805 385.456 2.73488 385.241L4.94496 379.056L4.48917 371.913L3.08157 364.092C3.07403 364.05 3.06917 364.008 3.06703 363.965L2.67785 356.254C2.67477 356.193 2.67728 356.132 2.68536 356.072L5.23206 336.986L5.01421 329.731L0.494675 303.2C0.471963 303.066 0.476533 302.93 0.508108 302.798L4.15743 287.599L4.56898 281.157L0.75358 277.119C0.418025 276.763 0.388268 276.218 0.683209 275.828L9.35642 264.373C9.51047 264.169 9.73649 264.032 9.98819 263.99L16.1039 262.964C16.4593 262.904 16.8194 263.04 17.0463 263.32L20.6879 267.814C20.7994 267.951 20.8724 268.116 20.8994 268.291L21.8476 274.441L24.4598 276.896C24.662 277.086 24.7762 277.351 24.7751 277.629L24.7506 283.699L30.7866 284.814L26.2799 272.135C26.2613 272.082 26.2471 272.029 26.2374 271.974L25.1532 265.844C25.1466 265.806 25.1421 265.768 25.1398 265.73L24.7506 259.323C24.7451 259.232 24.752 259.141 24.7711 259.053L26.5055 250.977L26.7115 246.916L24.9547 243.015L22.748 241.539L15.8858 240.218C15.8034 240.202 15.7234 240.176 15.6475 240.14L11.9503 238.393C11.6721 238.261 11.47 238.009 11.4022 237.709C11.3344 237.409 11.4084 237.095 11.603 236.856L15.2725 232.363C15.4023 232.204 15.5779 232.089 15.7754 232.033L20.0008 230.84C20.0492 230.827 20.0987 230.817 20.1487 230.81L24.4074 230.279L28.2397 228.182L31.1906 221.047C31.3307 220.708 31.6451 220.473 32.0098 220.434L35.4291 220.074C35.8134 220.033 36.1866 220.218 36.3878 220.548L38.2222 223.557L40.2283 224.192C40.4559 224.265 40.6502 224.416 40.7761 224.619L42.444 227.309C42.5596 227.496 42.6107 227.715 42.5893 227.934L42.0055 233.897C42.0017 233.937 41.9955 233.976 41.987 234.014L39.9009 243.518L40.1977 253.237L42.6481 259.599L45.9204 262.959L47.9336 262.365L49.5749 252.071L49.7679 243.679C49.7705 243.567 49.7917 243.457 49.8307 243.352L51.2485 239.552C51.2965 239.424 51.3705 239.306 51.4659 239.207L55.1076 235.435C55.4544 235.076 56.0131 235.028 56.4165 235.322L61.04 238.696L64.6867 238.878L66.307 236.907L70.7267 226.69C70.7404 226.659 70.7557 226.628 70.7727 226.598L71.8539 224.673L65.5846 227.104C65.5249 227.128 65.4631 227.145 65.4 227.156L57.2272 228.626C57.0402 228.66 56.8475 228.64 56.6717 228.568L49.8888 225.794C49.6629 225.702 49.4786 225.53 49.3706 225.311L44.7282 215.908C44.6709 215.792 44.6367 215.666 44.6274 215.537L44.2661 210.489C44.2611 210.419 44.2634 210.349 44.2731 210.279L46.6082 193.526C46.6226 193.423 46.653 193.322 46.6984 193.229L47.4768 191.62C47.5384 191.492 47.6264 191.379 47.7349 191.289L50.6482 188.849L51.1002 187.658L48.8891 182.938C48.8269 182.805 48.7947 182.66 48.7947 182.514V171.835C48.7947 171.528 48.9358 171.238 49.1773 171.048C49.4189 170.859 49.7342 170.791 50.0324 170.864L53.7054 171.762L54.8104 169.738L55.836 166.021C55.9009 165.786 56.0493 165.583 56.2534 165.45L59.2278 163.508ZM65.1396 176.883L64.14 176.91L64.0322 172.876L62.9371 169.052L61.2556 166.313L59.8159 165.513L57.6633 166.918L56.7076 170.381C56.6871 170.455 56.6582 170.527 56.6214 170.594L55.0925 173.396C54.8753 173.794 54.4174 173.996 53.977 173.888L50.7947 173.109V182.291L53.091 187.193C53.2057 187.438 53.2163 187.719 53.1203 187.972L52.4253 189.803C52.3646 189.963 52.2637 190.105 52.1325 190.215L49.1836 192.684L48.5673 193.958L46.2685 210.451L46.6083 215.199L50.9963 224.086L57.1594 226.606L64.9512 225.205L73.7292 221.8C74.1227 221.648 74.5697 221.759 74.8462 222.077C75.1228 222.396 75.1694 222.854 74.9627 223.222L72.5417 227.532L68.0867 237.83C68.0496 237.916 68.0007 237.996 67.9414 238.068L65.9121 240.537C65.711 240.782 65.406 240.916 65.0898 240.901L60.642 240.679C60.4473 240.669 60.2597 240.603 60.1023 240.488L55.9413 237.451L53.0495 240.447L51.7635 243.894L51.5728 252.185C51.5718 252.23 51.5677 252.275 51.5606 252.319L49.8093 263.303C49.7486 263.684 49.4744 263.996 49.1047 264.105L45.9078 265.048C45.552 265.153 45.1674 265.052 44.9085 264.786L41.0723 260.848C40.9779 260.751 40.9041 260.636 40.8555 260.509L38.2702 253.797C38.2297 253.692 38.2073 253.581 38.2038 253.468L37.8981 243.455C37.8955 243.373 37.9032 243.291 37.9208 243.21L40.0208 233.643L40.5659 228.076L39.2712 225.987L37.2611 225.35C37.031 225.277 36.8351 225.123 36.7094 224.917L35.0095 222.129L32.8114 222.361L29.9531 229.272C29.8659 229.483 29.7092 229.658 29.509 229.768L25.2002 232.125C25.0898 232.186 24.9689 232.225 24.844 232.24L20.4713 232.786L16.6221 233.872L13.9608 237.131L16.3879 238.278L23.3247 239.613C23.4558 239.639 23.5806 239.69 23.6916 239.764L26.3047 241.512C26.4604 241.616 26.5837 241.761 26.6606 241.932L28.6343 246.315C28.6995 246.459 28.7292 246.617 28.7212 246.776L28.4988 251.158C28.4961 251.212 28.4891 251.265 28.4778 251.318L26.7552 259.339L27.1327 265.552L28.1923 271.543L33.2515 285.777C33.3712 286.114 33.3021 286.489 33.0703 286.761C32.8384 287.033 32.4791 287.16 32.1277 287.095L23.5657 285.514C23.09 285.427 22.7453 285.011 22.7473 284.527L22.7733 278.055L20.227 275.663C20.0643 275.51 19.9575 275.307 19.9235 275.086L18.9639 268.863L15.8597 265.033L10.7111 265.897L2.78878 276.36L6.32158 280.1C6.51216 280.302 6.61035 280.573 6.59265 280.85L6.14787 287.812C6.14422 287.87 6.13566 287.926 6.12227 287.982L2.5007 303.066L6.99747 329.464C7.00524 329.509 7.00983 329.555 7.01122 329.602L7.23361 337.008C7.23524 337.062 7.23245 337.116 7.22527 337.17L4.67993 356.245L5.06126 363.801L6.46768 371.615C6.47443 371.653 6.47904 371.691 6.48146 371.729L6.95404 379.134C6.96271 379.27 6.94356 379.406 6.89776 379.535L4.737 385.582L7.53976 393.625C7.5726 393.719 7.59115 393.818 7.59478 393.918L8.06452 406.821L10.3008 418.296L18.4893 423.336C18.602 423.406 18.6999 423.497 18.7771 423.604L20.7509 426.35C20.8618 426.504 20.9264 426.687 20.9372 426.877L21.2986 433.229C21.3017 433.284 21.3003 433.339 21.2944 433.394L20.5438 440.3C20.5356 440.375 20.5189 440.449 20.4941 440.521L17.138 450.162L18.1366 454.965L31.7736 480.495C31.8049 480.553 31.8303 480.615 31.8494 480.679L34.5181 489.582C34.5382 489.649 34.5512 489.718 34.5569 489.788L37.309 523.35C37.3177 523.457 37.3093 523.564 37.2839 523.668L35.0878 532.683C35.0401 532.879 34.9344 533.055 34.7845 533.19L26.4171 540.707C26.2627 540.845 26.0691 540.933 25.863 540.956L21.3772 541.472L43.9603 578.867L59.0123 595.937L74.807 602.648L93.8132 605.393L111.729 605.283L128.06 599.734L149.128 582.825L148.471 580.731C148.377 580.429 148.43 580.1 148.616 579.844L151.122 576.39L151.15 447.986C151.15 447.434 151.597 446.986 152.15 446.986H186.997L186.649 419.652C186.644 419.311 186.814 418.991 187.099 418.804C187.383 418.616 187.744 418.587 188.055 418.725L210.18 428.575L215.828 417.561L220.808 402.38C220.861 402.216 220.956 402.069 221.084 401.953L227.897 395.736L218.061 382.37C217.751 381.948 217.819 381.358 218.217 381.017L225.751 374.582C226.14 374.25 226.718 374.265 227.089 374.618L239.599 386.517L246.801 381.643L254.192 374.14L248.922 364.315L244.46 360.213C244.389 360.149 244.329 360.074 244.279 359.992L223.285 325.079L203.764 318.415L178.761 316.511C178.296 316.475 177.918 316.124 177.848 315.664L172.344 279.467C172.336 279.416 172.332 279.365 172.332 279.313L172.415 251.553L159.773 232.947C159.732 232.886 159.697 232.82 159.67 232.751L151.191 211.171C151.161 211.094 151.14 211.013 151.13 210.931L148.878 193.138H114.844C114.291 193.138 113.844 192.691 113.844 192.138V177.91L65.139 177.883L65.1396 176.883Z" fill="white"/>
<path fill-rule="evenodd" clip-rule="evenodd" d="M264.563 364.699C264.791 364.493 265.1 364.403 265.402 364.455L277.327 366.479C277.744 366.55 278.071 366.875 278.144 367.291L279.256 373.559C279.265 373.61 279.27 373.661 279.272 373.712L279.911 402.891C279.912 402.931 279.91 402.97 279.907 403.008L276.455 439.128L278.059 443.09C278.204 443.448 278.13 443.858 277.868 444.142L275.267 446.971L270.378 468.017C270.354 468.122 270.313 468.222 270.257 468.313L266.142 475.026C266.112 475.076 266.077 475.123 266.038 475.167L255.036 487.572L251.709 496.006C251.617 496.24 251.44 496.43 251.213 496.539L243.928 500.054L242.573 502.708L233.817 536.414C233.803 536.468 233.784 536.52 233.762 536.57L232.066 540.37C231.997 540.526 231.888 540.662 231.751 540.764L228.279 543.356L226.63 549.676L224.47 564.351C224.444 564.523 224.375 564.686 224.267 564.823L220.042 570.204C219.966 570.3 219.873 570.382 219.768 570.445L206.911 578.125L204.491 580.441L202.831 588.294C202.802 588.433 202.743 588.564 202.659 588.679L198.628 594.17C198.598 594.212 198.565 594.251 198.529 594.287L194.195 598.61L191.312 603.388C191.138 603.676 190.83 603.857 190.493 603.87C190.156 603.883 189.836 603.725 189.64 603.45L185.915 598.208C185.748 597.972 185.69 597.675 185.759 597.393L186.954 592.456C186.973 592.379 187 592.305 187.036 592.234L189.843 586.769L191.388 580.113L189.392 576.957L184.218 576.334L173.068 577.432C172.801 577.459 172.535 577.377 172.329 577.205C172.123 577.033 171.995 576.785 171.973 576.518L171.542 571.207L170.729 571.14L167.748 573.307C167.673 573.362 167.589 573.407 167.501 573.439L163.22 574.992C163.145 575.019 163.067 575.037 162.987 575.046L157.508 575.641L152.492 577.643C152.184 577.766 151.835 577.728 151.56 577.542C151.285 577.356 151.121 577.046 151.121 576.714L151.149 447.986C151.149 447.434 151.597 446.986 152.149 446.986H186.996L186.648 419.652C186.644 419.311 186.813 418.991 187.098 418.804C187.383 418.616 187.743 418.587 188.055 418.725L210.179 428.575L215.827 417.561L220.807 402.38C220.86 402.216 220.956 402.069 221.083 401.953L228.561 395.129L228.564 395.127L233.373 390.772C233.407 390.741 233.443 390.713 233.48 390.687L238.929 386.971L238.932 386.968L246.8 381.643L254.709 373.615C254.722 373.601 254.736 373.588 254.75 373.575L264.563 364.699ZM265.545 366.508L256.113 375.039L248.155 383.117C248.109 383.164 248.058 383.207 248.004 383.244L240.056 388.623L240.053 388.625L234.664 392.301L229.909 396.607L229.906 396.609L222.625 403.253L217.703 418.259C217.687 418.308 217.667 418.357 217.643 418.403L211.527 430.33C211.285 430.803 210.716 431.003 210.231 430.787L188.668 421.188L189.009 447.974C189.013 448.241 188.909 448.499 188.721 448.689C188.533 448.879 188.277 448.986 188.009 448.986H153.149L153.121 575.239L156.893 573.733C156.977 573.7 157.066 573.678 157.156 573.668L162.651 573.071L166.686 571.607L169.852 569.304C170.046 569.164 170.284 569.097 170.522 569.116L172.552 569.283C173.04 569.323 173.427 569.71 173.466 570.199L173.884 575.342L184.131 574.333C184.203 574.325 184.276 574.326 184.348 574.335L190.103 575.028C190.401 575.064 190.667 575.233 190.828 575.487L193.302 579.397C193.445 579.624 193.492 579.898 193.431 580.158L191.763 587.342C191.745 587.422 191.716 587.5 191.679 587.573L188.87 593.042L187.81 597.421L190.387 601.048L192.546 597.472C192.588 597.403 192.638 597.338 192.696 597.281L197.061 592.925L200.919 587.669L202.598 579.725C202.64 579.528 202.74 579.349 202.885 579.21L205.609 576.602C205.664 576.55 205.724 576.505 205.788 576.466L218.583 568.823L222.53 563.797L224.659 549.331C224.662 549.313 224.665 549.294 224.669 549.276C224.673 549.259 224.677 549.241 224.681 549.224L226.432 542.512C226.49 542.292 226.62 542.099 226.802 541.963L230.346 539.317L231.902 535.831L240.665 502.1C240.683 502.029 240.709 501.961 240.742 501.897L242.299 498.846C242.398 498.651 242.559 498.494 242.755 498.399L249.992 494.908L253.24 486.673C253.283 486.565 253.345 486.464 253.422 486.377L264.483 473.905L268.467 467.406L273.378 446.262C273.417 446.094 273.499 445.939 273.616 445.812L275.968 443.254L274.509 439.652C274.449 439.503 274.426 439.342 274.441 439.182L277.91 402.877L277.274 373.833L276.298 368.333L265.545 366.508Z" fill="white"/>
<path fill-rule="evenodd" clip-rule="evenodd" d="M231.075 112.368C231.133 112.364 231.192 112.364 231.25 112.37L239.062 113.119C239.133 113.126 239.203 113.14 239.271 113.162L245.692 115.214C245.756 115.234 245.817 115.261 245.875 115.294L251.49 118.428C251.53 118.45 251.568 118.475 251.604 118.502L256.914 122.496C256.954 122.527 256.993 122.56 257.028 122.596L261.309 126.979C261.356 127.027 261.399 127.081 261.436 127.138L264.938 132.602C264.977 132.663 265.009 132.728 265.034 132.795L267.342 139.036C267.366 139.102 267.384 139.171 267.394 139.241L272.925 177.962C272.933 178.015 272.936 178.068 272.935 178.121L272.852 182.975C272.851 183.045 272.842 183.114 272.827 183.182L271.882 187.287C271.825 187.534 271.677 187.75 271.467 187.891L268.882 189.639C268.553 189.861 268.124 189.868 267.788 189.656L265.898 188.463C265.706 188.342 265.561 188.16 265.487 187.945L263.853 183.233L261.919 182.412L260.028 183.532L257.982 186.706L256.887 190.441L257.255 193.17L259.534 195.248L261.497 194.99L263.26 193.276L264.35 190.818C264.499 190.481 264.822 190.253 265.191 190.226C265.559 190.199 265.912 190.377 266.109 190.689L271.28 198.872C271.469 199.172 271.486 199.55 271.323 199.865L267.07 208.103C266.958 208.319 266.771 208.488 266.544 208.576L260.122 211.072C259.837 211.183 259.516 211.157 259.252 211.002C258.988 210.846 258.81 210.578 258.769 210.275L257.675 202.226L254.558 203.163L245.513 208.053L248.246 209.189C248.294 209.209 248.34 209.233 248.384 209.26L253.277 212.255C253.331 212.288 253.382 212.327 253.429 212.37L257.348 215.948C257.438 216.03 257.512 216.127 257.567 216.236L259.401 219.869C259.493 220.051 259.527 220.257 259.499 220.459L258.415 228.197C258.377 228.469 258.228 228.714 258.005 228.873L253.64 231.98L253.06 231.165L252.535 232.016L244.296 226.93L226.675 219.843L212.332 235.688L210.691 256.595C210.65 257.116 210.214 257.518 209.692 257.517L178.084 257.434C177.802 257.433 177.533 257.313 177.344 257.103L172.674 251.916C172.643 251.882 172.615 251.846 172.59 251.809L159.774 232.948C159.733 232.886 159.698 232.82 159.671 232.751L151.192 211.172C151.162 211.094 151.141 211.014 151.131 210.932L148.879 193.139H114.845C114.293 193.139 113.845 192.691 113.845 192.139V177.911L65.1401 177.883C64.7004 177.883 64.3125 177.596 64.1842 177.175C64.0559 176.755 64.2174 176.3 64.5822 176.054L68.934 173.124L71.6912 168.65L72.5688 163.268L71.4897 159.46C71.4038 159.157 71.4656 158.831 71.6565 158.581C71.8473 158.331 72.1449 158.185 72.4597 158.187L113.595 158.512V122.491C113.595 121.938 114.042 121.491 114.595 121.491H159.656C160.209 121.491 160.656 121.938 160.656 122.491V131.809H176.586C177.136 131.809 177.583 132.254 177.586 132.804L177.637 143.128L192.127 143.154C192.677 143.155 193.123 143.599 193.125 144.149L193.177 156.764L213.891 156.587L213.809 114.061C213.809 113.766 213.938 113.487 214.162 113.296C214.386 113.106 214.683 113.024 214.973 113.072L217.354 113.468L231.075 112.368ZM253.021 229.966L256.494 227.493L257.475 220.491L255.864 217.301L252.151 213.911L247.406 211.006L242.808 209.094C242.452 208.946 242.213 208.607 242.193 208.222C242.173 207.837 242.377 207.475 242.716 207.291L253.697 201.355C253.756 201.323 253.819 201.297 253.884 201.278L258.221 199.974C258.501 199.89 258.804 199.932 259.05 200.091C259.296 200.249 259.46 200.507 259.5 200.797L260.58 208.749L265.466 206.849L269.283 199.456L265.419 193.341L265.011 194.264C264.959 194.381 264.885 194.487 264.793 194.576L262.653 196.656C262.498 196.806 262.299 196.902 262.086 196.93L259.334 197.291C259.042 197.329 258.748 197.237 258.53 197.039L255.639 194.403C255.465 194.245 255.353 194.031 255.322 193.798L254.877 190.497C254.858 190.358 254.869 190.217 254.908 190.082L256.104 186.005C256.131 185.913 256.171 185.825 256.223 185.745L258.474 182.25C258.558 182.119 258.672 182.01 258.805 181.931L261.335 180.433C261.609 180.271 261.943 180.249 262.236 180.373L265.043 181.566C265.303 181.676 265.505 181.892 265.597 182.159L267.261 186.959L268.303 187.616L270.021 186.455L270.854 182.836L270.934 178.166L265.429 139.63L263.196 133.59L259.807 128.303L255.651 124.048L250.456 120.141L244.988 117.089L238.764 115.099L231.147 114.369L217.391 115.472C217.309 115.478 217.228 115.475 217.147 115.461L215.811 115.239L215.893 157.576C215.894 158.126 215.451 158.574 214.901 158.578L192.189 158.772C191.924 158.775 191.668 158.671 191.478 158.484C191.289 158.297 191.182 158.043 191.181 157.777L191.129 145.152L176.64 145.126C176.09 145.125 175.644 144.68 175.641 144.131L175.591 133.809H159.656C159.104 133.809 158.656 133.361 158.656 132.809V123.491H115.595V159.52C115.595 159.786 115.488 160.042 115.299 160.23C115.11 160.418 114.853 160.522 114.587 160.52L73.7775 160.198L74.5536 162.936C74.5936 163.077 74.6021 163.225 74.5785 163.37L73.6333 169.167C73.6123 169.296 73.5662 169.419 73.4977 169.531L70.5232 174.357C70.4484 174.478 70.3486 174.582 70.2304 174.662L68.4135 175.885L114.845 175.911C115.397 175.911 115.845 176.359 115.845 176.911V191.139H149.76C150.264 191.139 150.689 191.514 150.752 192.013L153.099 210.557L161.491 231.916L174.206 250.628L178.533 255.435L208.77 255.514L210.365 235.192C210.382 234.971 210.472 234.763 210.621 234.599L225.66 217.985C225.941 217.674 226.386 217.572 226.774 217.728L245.121 225.106C245.174 225.127 245.225 225.153 245.274 225.183L253.021 229.966Z" fill="white"/>
<path d="M214.81 114.058L214.893 157.578L192.182 157.772L192.126 144.153L176.642 144.125L176.587 132.809H159.657V122.49H114.595V159.52L72.4526 159.187L69.7283 159.714L65.0859 154.638L65.6419 147.066L74.0093 126.734L75.3437 119.828L76.2332 103.657L79.9027 106.68L80.82 108.733H82.8215L90.077 87.4306L96.4707 78.1386L105.644 74.2554L110.481 73.1737L123.964 67.7927L126.771 65.7678L128.495 60.3036L135.973 52.6482L137.752 47.2949L143.59 49.4584L150.15 47.4058L161.826 40L187.317 53.8686L192.46 59.6657L192.988 66.5167L192.321 75.3927L192.571 83.1313L195.935 86.432L202.023 88.8729L203.885 94.8087L204.219 102.131L205.803 108.733L210.779 113.337L214.81 114.058Z" fill="white"/>
<path fill-rule="evenodd" clip-rule="evenodd" d="M161.29 39.1556C161.597 38.9611 161.985 38.9481 162.303 39.1216L187.795 52.9902C187.897 53.0456 187.988 53.1183 188.065 53.205L193.208 59.002C193.353 59.1652 193.44 59.3713 193.457 59.5888L193.985 66.4399C193.989 66.4904 193.989 66.5412 193.985 66.5917L193.322 75.4139L193.557 82.6983L196.492 85.5783L202.395 87.9447C202.673 88.0564 202.887 88.2872 202.977 88.5735L204.839 94.5093C204.865 94.5916 204.88 94.677 204.884 94.7632L205.213 101.991L206.705 108.205L211.243 112.404L214.986 113.074L214.81 114.058L215.81 114.056L215.893 157.576C215.894 158.126 215.452 158.573 214.902 158.578L192.19 158.772C191.924 158.774 191.668 158.671 191.479 158.484C191.29 158.297 191.183 158.042 191.182 157.776L191.13 145.151L176.64 145.125C176.091 145.124 175.645 144.68 175.642 144.13L175.592 133.809H159.657C159.105 133.809 158.657 133.361 158.657 132.809V123.49H115.595V159.52C115.595 159.786 115.489 160.042 115.3 160.229C115.111 160.417 114.854 160.522 114.588 160.52L72.5445 160.187L69.9183 160.695C69.5766 160.762 69.2252 160.645 68.9904 160.389L64.348 155.313C64.1623 155.11 64.0685 154.839 64.0886 154.565L64.6446 146.992C64.6524 146.887 64.6769 146.783 64.7172 146.685L73.0465 126.446L74.3489 119.705L75.2347 103.602C75.2555 103.225 75.4862 102.893 75.8316 102.741C76.1769 102.59 76.5781 102.645 76.8691 102.885L80.5386 105.908C80.6578 106.007 80.7526 106.131 80.8156 106.272L81.4684 107.733H82.1057L89.1304 87.1082C89.1599 87.0215 89.2013 86.9392 89.2532 86.8637L95.6469 77.5718C95.7549 77.4148 95.9055 77.292 96.0809 77.2177L105.254 73.3345C105.31 73.3111 105.367 73.2927 105.426 73.2795L110.185 72.2152L123.479 66.9095L125.917 65.1508L127.541 60.0028C127.588 59.8533 127.67 59.717 127.78 59.6049L135.096 52.1142L136.803 46.9795C136.888 46.7222 137.075 46.5107 137.319 46.3934C137.564 46.276 137.845 46.263 138.099 46.3572L143.617 48.402L149.726 46.4908L161.29 39.1556ZM213.812 114.896L210.603 114.321C210.415 114.288 210.24 114.201 210.1 114.071L205.124 109.467C204.979 109.333 204.877 109.158 204.831 108.966L203.246 102.365C203.231 102.303 203.223 102.24 203.22 102.177L202.892 94.984L201.21 89.6247L195.562 87.3602C195.44 87.3111 195.328 87.2382 195.234 87.1458L191.871 83.8451C191.687 83.6649 191.58 83.4208 191.572 83.1636L191.321 75.425C191.32 75.3892 191.321 75.3534 191.324 75.3177L191.985 66.5177L191.489 60.0778L186.685 54.6633L161.864 41.1596L150.686 48.2503C150.612 48.2971 150.532 48.3341 150.449 48.3602L143.888 50.4128C143.677 50.4789 143.45 50.473 143.242 50.3961L138.375 48.5921L136.922 52.9635C136.874 53.1074 136.794 53.2385 136.688 53.3469L129.377 60.8318L127.725 66.0687C127.66 66.274 127.531 66.453 127.356 66.5789L124.549 68.6037C124.482 68.6516 124.41 68.6911 124.334 68.7214L110.852 74.1024C110.802 74.1222 110.752 74.1379 110.7 74.1496L105.951 75.2116L97.1292 78.9458L90.9791 87.8837L83.7681 109.055C83.6301 109.46 83.2496 109.733 82.8215 109.733H80.82C80.4256 109.733 80.068 109.501 79.9071 109.141L79.0855 107.303L77.1231 105.686L76.3422 119.883C76.3397 119.928 76.3341 119.973 76.3255 120.017L74.9912 126.924C74.9785 126.989 74.9594 127.053 74.9341 127.115L66.6275 147.298L66.1148 154.281L70.0883 158.626L72.2627 158.205C72.3279 158.192 72.3941 158.186 72.4605 158.187L113.595 158.512V122.49C113.595 121.938 114.043 121.49 114.595 121.49H159.657C160.21 121.49 160.657 121.938 160.657 122.49V131.809H176.587C177.137 131.809 177.584 132.253 177.587 132.804L177.637 143.127L192.128 143.153C192.678 143.154 193.124 143.599 193.126 144.149L193.178 156.764L213.891 156.586L213.812 114.896Z" fill="white"/>
<path fill-rule="evenodd" clip-rule="evenodd" d="M173.058 250.312C173.445 250.165 173.882 250.27 174.159 250.577L178.532 255.434L209.695 255.516L209.693 256.516L210.689 256.431L212.357 275.791C212.359 275.809 212.36 275.826 212.36 275.844L213.187 300.505L224.848 323.803C225.029 324.166 224.974 324.603 224.707 324.908C224.44 325.214 224.015 325.328 223.63 325.197L203.764 318.415L178.76 316.511C178.296 316.475 177.918 316.124 177.848 315.664L172.343 279.467C172.336 279.416 172.332 279.365 172.332 279.313L172.415 251.243C172.417 250.83 172.672 250.46 173.058 250.312ZM208.775 257.514L178.083 257.433C177.8 257.432 177.531 257.312 177.342 257.102L174.408 253.843L174.332 279.242L179.705 314.577L204.042 316.43C204.126 316.437 204.209 316.454 204.289 316.481L221.967 322.516L211.3 301.205C211.236 301.076 211.2 300.935 211.195 300.791L210.362 275.937L208.775 257.514Z" fill="white"/>
<path fill-rule="evenodd" clip-rule="evenodd" d="M225.657 217.984C225.938 217.674 226.383 217.571 226.772 217.728L245.119 225.106C245.172 225.127 245.222 225.153 245.271 225.183L253.583 230.314L253.057 231.165L253.289 232.138L247.942 233.411L243.666 235.733C243.378 235.889 243.031 235.895 242.738 235.747L239.862 234.294L240.519 251.18C240.521 251.234 240.519 251.288 240.512 251.341L239.789 257.194C239.769 257.354 239.712 257.506 239.62 257.638L235.208 264.049L233.626 267.107L234.262 269.878L245.947 290.247C245.973 290.293 245.996 290.341 246.014 290.39L247.905 295.383C247.933 295.457 247.952 295.535 247.962 295.614L248.574 300.551C248.581 300.614 248.583 300.677 248.579 300.739L247.578 316.106C247.552 316.502 247.295 316.845 246.921 316.981L224.293 325.191C223.816 325.364 223.285 325.152 223.058 324.699L211.299 301.205C211.235 301.076 211.199 300.935 211.194 300.791L210.361 275.937L208.695 256.603C208.69 256.548 208.69 256.493 208.694 256.438L210.362 235.192C210.38 234.971 210.47 234.763 210.618 234.599L225.657 217.984ZM250.482 230.75L244.293 226.929L226.672 219.843L212.33 235.688L210.695 256.513L212.356 275.791C212.357 275.809 212.358 275.826 212.359 275.844L213.185 300.505L224.448 323.007L245.625 315.324L246.577 300.704L245.992 295.979L244.172 291.173L232.453 270.744C232.404 270.659 232.368 270.566 232.346 270.47L231.595 267.197C231.542 266.966 231.573 266.724 231.682 266.514L233.461 263.075C233.48 263.038 233.501 263.002 233.525 262.967L237.834 256.706L238.517 251.177L237.797 232.674C237.784 232.32 237.958 231.985 238.256 231.794C238.554 231.602 238.931 231.583 239.248 231.742L243.172 233.725L247.104 231.59C247.181 231.548 247.264 231.516 247.35 231.496L250.482 230.75Z" fill="white"/>
<path d="M168.333 20.5002L170.142 22.3085C169.022 24.2802 166.257 25.8552 163.667 26.2402V15.8335H167.167V13.5002H163.667V12.1235C165.02 11.6335 166 10.3502 166 8.8335C166 6.9085 164.425 5.3335 162.5 5.3335C160.575 5.3335 159 6.9085 159 8.8335C159 10.3502 159.98 11.6335 161.333 12.1235V13.5002H157.833V15.8335H161.333V26.2402C158.743 25.8552 155.978 24.2802 154.858 22.3085L156.667 20.5002L152 17.0002V20.5002C152 25.0268 157.74 28.6668 162.5 28.6668C167.26 28.6668 173 25.0268 173 20.5002V17.0002L168.333 20.5002ZM162.5 7.66683C163.142 7.66683 163.667 8.19183 163.667 8.8335C163.667 9.47516 163.142 10.0002 162.5 10.0002C161.858 10.0002 161.333 9.47516 161.333 8.8335C161.333 8.19183 161.858 7.66683 162.5 7.66683Z" fill="white"/>
<g opacity="0.4">
<path d="M278.333 116.5L280.142 118.308C279.022 120.28 276.257 121.855 273.667 122.24V111.833H277.167V109.5H273.667V108.123C275.02 107.633 276 106.35 276 104.833C276 102.908 274.425 101.333 272.5 101.333C270.575 101.333 269 102.908 269 104.833C269 106.35 269.98 107.633 271.333 108.123V109.5H267.833V111.833H271.333V122.24C268.743 121.855 265.978 120.28 264.858 118.308L266.667 116.5L262 113V116.5C262 121.027 267.74 124.667 272.5 124.667C277.26 124.667 283 121.027 283 116.5V113L278.333 116.5ZM272.5 103.667C273.142 103.667 273.667 104.192 273.667 104.833C273.667 105.475 273.142 106 272.5 106C271.858 106 271.333 105.475 271.333 104.833C271.333 104.192 271.858 103.667 272.5 103.667Z" fill="white"/>
</g>
<g opacity="0.4">
<path d="M271.333 327.5L273.142 329.308C272.022 331.28 269.257 332.855 266.667 333.24V322.833H270.167V320.5H266.667V319.123C268.02 318.633 269 317.35 269 315.833C269 313.908 267.425 312.333 265.5 312.333C263.575 312.333 262 313.908 262 315.833C262 317.35 262.98 318.633 264.333 319.123V320.5H260.833V322.833H264.333V333.24C261.743 332.855 258.978 331.28 257.858 329.308L259.667 327.5L255 324V327.5C255 332.027 260.74 335.667 265.5 335.667C270.26 335.667 276 332.027 276 327.5V324L271.333 327.5ZM265.5 314.667C266.142 314.667 266.667 315.192 266.667 315.833C266.667 316.475 266.142 317 265.5 317C264.858 317 264.333 316.475 264.333 315.833C264.333 315.192 264.858 314.667 265.5 314.667Z" fill="white"/>
</g>
<g opacity="0.4">
<path d="M305.333 376.5L307.142 378.308C306.022 380.28 303.257 381.855 300.667 382.24V371.833H304.167V369.5H300.667V368.123C302.02 367.633 303 366.35 303 364.833C303 362.908 301.425 361.333 299.5 361.333C297.575 361.333 296 362.908 296 364.833C296 366.35 296.98 367.633 298.333 368.123V369.5H294.833V371.833H298.333V382.24C295.743 381.855 292.978 380.28 291.858 378.308L293.667 376.5L289 373V376.5C289 381.027 294.74 384.667 299.5 384.667C304.26 384.667 310 381.027 310 376.5V373L305.333 376.5ZM299.5 363.667C300.142 363.667 300.667 364.192 300.667 364.833C300.667 365.475 300.142 366 299.5 366C298.858 366 298.333 365.475 298.333 364.833C298.333 364.192 298.858 363.667 299.5 363.667Z" fill="white"/>
</g>
<g opacity="0.4">
<path d="M301.833 425.5L303.642 427.308C302.522 429.28 299.757 430.855 297.167 431.24V420.833H300.667V418.5H297.167V417.123C298.52 416.633 299.5 415.35 299.5 413.833C299.5 411.908 297.925 410.333 296 410.333C294.075 410.333 292.5 411.908 292.5 413.833C292.5 415.35 293.48 416.633 294.833 417.123V418.5H291.333V420.833H294.833V431.24C292.243 430.855 289.478 429.28 288.358 427.308L290.167 425.5L285.5 422V425.5C285.5 430.027 291.24 433.667 296 433.667C300.76 433.667 306.5 430.027 306.5 425.5V422L301.833 425.5ZM296 412.667C296.642 412.667 297.167 413.192 297.167 413.833C297.167 414.475 296.642 415 296 415C295.358 415 294.833 414.475 294.833 413.833C294.833 413.192 295.358 412.667 296 412.667Z" fill="white"/>
</g>
<g opacity="0.4">
<path d="M295.833 336.5L297.642 338.308C296.522 340.28 293.757 341.855 291.167 342.24V331.833H294.667V329.5H291.167V328.123C292.52 327.633 293.5 326.35 293.5 324.833C293.5 322.908 291.925 321.333 290 321.333C288.075 321.333 286.5 322.908 286.5 324.833C286.5 326.35 287.48 327.633 288.833 328.123V329.5H285.333V331.833H288.833V342.24C286.243 341.855 283.478 340.28 282.358 338.308L284.167 336.5L279.5 333V336.5C279.5 341.027 285.24 344.667 290 344.667C294.76 344.667 300.5 341.027 300.5 336.5V333L295.833 336.5ZM290 323.667C290.642 323.667 291.167 324.192 291.167 324.833C291.167 325.475 290.642 326 290 326C289.358 326 288.833 325.475 288.833 324.833C288.833 324.192 289.358 323.667 290 323.667Z" fill="white"/>
</g>
<g opacity="0.4">
<path d="M329.833 205.5L331.642 207.308C330.522 209.28 327.757 210.855 325.167 211.24V200.833H328.667V198.5H325.167V197.123C326.52 196.633 327.5 195.35 327.5 193.833C327.5 191.908 325.925 190.333 324 190.333C322.075 190.333 320.5 191.908 320.5 193.833C320.5 195.35 321.48 196.633 322.833 197.123V198.5H319.333V200.833H322.833V211.24C320.243 210.855 317.478 209.28 316.358 207.308L318.167 205.5L313.5 202V205.5C313.5 210.027 319.24 213.667 324 213.667C328.76 213.667 334.5 210.027 334.5 205.5V202L329.833 205.5ZM324 192.667C324.642 192.667 325.167 193.192 325.167 193.833C325.167 194.475 324.642 195 324 195C323.358 195 322.833 194.475 322.833 193.833C322.833 193.192 323.358 192.667 324 192.667Z" fill="white"/>
</g>
</svg>
